<svg xmlns="http://www.w3.org/2000/svg" xmlns:xlink="http://www.w3.org/1999/xlink" viewBox="0 0 630 630">
  <defs/>
  <defs>
    <path id="a" d="M102.124 204.248c48.51 0 89.12-33.822 99.534-79.171a102.445 102.445 0 002.59-22.953c0-18.917-5.144-36.634-14.109-51.826C172.375 20.195 139.61 0 102.124 0 45.722 0 0 45.722 0 102.124c0 56.402 45.722 102.124 102.124 102.124z"/>
    <path id="c" d="M42.9 74.8l-18.7 4.4L0 51.7 42.9 0l46.2 11-17.6 52.8L121 27.5l14.3 26.4-46.2 95.7-37.4-4.4 5.5-47.3z"/>
    <path id="e" d="M84.428 283.496h415.796V21.804H84.428z"/>
    <path id="h" d="M84 290h416V-13H84z"/>
    <filter id="g" width="109.6%" height="113.2%" x="-4.8%" y="-6.3%" filterUnits="objectBoundingBox">
      <feOffset dy="1" in="SourceAlpha" result="shadowOffsetOuter1"/>
      <feGaussianBlur in="shadowOffsetOuter1" result="shadowBlurOuter1" stdDeviation="6.5"/>
      <feColorMatrix in="shadowBlurOuter1" values="0 0 0 0 0 0 0 0 0 0 0 0 0 0 0 0 0 0 0.133304196 0"/>
    </filter>
  </defs>
  <g fill="none" fill-rule="evenodd">
    <g transform="translate(3 3)">
      <mask id="b" fill="#fff">
        <use xlink:href="#a"/>
      </mask>
      <use stroke="#014242" stroke-width=".968" xlink:href="#a"/>
      <g mask="url(#b)">
        <g transform="translate(.968 -9.68)">
          <path fill="#FFCDB8" d="M139.44 147.783l-32.774 22.049c-1.404 1.448-3.54 1.304-4.794-.323l-28.576-27.79 15.263-12.454s17.788 23.033 18.107 22.69c.318-.343 20.857-8.343 22.049-9.535 1.191-1.192 11.918 1.788 10.726 5.363z"/>
          <rect width="19.665" height="39.329" x="135.925" y="115.127" fill="#014242" rx="2.98" transform="rotate(38 145.758 134.792)"/>
          <rect width="16.685" height="34.562" x="137.415" y="117.511" fill="#FFF" rx=".596" transform="rotate(38 145.758 134.792)"/>
          <rect width="11.918" height="7.151" x="145.211" y="122.764" fill="#00d36a" rx="1.192" transform="rotate(38 151.17 126.34)"/>
          <path fill="#00d36a" d="M145.885 123.42l3.756 2.935-6.691.822z"/>
          <rect width="11.918" height="7.151" x="139.914" y="132.817" fill="#00d36a" rx="1.192" transform="rotate(38 145.873 136.393)"/>
          <path fill="#00d36a" d="M149.874 141.001l-4.226-3.302 1.291 7.059z"/>
          <path fill="#0F1818" d="M39.925 192.34s22.557 16.645 23.24 15.58c.684-1.064 13.892-6.075 13.892-6.075l1.602-53.1-2.6-24.798-21.643 12.222-14.49 56.17z"/>
          <path fill="#D6274D" d="M38.557 59.59s1.465 12.548-12.822 16.834c-14.288 4.286-13.464 17.283-6.87 26.546 6.595 9.263-4.563 16.867-4.563 16.867s20.901 6.145 21.873-23.227c.972-29.372 13.88-33.735 13.88-33.735L38.558 59.59z"/>
          <path fill="#398989" d="M26.016 330.305l13.97-122.235h20.956l11.286 55.18a24.54 24.54 0 01-.475 11.757l-18.531 62.869 11.396-.554 20.544-60.104a43.043 43.043 0 001.398-23.666l-14.772-66.07-47.978-6.924-7.72 151.963 9.926-2.216z"/>
          <path fill="#FFCDB8" d="M73.892 114.763L62.705 129.31l-19.8-24.619 7.887-5.595.104-10.469.077-8.18 17.782 6.714v17.905z"/>
          <path fill="#FFF" d="M49.9 100.111s-2.141 10.808 7.028 17.187c9.17 6.378 14.708-1.387 12.318-12.202 0 0 7.675 18.996 6.985 33.279l-4.703 3.428a10.181 10.181 0 00-4.102 9.435l4.393 36.777s-15.545 14.042-43.254-4.673l4.463-54.212h-4.463l-4.729-14.42s11.179-10.108 26.065-14.599"/>
          <path fill="#014242" d="M69.124 105.474s11.552 34.61 5.134 103.091l11.552-15.49s-.917-66.798-16.686-87.6M49.46 98.92s-.373 7.097-1.2 17.9l-.362 4.576c-.34 4.169-.74 8.756-1.206 13.598-.148 1.564-.307 3.156-.466 4.776a747.195 747.195 0 01-2.149 18.953 563.475 563.475 0 01-1.71 12.474h-.005a302.645 302.645 0 01-.74 4.787c-.822 5.143-1.721 10.136-2.697 14.84a252.816 252.816 0 01-.822 3.796 160.703 160.703 0 01-2.488 9.774l-4.807-2.655-4.83-2.672-8.774-4.853-4.67-2.583-.515-.284-.006-.006-3.074-1.698.619-2.476 4.187-16.755 1.042-4.163 3.6-14.411.828-3.307 4.62-18.496.215-.869.964-3.846 3.35-13.398.838-3.362.52-.25.752-.357 4.023-1.914 10.008-4.76 3.831-1.825 1.113-.529c.005-.005.01-.005.01-.005"/>
          <path fill="#014242" d="M49.46 99.515l-2.64 9.45-.011.044-1.974 7.033-1.16 4.15-.776 2.782-2.684 1.673-7.88 4.91-2.651 1.65-1.502.94-2.145 1.335-.736-.8-1.551-1.69-1.623-1.762-6.693-7.275-1.132-1.233a97.438 97.438 0 0111.13-9.454 84.218 84.218 0 013.658-2.512 47.18 47.18 0 011.501-.963h.006c1.424-.89 2.799-1.684 4.108-2.399 4.003-2.179 7.43-3.598 9.97-4.494a45.444 45.444 0 013.707-1.137c.627-.158.995-.23 1.067-.242.005-.006.01-.006.01-.006M69.124 105.474s10.443 10.058 19.07 23.774c0 0-2.15 6.325-10.806 10.789 0 0-3.542-25.694-8.264-34.563M13.575 338.723l-2.153-9.618c-.566-2.53 1.347-4.935 3.927-4.935H25.84c3.403 0 5.598 3.622 4.038 6.663l-5.448 10.618-10.856-2.728zM100.707 353.965l-23.859-.962-30.964-1.25 4.052-7.993a15.15 15.15 0 00.817-11.76l-1.76-5.124 2.275-.348c5.28-.807 10.12 3.09 10.515 8.458l3.202-5.634c2.324-4.085 7.346-5.716 11.6-3.764l-9.868 14.374h12.045c2.318 0 4.588.331 6.754.962 6.579 1.923 12.165 6.606 15.191 13.041"/>
          <path fill="#EEA0A0" d="M69.124 87.275v15.22c-9.965-2.202-15.168-8.598-17.877-13.73l.077-8.318 17.8 6.828z"/>
          <path fill="#FFCDB8" d="M92.96 53.631c0 21.392-8.246 38.734-24.181 38.734-15.936 0-28.854-17.342-28.854-38.734 0-21.392 12.918-38.733 28.854-38.733 15.935 0 24.182 17.341 24.182 38.733"/>
          <path fill="#EEA0A0" d="M71.858 56.9c-.433 4.27-.408 7.469-.226 9.765.292 3.665 3.72 5.011 5.237 1.976 1.074-2.15 1.006-5.927-2.78-12.557-.682-1.196-2.078-.692-2.231.816"/>
          <path fill="#D6274D" d="M39.85 52.44s17.646-19.357 18.745-32.523l-1.797 16.077c-.232 2.077 1.065 4.017 3.061 4.58a4.218 4.218 0 004.988-2.339c2.03-4.48 7.043-12.516 7.043-18.25 0 0 2.201 7.988 2.38 14.76.084 3.212 1.023 5.736 4.203 5.527a5.578 5.578 0 003.455-1.509c4.277-4.02 17.319-19.067 1.966-31.042-27.361-21.343-55.745 6.193-55.886 26.61-.11 15.937 11.841 18.108 11.841 18.108"/>
          <path fill="#014242" d="M55.395 52.264a7.375 7.375 0 01-.352-.53c-.208-.305.167-1.113.905-1.5 2.94-1.564 6.582-.183 7.645 2.515.276.688.023 1.252-.34 1.186a6.655 6.655 0 00-.634-.045c-.365-.027-.717-.366-.918-.737-.779-1.568-3.203-2.41-5.114-1.113-.45.308-.966.51-1.192.224"/>
          <path fill="#014242" d="M59.248 58.788c-.035-1.739.344-4.15 2.343-5.799a1.337 1.337 0 012.185.827c.285 1.672.15 4.171-2.387 6.068-.887.664-2.118.033-2.14-1.096M79.41 52.413a7.484 7.484 0 01-.352-.53c-.207-.305.169-1.113.905-1.5 2.941-1.563 6.583-.182 7.647 2.515.275.688.02 1.252-.34 1.187a6.656 6.656 0 00-.635-.045c-.365-.028-.717-.366-.918-.738-.78-1.568-3.203-2.41-5.115-1.113-.451.307-.964.51-1.191.224"/>
          <path fill="#014242" d="M83.264 58.937c-.035-1.738.344-4.15 2.343-5.798a1.337 1.337 0 012.185.826c.285 1.672.15 4.171-2.387 6.069-.887.664-2.118.032-2.141-1.097"/>
          <path fill="#014242" fill-rule="nonzero" d="M47.385 53.333c0 6.247 5.064 11.311 11.311 11.311s11.311-5.064 11.311-11.31c0-6.247-5.064-11.312-11.31-11.312-6.248 0-11.312 5.064-11.312 11.311zm-1.5 0c0-7.076 5.735-12.812 12.811-12.812s12.812 5.737 12.812 12.812c0 7.076-5.736 12.812-12.812 12.812s-12.812-5.736-12.812-12.812zM75.989 51.545c0 6.247 5.064 11.311 11.31 11.311 6.247 0 11.311-5.064 11.311-11.31 0-6.247-5.064-11.311-11.31-11.311-6.247 0-11.311 5.064-11.311 11.31zm-1.501 0c0-7.075 5.736-12.811 12.811-12.811 7.076 0 12.812 5.736 12.812 12.811 0 7.076-5.736 12.812-12.812 12.812-7.075 0-12.811-5.736-12.811-12.812z"/>
          <path fill="#014242" fill-rule="nonzero" d="M75.084 51.247v.955h-4.172v-.955zM47.672 50.152l-.087 1.691-10.639-.692.087-1.691z"/>
          <path fill="#FFCDB8" d="M34.094 60.345c-3.343-3.458-4.108-8.067-1.71-10.294 2.398-2.227 7.051-1.229 10.394 2.23 3.342 3.458 4.107 8.067 1.71 10.294-2.399 2.226-7.052 1.228-10.394-2.23"/>
          <path fill="#014242" fill-rule="nonzero" d="M66.26 72.58a.679.679 0 01.22-.962.746.746 0 011.004.212c.041.061.137.187.285.356.253.29.557.58.907.85 2.401 1.854 5.464 1.854 9.379-1.36a.75.75 0 011.025.075.676.676 0 01-.079.982c-4.454 3.656-8.298 3.656-11.237 1.387a7.872 7.872 0 01-1.108-1.039 5.174 5.174 0 01-.397-.502z"/>
          <path fill="#FFCDB8" d="M28.064 170.512l-11.707-18.943c-1.06-1.717-2.125-4.768-.864-6.308l10.827-12.354-11.773-12.535-9.33 9.806c-6.429 6.758-6.989 17.911-1.276 25.42l19.802 26.028s-8-.817-11.404 11.434l-8.364-1.092c-1.162-.152-2.303.66-2.54 1.932-.253 1.358.516 2.63 1.675 2.933l15.3 3.986s6.569-3.41 10.468-11.003c3.107-6.049 2.735-13.563-.814-19.304"/>
          <path fill="#D2D2D2" d="M54.227 344.729a3.873 3.873 0 117.746-.001 3.873 3.873 0 01-7.746 0M100.707 353.965l-23.24-.967c1.997-5.902 5.41-9.737 8.443-12.143 6.408 1.934 11.85 6.641 14.797 13.11"/>
          <path fill="#D2D2D2" d="M45.884 351.581v4.204l54.823 1.16v-3.044z"/>
          <path fill="#014242" d="M29.997 355.96s-26.63 5.34-26.42-3.61c.022-.926.144-1.81.354-2.647 1.693-6.873 8.858-10.793 9.633-11.198l-.581-.033h.647s-.022.01-.06.033l10.755.66c4.045 3.226 5.494 7.295 5.915 10.62.448 3.498-.243 6.174-.243 6.174"/>
          <path fill="#D2D2D2" d="M29.997 355.978s-26.63 5.278-26.42-3.567a11.77 11.77 0 01.354-2.617c5.306-3.917 16.477-9.843 26.309.083.448 3.456-.243 6.1-.243 6.1"/>
          <path fill="#FFCDB8" d="M129.46 135.756l2.384-3.988c4.938-.44 7.706-.139 8.303.903.896 1.562.848 4.193-.991 3.7-1.227-.329-3.437-.26-6.63.207l-4.553 4.728 1.487-5.55zM159.676 134.028c-2.38-1.179-4.073-1.632-5.076-1.36-1.505.408-3.363 3.527-.543 4.283 2.82.756 4.917 1.95 5.392.18.316-1.18.392-2.215.227-3.103z"/>
          <path fill="#FFCDB8" d="M158.19 138.385c-2.239-1.428-3.87-2.082-4.891-1.963-1.533.18-3.69 2.853-.973 3.944 2.718 1.09 4.676 2.495 5.326.899.433-1.065.612-2.025.539-2.88z"/>
          <path fill="#FFCDB8" d="M155.96 142.106c-2.24-1.428-3.87-2.083-4.892-1.963-1.533.179-3.69 2.853-.972 3.944 2.717 1.09 4.675 2.495 5.325.898.433-1.064.612-2.024.539-2.879z"/>
          <path fill="#FFCDB8" d="M153.2 145.686c-1.831-1.32-3.18-1.899-4.049-1.738-1.302.24-3.234 2.974-.985 3.94 2.25.965 3.845 2.273 4.46.667.41-1.07.601-2.027.575-2.87z"/>
        </g>
      </g>
      <g mask="url(#b)">
        <g transform="translate(83.6 49.5)">
          <mask id="d" fill="#fff">
            <use xlink:href="#c"/>
          </mask>
          <g mask="url(#d)">
            <g stroke="#014242" stroke-width=".832" transform="translate(11 24.2)">
              <circle cx="52.8" cy="52.8" r="25.3"/>
              <circle cx="53.35" cy="52.25" r="37.95"/>
              <circle cx="52.8" cy="52.8" r="52.8"/>
            </g>
          </g>
        </g>
      </g>
    </g>
    <g transform="translate(0 226)">
      <path stroke="#014242" d="M522.472 300.795V16.769C522.472 7.546 514.915 0 505.679 0H79.555c-9.236 0-16.793 7.546-16.793 16.769v284.026H2.099c-1.154 0-2.099.943-2.099 2.096v12.89c0 .84.525 1.573 1.26 1.992 8.71 6.393 19.207 9.747 30.017 9.642h522.365c10.81.105 21.41-3.353 30.122-9.747.63-.314 1.05-1.048 1.05-1.886V302.89c.105-1.153-.84-2.096-1.994-2.096h-60.348zM63.18 300.795h459.65M1.03 316.684h583.792"/>
      <mask id="f" fill="#fff">
        <use xlink:href="#e"/>
      </mask>
      <g fill-rule="nonzero">
        <use fill="#014242" xlink:href="#e"/>
        <path fill="#F5F5F5" fill-rule="evenodd" stroke="#014242" d="M83.928 283.996V21.304h416.796v262.692H83.928z"/>
      </g>
      <g fill-rule="nonzero" mask="url(#f)">
        <use fill="#000" filter="url(#g)" xlink:href="#h"/>
        <use fill="#FFF" xlink:href="#h"/>
      </g>
      <g mask="url(#f)">
        <g transform="translate(84.572 22.378)">
          <path fill="#EEE" d="M0 0h127.996v262.363H0z"/>
          <path fill="#FFF" d="M7.24 220.952h113.516c.8 0 1.448.648 1.448 1.448V262H5.792v-39.6c0-.8.648-1.448 1.448-1.448z"/>
          <rect width="104.829" height="9.846" x="11.583" y="251.806" fill="#F8F8F8" rx=".579"/>
          <rect width="104.829" height="9.846" x="11.583" y="238.327" fill="#F8F8F8" rx=".579"/>
          <path fill="#F8F8F8" fill-rule="nonzero" d="M7.24 6.37h67.762c.8 0 1.448.65 1.448 1.449V13.9c0 .8-.648 1.448-1.448 1.448H7.24c-.8 0-1.448-.648-1.448-1.448V7.819c0-.8.648-1.448 1.448-1.448zM80.794 6.37h17.085c.8 0 1.448.65 1.448 1.449V13.9c0 .8-.648 1.448-1.448 1.448H80.794c-.8 0-1.448-.648-1.448-1.448V7.819c0-.8.648-1.448 1.448-1.448zM103.67 6.37h17.086c.8 0 1.448.65 1.448 1.449V13.9c0 .8-.648 1.448-1.448 1.448h-17.085c-.8 0-1.448-.648-1.448-1.448V7.819c0-.8.648-1.448 1.448-1.448z"/>
          <g fill-rule="nonzero">
            <path fill="#FFF" d="M7.448 22h113.517c.8 0 1.447.648 1.447 1.448v59.365c0 .8-.648 1.447-1.447 1.447H7.448c-.8 0-1.448-.648-1.448-1.447V23.447c0-.8.648-1.448 1.448-1.448z"/>
            <path fill="#F8F8F8" d="M12.37 39.375h103.672c.32 0 .579.26.579.58v8.687c0 .32-.26.579-.58.579H12.372a.58.58 0 01-.58-.58v-8.687c0-.32.26-.579.58-.579zM12.37 53.854h103.672c.32 0 .579.26.579.58v8.687c0 .32-.26.579-.58.579H12.372a.58.58 0 01-.58-.58v-8.687c0-.32.26-.579.58-.579zM12.37 68.044h103.672c.32 0 .579.26.579.579v8.687c0 .32-.26.58-.58.58H12.372a.58.58 0 01-.58-.58v-8.687c0-.32.26-.58.58-.58z"/>
          </g>
          <g fill-rule="nonzero">
            <path fill="#FFF" d="M7.448 88h113.517c.8 0 1.447.648 1.447 1.448v59.365c0 .8-.648 1.447-1.447 1.447H7.448c-.8 0-1.448-.648-1.448-1.447V89.447c0-.8.648-1.448 1.448-1.448z"/>
            <path fill="#F8F8F8" d="M12.37 105.375h103.672c.32 0 .579.26.579.58v8.687c0 .32-.26.579-.58.579H12.372a.58.58 0 01-.58-.58v-8.687c0-.32.26-.579.58-.579zM12.37 119.854h103.672c.32 0 .579.26.579.58v8.687c0 .32-.26.579-.58.579H12.372a.58.58 0 01-.58-.58v-8.687c0-.32.26-.579.58-.579zM12.37 134.044h103.672c.32 0 .579.26.579.579v8.687c0 .32-.26.58-.58.58H12.372a.58.58 0 01-.58-.58v-8.687c0-.32.26-.58.58-.58z"/>
          </g>
          <g fill-rule="nonzero">
            <path fill="#FFF" d="M7.448 155h113.517c.8 0 1.447.648 1.447 1.448v59.365c0 .8-.648 1.447-1.447 1.447H7.448c-.8 0-1.448-.648-1.448-1.447v-59.365c0-.8.648-1.448 1.448-1.448z"/>
            <path fill="#F8F8F8" d="M12.37 172.375h103.672c.32 0 .579.26.579.58v8.687c0 .32-.26.579-.58.579H12.372a.58.58 0 01-.58-.58v-8.687c0-.32.26-.579.58-.579zM12.37 186.854h103.672c.32 0 .579.26.579.58v8.687c0 .32-.26.579-.58.579H12.372a.58.58 0 01-.58-.58v-8.687c0-.32.26-.579.58-.579zM12.37 201.044h103.672c.32 0 .579.26.579.579v8.687c0 .32-.26.58-.58.58H12.372a.58.58 0 01-.58-.58v-8.687c0-.32.26-.58.58-.58z"/>
          </g>
          <path fill="#00d36a" d="M17.11 226.999h1.606l.772 6.202c.014.133.031.266.052.402.02.135.031.262.031.38h-1.074l-.531-4.263-.125-1.304h-.042l-1.418 5.567h-1.407l-1.147-4.274-.292-1.303h-.031l-.626 5.577h-1.042c0-.118.01-.255.031-.411l.063-.454.73-6.12h1.615l1.157 4.285.272 1.303h.041L17.111 227zm5.826 7.057l-.156-.636c-.25.216-.513.383-.787.5a2.129 2.129 0 01-.85.178c-.417 0-.742-.115-.975-.344-.232-.23-.349-.532-.349-.907 0-.278.066-.526.198-.745.132-.22.306-.395.521-.527.195-.118.463-.215.803-.292.34-.076.782-.139 1.324-.187v-.01c0-.446-.059-.753-.177-.923-.118-.17-.316-.256-.594-.256-.23 0-.468.045-.714.136-.247.09-.5.219-.756.385l-.396-.698c.27-.236.582-.43.933-.579.35-.15.742-.224 1.172-.224.563 0 .98.146 1.251.438.272.292.407.761.407 1.407v1.23c0 .195.007.428.02.7l.063 1.219-.938.135zm-2.033-1.355c0 .167.042.294.125.38.084.087.212.13.386.13.174 0 .37-.046.59-.14a3.01 3.01 0 00.661-.401v-.782a7.495 7.495 0 00-1.011.115c-.23.048-.393.104-.49.166a.559.559 0 00-.188.204.666.666 0 00-.073.328zm6.045-2.575c-.223 0-.435.05-.636.151-.202.101-.386.27-.553.506v3.2h-1.126v-2.898c0-.194-.007-.436-.02-.724-.015-.289-.039-.714-.074-1.277l.95-.126.197.887c.174-.292.368-.518.584-.678.215-.16.462-.24.74-.24.146 0 .278.02.396.058.118.038.223.085.313.14l-.198 1.074a1.76 1.76 0 00-.282-.057 2.553 2.553 0 00-.291-.016zm1.03-1.074l1.125-.02v4.951h-1.126v-4.93zm-.126-1.553a.703.703 0 01.74-.73.66.66 0 01.48.183c.125.121.188.28.188.474 0 .215-.068.39-.204.521a.723.723 0 01-.526.198c-.209 0-.374-.059-.495-.177a.624.624 0 01-.183-.469zm4.846 6.557l-.157-.636c-.25.216-.512.383-.787.5a2.129 2.129 0 01-.85.178c-.416 0-.741-.115-.974-.344-.233-.23-.35-.532-.35-.907 0-.278.067-.526.199-.745.132-.22.305-.395.52-.527.195-.118.463-.215.804-.292.34-.076.781-.139 1.324-.187v-.01c0-.446-.06-.753-.178-.923-.118-.17-.316-.256-.594-.256-.23 0-.467.045-.714.136-.247.09-.499.219-.756.385l-.396-.698c.271-.236.582-.43.933-.579.351-.15.742-.224 1.173-.224.563 0 .98.146 1.25.438.272.292.407.761.407 1.407v1.23c0 .195.007.428.021.7l.063 1.219-.938.135zm-2.033-1.355c0 .167.041.294.125.38.083.087.212.13.386.13.173 0 .37-.046.589-.14a3.01 3.01 0 00.662-.401v-.782a7.495 7.495 0 00-1.012.115c-.229.048-.392.104-.49.166a.559.559 0 00-.187.204.666.666 0 00-.073.328z"/>
          <path fill="#014242" d="M38.25 226.884c.52 0 .992.085 1.412.255.42.17.773.407 1.058.71.285.302.504.668.657 1.1.153.43.23.906.23 1.427 0 .542-.084 1.043-.25 1.501a3.4 3.4 0 01-.71 1.179 3.223 3.223 0 01-1.11.766 3.69 3.69 0 01-1.454.276c-.362 0-.726-.016-1.095-.047a13.544 13.544 0 01-.948-.11v-6.89a20.07 20.07 0 011.068-.12c.365-.031.745-.047 1.142-.047zm-.042 1.022c-.16 0-.328.005-.506.015-.177.01-.349.023-.516.037v5.077a9.204 9.204 0 00.855.042c.257 0 .5-.03.73-.09.23-.058.417-.137.563-.234.375-.25.65-.578.823-.985.174-.407.261-.85.261-1.33-.007-.764-.2-1.377-.579-1.84-.378-.461-.922-.692-1.631-.692zM44.283 228.917c.626 0 1.093.194 1.403.584.309.389.464.879.464 1.47 0 .139-.007.284-.021.437a3.708 3.708 0 01-.063.428h-2.971c.042.452.172.778.39.98.22.201.51.302.871.302.195 0 .42-.02.678-.057.257-.039.497-.1.72-.183l.27.793a4.31 4.31 0 01-1.866.427c-.646 0-1.176-.208-1.59-.625-.413-.417-.62-1.019-.62-1.804 0-.382.052-.742.157-1.079.104-.337.257-.629.458-.876a2.19 2.19 0 01.735-.584c.289-.142.617-.213.985-.213zm-.093.917c-.32 0-.567.108-.74.323-.174.216-.286.515-.334.897h1.897c.007-.049.01-.1.01-.151v-.141c0-.285-.067-.51-.203-.678-.135-.166-.345-.25-.63-.25zM46.71 226.175l1.126-.02v6.546c0 .153.02.262.063.328.041.066.114.1.219.1.055 0 .114-.006.177-.016.062-.01.128-.026.198-.047l.23.844a2.715 2.715 0 01-.97.188c-.34 0-.6-.097-.777-.292-.177-.194-.266-.469-.266-.823v-6.808zM48.96 229.052l1.126-.021v4.952H48.96zM48.835 227.499a.703.703 0 01.74-.73.66.66 0 01.48.183c.124.121.187.28.187.474 0 .215-.068.39-.203.521a.723.723 0 01-.527.198c-.208 0-.373-.059-.495-.177a.624.624 0 01-.182-.469zM53.346 229.865c-.215 0-.432.047-.651.141a2.57 2.57 0 00-.62.38v3.597h-1.126v-2.898c0-.194-.006-.436-.016-.724-.01-.289-.036-.714-.078-1.277l.948-.126.157.647c.243-.236.502-.414.777-.532.274-.118.578-.177.912-.177.542 0 .931.15 1.167.448.237.3.355.723.355 1.272v3.367h-1.126v-2.95c0-.396-.047-.69-.14-.88-.095-.192-.28-.288-.559-.288zM60.172 226.154v5.9c0 .195.007.425.021.689.014.264.039.657.073 1.178l-.948.125-.157-.605a2.731 2.731 0 01-.677.506 1.66 1.66 0 01-.772.182c-.278 0-.537-.06-.776-.182a1.941 1.941 0 01-.626-.506 2.506 2.506 0 01-.422-.766 2.878 2.878 0 01-.157-.964c0-.348.053-.692.157-1.032.104-.34.255-.642.453-.902a2.4 2.4 0 01.725-.636c.285-.163.604-.245.959-.245.201 0 .384.03.547.089.164.059.322.14.475.245v-3.055l1.125-.02zm-2.095 3.701c-.188 0-.346.024-.474.073a.818.818 0 00-.318.209 1.274 1.274 0 00-.308.583 3.13 3.13 0 00-.088.761c0 .515.086.923.26 1.225.174.303.431.454.772.454.18 0 .365-.044.552-.13a2.37 2.37 0 00.574-.391v-2.534a1.82 1.82 0 00-.49-.193 2.147 2.147 0 00-.48-.057zM63.35 230.126c-.223 0-.435.05-.636.151-.202.101-.386.27-.553.506v3.2h-1.125v-2.898c0-.194-.007-.436-.021-.724-.014-.289-.039-.714-.073-1.277l.948-.126.198.887c.174-.292.369-.518.584-.678.216-.16.462-.24.74-.24.146 0 .278.02.397.058.118.038.222.085.312.14l-.198 1.074a1.76 1.76 0 00-.281-.057 2.553 2.553 0 00-.292-.016zM66.319 228.896c.34 0 .646.062.917.188.271.125.5.298.688.52.188.223.332.49.433.798.1.31.151.641.151.996 0 .354-.052.697-.156 1.027-.105.33-.256.62-.454.87s-.446.452-.745.605c-.3.153-.64.23-1.022.23-.34 0-.646-.062-.917-.183a1.939 1.939 0 01-.688-.511 2.369 2.369 0 01-.438-.787 3.084 3.084 0 01-.157-1c0-.348.053-.689.157-1.023a2.69 2.69 0 01.458-.88c.202-.254.452-.46.751-.616a2.17 2.17 0 011.022-.234zm-.115.97a.985.985 0 00-.73.291 1.599 1.599 0 00-.276.522 2.53 2.53 0 00-.11.802c0 .5.1.907.298 1.22.198.313.484.47.86.47a.949.949 0 00.448-.1c.125-.066.219-.134.281-.203.119-.132.21-.31.277-.532.066-.222.099-.476.099-.76 0-.508-.098-.92-.292-1.236a.943.943 0 00-.855-.475z"/>
          <path fill="#00d36a" d="M11.909 29.942c0-.348.073-.65.219-.907a1.94 1.94 0 01.573-.636c.236-.167.51-.29.824-.37.312-.08.632-.12.959-.12.34 0 .672.04.995.12.324.08.614.186.87.318l-.322.875a5.095 5.095 0 00-.704-.203 3.933 3.933 0 00-.85-.088c-.166 0-.331.013-.495.041a1.477 1.477 0 00-.443.146.886.886 0 00-.323.287.783.783 0 00-.125.453c0 .32.132.558.396.714.264.157.584.305.96.444.263.104.524.213.781.328.257.115.483.248.678.401.194.153.35.34.469.558.118.219.177.488.177.808 0 .34-.07.641-.209.902-.139.26-.324.478-.557.651a2.44 2.44 0 01-.83.391c-.319.087-.66.13-1.02.13-.452 0-.878-.06-1.278-.182a3.67 3.67 0 01-.985-.443l.417-.865c.278.146.572.26.881.344.31.083.63.125.964.125.188 0 .369-.017.542-.052.174-.035.327-.09.46-.167a.933.933 0 00.317-.297c.08-.122.12-.27.12-.443a.802.802 0 00-.433-.746 7.017 7.017 0 00-1.027-.464c-.243-.097-.484-.2-.724-.307a2.872 2.872 0 01-.641-.391 1.836 1.836 0 01-.459-.558 1.66 1.66 0 01-.177-.797zm7.92 5.17l-.156-.635c-.25.215-.512.382-.787.5a2.129 2.129 0 01-.85.177c-.417 0-.741-.114-.974-.344-.233-.23-.35-.531-.35-.907 0-.278.067-.526.199-.745.132-.22.305-.395.52-.527.195-.118.463-.215.804-.291.34-.077.781-.14 1.324-.188v-.01c0-.445-.06-.753-.178-.923-.118-.17-.316-.256-.594-.256-.23 0-.467.046-.714.136-.247.09-.499.219-.756.386l-.396-.699c.271-.236.582-.429.933-.578.351-.15.742-.225 1.173-.225.563 0 .98.146 1.25.438.272.292.407.761.407 1.408v1.23c0 .194.007.427.021.698l.063 1.22-.938.136zm-2.032-1.355c0 .167.041.294.125.38.083.088.212.131.386.131.173 0 .37-.047.589-.14a3.01 3.01 0 00.662-.402v-.782a7.495 7.495 0 00-1.012.115c-.23.048-.392.104-.49.167a.559.559 0 00-.187.203.666.666 0 00-.073.328zm6.054-2.835c-.201 0-.406.048-.615.146a2.61 2.61 0 00-.584.375v3.597h-1.125V32.14c0-.194-.006-.436-.016-.724-.01-.289-.037-.714-.078-1.277l.948-.125.157.677c.236-.243.486-.427.75-.552a2.07 2.07 0 01.897-.188c.327 0 .596.064.808.193.212.129.366.321.464.579.243-.258.498-.45.766-.579a2.08 2.08 0 01.912-.193c.5 0 .865.151 1.095.454.23.302.344.745.344 1.329v3.305h-1.126v-2.867c0-.452-.045-.773-.136-.965-.09-.19-.257-.286-.5-.286-.202 0-.405.047-.61.14a2.732 2.732 0 00-.589.37c.007.05.01.1.01.152v3.456h-1.136v-2.867c0-.452-.045-.773-.135-.965-.09-.19-.257-.286-.5-.286zm8.286 4.19l-.156-.635c-.25.215-.513.382-.788.5a2.129 2.129 0 01-.85.177c-.416 0-.741-.114-.974-.344-.233-.23-.35-.531-.35-.907 0-.278.067-.526.199-.745.132-.22.306-.395.521-.527.195-.118.462-.215.803-.291.34-.077.782-.14 1.324-.188v-.01c0-.445-.06-.753-.177-.923-.118-.17-.317-.256-.595-.256-.229 0-.467.046-.714.136-.246.09-.498.219-.755.386l-.397-.699c.271-.236.582-.429.933-.578.351-.15.742-.225 1.173-.225.563 0 .98.146 1.251.438.271.292.407.761.407 1.408v1.23c0 .194.007.427.02.698l.063 1.22-.938.136zm-2.033-1.355c0 .167.042.294.125.38.084.088.212.131.386.131.174 0 .37-.047.589-.14a3.01 3.01 0 00.662-.402v-.782a7.495 7.495 0 00-1.011.115c-.23.048-.393.104-.49.167a.559.559 0 00-.188.203.666.666 0 00-.073.328zm6.128-2.835c-.216 0-.433.047-.652.14a2.57 2.57 0 00-.62.381v3.597h-1.126V32.14c0-.194-.005-.436-.016-.724-.01-.289-.036-.714-.078-1.277l.949-.125.156.646c.243-.236.502-.413.777-.532.274-.118.578-.177.912-.177.542 0 .931.15 1.168.448.236.3.354.723.354 1.272v3.368H36.93v-2.95c0-.397-.047-.69-.14-.882-.094-.19-.28-.286-.558-.286zm3.135-2.283h.928v1.46h1.491v.937h-1.49v2.148c0 .39.043.65.13.782.086.132.248.198.484.198.09 0 .204-.009.34-.026.135-.018.279-.04.432-.068l.208.834a4.36 4.36 0 01-1.428.25c-.41 0-.728-.114-.954-.344-.226-.23-.339-.667-.339-1.313v-2.46h-.719v-.939h.667l.25-1.46zm5.284 2.293c-.209 0-.42.033-.636.1a2.663 2.663 0 00-.626.286v3.722h-1.126V27.23l1.126-.02v3.283c.236-.18.485-.316.746-.406.26-.09.54-.136.839-.136.521 0 .903.148 1.147.443.243.296.364.721.364 1.277v3.368H45.36l-.01-2.992c0-.383-.05-.664-.151-.845-.1-.18-.283-.27-.547-.27zm5.397 4.18l-.156-.635c-.25.215-.512.382-.787.5a2.129 2.129 0 01-.85.177c-.417 0-.742-.114-.974-.344-.233-.23-.35-.531-.35-.907 0-.278.066-.526.198-.745.133-.22.306-.395.522-.527.194-.118.462-.215.802-.291.341-.077.782-.14 1.324-.188v-.01c0-.445-.059-.753-.177-.923-.118-.17-.316-.256-.594-.256-.23 0-.467.046-.714.136-.247.09-.499.219-.756.386l-.396-.699c.27-.236.582-.429.933-.578.35-.15.742-.225 1.173-.225.563 0 .98.146 1.25.438.272.292.407.761.407 1.408v1.23c0 .194.007.427.021.698l.063 1.22-.939.136zm-2.032-1.355c0 .167.041.294.125.38.083.088.212.131.385.131.174 0 .37-.047.59-.14a3.01 3.01 0 00.661-.402v-.782a7.495 7.495 0 00-1.01.115c-.23.048-.393.104-.49.167a.559.559 0 00-.188.203.666.666 0 00-.073.328z"/>
          <path fill="#014242" d="M63.334 29.983c.562 0 .98.146 1.25.438.272.292.407.761.407 1.408v1.23c0 .194.007.427.021.698l.063 1.22-.939.136-.156-.636c-.25.215-.513.382-.787.5a2.129 2.129 0 01-.85.177c-.417 0-.742-.114-.975-.344-.232-.23-.349-.531-.349-.907 0-.278.066-.526.198-.745.132-.22.306-.395.522-.527.194-.118.462-.215.802-.291.34-.077.782-.14 1.324-.188v-.01c0-.445-.059-.753-.177-.923-.118-.17-.316-.256-.594-.256-.23 0-.468.046-.714.136-.247.09-.499.219-.756.386l-.396-.699c.27-.236.582-.429.933-.578.35-.15.742-.225 1.173-.225zm.531 2.961a7.495 7.495 0 00-1.011.115c-.23.048-.393.104-.49.167a.559.559 0 00-.188.203.666.666 0 00-.073.328c0 .167.042.294.125.38.084.088.212.131.386.131.174 0 .37-.047.59-.14a3.01 3.01 0 00.661-.402v-.782zM68.148 35.175c-.334.855-.692 1.479-1.074 1.871-.382.393-.824.59-1.324.59a2.593 2.593 0 01-.553-.053v-.886c.473-.007.87-.14 1.194-.401.323-.26.606-.68.85-1.256h-.292l-1.564-4.41a1.432 1.432 0 01-.104-.532h1.157l.876 2.71c.048.167.095.34.14.517.046.177.082.363.11.557h.042l1.188-3.784h1.105c0 .097-.01.191-.031.282-.021.09-.045.173-.073.25l-1.647 4.545zM58.311 28.055h1.605l.772 6.203c.014.132.031.266.052.401.02.136.031.262.031.38h-1.074l-.531-4.263-.125-1.303h-.042l-1.418 5.567h-1.407l-1.147-4.275-.292-1.303h-.031l-.626 5.578h-1.042c0-.119.01-.256.031-.412l.063-.454.73-6.12h1.615l1.158 4.286.27 1.303h.042l1.366-5.588z"/>
          <path fill="#00d36a" d="M11.815 97.387c0-.473.064-.935.193-1.387.128-.451.321-.851.578-1.199.258-.347.584-.627.98-.839.397-.212.859-.318 1.387-.318.493 0 .93.094 1.308.282.379.187.697.441.954.76.257.32.452.696.584 1.127.132.43.198.886.198 1.365 0 .473-.064.935-.193 1.387a3.695 3.695 0 01-.578 1.199 2.92 2.92 0 01-.975.839c-.393.212-.853.318-1.381.318-.494 0-.932-.094-1.314-.282a2.791 2.791 0 01-.96-.76 3.333 3.333 0 01-.583-1.126 4.636 4.636 0 01-.198-1.366zm4.983-.115c0-.354-.04-.69-.12-1.006-.08-.316-.2-.592-.36-.829a1.836 1.836 0 00-.594-.563 1.594 1.594 0 00-.823-.208 1.564 1.564 0 00-1.053.365 2.228 2.228 0 00-.646 1.021c-.133.417-.199.831-.199 1.241 0 .355.042.69.126 1.006.083.316.205.593.364.829.16.236.36.424.6.563.24.139.516.208.829.208.243 0 .45-.036.62-.11.17-.072.31-.157.422-.255.306-.264.521-.604.646-1.021a4.3 4.3 0 00.188-1.24zm1.791-4.305l1.126-.021v6.547c0 .153.02.262.062.328.042.066.115.1.22.1.055 0 .114-.006.177-.016.062-.01.128-.027.198-.047l.229.844a2.715 2.715 0 01-.97.188c-.34 0-.599-.098-.776-.292-.177-.195-.266-.47-.266-.824v-6.807zm4.991 7.881l-.156-.636c-.25.216-.513.382-.787.5a2.129 2.129 0 01-.85.178c-.417 0-.742-.115-.975-.344-.232-.23-.349-.532-.349-.907 0-.278.066-.527.198-.746.132-.219.306-.394.522-.526.194-.118.462-.216.802-.292.34-.077.782-.14 1.324-.188v-.01c0-.445-.059-.752-.177-.923-.118-.17-.316-.255-.594-.255-.23 0-.468.045-.714.135-.247.09-.499.22-.756.386l-.396-.698c.27-.237.582-.43.933-.579.35-.15.742-.224 1.173-.224.563 0 .98.146 1.25.438.272.292.407.76.407 1.407v1.23c0 .195.007.428.021.699l.063 1.22-.939.135zm-2.033-1.355c0 .167.042.293.126.38.083.087.211.13.385.13.174 0 .37-.046.59-.14a3.01 3.01 0 00.661-.402v-.781a7.495 7.495 0 00-1.011.114c-.23.049-.393.104-.49.167a.559.559 0 00-.188.203.666.666 0 00-.073.329zm6.357-2.721h-1.188v4.003H25.58v-4.003h-.751v-.938h.75v-.876c0-.292.037-.567.11-.824a1.99 1.99 0 01.328-.672c.146-.191.334-.342.563-.454.23-.11.5-.166.814-.166.285 0 .542.045.771.135.23.09.424.198.584.323l-.417.761a2.48 2.48 0 00-.365-.15 1.542 1.542 0 00-.5-.079c-.265 0-.456.083-.574.25-.118.167-.177.4-.177.699v1.053h1.188v.938z"/>
          <path fill="#014242" d="M33.675 99.795l.042.98h-3.972V93.79h1.147v6.005z"/>
          <path fill="#014242" d="M35.987 95.719c.563 0 .98.146 1.251.438.271.292.407.76.407 1.407v1.23c0 .195.007.428.02.699l.063 1.22-.938.135-.156-.636c-.25.216-.513.382-.787.5a2.129 2.129 0 01-.85.178c-.417 0-.742-.115-.975-.344-.233-.23-.349-.532-.349-.907 0-.278.066-.527.198-.746.132-.219.306-.394.521-.526.195-.118.463-.216.803-.292.34-.077.782-.14 1.324-.188v-.01c0-.445-.059-.752-.177-.923-.118-.17-.316-.255-.594-.255-.23 0-.468.045-.714.135-.247.09-.5.22-.756.386l-.396-.698c.27-.237.582-.43.933-.579.35-.15.742-.224 1.172-.224zm.532 2.96a7.495 7.495 0 00-1.011.115c-.23.049-.393.104-.49.167a.559.559 0 00-.188.203.666.666 0 00-.073.329c0 .167.042.293.125.38.084.087.212.13.386.13.174 0 .37-.046.59-.14a3.01 3.01 0 00.661-.402v-.781zM40.801 96.918c-.222 0-.434.05-.635.15-.202.102-.386.27-.553.507v3.2h-1.126v-2.898c0-.195-.007-.436-.02-.725-.015-.288-.039-.714-.074-1.277l.949-.125.198.886c.174-.292.368-.517.584-.677.215-.16.462-.24.74-.24.146 0 .278.019.396.057.118.038.223.085.313.141l-.198 1.074a1.76 1.76 0 00-.282-.058 2.553 2.553 0 00-.292-.015zM41.529 97.262c-.007-.243.04-.46.14-.652.101-.19.239-.352.412-.485.174-.132.38-.232.616-.302.236-.07.486-.104.75-.104a2.2 2.2 0 01.876.161c.25.108.483.245.698.412l-.49.73c-.18-.111-.365-.2-.552-.266a1.687 1.687 0 00-.563-.099c-.236 0-.417.044-.542.13-.125.087-.188.197-.188.329 0 .174.092.31.276.412.185.1.423.206.715.318.396.146.743.321 1.042.526.299.205.448.523.448.954 0 .466-.18.843-.542 1.131-.361.288-.84.433-1.438.433-.341 0-.67-.052-.986-.157a2.944 2.944 0 01-.87-.458l.459-.74c.215.131.436.236.662.312.225.077.453.115.682.115.25 0 .456-.045.615-.136.16-.09.24-.215.24-.375 0-.195-.114-.35-.344-.47a7.289 7.289 0 00-.792-.343 3.678 3.678 0 01-.923-.49c-.26-.195-.394-.49-.401-.886zM47.813 95.688c.34 0 .646.062.917.187s.5.3.688.522c.188.222.332.488.433.797.1.31.151.641.151.996 0 .354-.052.696-.156 1.026-.104.33-.256.62-.454.871-.198.25-.446.452-.745.605-.299.153-.64.229-1.022.229-.34 0-.646-.06-.917-.182a1.939 1.939 0 01-.688-.511 2.369 2.369 0 01-.438-.787 3.084 3.084 0 01-.156-1.001c0-.348.052-.688.156-1.022a2.69 2.69 0 01.459-.88c.201-.254.451-.46.75-.616a2.17 2.17 0 011.022-.234zm-.115.97a.985.985 0 00-.73.291 1.599 1.599 0 00-.276.521 2.53 2.53 0 00-.11.803c0 .5.1.907.298 1.22.198.312.485.469.86.469a.949.949 0 00.448-.1c.125-.065.22-.133.282-.202.118-.133.21-.31.276-.532.066-.223.1-.476.1-.761 0-.508-.098-.92-.293-1.236a.943.943 0 00-.855-.474zM52.992 96.657c-.216 0-.433.047-.652.14a2.57 2.57 0 00-.62.381v3.597h-1.126v-2.898c0-.195-.005-.436-.015-.725-.01-.288-.037-.714-.079-1.277l.949-.125.156.647c.244-.237.503-.414.777-.532.275-.118.579-.177.912-.177.542 0 .932.149 1.168.448.236.299.354.723.354 1.272v3.367H53.69v-2.95c0-.396-.046-.69-.14-.881-.094-.191-.28-.287-.558-.287z"/>
          <path fill="#00d36a" d="M16.35 168.248v-3.065h-3.013v3.065H12.19v-6.985h1.147v2.94h3.013v-2.94h1.136v6.985H16.35zm4.543.135c-.334.855-.692 1.48-1.074 1.872-.382.392-.823.589-1.324.589a2.593 2.593 0 01-.552-.052v-.887c.472-.006.87-.14 1.193-.4.323-.261.607-.68.85-1.257h-.292l-1.564-4.41a1.432 1.432 0 01-.104-.532h1.157l.876 2.711c.049.167.095.339.14.516.046.177.082.363.11.558h.042l1.188-3.785h1.105c0 .098-.01.192-.031.282-.02.09-.045.174-.073.25l-1.647 4.545zm5.387-.073l-.156-.583c-.23.229-.476.398-.74.505a2.214 2.214 0 01-.845.162c-.528 0-.92-.15-1.178-.448-.257-.3-.385-.72-.385-1.262v-3.367l1.126-.021v2.971c0 .41.057.706.172.886.114.181.3.271.557.271.188 0 .38-.04.574-.12.194-.08.392-.206.594-.38v-3.618h1.126v2.899c0 .194.007.434.02.719.015.285.039.705.074 1.261l-.939.125zm4.126-4.18c-.215 0-.432.047-.651.14a2.57 2.57 0 00-.62.381v3.597h-1.126v-2.898c0-.195-.006-.436-.016-.725-.01-.288-.036-.714-.078-1.277l.949-.125.156.646c.243-.236.502-.413.777-.531.274-.118.578-.177.912-.177.542 0 .931.149 1.167.448.237.299.355.723.355 1.272v3.367h-1.126v-2.95c0-.397-.047-.69-.14-.881-.095-.191-.28-.287-.559-.287z"/>
          <path fill="#014242" d="M38.638 167.268l.041.98h-3.972v-6.985h1.147v6.005zM41.044 163.181c.625 0 1.092.195 1.402.584.309.39.464.88.464 1.47 0 .14-.007.285-.021.438a3.708 3.708 0 01-.063.427h-2.97c.04.452.171.779.39.98.219.202.51.303.87.303.195 0 .421-.02.678-.058.257-.038.497-.099.72-.182l.27.792a4.31 4.31 0 01-1.866.428c-.646 0-1.176-.209-1.59-.626-.413-.417-.62-1.018-.62-1.803 0-.383.052-.742.157-1.08.104-.336.257-.628.458-.875a2.19 2.19 0 01.735-.584c.289-.142.617-.214.986-.214zm-.094.918c-.32 0-.567.107-.74.323-.174.215-.285.514-.334.896h1.897c.007-.048.01-.099.01-.15v-.141c0-.285-.067-.511-.203-.678-.135-.167-.345-.25-.63-.25zM45.555 163.181c.626 0 1.093.195 1.402.584.31.39.464.88.464 1.47 0 .14-.007.285-.02.438a3.708 3.708 0 01-.063.427h-2.971c.042.452.172.779.39.98.22.202.51.303.871.303.195 0 .42-.02.678-.058.257-.038.497-.099.72-.182l.27.792a4.31 4.31 0 01-1.866.428c-.646 0-1.176-.209-1.59-.626-.413-.417-.62-1.018-.62-1.803 0-.383.052-.742.156-1.08.105-.336.258-.628.46-.875a2.19 2.19 0 01.734-.584c.289-.142.617-.214.985-.214zm-.094.918c-.32 0-.566.107-.74.323-.173.215-.285.514-.333.896h1.897c.007-.048.01-.099.01-.15v-.141c0-.285-.067-.511-.203-.678-.135-.167-.346-.25-.63-.25z"/>
        </g>
      </g>
      <g mask="url(#f)">
        <g transform="translate(227 55)">
          <path stroke="#00d36a" stroke-linecap="square" stroke-width="2.038" d="M9.509 17.41L9.5 255.5"/>
          <path fill="#014242" fill-rule="nonzero" d="M31.236 95.412l.216 2.09h3.641V99h2.887v-1.497h1.2l-.067-2.037H37.98v-5.503h-3.156l-3.588 5.45zm3.008-1.133l.795-1.389h.054v2.576h-1.632l.783-1.187zm7.137-.809c0 .769.54 1.295 1.322 1.295.796 0 1.335-.526 1.335-1.295 0-.742-.526-1.227-1.335-1.227-.782 0-1.322.485-1.322 1.227zm0 4.303c0 .768.54 1.294 1.322 1.294.796 0 1.335-.526 1.335-1.294 0-.742-.54-1.228-1.335-1.228-.782 0-1.322.486-1.322 1.228zm4.926-7.216l.62 1.807c.46-.175 1.08-.324 1.606-.324.607 0 .97.351.97.945 0 .836-.795 1.645-1.753 2.562l-1.375 1.295.134 2.158h6.205l-.135-2.158h-2.752l.365-.31c1.321-1.133 2.535-2.441 2.535-3.993 0-1.497-.984-2.737-3.17-2.737-1.564-.014-2.495.35-3.25.755zm12.196 3.223c-.526 0-.783-.323-.783-.917 0-.404.095-.674.257-.81a.753.753 0 01.485-.16c.553 0 .742.646.783 1.725a2.1 2.1 0 01-.742.162zm-3.669-.917c0 1.605 1.174 2.55 2.711 2.576.5 0 1.12-.108 1.592-.31-.284 1.093-1.08 1.713-2.55 1.713-.256 0-.404-.027-.593-.04l-.189 2.238c.216.054.634.108 1.08.108 3.506 0 5.34-2.36 5.34-5.408 0-2.212-1.079-3.965-3.695-3.965-2.32 0-3.696 1.227-3.696 3.088zm17.122 1.686l-.137-.002a2.717 2.717 0 01-.187-.011v-2.469c.162-.013.324-.013.418-.013.715 0 1.092.27 1.092 1.12 0 .58-.202.97-.445 1.16-.188.161-.445.215-.741.215zm-3.413-4.518V99h3.089v-2.374l.4.023c.066.003.13.004.193.004 2.617 0 4.074-1.564 4.074-3.56 0-2.334-1.74-3.278-4.573-3.278-1.362 0-2.562.135-3.183.216zm16.93-.068h3.952l.836 7.634c.054.472.108.93.108 1.403h-2.752l-.35-3.83-.108-2.28h-.054L86.039 99l-3.439.013-.715-3.857-.337-2.266h-.054L81.05 99h-2.724c0-.27.02-.54.048-.81l1.004-8.227h3.938l.863 3.966.283 1.78h.068l.944-5.746zM41.47 112.2l-2.203 9.58h-.093l-.467-2.353-1.886-7.227h-3.418l-1.288 10.813-.122.885a6.676 6.676 0 00-.065.815h2.26l1.008-9.674h.075l.523 2.502 1.83 7.172h2.97l2.315-9.655h.074l.225 2.502.859 7.153h2.297c0-.486-.075-.99-.15-1.513l-1.326-11h-3.417zm6.518 8.31c0 2.82 1.681 4.408 4.184 4.408a8.369 8.369 0 003.454-.766l-.522-1.587c-.785.28-1.737.41-2.484.41-1.214 0-1.98-.634-2.13-2.09h5.23c.093-.45.15-1.047.15-1.532 0-2.223-1.121-3.829-3.512-3.829-2.745 0-4.37 2.204-4.37 4.987zm4.22-3.137c.916 0 1.346.58 1.346 1.513 0 .15 0 .355-.02.523H50.51c.149-1.289.672-2.036 1.699-2.036zm5.36 1.009c.019 1.393 1.044 2 2.229 2.46l.69.263c.788.311 1.396.616 1.396 1.124 0 .523-.598.803-1.42.803-.803 0-1.606-.243-2.371-.691l-.86 1.531c.953.672 2.11 1.046 3.437 1.046 2.315 0 3.753-1.158 3.753-2.876 0-1.42-1.02-2.026-2.312-2.534l-.88-.338c-.696-.281-1.14-.542-1.14-1.012 0-.411.373-.729 1.176-.729.635 0 1.345.224 1.999.598l.877-1.513c-.784-.579-1.7-.97-2.913-.97-2.054 0-3.698 1.082-3.66 2.838zm8.48 0c.017 1.393 1.043 2 2.227 2.46l.69.263c.788.311 1.396.616 1.396 1.124 0 .523-.598.803-1.42.803-.802 0-1.605-.243-2.371-.691l-.859 1.531c.952.672 2.11 1.046 3.436 1.046 2.316 0 3.754-1.158 3.754-2.876 0-1.42-1.02-2.026-2.312-2.534l-.714-.272c-.792-.308-1.307-.572-1.307-1.078 0-.411.374-.729 1.177-.729.635 0 1.344.224 1.998.598l.878-1.513c-.785-.579-1.7-.97-2.914-.97-2.054 0-3.697 1.082-3.66 2.838zm8.534-1.457l.747 1.475c.877-.56 1.811-.859 2.633-.859.952 0 1.326.43 1.344 1.886-1.904.169-3.137.467-3.865.953-.747.485-1.233 1.251-1.233 2.222 0 1.438.934 2.316 2.465 2.316 1.083 0 2.054-.467 2.913-1.251l.393 1.176 1.96-.28-.115-1.917a33.692 33.692 0 01-.051-1.427l-.002-2.296c0-2.334-1.027-3.38-3.249-3.38-1.55 0-2.932.56-3.94 1.382zm2.8 6.219c-.597 0-.858-.318-.858-.897 0-.43.15-.69.41-.859.318-.205.972-.373 2.372-.467v1.42c-.69.523-1.363.803-1.923.803zm7.116.28c0 .41.112.747.317.99-.915.635-1.512 1.419-1.53 2.39-.02 1.737 1.643 2.652 3.92 2.652 2.952 0 4.894-1.363 4.894-3.474 0-1.622-1.219-2.514-3.455-2.607l-.6-.016c-.905-.034-1.436-.163-1.436-.794a.94.94 0 01.15-.504c.205.018.41.037.635.037 2.54 0 4.015-1.438 4.015-3.343 0-.635-.187-1.232-.542-1.755.486-.094.99-.168 1.475-.206l-.018-1.923a4.369 4.369 0 00-2.69 1.083c-.522-.262-1.157-.41-1.904-.41-2.615 0-3.978 1.624-3.978 3.454 0 1.14.56 2.166 1.68 2.708-.597.504-.933 1.046-.933 1.718zm3.1 4.202c-1.326 0-2.185-.336-2.185-1.195 0-.467.243-.897.691-1.289.523.13 1.102.15 1.587.15l.358.009c1.1.044 1.865.239 1.865.999 0 .392-.187.69-.504.915-.355.261-.972.41-1.812.41zm1.475-8.777c0 .97-.56 1.568-1.494 1.568-1.045 0-1.512-.597-1.512-1.624 0-.953.56-1.57 1.494-1.57 1.064 0 1.512.636 1.512 1.626zm4.482 1.662c0 2.82 1.681 4.407 4.184 4.407a8.369 8.369 0 003.454-.766l-.522-1.587c-.785.28-1.737.41-2.484.41-1.214 0-1.98-.634-2.13-2.09h5.23c.093-.45.15-1.047.15-1.532 0-2.223-1.121-3.829-3.512-3.829-2.745 0-4.37 2.204-4.37 4.987zm4.22-3.138c.916 0 1.346.58 1.346 1.513 0 .15 0 .355-.02.523h-3.025c.15-1.289.673-2.036 1.7-2.036zm9.17 1.009c.018 1.393 1.044 2 2.228 2.46l.69.263c.788.311 1.396.616 1.396 1.124 0 .523-.597.803-1.419.803-.803 0-1.606-.243-2.372-.691l-.859 1.531c.953.672 2.11 1.046 3.436 1.046 2.316 0 3.754-1.158 3.754-2.876 0-1.42-1.02-2.026-2.312-2.534l-.714-.272c-.792-.308-1.307-.572-1.307-1.078 0-.411.374-.729 1.177-.729.635 0 1.345.224 1.998.598l.878-1.513c-.784-.579-1.7-.97-2.913-.97-2.055 0-3.698 1.082-3.66 2.838zm8.33 2.129c0 2.82 1.68 4.407 4.183 4.407a8.369 8.369 0 003.454-.766l-.522-1.587c-.785.28-1.737.41-2.484.41-1.214 0-1.98-.634-2.13-2.09h5.23c.093-.45.15-1.047.15-1.532 0-2.223-1.121-3.829-3.512-3.829-2.745 0-4.37 2.204-4.37 4.987zm4.22-3.138c.915 0 1.345.58 1.345 1.513l-.006.346a2.76 2.76 0 01-.013.177h-3.025c.149-1.289.672-2.036 1.699-2.036zm7.507-1.774l-1.98.262.113 1.945c.042.824.056 1.334.056 1.808v5.099h2.484v-6.518c.616-.467 1.288-.747 1.942-.747.859 0 1.12.56 1.12 1.849v5.416h2.465v-6.107c0-2.036-.859-3.119-2.82-3.119-1.213 0-2.147.43-3.006 1.307l-.374-1.195zm9.637-2.558l-.542 2.708h-1.177v1.904h1.29v4.22c0 2.298.914 3.045 2.539 3.045.971 0 1.98-.206 2.782-.523l-.41-1.68a7.22 7.22 0 01-1.364.167c-.802 0-1.06-.306-1.081-1.503l-.002-3.726h2.652v-1.904h-2.652v-2.708h-2.035zm11.391 0l-.541 2.708h-1.177v1.904h1.289v4.22c0 2.298.915 3.045 2.54 3.045.97 0 1.98-.206 2.782-.523l-.41-1.68a7.22 7.22 0 01-1.364.167c-.84 0-1.083-.336-1.083-1.68v-3.549h2.652v-1.904h-2.652v-2.708h-2.036zm6.088 7.432c0 2.596 1.55 4.501 4.128 4.501 2.894 0 4.482-2.278 4.482-4.912 0-2.577-1.513-4.575-4.109-4.575-2.876 0-4.5 2.372-4.5 4.986zm6.088-.112c0 .971-.205 1.737-.597 2.204-.206.243-.58.485-1.14.485-1.195 0-1.81-1.157-1.81-2.876 0-1.045.242-1.83.597-2.278.205-.261.579-.485 1.139-.485 1.214 0 1.811 1.232 1.811 2.95zm13.932-4.612l-1.942 6.648h-.075a15.87 15.87 0 00-.448-2.054l-1.363-4.594h-2.522c0 .373.075.728.187 1.064l2.745 7.918 2.746-.037 2.876-7.881c.112-.317.205-.672.205-1.064h-2.409zm4.052.018v8.946h2.484v-8.983l-2.484.037zm-.112-2.782c0 .747.523 1.25 1.345 1.25.878 0 1.457-.578 1.457-1.4 0-.765-.523-1.288-1.326-1.288-.897 0-1.476.579-1.476 1.438zm4.781 5.397c.018 1.393 1.044 2 2.228 2.46l.69.263c.788.311 1.396.616 1.396 1.124 0 .523-.597.803-1.42.803-.802 0-1.605-.243-2.37-.691l-.86 1.531c.953.672 2.11 1.046 3.436 1.046 2.316 0 3.754-1.158 3.754-2.876 0-1.42-1.02-2.026-2.312-2.534l-.714-.272c-.792-.308-1.307-.572-1.307-1.078 0-.411.374-.729 1.177-.729.635 0 1.344.224 1.998.598l.878-1.513c-.785-.579-1.7-.97-2.913-.97-2.055 0-3.698 1.082-3.66 2.838zm8.777-2.615v8.946h2.484v-8.983l-2.484.037zm-.112-2.782c0 .747.523 1.25 1.345 1.25.878 0 1.457-.578 1.457-1.4 0-.765-.523-1.288-1.326-1.288-.897 0-1.476.579-1.476 1.438zm6.107.056l-.541 2.708h-1.177v1.904h1.289v4.22c0 2.298.915 3.045 2.54 3.045.97 0 1.979-.206 2.782-.523l-.41-1.68a7.22 7.22 0 01-1.364.167c-.84 0-1.083-.336-1.083-1.68v-3.549h2.652v-1.904h-2.652v-2.708h-2.036zm6.088 7.432c0 2.596 1.55 4.501 4.127 4.501 2.895 0 4.482-2.278 4.482-4.912 0-2.577-1.512-4.575-4.108-4.575-2.876 0-4.5 2.372-4.5 4.986zm6.088-.112c0 .971-.205 1.737-.597 2.204-.206.243-.58.485-1.14.485-1.195 0-1.811-1.157-1.811-2.876 0-1.045.243-1.83.598-2.278.205-.261.579-.485 1.139-.485 1.214 0 1.811 1.232 1.811 2.95zm4.389-4.5l1.98-.262.485 1.606c.579-1.027 1.307-1.662 2.316-1.662.504 0 .97.15 1.307.374l-.392 2.26a3.85 3.85 0 00-1.027-.113c-.766 0-1.438.243-2.017.953v5.696h-2.484l-.002-5.436c-.01-.7-.054-1.592-.166-3.416z"/>
          <circle cx="9.3" cy="237.838" r="5.188" fill="#00d36a" stroke="#00d36a" stroke-width="1.038"/>
          <path fill="#014242" fill-rule="nonzero" d="M31.236 11.15l.216 2.09h3.641v1.498h2.887V13.24h1.2l-.067-2.036H37.98V5.7h-3.156l-3.588 5.449zm3.008-1.133l.795-1.39h.054v2.577h-1.632l.783-1.187zm7.137-.81c0 .77.54 1.295 1.322 1.295.796 0 1.335-.526 1.335-1.294 0-.742-.526-1.228-1.335-1.228-.782 0-1.322.486-1.322 1.228zm0 4.303c0 .769.54 1.295 1.322 1.295.796 0 1.335-.526 1.335-1.295 0-.742-.54-1.227-1.335-1.227-.782 0-1.322.485-1.322 1.227zm4.9-6.811l.512 1.834 1.456-.243v4.29h-1.74v2.158h5.989l-.067-2.159h-1.093V5.701h-2.239l-2.819.998zm8.068 4.45l.215 2.091h3.642v1.498h2.886V13.24h1.2l-.067-2.036h-1.133V5.7h-3.156L54.35 11.15zm3.007-1.132l.796-1.39h.054v2.577h-1.632l.782-1.187zm14.519.27l-.137-.002a2.717 2.717 0 01-.187-.012V7.805l.234-.012c.073-.002.137-.002.184-.002.715 0 1.093.27 1.093 1.12 0 .58-.203.971-.446 1.16-.188.162-.445.216-.741.216zm-3.413-4.519v8.97h3.089v-2.374l.4.023c.066.002.13.004.193.004 2.617 0 4.074-1.565 4.074-3.561 0-2.333-1.74-3.277-4.573-3.277-1.362 0-2.562.134-3.183.215zm16.93-.067h3.952l.836 7.634c.054.472.108.93.108 1.402h-2.751l-.351-3.83-.108-2.28h-.054l-1.066 6.11-3.439.014-.715-3.857-.337-2.266h-.054l-.445 6.11h-2.724c0-.27.02-.54.049-.811L79.296 5.7h3.938l.863 3.965.283 1.78h.068l.944-5.745zM39.977 27.938l-3.007 9.767h-.093l-.729-2.801-2.185-6.966h-2.558c.019.541.224 1.176.504 1.923l3.53 10.626 2.913-.074 3.642-10.57c.242-.71.448-1.382.485-1.905h-2.502zm4.034 3.567v8.945h2.483v-8.983l-2.483.038zm-.112-2.783c0 .747.522 1.251 1.344 1.251.878 0 1.457-.579 1.457-1.4 0-.766-.523-1.289-1.326-1.289-.897 0-1.475.58-1.475 1.438zm4.78 5.397c.017 1.33.953 1.944 2.068 2.396l.85.328c.788.31 1.396.616 1.396 1.123 0 .523-.597.803-1.419.803-.803 0-1.606-.243-2.372-.69l-.859 1.53c.953.673 2.11 1.046 3.436 1.046 2.316 0 3.754-1.157 3.754-2.876 0-1.485-1.115-2.079-2.49-2.602l-.536-.204c-.792-.308-1.307-.571-1.307-1.078 0-.41.374-.728 1.177-.728.635 0 1.345.224 1.998.597l.878-1.512c-.784-.58-1.7-.971-2.913-.971-2.055 0-3.698 1.083-3.66 2.838zm8.778-2.614v8.945h2.483v-8.983l-2.483.038zm-.112-2.783c0 .747.522 1.251 1.344 1.251.878 0 1.457-.579 1.457-1.4 0-.766-.523-1.289-1.326-1.289-.897 0-1.475.58-1.475 1.438zm6.106.056l-.541 2.708h-1.177v1.905h1.289v4.22c0 2.297.915 3.044 2.54 3.044.97 0 1.98-.205 2.782-.522l-.41-1.681a7.22 7.22 0 01-1.364.168c-.84 0-1.083-.336-1.083-1.68v-3.55h2.652v-1.904h-2.652v-2.708H63.45zm6.088 7.433c0 2.596 1.55 4.5 4.127 4.5 2.895 0 4.483-2.278 4.483-4.911 0-2.577-1.513-4.575-4.109-4.575-2.876 0-4.5 2.371-4.5 4.986zm6.088-.112c0 .97-.205 1.737-.597 2.203-.206.243-.58.486-1.14.486-1.195 0-1.81-1.158-1.81-2.876 0-1.046.242-1.83.597-2.278.205-.262.579-.486 1.139-.486 1.214 0 1.811 1.233 1.811 2.95zm6.369-4.762l-1.98.261.121 2.13c.03.599.042 1.023.046 1.401l.001 5.321h2.484v-5.696c.579-.71 1.251-.952 2.017-.952.355 0 .672.018 1.027.112l.392-2.26a2.397 2.397 0 00-1.307-.373c-1.009 0-1.737.635-2.316 1.662l-.485-1.606zm9.15 1.326l.747 1.475c.878-.56 1.812-.86 2.633-.86.953 0 1.326.43 1.345 1.887l-.645.065c-1.543.176-2.578.459-3.22.887-.748.486-1.233 1.252-1.233 2.223 0 1.438.934 2.315 2.465 2.315 1.083 0 2.054-.466 2.913-1.25l.392 1.176 1.961-.28-.105-1.726a32.539 32.539 0 01-.063-1.841V34.66c0-2.335-1.027-3.38-3.25-3.38-1.55 0-2.931.56-3.94 1.382zm2.802 6.218c-.598 0-.86-.317-.86-.896 0-.43.15-.691.411-.86.318-.205.971-.373 2.372-.466v1.42c-.69.522-1.363.802-1.923.802zm10.532-.13c-1.083 0-1.643-1.084-1.643-2.839 0-.915.168-1.774.616-2.297.262-.28.635-.448 1.251-.448.486 0 .99.112 1.494.355v4.482c-.597.485-1.195.747-1.718.747zm-4.183-2.466c.019 2.559 1.569 4.426 3.604 4.426 1.009 0 1.85-.466 2.596-1.288l.374 1.139 1.98-.261-.11-1.784a31.455 31.455 0 01-.059-1.765V26.425l-2.484.037v5.36c-.523-.373-1.083-.597-1.811-.597-2.428 0-4.09 2.483-4.09 5.06zm14.585 2.466c-1.083 0-1.643-1.084-1.643-2.839 0-.915.168-1.774.616-2.297.262-.28.635-.448 1.251-.448.486 0 .99.112 1.494.355v4.482c-.597.485-1.195.747-1.718.747zm-4.183-2.466c.019 2.559 1.569 4.426 3.604 4.426 1.009 0 1.85-.466 2.596-1.288l.374 1.139 1.98-.261-.11-1.784a31.455 31.455 0 01-.059-1.765V26.425l-2.484.037v5.36c-.523-.373-1.083-.597-1.811-.597-2.428 0-4.09 2.483-4.09 5.06zm10.42-.037c0 2.82 1.681 4.407 4.184 4.407a8.369 8.369 0 003.455-.765l-.523-1.588c-.785.28-1.737.411-2.484.411-1.214 0-1.98-.635-2.129-2.091h5.23c.093-.449.149-1.046.149-1.532 0-2.222-1.121-3.828-3.511-3.828-2.746 0-4.37 2.204-4.37 4.986zm17.798-9.823l.003 10.684c.011.66.055 1.509.165 3.192l-1.98.261-.373-1.14c-.747.823-1.587 1.29-2.596 1.29-2.035 0-3.585-1.868-3.604-4.427 0-2.577 1.662-5.06 4.09-5.06.728 0 1.288.224 1.811.597v-5.36l2.484-.037zm-3.978 6.742c-.616 0-.99.168-1.251.448-.448.523-.616 1.382-.616 2.297 0 1.755.56 2.839 1.643 2.839.523 0 1.12-.262 1.718-.747v-4.482a3.429 3.429 0 00-1.494-.355zm-9.599-.056c.915 0 1.345.579 1.345 1.512 0 .15 0 .355-.019.523h-3.025c.15-1.288.672-2.035 1.7-2.035z"/>
          <text font-family="SkolarSansLatn-Bd, Skolar Sans Latin" font-size="13.488" font-weight="bold">
            <tspan x="31.087" y="243.575" fill="#014242">4:30 PM</tspan>
          </text>
          <text font-family="SkolarSansLatn-Rg, Skolar Sans Latin" font-size="18.675">
            <tspan x="31.087" y="269.288" fill="#014242">Visitor called for service</tspan>
          </text>
          <circle cx="9.3" cy="9" r="9" fill="#FFF" stroke="#00d36a" stroke-width="2.038"/>
          <circle cx="9.3" cy="95.338" r="9" fill="#00d36a" stroke="#00d36a" stroke-width="1.038"/>
        </g>
      </g>
      <path stroke="#014242" d="M63.18 300.795h459.65M1.03 316.684h583.792" mask="url(#f)"/>
    </g>
    <path fill="#00d36a" d="M482.44 202.56c-8.907-.04-16.16 7.15-16.2 16.056v40.392c0 8.879 7.177 16.088 16.056 16.128l114.576.51c8.907.039 16.16-7.15 16.2-16.057v-15.071c5.92-3.27 11.295-10.343 16.128-21.217-2.49 3.737-7.866 5.165-16.127 4.285l-.001-8.388c0-8.88-7.177-16.088-16.056-16.128l-114.576-.51zM597.6 104H386.256c-8.907 0-16.128 7.22-16.128 16.128v8.316c-8.261.88-13.637-.548-16.128-4.284 4.833 10.874 10.209 17.947 16.128 21.217v15.071c0 8.907 7.22 16.128 16.128 16.128H597.6c8.907 0 16.128-7.22 16.128-16.128v-40.32c0-8.907-7.22-16.128-16.128-16.128zM596.872 429.872L290.256 430c-8.907 0-16.128 7.22-16.128 16.128v8.316c-8.261.88-13.637-.548-16.128-4.284 4.833 10.874 10.209 17.947 16.128 21.217l.128 94.623c0 8.907 7.22 16.128 16.128 16.128L597 582c8.907 0 16.128-7.22 16.128-16.128L613 446c0-8.907-7.22-16.128-16.128-16.128z"/>
    <path fill="#014242" fill-rule="nonzero" d="M309.568 470.984c0 5.18 2.688 9.324 8.176 9.324 2.016 0 3.808-.504 5.376-1.316l-.672-1.736c-1.344.616-2.772 1.036-4.424 1.036-4.536 0-6.104-3.668-6.104-7.504 0-2.352.588-4.704 2.128-6.328.952-.952 2.24-1.512 3.92-1.512 1.54 0 2.8.392 4.144 1.148l.868-1.736c-1.26-.868-2.996-1.428-4.984-1.428-5.796 0-8.428 4.984-8.428 10.052zm16.528-11.956V480h2.184v-10.192c1.232-.84 2.576-1.344 3.92-1.344 1.736 0 2.212 1.092 2.212 3.444V480h2.212v-8.904c0-2.912-1.064-4.564-3.864-4.564-1.68 0-3.136.56-4.48 1.596v-9.156l-2.184.056zm16.248 7.7l-1.848.252.114 1.78a53.41 53.41 0 01.11 3.288V480h2.212v-8.764c.896-1.596 2.072-2.296 3.332-2.296.56 0 1.008.056 1.512.196l.448-2.016a3.418 3.418 0 00-1.82-.504c-1.484 0-2.688.924-3.612 2.576l-.448-2.464zm8.268.224V480h2.184v-13.104l-2.184.056zm-.392-4.004c0 .84.588 1.372 1.456 1.372.952 0 1.568-.616 1.568-1.54 0-.868-.56-1.428-1.428-1.428-.952 0-1.596.644-1.596 1.596zm6.252 7.476c.026 1.872 1.356 2.754 3.07 3.453l1.194.473c1.35.542 2.456 1.082 2.456 2.234 0 1.204-1.148 1.876-2.716 1.876-1.344 0-2.52-.476-3.64-1.204l-.924 1.484c1.26.952 2.8 1.568 4.62 1.568 2.968 0 4.956-1.568 4.956-3.948 0-2.296-1.876-3.108-3.976-3.892l-.578-.228c-1.248-.504-2.222-1.025-2.222-2.096 0-1.008.924-1.68 2.352-1.68 1.092 0 2.1.364 3.052.98l.952-1.428a6.267 6.267 0 00-3.976-1.4c-2.52 0-4.676 1.428-4.62 3.808zm13.308-7.392l-.504 3.892h-1.848v1.82h1.96v7.42c0 3.136.952 4.144 3.052 4.144.98 0 2.24-.196 3.36-.616l-.42-1.652c-.812.196-1.652.308-2.128.308-1.27 0-1.628-.548-1.65-2.527l-.002-7.077h4.004v-1.82H371.6v-3.892h-1.82zm8.716 3.92V480h2.184v-13.104l-2.184.056zm-.392-4.004c0 .84.588 1.372 1.456 1.372.952 0 1.568-.616 1.568-1.54 0-.868-.56-1.428-1.428-1.428-.952 0-1.596.644-1.596 1.596zm8.408 3.78l-1.848.252.085 1.268c.12 1.926.139 2.96.139 3.8V480h2.212v-9.884c1.204-1.008 2.52-1.68 3.92-1.68 1.736 0 2.184 1.148 2.184 3.5V480h2.212v-8.904c0-2.912-1.008-4.564-3.892-4.564-1.792 0-3.276.7-4.648 2.016l-.364-1.82zm12.468 2.016l.812 1.372c1.372-.952 2.856-1.568 4.172-1.568 1.572 0 2.2.892 2.238 3.461l.002.459c-3.024.252-4.872.672-5.992 1.4-1.092.7-1.792 1.82-1.792 3.164 0 2.016 1.316 3.276 3.416 3.276 1.596 0 3.164-.728 4.564-1.96l.364 1.792 1.848-.28-.114-1.736a49.84 49.84 0 01-.11-3.192v-3.36c0-3.444-1.232-4.956-4.032-4.956-2.072 0-3.92.868-5.376 2.128zm3.304 9.8c-1.064 0-1.708-.616-1.708-1.764 0-.84.392-1.372.84-1.708.672-.42 1.932-.756 4.788-.98v2.632c-1.372 1.204-2.772 1.82-3.92 1.82zm10.116-2.38c.084.644.14 1.344.14 1.96 0 1.904-.588 3.696-2.044 5.152l.924.784c2.156-1.428 3.276-3.668 3.276-6.048 0-.644-.084-1.372-.224-1.988l-2.072.14zm12.112-9.212V480h2.184v-13.104l-2.184.056zm-.392-4.004c0 .84.588 1.372 1.456 1.372.952 0 1.568-.616 1.568-1.54 0-.868-.56-1.428-1.428-1.428-.952 0-1.596.644-1.596 1.596zm7.792.084l-.504 3.892h-1.848v1.82h1.96v7.42c0 3.136.952 4.144 3.052 4.144.98 0 2.24-.196 3.36-.616l-.42-1.652c-.812.196-1.652.308-2.128.308-1.27 0-1.628-.548-1.65-2.527l-.002-7.077h4.004v-1.82h-4.004v-3.892h-1.82zm8.436-4.48l.196 7.392h1.652l.168-7.392h-2.016zm4.684 11.872c.026 1.872 1.356 2.754 3.07 3.453l1.194.473c1.35.542 2.456 1.082 2.456 2.234 0 1.204-1.148 1.876-2.716 1.876-1.344 0-2.52-.476-3.64-1.204l-.924 1.484c1.26.952 2.8 1.568 4.62 1.568 2.968 0 4.956-1.568 4.956-3.948 0-2.296-1.876-3.108-3.976-3.892l-.578-.228c-1.248-.504-2.222-1.025-2.222-2.096 0-1.008.924-1.68 2.352-1.68 1.092 0 2.1.364 3.052.98l.952-1.428a6.267 6.267 0 00-3.976-1.4c-2.52 0-4.676 1.428-4.62 3.808zm25.888-3.5l-3.668 10.668h-.112a16.265 16.265 0 00-.51-2.018l-2.962-8.65h-2.24c0 .336.054.654.161.983L465.992 480h.448c-1.428 3.528-2.912 5.068-5.348 5.068v1.764c.308.056.644.084 1.176.084 2.24 0 4.06-1.68 5.768-5.936l4.732-12.824c.168-.392.252-.756.252-1.232h-2.1zm3.732 6.776c0 3.892 2.156 6.692 5.656 6.692 4.032 0 5.992-3.612 5.992-7.14 0-3.864-2.128-6.72-5.656-6.72-4.032 0-5.992 3.696-5.992 7.168zm9.38-.112c0 1.736-.448 3.164-1.232 4.004-.476.504-1.232.896-2.268.896-2.38 0-3.64-2.1-3.64-5.096 0-1.876.504-3.248 1.26-4.088.504-.476 1.26-.868 2.268-.868 2.38 0 3.612 2.156 3.612 5.152zm5.552-6.636v8.876c0 2.884 1.176 4.564 3.892 4.564 1.708 0 3.136-.756 4.424-2.044l.392 1.764 1.82-.252-.121-1.944c-.079-1.37-.1-2.076-.102-2.839l-.001-8.153h-2.212v9.772c-1.232 1.092-2.436 1.792-3.668 1.792-1.568 0-2.24-1.036-2.24-3.444v-8.148l-2.184.056zm16.164-.224l-1.848.252.114 1.78a53.41 53.41 0 01.11 3.288V480h2.212v-8.764c.896-1.596 2.072-2.296 3.332-2.296.56 0 1.008.056 1.512.196l.448-2.016a3.418 3.418 0 00-1.82-.504c-1.484 0-2.688.924-3.612 2.576l-.448-2.464zm14.436-3.696l-.504 3.892h-1.848v1.82h1.96v7.42c0 3.136.952 4.144 3.052 4.144.98 0 2.24-.196 3.36-.616l-.42-1.652c-.812.196-1.652.308-2.128.308-1.27 0-1.628-.548-1.65-2.527l-.002-7.077h4.004v-1.82h-4.004v-3.892h-1.82zm8.604 3.92v8.876c0 2.884 1.176 4.564 3.892 4.564 1.708 0 3.136-.756 4.424-2.044l.392 1.764 1.82-.252-.121-1.944c-.079-1.37-.1-2.076-.102-2.839l-.001-8.153h-2.212v9.772c-1.232 1.092-2.436 1.792-3.668 1.792-1.568 0-2.24-1.036-2.24-3.444v-8.148l-2.184.056zm16.164-.224l-1.848.252.114 1.78a53.41 53.41 0 01.11 3.288V480h2.212v-8.764c.896-1.596 2.072-2.296 3.332-2.296.56 0 1.008.056 1.512.196l.448-2.016a3.418 3.418 0 00-1.82-.504c-1.484 0-2.688.924-3.612 2.576l-.448-2.464zm9.92 0l-1.848.252.085 1.268c.12 1.926.139 2.96.139 3.8V480h2.212v-9.884c1.204-1.008 2.52-1.68 3.92-1.68 1.736 0 2.184 1.148 2.184 3.5V480h2.212v-8.904c0-2.912-1.008-4.564-3.892-4.564-1.792 0-3.276.7-4.648 2.016l-.364-1.82zm12.58 12.068c0 .924.616 1.568 1.54 1.568.98 0 1.596-.7 1.596-1.708 0-.896-.588-1.512-1.512-1.512-.98 0-1.624.672-1.624 1.652zm-252.76 28.44c-.588 0-1.204-.028-1.848-.112v-8.008c.84-.112 1.652-.168 2.436-.168 3.164 0 4.872 1.204 4.872 3.948 0 1.82-.812 3.108-2.156 3.724-.84.42-2.016.616-3.304.616zm-4.06-9.856V516h2.212v-6.916c.7.084 1.428.112 2.044.112 4.872 0 7.616-2.548 7.616-6.552 0-3.64-2.436-5.74-7.392-5.712a31.023 31.023 0 00-4.48.448zm14.736-2.352v18.704c0 1.68.812 2.576 2.296 2.576.7 0 1.484-.14 2.212-.448l-.476-1.652c-.392.14-.756.196-1.036.196-.56 0-.812-.364-.812-1.26v-18.172l-2.184.056zm6.196 14.7c0 4.312 2.464 6.58 5.684 6.58 1.568 0 3.136-.336 4.676-1.064l-.56-1.568c-1.26.504-2.632.7-3.724.7-2.212 0-3.696-1.372-3.864-4.368h8.26c.14-.672.196-1.456.196-2.156 0-2.968-1.568-5.292-4.732-5.292-3.668 0-5.936 3.164-5.936 7.168zm5.768-5.32c1.792 0 2.688 1.288 2.688 3.052 0 .308 0 .644-.028.952h-6.16c.28-2.492 1.484-4.004 3.5-4.004zm7.82.336l.812 1.372c1.372-.952 2.856-1.568 4.172-1.568 1.572 0 2.2.892 2.238 3.461l.002.459c-3.024.252-4.872.672-5.992 1.4-1.092.7-1.792 1.82-1.792 3.164 0 2.016 1.316 3.276 3.416 3.276 1.596 0 3.164-.728 4.564-1.96l.364 1.792 1.848-.28-.114-1.736a49.84 49.84 0 01-.11-3.192v-3.36c0-3.444-1.232-4.956-4.032-4.956-2.072 0-3.92.868-5.376 2.128zm3.304 9.8c-1.064 0-1.708-.616-1.708-1.764 0-.84.392-1.372.84-1.708.672-.42 1.932-.756 4.788-.98v2.632c-1.372 1.204-2.772 1.82-3.92 1.82zm9.696-8.12c.026 1.872 1.356 2.754 3.07 3.453l1.194.473c1.35.542 2.456 1.082 2.456 2.234 0 1.204-1.148 1.876-2.716 1.876-1.344 0-2.52-.476-3.64-1.204l-.924 1.484c1.26.952 2.8 1.568 4.62 1.568 2.968 0 4.956-1.568 4.956-3.948 0-2.296-1.876-3.108-3.976-3.892l-.578-.228c-1.248-.504-2.222-1.025-2.222-2.096 0-1.008.924-1.68 2.352-1.68 1.092 0 2.1.364 3.052.98l.952-1.428a6.267 6.267 0 00-3.976-1.4c-2.52 0-4.676 1.428-4.62 3.808zm11.516 3.304c0 4.312 2.464 6.58 5.684 6.58 1.568 0 3.136-.336 4.676-1.064l-.56-1.568c-1.26.504-2.632.7-3.724.7-2.212 0-3.696-1.372-3.864-4.368h8.26c.14-.672.196-1.456.196-2.156 0-2.968-1.568-5.292-4.732-5.292-3.668 0-5.936 3.164-5.936 7.168zm5.768-5.32c1.792 0 2.688 1.288 2.688 3.052 0 .308 0 .644-.028.952h-6.16c.28-2.492 1.484-4.004 3.5-4.004zm13.316 5.376c0 4.032 2.212 6.524 5.768 6.524 1.232 0 2.688-.336 4.06-.952l-.504-1.68c-1.176.448-2.352.7-3.248.7-2.408 0-3.836-1.54-3.836-4.872 0-2.044.56-3.5 1.512-4.284a3.198 3.198 0 012.044-.7c1.12 0 2.044.448 3.052 1.344l1.092-1.288c-1.008-1.26-2.24-1.96-3.976-1.96-3.584 0-5.964 2.912-5.964 7.168zm11.936-.084c0 3.892 2.156 6.692 5.656 6.692 4.032 0 5.992-3.612 5.992-7.14 0-3.864-2.128-6.72-5.656-6.72-4.032 0-5.992 3.696-5.992 7.168zm9.38-.112c0 1.736-.448 3.164-1.232 4.004-.476.504-1.232.896-2.268.896-2.38 0-3.64-2.1-3.64-5.096 0-1.876.504-3.248 1.26-4.088.504-.476 1.26-.868 2.268-.868 2.38 0 3.612 2.156 3.612 5.152zm7.316-6.86l-1.848.252.091 1.26c.133 1.996.133 2.961.133 3.808V516h2.212v-9.884c1.12-.924 2.408-1.68 3.696-1.68 1.512 0 2.016 1.064 2.016 3.64V516h2.184v-8.764c0-.392-.028-.756-.056-1.092 1.12-.924 2.408-1.708 3.724-1.708 1.512 0 2.016 1.064 2.016 3.64V516h2.212v-8.764c0-3.052-1.064-4.704-3.64-4.704-1.848 0-3.22.784-4.592 2.184-.504-1.428-1.54-2.184-3.276-2.184-1.792 0-3.164.756-4.508 2.072l-.364-1.876zm19.692 7c0 4.312 2.464 6.58 5.684 6.58 1.568 0 3.136-.336 4.676-1.064l-.56-1.568c-1.26.504-2.632.7-3.724.7-2.212 0-3.696-1.372-3.864-4.368h8.26c.14-.672.196-1.456.196-2.156 0-2.968-1.568-5.292-4.732-5.292-3.668 0-5.936 3.164-5.936 7.168zm5.768-5.32c1.792 0 2.688 1.288 2.688 3.052 0 .308 0 .644-.028.952h-6.16c.28-2.492 1.484-4.004 3.5-4.004zm14.016-9.38v20.524c1.652.504 3.024.756 4.788.756 4.396 0 6.3-3.472 6.3-7.056 0-3.78-1.82-6.72-5.096-6.72-1.512 0-2.716.7-3.78 1.848v-9.408l-2.212.056zm4.956 19.404c-1.008 0-1.904-.112-2.744-.336v-7.924c1.036-1.036 2.184-1.736 3.416-1.736 2.044 0 3.192 1.96 3.192 5.012 0 1.82-.308 3.108-1.4 4.2-.392.392-1.288.784-2.464.784zm17.34-11.508l-3.668 10.668h-.112a16.265 16.265 0 00-.51-2.018l-2.962-8.65h-2.24c0 .336.054.654.161.983L474.228 516h.448c-1.428 3.528-2.912 5.068-5.348 5.068v1.764c.308.056.644.084 1.176.084 2.24 0 4.06-1.68 5.768-5.936l4.732-12.824c.168-.392.252-.756.252-1.232h-2.1zm11.356-3.892l-.504 3.892h-1.848v1.82h1.96v7.42c0 3.136.952 4.144 3.052 4.144.98 0 2.24-.196 3.36-.616l-.42-1.652c-.812.196-1.652.308-2.128.308-1.27 0-1.628-.548-1.65-2.527l-.002-7.077h4.004v-1.82h-4.004v-3.892h-1.82zm8.716-4.004V516h2.184v-10.192c1.232-.84 2.576-1.344 3.92-1.344 1.676 0 2.178 1.018 2.21 3.205l.002 8.331h2.212v-8.904c0-2.912-1.064-4.564-3.864-4.564-1.68 0-3.136.56-4.48 1.596v-9.156l-2.184.056zm13.84 14.7c0 4.312 2.464 6.58 5.684 6.58 1.568 0 3.136-.336 4.676-1.064l-.56-1.568c-1.26.504-2.632.7-3.724.7-2.212 0-3.696-1.372-3.864-4.368h8.26c.14-.672.196-1.456.196-2.156 0-2.968-1.568-5.292-4.732-5.292-3.668 0-5.936 3.164-5.936 7.168zm5.768-5.32c1.792 0 2.688 1.288 2.688 3.052 0 .308 0 .644-.028.952h-6.16c.28-2.492 1.484-4.004 3.5-4.004zm-207.812 31.52v2.996h-2.016v1.82h2.016V552h2.212v-11.256h3.22v-1.82h-3.22v-3.304c0-1.82.616-2.996 2.184-2.996.924 0 1.736.392 2.408.812l.868-1.456c-.924-.756-1.988-1.288-3.388-1.288-2.912 0-4.284 2.212-4.284 5.236zm9.808 2.8l-1.848.252.114 1.78a53.41 53.41 0 01.11 3.288V552h2.212v-8.764c.896-1.596 2.072-2.296 3.332-2.296.56 0 1.008.056 1.512.196l.448-2.016a3.418 3.418 0 00-1.82-.504c-1.484 0-2.688.924-3.612 2.576l-.448-2.464zm6.98 6.972c0 3.892 2.156 6.692 5.656 6.692 4.032 0 5.992-3.612 5.992-7.14 0-3.864-2.128-6.72-5.656-6.72-4.032 0-5.992 3.696-5.992 7.168zm9.38-.112c0 1.736-.448 3.164-1.232 4.004-.476.504-1.232.896-2.268.896-2.38 0-3.64-2.1-3.64-5.096 0-1.876.504-3.248 1.26-4.088.504-.476 1.26-.868 2.268-.868 2.38 0 3.612 2.156 3.612 5.152zm7.316-6.86l-1.848.252.085 1.268c.12 1.926.139 2.96.139 3.8V552h2.212v-9.884c1.204-1.008 2.52-1.68 3.92-1.68 1.736 0 2.184 1.148 2.184 3.5V552h2.212v-8.904c0-2.912-1.008-4.564-3.892-4.564-1.792 0-3.276.7-4.648 2.016l-.364-1.82zm14.008-3.696l-.504 3.892h-1.848v1.82h1.96v7.42c0 3.136.952 4.144 3.052 4.144.98 0 2.24-.196 3.36-.616l-.42-1.652c-.812.196-1.652.308-2.128.308-1.27 0-1.628-.548-1.65-2.527l-.002-7.077h4.004v-1.82h-4.004v-3.892h-1.82zm19.084 15.456c-2.044 0-3.108-2.128-3.108-5.04 0-1.652.364-3.22 1.316-4.172.56-.56 1.316-.84 2.436-.84a5.7 5.7 0 012.884.756v7.448c-1.148 1.092-2.296 1.848-3.528 1.848zm-5.376-4.592c0 3.696 2.1 6.496 5.012 6.496 1.624 0 2.94-.84 4.116-2.072l.364 1.792 1.848-.252-.105-1.487a48.867 48.867 0 01-.117-2.759l-.002-16.642-2.212.056v8.428c-.896-.588-1.792-.924-2.94-.924-4.032 0-5.992 3.78-5.964 7.364zm14.568-.168c0 4.312 2.464 6.58 5.684 6.58 1.568 0 3.136-.336 4.676-1.064l-.56-1.568c-1.26.504-2.632.7-3.724.7-2.212 0-3.696-1.372-3.864-4.368h8.26c.14-.672.196-1.456.196-2.156 0-2.968-1.568-5.292-4.732-5.292-3.668 0-5.936 3.164-5.936 7.168zm5.768-5.32c1.792 0 2.688 1.288 2.688 3.052 0 .308 0 .644-.028.952h-6.16c.28-2.492 1.484-4.004 3.5-4.004zm7.82 2.016c.026 1.872 1.356 2.754 3.07 3.453l1.194.473c1.35.542 2.456 1.082 2.456 2.234 0 1.204-1.148 1.876-2.716 1.876-1.344 0-2.52-.476-3.64-1.204l-.924 1.484c1.26.952 2.8 1.568 4.62 1.568 2.968 0 4.956-1.568 4.956-3.948 0-2.296-1.876-3.108-3.976-3.892l-.578-.228c-1.248-.504-2.222-1.025-2.222-2.096 0-1.008.924-1.68 2.352-1.68 1.092 0 2.1.364 3.052.98l.952-1.428a6.267 6.267 0 00-3.976-1.4c-2.52 0-4.676 1.428-4.62 3.808zm20.588-3.5l-6.104 6.832v-14.784l-2.212.056V552h2.212v-3.5l2.044-2.184 4.284 5.684h2.408c-.112-.364-.364-.812-.672-1.204l-4.62-5.992 4.256-4.816c.364-.364.588-.728.644-1.064h-2.24zm4.796 11.872c0-.98.644-1.652 1.624-1.652.924 0 1.512.616 1.512 1.512 0 1.008-.616 1.708-1.596 1.708-.924 0-1.54-.644-1.54-1.568z"/>
    <g fill="#014242" transform="translate(503.2 236.16)">
      <circle cx="3.36" cy="3.36" r="3.36"/>
      <circle cx="16.8" cy="3.36" r="3.36"/>
      <circle cx="30.24" cy="3.36" r="3.36"/>
    </g>
    <path fill="#014242" fill-rule="nonzero" d="M559.358 294.725l-1.265.18.072.894c.115 1.558.132 2.409.132 3.08v6.481h1.49v-8.038c1.016-.858 2.145-1.445 3.342-1.445 1.435 0 1.844.9 1.872 2.72l.002 6.763h1.49v-7.135c0-2.303-.745-3.658-3.048-3.658-1.468 0-2.665.61-3.816 1.648l-.271-1.49zm9.903 5.532c0 3.139 1.693 5.42 4.493 5.42 3.229 0 4.674-2.959 4.674-5.69 0-3.117-1.671-5.42-4.47-5.42-3.207 0-4.697 3.003-4.697 5.69zm7.654-.068c0 1.513-.384 2.71-1.084 3.432-.429.452-1.084.768-1.942.768-2.054 0-3.115-1.829-3.115-4.335 0-1.535.429-2.755 1.106-3.455.452-.429 1.084-.722 1.942-.722 2.032 0 3.093 1.829 3.093 4.312zm9.926-5.283l1.467-.045 2.145 7.248.407 1.558h.09l2.687-8.784h1.422c0 .235-.043.484-.118.725l-3.291 9.73-1.603.045-2.145-6.977-.362-1.355h-.067l-2.507 8.286-1.625.046-3.23-9.597c-.09-.293-.18-.587-.18-.903h1.49l2.258 7.226.452 1.558h.09l2.62-8.761zM539.094 297.779l-2.294 2.241 4.851 4.74 9.149-8.961-2.296-2.239-6.856 6.715z"/>
    <circle cx="205.5" cy="186.5" r="10.5" stroke="#014242" stroke-width="1.1"/>
    <circle cx="231.5" cy="210.5" r="7.5" stroke="#014242" stroke-width="1.1"/>
  </g>
</svg>
