<svg viewBox="0 0 60 60" xmlns="http://www.w3.org/2000/svg" xmlns:xlink="http://www.w3.org/1999/xlink">
  <defs>
    <path d="M4.477 24.023C3.703 24.023 3 23.32 3 22.477V5.53C3 4.125 3.984 3 5.18 3h17.297c.843 0 1.546.703 1.546 1.477a1.56 1.56 0 0 1-1.546 1.546H6.023v16.454a1.56 1.56 0 0 1-1.546 1.546zM54.469 3C55.875 3 57 3.984 57 5.18v17.297c0 .843-.703 1.546-1.477 1.546a1.56 1.56 0 0 1-1.546-1.546V6.023H37.523a1.56 1.56 0 0 1-1.546-1.546c0-.774.703-1.477 1.546-1.477H54.47zm-30.446 7.523a2.97 2.97 0 0 1 2.954 2.954v10.546a2.97 2.97 0 0 1-2.954 2.954H13.477a2.97 2.97 0 0 1-2.954-2.954V13.477a2.97 2.97 0 0 1 2.954-2.954h10.546zM34.5 26.977c-1.688 0-3.023-1.336-3.023-2.954V13.477c0-1.618 1.335-2.954 3.023-2.954h10.477c1.687 0 3.023 1.336 3.023 2.954v10.546c0 1.618-1.336 2.954-3.023 2.954H34.5zm-10.477-2.954V13.477H13.477v10.546h10.546zM34.5 13.477v10.546h10.477V13.477H34.5zM21 16.5V21h-4.5v-4.5H21zM37.523 21v-4.5h4.5V21h-4.5zm-13.5 10.477c1.618 0 2.954 1.335 2.954 3.023v10.477c0 1.687-1.336 3.023-2.954 3.023H13.477c-1.618 0-2.954-1.336-2.954-3.023V34.5c0-1.688 1.336-3.023 2.954-3.023h10.546zm19.547 8.789h-7.664v3.304h-4.43V31.477h8.79v4.43h3.304v-4.43H48V48h-4.43v-7.734zm-19.547 4.71V34.5H13.477v10.477h10.546zm-1.546 9a1.56 1.56 0 0 1 1.546 1.547c0 .774-.703 1.477-1.546 1.477H5.18C3.984 57 3 55.875 3 54.469V37.523c0-.843.703-1.546 1.477-1.546a1.56 1.56 0 0 1 1.546 1.546v16.454h16.454zm33.046-18c.774 0 1.477.704 1.477 1.547V54.82c0 1.196-1.125 2.18-2.531 2.18H37.523c-.843 0-1.546-.703-1.546-1.477a1.56 1.56 0 0 1 1.546-1.546h16.454V37.523a1.56 1.56 0 0 1 1.546-1.546zM21 37.524v4.5h-4.5v-4.5H21zM40.336 48h-4.43v-4.43h4.43V48z" id="a"/>
  </defs>
  <use fill="#00D244" xlink:href="#a"/>
</svg>
