<svg viewBox="0 0 60 60" xmlns="http://www.w3.org/2000/svg" xmlns:xlink="http://www.w3.org/1999/xlink">
  <defs>
    <path d="M12.633 50.993h.07c4.852-.21 9.563-1.757 13.64-4.43.704-.491.915-1.405.423-2.109-.422-.703-1.407-.843-2.04-.421-2.53 1.687-5.273 2.812-8.226 3.445.844-.985 1.688-2.04 2.531-3.094a29.434 29.434 0 0 0 2.883-5.273c.14-.422.07-.914-.14-1.336a1.444 1.444 0 0 0-1.055-.703c-8.508-1.407-14.696-6.82-14.696-12.868 0-7.242 8.438-13.148 18.915-13.148 4.71-.281 9.351 1.125 13.218 3.867.633.422 1.547.281 2.04-.351.492-.704.35-1.618-.352-2.11a23.487 23.487 0 0 0-14.977-4.43C12.633 8.033 3 15.205 3 24.205c0 7.032 6.328 13.29 15.398 15.47-.562.984-1.125 1.968-1.828 2.882-1.547 2.11-3.164 4.078-4.992 5.836-.422.492-.562 1.125-.281 1.687.21.563.773.914 1.336.914zm33.96-.28c.634 0 1.196-.352 1.407-.915.21-.633.07-1.336-.422-1.758-1.406-1.125-2.531-2.53-3.375-4.148C51.656 42.275 57 37.072 57 31.095s-4.922-11.039-12.234-12.586c0 0 0-.07-.07-.07-2.743-.492-5.555-.492-8.368-.14-1.406.21-2.812.562-4.008 1.054-5.273 1.476-9.07 6.187-9.562 11.742 0 5.203 4.148 9.984 10.336 12.023 3.023 4.57 7.945 7.383 13.43 7.594h.07zM40.056 21.04c1.336 0 2.742.141 4.148.352 5.836 1.266 9.774 5.203 9.774 9.703 0 4.852-5.274 9.281-12.024 10.125-.492 0-.844.281-1.125.633-.21.422-.281.844-.14 1.336a14.134 14.134 0 0 0 1.828 3.726 13.915 13.915 0 0 1-7.172-5.836c-.14-.28-.492-.562-.844-.632-5.203-1.547-8.79-5.344-8.79-9.211a10.523 10.523 0 0 1 7.595-9.07c1.125-.423 2.25-.704 3.445-.915 1.125-.14 2.18-.21 3.305-.21z" id="a"/>
  </defs>
  <use fill="#00D244" xlink:href="#a"/>
</svg>
