<svg viewBox="0 0 600 420" xmlns="http://www.w3.org/2000/svg" xmlns:xlink="http://www.w3.org/1999/xlink"><defs><mask id="a" fill="#fff"><use fill="#fff" fill-rule="evenodd" xlink:href="#b"/></mask><path id="b" d="m127.5 255c60.563 0 111.264-42.226 124.267-98.844a127.9 127.9 0 0 0 3.233-28.656c0-23.618-6.422-45.736-17.615-64.704-22.177-37.583-63.087-62.796-109.885-62.796-70.416 0-127.5 57.084-127.5 127.5s57.084 127.5 127.5 127.5z"/></defs><g fill="none" fill-rule="evenodd"><g transform="translate(57 83)"><use stroke="#014242" xlink:href="#b"/><g mask="url(#a)"><g transform="translate(16 34)"><path d="m144.05 152.669-33.858 22.777c-1.45 1.496-3.657 1.348-4.952-.333l-29.521-28.71 15.767-12.865s18.377 23.795 18.706 23.44c.328-.354 21.546-8.618 22.778-9.85 1.23-1.23 12.312 1.847 11.08 5.54z" fill="#ffcdb8"/><rect fill="#014242" height="40.63" rx="3.078" transform="matrix(.78801075 .61566148 -.61566148 .78801075 117.650122 -63.184764)" width="20.315" x="140.419" y="118.933"/><rect fill="#fff" height="35.705" rx=".616" transform="matrix(.78801075 .61566148 -.61566148 .78801075 117.650122 -63.184764)" width="17.237" x="141.958" y="121.395"/><rect fill="#00d36a" height="7.387" rx="1.231" transform="matrix(.78801075 .61566148 -.61566148 .78801075 113.459398 -68.478017)" width="12.312" x="150.011" y="126.822"/><path d="m150.707 127.5 3.881 3.032-6.913.849z" fill="#00d36a"/><rect fill="#00d36a" height="7.387" rx="1.231" transform="matrix(.78801075 .61566148 -.61566148 .78801075 118.693037 -62.907609)" width="12.312" x="144.539" y="137.208"/><path d="m154.828 145.662-4.365-3.41 1.333 7.291z" fill="#00d36a"/><path d="m41.245 198.697s23.302 17.197 24.008 16.097c.707-1.1 14.351-6.276 14.351-6.276l1.655-54.856-2.685-25.617-22.359 12.625z" fill="#0f1818"/><path d="m39.831 61.56s1.514 12.963-13.246 17.39c-14.76 4.428-13.908 17.854-7.096 27.424 6.813 9.57-4.715 17.425-4.715 17.425s21.593 6.347 22.597-23.995c1.004-30.343 14.34-34.85 14.34-34.85l-11.881-3.394z" fill="#d6274d"/><path d="m26.876 341.224 14.432-126.276h21.649l11.659 57.005a25.352 25.352 0 0 1 -.491 12.145l-19.144 64.947 11.774-.572 21.223-62.09a44.466 44.466 0 0 0 1.444-24.449l-15.262-68.254-49.564-7.153-7.976 156.986 10.255-2.289z" fill="#398989"/><path d="m76.334 118.557-11.556 15.028-20.455-25.433 8.148-5.78.108-10.815.079-8.451 18.37 6.937v18.496z" fill="#ffcdb8"/><path d="m51.55 103.42s-2.212 11.166 7.26 17.756c9.472 6.589 15.194-1.433 12.725-12.606 0 0 7.929 19.625 7.217 34.379l-4.86 3.541a10.518 10.518 0 0 0 -4.237 9.748l4.539 37.992s-16.06 14.507-44.685-4.827l4.61-56.004h-4.61l-4.885-14.898s11.548-10.441 26.927-15.08" fill="#fff"/><path d="m71.41 108.961s11.933 35.753 5.303 106.499l11.933-16.003s-.947-69.006-17.236-90.496m-20.315-6.771s-.385 7.331-1.24 18.492l-.374 4.727a967.477 967.477 0 0 1 -1.246 14.048c-.152 1.616-.317 3.26-.481 4.933a771.895 771.895 0 0 1 -2.22 19.58 582.102 582.102 0 0 1 -1.766 12.887h-.006a312.648 312.648 0 0 1 -.764 4.945c-.85 5.313-1.778 10.47-2.786 15.33-.278 1.328-.56 2.64-.85 3.921a166.016 166.016 0 0 1 -2.57 10.098l-4.966-2.743-4.988-2.76-9.065-5.014-4.824-2.668-.533-.294-.006-.005-3.176-1.754.64-2.559 4.326-17.309 1.076-4.3 3.72-14.888.854-3.416 4.774-19.108.22-.897.997-3.973 3.46-13.84.866-3.474.538-.259.776-.368 4.156-1.978 10.34-4.916 3.957-1.886 1.15-.547c.005-.005.01-.005.01-.005" fill="#014242"/><path d="m51.095 102.805-2.727 9.761-.012.047-2.04 7.265-1.198 4.288-.801 2.873-2.773 1.728-8.14 5.073-2.739 1.704-1.551.972-2.216 1.378-.761-.826-1.602-1.745-1.676-1.82-6.914-7.517-1.17-1.273a100.659 100.659 0 0 1 11.498-9.767 87 87 0 0 1 3.778-2.595c.523-.349 1.04-.68 1.551-.995h.006a84.176 84.176 0 0 1 4.244-2.478c4.136-2.25 7.675-3.717 10.3-4.642a46.946 46.946 0 0 1 3.829-1.175 17.162 17.162 0 0 1 1.102-.25c.006-.006.012-.006.012-.006m20.315 6.156s10.787 10.39 19.699 24.56c0 0-2.221 6.534-11.163 11.145 0 0-3.659-26.543-8.536-35.705" fill="#014242"/><path d="m71.41 90.16v15.723c-10.295-2.275-15.67-8.882-18.468-14.183l.08-8.594z" fill="#eea0a0"/><path d="m96.034 55.404c0 22.1-8.52 40.014-24.982 40.014s-29.807-17.915-29.807-40.014 13.345-40.014 29.807-40.014 24.982 17.915 24.982 40.014" fill="#ffcdb8"/><path d="m74.233 58.78c-.447 4.412-.421 7.717-.233 10.089.302 3.786 3.844 5.176 5.41 2.042 1.11-2.222 1.04-6.124-2.87-12.973-.706-1.235-2.149-.715-2.307.843" fill="#eea0a0"/><path d="m41.166 54.173s18.23-19.997 19.366-33.598l-1.856 16.609c-.24 2.145 1.1 4.15 3.162 4.731a4.358 4.358 0 0 0 5.153-2.416c2.097-4.629 7.275-12.93 7.275-18.852 0 0 2.275 8.25 2.459 15.248.087 3.317 1.057 5.925 4.342 5.709a5.762 5.762 0 0 0 3.569-1.56c4.42-4.153 17.892-19.696 2.032-32.068-28.266-22.048-57.589 6.398-57.734 27.49-.113 16.464 12.232 18.707 12.232 18.707" fill="#d6274d"/><g fill="#014242"><path d="m57.227 53.992a7.619 7.619 0 0 1 -.365-.548c-.214-.315.173-1.15.935-1.55 3.038-1.615 6.8-.188 7.898 2.599.285.71.024 1.293-.35 1.225a6.875 6.875 0 0 0 -.656-.047c-.377-.028-.741-.378-.948-.76-.805-1.62-3.31-2.49-5.283-1.151-.466.318-.998.526-1.231.232"/><path d="m61.207 60.731c-.037-1.796.355-4.287 2.42-5.99a1.381 1.381 0 0 1 2.257.854c.295 1.727.155 4.309-2.465 6.269-.917.686-2.188.033-2.212-1.133m20.829-6.585a7.732 7.732 0 0 1 -.364-.548c-.214-.315.174-1.15.935-1.55 3.038-1.615 6.8-.187 7.899 2.6.284.71.022 1.293-.351 1.225a6.876 6.876 0 0 0 -.656-.047c-.377-.029-.74-.378-.948-.761-.805-1.62-3.31-2.49-5.284-1.15-.467.317-.997.526-1.231.231"/><path d="m86.017 60.885c-.037-1.796.355-4.287 2.42-5.99a1.381 1.381 0 0 1 2.257.854c.295 1.727.154 4.31-2.466 6.27-.916.685-2.188.033-2.211-1.134"/><path d="m48.952 55.096c0 6.453 5.231 11.685 11.685 11.685 6.453 0 11.684-5.232 11.684-11.685s-5.231-11.685-11.684-11.685c-6.454 0-11.685 5.232-11.685 11.685zm-1.55 0c0-7.31 5.925-13.235 13.235-13.235s13.235 5.926 13.235 13.235c0 7.31-5.926 13.236-13.235 13.236-7.31 0-13.236-5.926-13.236-13.236zm31.098-1.846c0 6.453 5.232 11.684 11.685 11.684 6.454 0 11.685-5.231 11.685-11.685 0-6.453-5.231-11.684-11.685-11.684-6.453 0-11.684 5.231-11.684 11.684zm-1.55 0c0-7.31 5.926-13.236 13.235-13.236 7.31 0 13.236 5.926 13.236 13.235 0 7.31-5.926 13.236-13.236 13.236s-13.235-5.926-13.235-13.236z" fill-rule="nonzero"/><path d="m77.566 52.942v.985h-4.31v-.985zm-28.318-1.132-.09 1.747-10.991-.715.091-1.747z" fill-rule="nonzero"/></g><path d="m35.22 62.34c-3.452-3.573-4.243-8.334-1.765-10.635 2.477-2.3 7.284-1.27 10.737 2.303s4.243 8.335 1.766 10.635c-2.478 2.3-7.285 1.27-10.737-2.303" fill="#ffcdb8"/><path d="m68.45 74.979a.701.701 0 0 1 .228-.994.77.77 0 0 1 1.037.22c.043.063.141.193.294.367.262.3.575.6.938.879 2.48 1.914 5.644 1.914 9.688-1.406a.774.774 0 0 1 1.059.078.698.698 0 0 1 -.081 1.014c-4.601 3.778-8.573 3.778-11.609 1.434a8.132 8.132 0 0 1 -1.145-1.074 5.345 5.345 0 0 1 -.41-.518z" fill="#014242" fill-rule="nonzero"/><path d="m28.992 176.148-12.094-19.568c-1.096-1.774-2.195-4.926-.893-6.517l11.185-12.763-12.162-12.949-9.639 10.13c-6.64 6.982-7.22 18.504-1.318 26.26l20.457 26.889s-8.265-.844-11.78 11.812l-8.641-1.128c-1.201-.157-2.38.681-2.624 1.996-.262 1.403.533 2.718 1.73 3.03l15.805 4.117s6.786-3.522 10.815-11.366c3.21-6.249 2.825-14.011-.84-19.943m104.747-35.904 2.462-4.12c5.102-.454 7.96-.143 8.578.932.926 1.614.876 4.332-1.024 3.823-1.267-.34-3.55-.268-6.848.214l-4.704 4.885zm31.214-1.785c-2.459-1.218-4.207-1.686-5.243-1.405-1.555.422-3.475 3.644-.562 4.424 2.914.78 5.08 2.015 5.57.186.328-1.22.406-2.288.235-3.205z" fill="#ffcdb8"/><path d="m163.42 142.96c-2.313-1.475-3.998-2.151-5.054-2.028-1.583.185-3.812 2.948-1.004 4.074 2.808 1.127 4.83 2.578 5.501.929.448-1.1.633-2.092.557-2.975z" fill="#ffcdb8"/><path d="m161.116 146.804c-2.314-1.476-3.998-2.152-5.054-2.028-1.584.185-3.812 2.947-1.004 4.074 2.807 1.127 4.83 2.578 5.5.928.448-1.1.634-2.091.558-2.974z" fill="#ffcdb8"/><path d="m158.265 150.502c-1.892-1.363-3.287-1.962-4.183-1.796-1.345.249-3.342 3.073-1.018 4.07 2.324.998 3.972 2.349 4.607.69.424-1.106.622-2.094.594-2.964z" fill="#ffcdb8"/></g></g></g><path d="m254.131 171.969c.213-13.141 10.933-23.729 24.125-23.729h211.344c13.326 0 24.128 10.802 24.128 24.128v40.32c0 13.326-10.802 24.128-24.128 24.128h-211.344c-13.326 0-24.128-10.802-24.128-24.128v-10.843c-5.906-4.713-10.971-12.145-15.438-22.196l13.966-7.687a.463.463 0 0 0 .143.12c.204.133.517.274.958.404l.197.055.174.045zm235.159-15.729h-211.344c-8.908 0-16.128 7.22-16.128 16.128v8.316c-8.262.88-13.638-.548-16.128-4.284 4.832 10.874 10.209 17.947 16.128 21.217v15.071c0 8.907 7.22 16.128 16.128 16.128h211.344c8.907 0 16.128-7.22 16.128-16.128v-40.32c0-8.907-7.221-16.128-16.128-16.128z" fill="#fff" fill-rule="nonzero"/><path d="m376.44 254.8c-8.907-.04-16.16 7.15-16.2 16.056v40.392c0 8.879 7.177 16.088 16.056 16.128l114.576.51c8.907.039 16.16-7.15 16.2-16.057v-15.071c5.92-3.27 11.295-10.343 16.128-21.217-2.49 3.737-7.866 5.165-16.127 4.285l-.001-8.388c0-8.88-7.177-16.088-16.056-16.128zm-97.712-98.56c-8.907 0-16.128 7.22-16.128 16.128v8.316c-8.261.88-13.637-.548-16.128-4.284 4.833 10.874 10.209 17.947 16.128 21.217v15.071c0 8.907 7.22 16.128 16.128 16.128h211.344c8.907 0 16.128-7.22 16.128-16.128v-40.32c0-8.907-7.22-16.128-16.128-16.128z" fill="#00d36a"/><g fill="#014242"><circle cx="400.56" cy="291.76" r="3.36"/><circle cx="414" cy="291.76" r="3.36"/><circle cx="427.44" cy="291.76" r="3.36"/></g><path d="m376.44 56c-8.907-.04-16.16 7.15-16.2 16.056v40.392c0 8.879 7.177 16.088 16.056 16.128l114.576.51c8.907.039 16.16-7.15 16.2-16.057v-15.071c5.92-3.27 11.295-10.343 16.128-21.217-2.49 3.737-7.866 5.165-16.127 4.285l-.001-8.388c0-8.88-7.177-16.088-16.056-16.128z" fill="#00d36a"/><g fill="#014242"><g><circle cx="400.56" cy="92.96" r="3.36"/><circle cx="414" cy="92.96" r="3.36"/><circle cx="427.44" cy="92.96" r="3.36"/></g><path d="m453.358 346.965-1.265.18.072.894c.115 1.558.132 2.409.132 3.08v6.481h1.49v-8.038c1.016-.858 2.145-1.445 3.342-1.445 1.435 0 1.844.9 1.872 2.72l.002 6.763h1.49v-7.135c0-2.303-.745-3.658-3.048-3.658-1.468 0-2.665.61-3.816 1.648zm9.903 5.532c0 3.139 1.693 5.42 4.493 5.42 3.229 0 4.674-2.959 4.674-5.69 0-3.117-1.671-5.42-4.47-5.42-3.207 0-4.697 3.003-4.697 5.69zm7.654-.068c0 1.513-.384 2.71-1.084 3.432-.429.452-1.084.768-1.942.768-2.054 0-3.115-1.829-3.115-4.335 0-1.535.429-2.755 1.106-3.455.452-.429 1.084-.722 1.942-.722 2.032 0 3.093 1.829 3.093 4.312zm9.926-5.283 1.467-.045 2.145 7.248.407 1.558h.09l2.687-8.784h1.422c0 .235-.043.484-.118.725l-3.291 9.73-1.603.045-2.145-6.977-.362-1.355h-.067l-2.507 8.286-1.625.046-3.23-9.597c-.09-.293-.18-.587-.18-.903h1.49l2.258 7.226.452 1.558h.09zm-47.747 2.873-2.294 2.241 4.851 4.74 9.149-8.961-2.296-2.239-6.856 6.715z" fill-rule="nonzero"/></g></g></svg>