<svg viewBox="0 0 600 420" xmlns="http://www.w3.org/2000/svg" xmlns:xlink="http://www.w3.org/1999/xlink"><defs><mask id="a" fill="#fff"><use fill="#fff" fill-rule="evenodd" xlink:href="#c"/></mask><mask id="b" fill="#fff"><use fill="#fff" fill-rule="evenodd" xlink:href="#d"/></mask><path id="c" d="m26.04 2.304c-.56 3.024.42 6.048 2.94 9.072-3.64 4.704-7.98 7.056-13.02 7.056-7.56 0-12.18-3.528-13.86-8.568-1.12-3.36-1.82-6.216-2.1-8.568 4.76-2.016 13.44-1.68 26.04 1.008z"/><path id="d" d="m31.248 2.304c-.672 3.024.504 6.048 3.528 9.072-4.368 4.704-9.576 7.056-15.624 7.056-9.072 0-14.616-3.528-16.632-8.568-1.344-3.36-2.184-6.216-2.52-8.568 5.712-2.016 16.128-1.68 31.248 1.008z"/></defs><g fill="none" fill-rule="evenodd"><path d="m312.016 313v-23.482l70.561-40.572m42.155-24.238 30.993-17.82 38.412 22.648-143.696 82.603-38.425-22.621 38.425 22.62 143.696-82.602v47.516" stroke="#014242"/><path d="m391.858 232.54a2.082 2.082 0 0 1 1.52-.335l-.38 1.292a1.702 1.702 0 0 0 -1.095.273c-.42.253-.759.622-.972 1.064a5.44 5.44 0 0 0 -.517 2.401c0 1.261.365 2.28 1.52 1.596.434-.266.824-.6 1.155-.988l.273.927a5.82 5.82 0 0 1 -1.626 1.429c-1.52.911-2.462-.107-2.462-2.22-.1-2.13.87-4.17 2.584-5.44zm3.115-2.57v3.375a3.42 3.42 0 0 1 1.186-1.247c.82-.47 1.216 0 1.216 1.125v3.587l-1.08.623v-3.207c0-.714-.121-.957-.486-.745a3.04 3.04 0 0 0 -.836.821v3.906l-1.079.623v-8.222l1.08-.638zm4.043.563.213.82a2.72 2.72 0 0 1 1.003-1.519.73.73 0 0 1 .562-.106l-.167 1.428a1.52 1.52 0 0 0 -.44.198 2.158 2.158 0 0 0 -.882 1.064v3.343l-1.08.623v-3.04-2.157l.79-.654zm2.827-4.012c.35-.198.577 0 .577.426.004.478-.237.925-.638 1.185-.35.213-.578 0-.578-.395-.011-.489.23-.948.639-1.216zm.486 2.173v5.274l-1.079.623v-5.258l1.08-.639zm2.311-1.444c.367-.26.841-.317 1.26-.151l-.38 1.109a1.246 1.246 0 0 0 -.866.152.897.897 0 0 0 -.516.73c0 .334.288.318.714.303.425-.015 1.155 0 1.155.897a3.146 3.146 0 0 1 -1.626 2.63 1.733 1.733 0 0 1 -1.52.242l.38-1.11c.355.073.725.008 1.033-.182.328-.154.556-.462.608-.82 0-.365-.38-.32-.836-.304-.455.015-1.033 0-1.033-.882a3.146 3.146 0 0 1 1.626-2.614zm3.343-3.404v1.52l1.155-.669v1.125l-1.155.669v2.112c0 .79.106.927.47.714.21-.13.41-.277.594-.44l.182.881c-.348.393-.753.73-1.2 1.003-.7.41-1.095.198-1.095-1.155v-2.477l-.562.319v-1.125l.516-.288.228-1.733zm2.31-2.218c.35-.198.577 0 .577.425.004.478-.236.925-.638 1.185-.365.213-.577 0-.577-.395-.012-.488.23-.948.638-1.215zm.486 2.173v5.273l-1.079.623v-5.258l1.08-.638zm1.672-1.034.167.608a3.435 3.435 0 0 1 1.307-1.52c.851-.486 1.216 0 1.216 1.125v3.587l-1.064.623v-3.146c0-.76-.106-1.018-.486-.806a2.75 2.75 0 0 0 -.836.927v3.83l-1.14.608v-3.04-2.157zm5.152-2.994c.958-.562 1.414-.197 1.414 1.17v3.268l-.852.654-.167-.593a3.739 3.739 0 0 1 -1.261 1.52c-.669.38-1.064.106-1.064-.745a2.903 2.903 0 0 1 .532-1.611 6.413 6.413 0 0 1 1.672-1.52c0-.85-.168-1.003-.578-.775a3.951 3.951 0 0 0 -1.14 1.17l-.319-.683a5.076 5.076 0 0 1 1.763-1.855zm.334 3.8v-.836a3.815 3.815 0 0 0 -1.033.866 1.018 1.018 0 0 0 -.182.608c0 .334.106.456.38.32.345-.255.63-.582.835-.958zm-25.973.288 1.079 1.87.258.577v-3.206l.563-.335v4.316l-.699.395-1.095-1.899-.243-.532v3.191l-.562.319v-4.316zm3.572-.927c.668-.38 1.048.076 1.048.973a2.781 2.781 0 0 1 -1.14 2.356c-.653.38-1.048 0-1.048-.943a2.842 2.842 0 0 1 1.14-2.386zm0 .7a.73.73 0 0 0 -.29.334 2.28 2.28 0 0 0 -.151.866c0 .593.152.897.456.73a.76.76 0 0 0 .289-.335c.109-.27.16-.56.151-.85-.045-.593-.212-.928-.516-.745h.06zm3.404-2.63.334 1.596v.471l.41-2.538.593-.35c.015.132.015.265 0 .396l-.638 3.04-.714.425-.32-1.444v-.425l-.38 2.294-.699.426-.623-2.386a1.125 1.125 0 0 1 0-.334l.639-.365.334 1.52v.47l.426-2.522zm3.936-3.541a1.52 1.52 0 0 1 .897-.228l-.182.715a1.854 1.854 0 0 0 -.715.243c-.32.155-.533.467-.562.82 0 .335.243.335.562.32.32-.015.988 0 .988.76a2.401 2.401 0 0 1 -1.231 2.02 1.52 1.52 0 0 1 -1.064.244l.213-.745c.298.015.594-.06.851-.212.334-.16.56-.483.593-.852 0-.364-.259-.349-.608-.319-.35.03-.942 0-.942-.76a2.37 2.37 0 0 1 1.2-2.006zm2.477-.182c.608-.35.897 0 .897.806.012.182.012.364 0 .547l-1.337.775c0 .486.228.592.547.41a3.04 3.04 0 0 0 .638-.501l.137.47c-.247.308-.545.57-.882.776-.638.364-1.063 0-1.063-.897a2.766 2.766 0 0 1 1.063-2.386zm-.47 1.611.774-.44v-.183c0-.32-.106-.456-.35-.32a1.14 1.14 0 0 0 -.425.943zm2.34-2.66.121.487c.085-.364.295-.687.593-.912a.426.426 0 0 1 .335 0l-.107.836a1.277 1.277 0 0 0 -.775.745v1.96l-.638.365v-1.763-1.277l.47-.44zm3.632-2.052c.014.132.014.265 0 .396l-.73 3.146-.698.425-.7-2.325a1.155 1.155 0 0 1 0-.334l.639-.365.35 1.383c.047.21.083.424.106.638l.501-2.583.532-.38zm.76-1.93c.198-.12.334 0 .334.244a.82.82 0 0 1 -.364.699c-.213.122-.35 0-.35-.228a.82.82 0 0 1 .38-.714zm.289 1.277v3.04l-.638.365v-3.04zm1.231-.714.091.365c.163-.37.433-.682.775-.897.502-.289.714 0 .714.654v2.112l-.623.365v-1.87c0-.44 0-.592-.288-.47a1.61 1.61 0 0 0 -.502.547v2.249l-.638.364v-1.762-1.262l.47-.395zm2.553.593c-.289 0-.425-.289-.425-.684.01-.729.394-1.4 1.018-1.778a.851.851 0 0 1 .486-.137c.163-.31.398-.575.684-.775v.653l-.38.29c.1.158.148.344.137.531a2.067 2.067 0 0 1 -1.018 1.748l-.167.076a.562.562 0 0 0 0 .197c0 .244.167.168.455 0 .608-.334.943-.228.943.35a2.356 2.356 0 0 1 -1.247 1.915c-.577.334-1.003.258-1.003-.335.032-.379.17-.742.396-1.048a.426.426 0 0 1 -.076-.289 1.52 1.52 0 0 1 .197-.714zm1.018 1.307a.73.73 0 0 0 .122-.395c0-.29-.243-.198-.562 0-.128.08-.266.14-.41.182a1.155 1.155 0 0 0 -.183.547c0 .289.228.289.562.091.184-.089.345-.219.471-.38zm-.532-3.13a.866.866 0 0 0 -.38.759c0 .35.122.486.38.334a.851.851 0 0 0 .38-.76c.076-.334-.045-.486-.38-.334z" fill="#014242" fill-rule="nonzero"/><g stroke="#014242"><path d="m422.993 199.293a.726.726 0 0 1 .39.108l.995.565a.82.82 0 0 1 .323.726v28.404c-.002.21-.039.42-.107.619.272-.07.552-.106.833-.108.407-.01.81.082 1.17.27l24.6 14.201a.78.78 0 0 1 .457.727v1.21a1.103 1.103 0 0 1 -.659.888l-38.224 22.15c-.47.254-.998.383-1.533.376a2.394 2.394 0 0 1 -1.17-.269l-24.6-14.202a.807.807 0 0 1 -.457-.645v-.847c-.213.136-.459.215-.712.228a.726.726 0 0 1 -.417-.12l-.969-.539a.793.793 0 0 1 -.363-.74v-28.39a3.013 3.013 0 0 1 1.453-2.286l38.277-22.11c.214-.137.46-.216.713-.229z" stroke-width=".7"/><path d="m385.67 252.148 38.251-22.164a3.013 3.013 0 0 1 2.69-.108l24.6 14.202c.685.404.605 1.103-.189 1.56l-38.25 22.164a3.013 3.013 0 0 1 -2.69.108l-24.6-14.189c-.7-.417-.605-1.116.188-1.573z" stroke-width=".5"/></g><g fill="#014242" fill-rule="nonzero"><path d="m394.866 253.238 1.695-.981c.261-.161.268-.428-.001-.582l-1.574-.9a.814.814 0 0 0 -.738-.004l-1.7.985c-.262.161-.27.428 0 .582l1.573.9c.21.107.448.119.66.038zm-.625-.221-1.568-.898c-.098-.056-.097-.085.003-.147l1.692-.98a.558.558 0 0 1 .499.004l1.568.898c.098.056.097.084-.004.146l-1.688.978a.56.56 0 0 1 -.502-.001zm-1.982 1.733 1.706-.987c.261-.161.268-.428 0-.582l-1.546-.913a.815.815 0 0 0 -.74-.004l-1.7.985c-.262.16-.27.428 0 .582l1.574.9c.224.115.482.12.706.02zm-.587-.24-1.568-.898c-.098-.056-.097-.085.004-.147l1.691-.98a.558.558 0 0 1 .5.004l1.538.91c.1.057.1.086-.001.148l-1.686.976a.56.56 0 0 1 -.478-.013zm8.393-4.28 1.7-.986c.262-.16.27-.428 0-.581l-1.574-.901a.814.814 0 0 0 -.738-.004l-1.7.986c-.262.16-.27.427 0 .581l1.573.901c.236.12.508.12.739.003zm-.62-.226-1.567-.898c-.098-.056-.097-.084.003-.146l1.692-.98a.558.558 0 0 1 .499.003l1.568.898c.098.056.097.085-.004.147l-1.688.978a.56.56 0 0 1 -.502-.002zm-1.97 1.728 1.695-.982c.261-.16.268-.427 0-.581l-1.574-.901a.814.814 0 0 0 -.739-.003l-1.7.985c-.262.16-.27.428 0 .581l1.574.901c.21.107.448.118.66.038zm-.625-.221-1.568-.898c-.098-.056-.097-.085.004-.147l1.691-.98a.558.558 0 0 1 .5.004l1.567.898c.098.056.097.084-.003.146l-1.689.978a.56.56 0 0 1 -.502-.001zm6.135-5.185 1.573.901c.236.12.508.12.738.003l1.701-.985c.262-.161.27-.428 0-.582l-1.574-.9a.814.814 0 0 0 -.738-.004l-1.7.985c-.219.158-.24.406-.046.552zm.126-.218c-.074-.043-.073-.092.01-.153l1.684-.974a.558.558 0 0 1 .499.003l1.568.898c.098.056.097.085-.004.147l-1.692.98a.558.558 0 0 1 -.498-.004zm-1.156 2.628c.23.117.502.117.732 0l1.701-.985c.262-.16.269-.427 0-.581l-1.574-.901a.814.814 0 0 0 -.738-.003l-1.701.985c-.262.16-.269.427 0 .581zm-1.454-1.122c-.098-.056-.097-.085.003-.147l1.692-.98a.558.558 0 0 1 .499.003l1.567.898c.098.056.098.085-.003.147l-1.692.98a.555.555 0 0 1 -.435.024l-.06-.026-1.571-.9zm9.416-5.854-1.7.985c-.263.161-.27.428 0 .582l1.573.901c.236.12.508.12.738.003l1.701-.985c.262-.161.269-.428 0-.582l-1.574-.9a.814.814 0 0 0 -.738-.004zm.619.225 1.568.898c.098.056.097.085-.004.147l-1.692.98a.558.558 0 0 1 -.498-.004l-1.568-.898c-.098-.056-.097-.084.003-.146l1.689-.978a.56.56 0 0 1 .502.001zm-4.942 2.835 1.574.9c.236.12.507.12.738.004l1.7-.985c.262-.161.27-.428 0-.582l-1.574-.9a.814.814 0 0 0 -.738-.004l-1.7.985c-.228.152-.244.403-.046.551l.046.03zm.126-.218c-.08-.047-.08-.093.006-.15l1.688-.978a.558.558 0 0 1 .5.004l1.567.898c.098.056.097.084-.004.146l-1.691.98a.558.558 0 0 1 -.499-.003zm9.108-2.878c.259-.159.266-.426-.004-.58l-1.573-.9a.814.814 0 0 0 -.738-.004l-1.701.986c-.262.16-.269.427 0 .581l1.574.901c.236.12.508.12.738.003zm-1.824.766a.558.558 0 0 1 -.499-.004l-1.567-.898c-.098-.056-.098-.084.003-.146l1.692-.98a.558.558 0 0 1 .499.003l1.567.898c.087.05.096.078.028.127l-.03.019-1.693.98zm4.754-5.262-1.7.985c-.262.161-.27.428 0 .582l1.573.9c.236.12.508.12.738.004l1.701-.985c.262-.161.27-.428 0-.582l-1.574-.901a.814.814 0 0 0 -.738-.003zm.619.225 1.568.898c.098.056.097.084-.004.146l-1.692.98a.558.558 0 0 1 -.498-.003l-1.568-.898c-.098-.056-.097-.085.003-.147l1.689-.978a.56.56 0 0 1 .502.002zm-3.221 1.285-1.695.981c-.261.161-.268.428.001.582l1.574.901c.236.12.507.12.738.003l1.7-.985c.262-.161.27-.428 0-.582l-1.573-.9a.816.816 0 0 0 -.66-.038zm.625.221 1.568.898c.098.056.097.085-.004.147l-1.691.98a.558.558 0 0 1 -.499-.004l-1.568-.898c-.098-.056-.097-.084.004-.146l1.688-.978a.56.56 0 0 1 .502.001zm9.47-3.259c.26-.16.266-.427-.003-.58l-1.574-.902a.814.814 0 0 0 -.738-.003l-1.7.986c-.262.16-.27.427 0 .581l1.573.901c.236.12.508.12.739.003l1.703-.987zm-1.823.765a.558.558 0 0 1 -.5-.004l-1.567-.898c-.098-.056-.097-.084.003-.146l1.692-.98a.558.558 0 0 1 .499.003l1.568.898c.086.05.096.078.027.127l-.03.019-1.692.98z"/><path d="m420.334 235.725-1.695.982c-.276.158-.283.457.004.61l1.57.9a.868.868 0 0 0 .793.002l1.7-.985c.277-.158.284-.457-.003-.61l-1.57-.9a.87.87 0 0 0 -.718-.036l-.08.037zm.679.221 1.568.899c.11.059.11.108 0 .17l-1.695.983a.611.611 0 0 1 -.552-.003l-1.569-.898c-.11-.06-.11-.11 0-.172l1.692-.98a.614.614 0 0 1 .556.001zm-2.373 5.834c.22.11.47.11.684.004l1.701-.986c.25-.146.258-.422-.01-.546l-1.564-.896a.76.76 0 0 0 -.684-.003l-1.701.985c-.213.124-.242.345-.083.485l.04.03zm.119-.222-1.574-.9c-.07-.036-.07-.057.008-.102l1.694-.982a.504.504 0 0 1 .445.004l1.568.898c.082.038.081.056-.001.104l-1.695.982a.504.504 0 0 1 -.445-.004z"/><path d="m423.858 238.781c.237.12.508.12.739.003l1.7-.985c.262-.16.27-.428 0-.581l-1.574-.901a.814.814 0 0 0 -.738-.004l-1.7.986c-.242.148-.258.403-.047.552l.048.03zm.12-.222-1.57-.9c-.088-.046-.088-.086.006-.144l1.691-.98a.558.558 0 0 1 .499.003l1.568.898c.098.056.097.085-.004.147l-1.691.98a.558.558 0 0 1 -.5-.004zm-4.316.827 1.574.901c.236.12.508.12.738.004l1.7-.986c.263-.16.27-.427 0-.581l-1.573-.901a.814.814 0 0 0 -.738-.003l-1.701.985c-.218.157-.239.405-.045.551zm.126-.218c-.073-.043-.072-.092.01-.152l1.685-.975a.558.558 0 0 1 .498.004l1.568.898c.098.056.097.084-.003.146l-1.692.98a.558.558 0 0 1 -.499-.003zm9.409-5.85-1.694.981c-.262.161-.269.428 0 .582l1.574.901c.236.12.508.12.738.003l1.701-.985c.262-.161.269-.428 0-.582l-1.574-.9a.816.816 0 0 0 -.66-.038zm.625.221 1.568.898c.098.056.097.085-.003.147l-1.692.98a.558.558 0 0 1 -.499-.004l-1.567-.898c-.098-.056-.098-.084.003-.146l1.688-.978a.56.56 0 0 1 .502.001zm-.916 2.172-1.573-.9a.814.814 0 0 0 -.738-.004l-1.701.985c-.262.161-.27.428 0 .582l1.574.9c.236.12.508.12.738.004l1.7-.985c.219-.158.24-.405.046-.552zm-.126.218c.074.043.073.093-.01.153l-1.684.975a.558.558 0 0 1 -.499-.004l-1.568-.898c-.098-.056-.097-.084.004-.146l1.692-.98a.558.558 0 0 1 .498.003zm-22.509 13.396 1.695-.982c.261-.161.268-.428 0-.582l-1.574-.9a.814.814 0 0 0 -.738-.004l-1.701.986c-.262.16-.27.427 0 .581l1.574.901c.21.106.448.118.66.038zm-.625-.222-1.568-.898c-.098-.056-.097-.084.004-.146l1.692-.98a.558.558 0 0 1 .498.003l1.568.898c.098.056.097.085-.003.147l-1.689.978a.56.56 0 0 1 -.502-.002zm5.153-2.79c.236.119.508.119.738.003l1.701-.986c.262-.16.269-.427 0-.581l-1.574-.901a.814.814 0 0 0 -.738-.003l-1.701.985c-.231.154-.253.406-.046.553l.048.03zm-1.451-1.122c-.082-.044-.081-.087.01-.147l1.688-.978a.558.558 0 0 1 .498.004l1.568.898c.098.056.097.084-.003.146l-1.692.98a.558.558 0 0 1 -.499-.003zm-.387 2.614 1.695-.982c.261-.16.268-.427 0-.581l-1.574-.901a.814.814 0 0 0 -.739-.003l-1.7.985c-.262.16-.27.427 0 .581l1.574.901c.21.107.448.118.66.038zm-.625-.221-1.568-.898c-.098-.056-.097-.085.004-.147l1.691-.98a.558.558 0 0 1 .5.004l1.567.897c.098.056.097.085-.003.147l-1.689.978a.56.56 0 0 1 -.502-.001zm-8.118 4.683-1.573-.901a.814.814 0 0 0 -.738-.003l-1.701.985c-.262.16-.27.428 0 .581l1.574.901c.236.12.508.12.738.004l1.7-.986c.217-.156.238-.386.054-.542l-.054-.04zm-.136.37-1.684.975a.558.558 0 0 1 -.499-.003l-1.568-.898c-.098-.056-.097-.085.004-.147l1.692-.98a.558.558 0 0 1 .498.004l1.564.895c.078.053.076.094-.007.154z"/><path d="m405.437 249.254-1.574-.9a.814.814 0 0 0 -.738-.004l-1.701.985c-.262.161-.269.428 0 .582l1.574.9c.236.12.508.12.738.004l1.701-.985c.235-.054.25-.39.045-.551l-.045-.03zm-.126.219c.062.036.07.1.047.123l-1.742 1.004a.558.558 0 0 1 -.498-.004l-1.568-.898c-.098-.056-.097-.084.003-.146l1.692-.98a.558.558 0 0 1 .499.003zm-4.191 2.837 1.695-.981c.261-.161.268-.428-.001-.582l-1.574-.9a.814.814 0 0 0 -.738-.004l-1.7.985c-.262.161-.27.428 0 .582l1.574.9c.21.107.447.119.66.038zm-.625-.221-1.568-.898c-.098-.056-.097-.085.004-.146l1.691-.98a.558.558 0 0 1 .499.003l1.568.898c.098.056.097.084-.004.146l-1.688.978a.56.56 0 0 1 -.502-.001zm17.961-10.339-1.574-.901a.814.814 0 0 0 -.738-.003l-1.7.985c-.262.16-.27.428 0 .581l1.573.901c.236.12.508.12.738.004l1.701-.986c.218-.157.239-.405.046-.55zm-.126.218c.073.043.072.092-.01.152l-1.684.975a.558.558 0 0 1 -.5-.003l-1.567-.898c-.098-.056-.097-.085.003-.147l1.692-.98a.558.558 0 0 1 .499.004zm-6.509 1.937 1.574.901c.236.12.508.12.738.003l1.7-.985c.262-.16.27-.427 0-.581l-1.573-.901a.814.814 0 0 0 -.738-.004l-1.701.986c-.218.157-.239.405-.045.551zm.126-.218c-.073-.043-.072-.092.01-.152l1.685-.975a.558.558 0 0 1 .498.003l1.568.898c.098.056.097.085-.003.147l-1.692.98a.558.558 0 0 1 -.499-.004zm10.557-3.349a.814.814 0 0 0 -.738-.003l-1.7.985c-.262.16-.27.427 0 .581l1.573.901c.236.12.508.12.738.003l1.701-.985c.232-.135.255-.403.047-.552l-.048-.03zm1.452 1.121c.08.044.08.095-.004.143l-1.695.982a.558.558 0 0 1 -.498-.003l-1.568-.898c-.098-.056-.097-.085.003-.147l1.692-.98a.558.558 0 0 1 .499.004l1.57.9zm5.354-3.233-1.574-.9a.814.814 0 0 0 -.738-.004l-1.701.985c-.262.161-.269.428 0 .582l1.574.9c.236.12.508.12.738.004l1.701-.985c.218-.158.239-.405.045-.552zm-.126.218c.073.043.072.092-.011.153l-1.684.974a.558.558 0 0 1 -.498-.003l-1.568-.898c-.098-.056-.097-.084.003-.146l1.692-.98a.558.558 0 0 1 .499.003zm-2.484 1.275-1.6-.901a.814.814 0 0 0 -.738-.003l-1.701.985c-.262.161-.269.428 0 .582l1.574.9c.236.12.508.12.738.004l1.701-.985c.247-.142.276-.397.074-.55zm-.151.363-1.696.982a.558.558 0 0 1 -.498-.003l-1.568-.898c-.098-.056-.098-.085.003-.147l1.692-.98a.558.558 0 0 1 .499.004l1.594.898c.078.045.076.086-.026.144zm-15.517 8.688-1.574-.9a.814.814 0 0 0 -.738-.004l-1.701.985c-.262.161-.269.428 0 .582l1.574.9c.236.12.508.12.738.004l1.701-.985c.218-.158.239-.405.045-.552zm-.126.218c.073.043.072.092-.011.153l-1.684.974a.558.558 0 0 1 -.498-.003l-1.568-.898c-.098-.056-.097-.085.003-.146l1.692-.98a.558.558 0 0 1 .499.003z"/><path d="m414.677 244.857a.814.814 0 0 0 -.739-.004l-1.7.986c-.262.16-.27.427 0 .581l1.574.901c.236.12.508.12.738.003l1.7-.985c.232-.154.254-.406.047-.552l-.048-.03zm-.12.221 1.57.9c.083.044.082.087-.01.147l-1.687.978a.558.558 0 0 1 -.499-.004l-1.568-.898c-.098-.056-.097-.084.004-.146l1.691-.98a.558.558 0 0 1 .5.003zm-.903 2.186-1.573-.901a.814.814 0 0 0 -.738-.003l-1.701.985c-.262.16-.269.428 0 .581l1.574.901c.236.12.508.12.738.004l1.701-.986c.218-.157.238-.405.045-.55zm-.126.218c.074.043.073.092-.01.152l-1.684.975a.558.558 0 0 1 -.499-.003l-1.568-.898c-.097-.056-.097-.085.004-.147l1.692-.98a.558.558 0 0 1 .498.004zm-12.018 7.357 1.695-.982c.261-.16.268-.428-.001-.582l-1.574-.9a.814.814 0 0 0 -.738-.004l-1.7.986c-.262.16-.27.427 0 .581l1.574.901c.21.106.447.118.66.038zm-.625-.222-1.568-.898c-.098-.056-.097-.084.004-.146l1.691-.98a.558.558 0 0 1 .5.003l1.567.898c.098.056.097.085-.004.147l-1.688.978a.56.56 0 0 1 -.502-.002zm5.843-2.804 1.695-.982c.262-.16.269-.428 0-.582l-1.574-.9a.814.814 0 0 0 -.738-.004l-1.701.986c-.262.16-.269.427 0 .581l1.574.901c.21.106.448.118.66.038zm-.625-.222-1.567-.898c-.098-.056-.098-.084.003-.146l1.692-.98a.558.558 0 0 1 .498.003l1.568.898c.098.056.098.085-.003.147l-1.689.978a.56.56 0 0 1 -.502-.002zm-1.836-.723a.814.814 0 0 0 -.739-.003l-1.7.985c-.262.161-.27.428 0 .582l1.574.9c.236.12.508.12.738.004l1.7-.985c.232-.154.254-.406.047-.553l-.048-.03zm1.45 1.122c.083.044.082.086-.01.147l-1.687.977a.558.558 0 0 1 -.499-.003l-1.568-.898c-.098-.056-.097-.084.004-.146l1.691-.98a.558.558 0 0 1 .5.003l1.57.9zm13.997-7.678 1.701-.985c.262-.161.27-.428 0-.582l-1.574-.901a.814.814 0 0 0 -.738-.003l-1.7.985c-.263.161-.27.428 0 .582l1.573.9c.236.12.508.12.738.004zm-.618-.225-1.568-.898c-.098-.056-.097-.085.003-.147l1.692-.98a.558.558 0 0 1 .499.004l1.568.898c.098.056.097.084-.004.146l-1.688.978a.56.56 0 0 1 -.502-.001z"/><path d="m418.86 244.198-1.574-.902a.814.814 0 0 0 -.738-.003l-1.701.986c-.262.16-.269.427 0 .581l1.574.901c.236.12.508.12.738.003l1.701-.985c.234-.083.241-.364.022-.565l-.023-.016zm-.106.354-1.715.99a.558.558 0 0 1 -.499-.003l-1.568-.898c-.097-.056-.097-.084.004-.146l1.692-.98a.558.558 0 0 1 .498.003l1.555.891c.085.08.082.125.033.143zm7.255-1.142 1.7-.985c.262-.16.27-.427 0-.581l-1.573-.901a.814.814 0 0 0 -.738-.003l-1.701.985c-.262.161-.27.428 0 .582l1.574.9c.236.12.508.12.738.004zm-.619-.224-1.568-.898c-.098-.056-.097-.085.004-.147l1.692-.98a.558.558 0 0 1 .498.004l1.568.898c.098.056.097.084-.003.146l-1.689.978a.56.56 0 0 1 -.502-.001zm3.228-1.295 1.701-.985c.262-.161.269-.428 0-.582l-1.574-.9a.814.814 0 0 0 -.738-.004l-1.701.985c-.262.161-.269.428 0 .582l1.574.9c.236.12.508.12.738.004zm-.619-.225-1.567-.898c-.098-.056-.098-.084.003-.146l1.692-.98a.558.558 0 0 1 .498.003l1.568.898c.098.056.097.084-.003.146l-1.689.979a.56.56 0 0 1 -.502-.002zm-15.009 9.276 1.7-.985c.262-.161.27-.428 0-.582l-1.574-.9a.814.814 0 0 0 -.738-.004l-1.7.985c-.262.161-.27.428 0 .582l1.573.901c.237.12.508.12.739.003zm-.62-.225-1.567-.898c-.098-.056-.097-.084.004-.146l1.691-.98a.558.558 0 0 1 .499.003l1.568.898c.098.056.097.085-.004.147l-1.688.978a.56.56 0 0 1 -.502-.002z"/><path d="m418.187 247.926 1.695-.982c.262-.16.269-.427 0-.581l-1.574-.901a.814.814 0 0 0 -.738-.003l-1.701.985c-.262.16-.269.427 0 .581l1.574.901c.21.107.448.118.66.038zm-.625-.221-1.567-.898c-.098-.056-.098-.085.003-.147l1.692-.98a.558.558 0 0 1 .499.004l1.567.898c.098.055.098.084-.003.146l-1.689.978a.56.56 0 0 1 -.502-.001zm-1.984 1.714 1.695-.982c.262-.16.269-.428 0-.581l-1.574-.901a.814.814 0 0 0 -.738-.004l-1.701.986c-.262.16-.269.427 0 .581l1.574.901c.21.106.448.118.66.038zm-.625-.222-1.568-.898c-.098-.056-.097-.084.004-.146l1.692-.98a.558.558 0 0 1 .498.003l1.568.898c.098.056.097.085-.003.147l-1.689.978a.56.56 0 0 1 -.502-.002zm-9.798 6.247 1.694-.982c.262-.16.27-.427 0-.581l-1.574-.901a.814.814 0 0 0 -.738-.003l-1.7.985c-.262.16-.27.427 0 .581l1.573.901c.21.107.448.118.66.038zm-.625-.221-1.568-.898c-.098-.056-.097-.085.003-.147l1.692-.98a.558.558 0 0 1 .499.003l1.568.898c.098.056.097.085-.004.147l-1.688.978a.56.56 0 0 1 -.502-.001zm-3.442 2.504-1.695.982c-.258.159-.258.436-.003.593l1.779 1.024a.855.855 0 0 0 .779.003l1.7-.985c.258-.158.258-.436.003-.593l-1.778-1.024a.856.856 0 0 0 -.705-.036zm.665.222 1.77 1.019c.091.056.091.101-.004.16l-1.691.98a.598.598 0 0 1 -.54-.003l-1.769-1.02c-.092-.056-.092-.101.003-.16l1.689-.978a.6.6 0 0 1 .542.002z"/><path d="m403.692 256.217-1.703.986c-.258.158-.258.436-.003.593l1.779 1.024a.855.855 0 0 0 .779.003l1.725-.957c.26-.16.26-.437.005-.594l-1.778-1.024a.852.852 0 0 0 -.804-.031zm.677.249 1.776 1.022c.092.057.092.102-.003.16l-1.717.952a.599.599 0 0 1 -.54-.002l-1.77-1.019c-.092-.056-.092-.101.003-.16l1.688-.977a.6.6 0 0 1 .563.024zm1.924-1.738-1.695.982c-.258.159-.258.436-.003.593l1.779 1.024a.855.855 0 0 0 .779.003l1.7-.985c.258-.158.258-.436.003-.593l-1.778-1.024a.856.856 0 0 0 -.705-.036zm.665.222 1.77 1.019c.091.056.091.101-.004.16l-1.692.98a.598.598 0 0 1 -.538-.003l-1.77-1.02c-.092-.056-.092-.101.003-.16l1.689-.978a.6.6 0 0 1 .542.002zm21.513-13.025-1.694.982c-.258.158-.258.436-.003.593l1.778 1.024a.855.855 0 0 0 .78.003l1.7-.985c.258-.159.258-.436.003-.593l-1.779-1.024a.856.856 0 0 0 -.705-.037zm.665.221 1.77 1.02c.092.056.092.101-.003.16l-1.692.98a.598.598 0 0 1 -.539-.004l-1.77-1.019c-.091-.056-.091-.101.004-.16l1.688-.978a.6.6 0 0 1 .542.001zm-18.763 10.339 1.695-.982c.262-.16.269-.427 0-.581l-1.574-.901a.814.814 0 0 0 -.738-.003l-1.701.985c-.262.161-.269.428 0 .582l1.574.9c.21.107.448.119.66.038zm-.625-.221-1.568-.898c-.098-.056-.097-.085.004-.147l1.692-.98a.558.558 0 0 1 .498.004l1.568.898c.098.056.097.084-.003.146l-1.689.978a.56.56 0 0 1 -.502-.001z"/><path d="m407.18 251.487-1.694.982c-.262.16-.269.428 0 .581l1.574.902c.236.119.508.119.738.003l1.701-.986c.262-.16.269-.427 0-.581l-1.574-.901a.816.816 0 0 0 -.66-.038zm.625.222 1.568.898c.098.056.097.084-.003.146l-1.692.98a.558.558 0 0 1 -.499-.003l-1.567-.898c-.098-.056-.098-.085.003-.147l1.688-.978a.56.56 0 0 1 .502.002zm15.581-6.792 1.701-.985c.262-.161.269-.428 0-.582l-1.574-.9a.814.814 0 0 0 -.738-.004l-1.701.985c-.262.161-.269.428 0 .582l1.574.9c.236.12.508.12.738.004zm-.619-.225-1.567-.898c-.098-.056-.098-.084.003-.146l1.692-.98a.558.558 0 0 1 .499.003l1.567.898c.098.056.098.084-.003.146l-1.689.979a.56.56 0 0 1 -.502-.002zm-2.574-.726-1.701.985c-.262.161-.27.428 0 .582l1.574.9c.236.12.508.12.738.004l1.7-.986c.262-.16.27-.427 0-.581l-1.573-.901a.814.814 0 0 0 -.738-.003zm.618.225 1.568.898c.098.056.097.084-.003.146l-1.692.98a.558.558 0 0 1 -.499-.003l-1.568-.898c-.098-.056-.097-.085.004-.147l1.688-.978a.56.56 0 0 1 .502.002zm-30.928 9.185 1.701-.985c.262-.16.269-.428 0-.581l-.672-.39a.815.815 0 0 0 -.739-.004l-1.7.986c-.263.16-.27.427 0 .581l.671.39c.237.12.509.12.74.003zm-.618-.225-.667-.386c-.098-.056-.097-.085.003-.147l1.692-.98a.558.558 0 0 1 .499.003l.666.387c.098.056.098.085-.003.147l-1.688.978a.56.56 0 0 1 -.502-.002zm3.368-1.365 1.695-.982c.262-.16.269-.428 0-.581l-.673-.39a.815.815 0 0 0 -.738-.003l-1.701.985c-.262.16-.269.427 0 .581l.672.39c.21.106.449.118.66.038zm-.625-.222-.666-.386c-.098-.056-.098-.085.003-.147l1.692-.98a.558.558 0 0 1 .498.003l.667.387c.098.056.097.085-.003.147l-1.689.978a.56.56 0 0 1 -.502-.002zm3.288-1.324 1.695-.982c.262-.161.269-.428 0-.582l-.672-.39a.815.815 0 0 0 -.74-.003l-1.7.985c-.262.161-.269.428 0 .582l.672.39c.21.106.449.118.66.037l.085-.038zm-.625-.222-.666-.387c-.098-.056-.098-.085.003-.147l1.692-.98a.558.558 0 0 1 .498.004l.667.386c.098.057.097.085-.003.147l-1.689.978a.56.56 0 0 1 -.502-.001zm3.369-1.352 1.695-.982c.261-.16.268-.428-.001-.582l-.672-.39a.815.815 0 0 0 -.738-.003l-1.701.986c-.262.16-.27.427 0 .581l.672.39c.21.106.448.118.66.038zm-.625-.222-.666-.386c-.099-.057-.098-.085.003-.147l1.691-.98a.558.558 0 0 1 .5.003l.665.387c.099.056.098.085-.003.147l-1.688.978a.56.56 0 0 1 -.502-.002zm3.275-1.338 1.694-.982c.262-.161.269-.428 0-.582l-.672-.39a.815.815 0 0 0 -.739-.003l-1.7.986c-.263.16-.27.427 0 .581l.672.39c.21.106.448.118.66.038zm-.625-.222-.667-.386c-.098-.057-.097-.085.003-.147l1.692-.98a.558.558 0 0 1 .499.003l.666.387c.098.056.098.085-.003.147l-1.688.978a.56.56 0 0 1 -.502-.002zm3.368-1.338 1.695-.982c.262-.161.269-.428 0-.582l-.672-.39a.815.815 0 0 0 -.74-.003l-1.7.985c-.262.161-.269.428 0 .582l.672.39c.21.106.449.118.66.038zm-.625-.222-.666-.386c-.098-.057-.098-.085.003-.147l1.692-.98a.558.558 0 0 1 .498.003l.667.387c.098.056.097.085-.003.147l-1.689.978a.56.56 0 0 1 -.502-.002zm3.315-1.325 1.695-.982c.261-.16.269-.427 0-.581l-.673-.39a.815.815 0 0 0 -.738-.003l-1.701.985c-.262.16-.269.427 0 .581l.672.39c.21.106.449.118.66.038zm-.625-.221-.666-.387c-.098-.056-.098-.085.003-.147l1.692-.98a.558.558 0 0 1 .498.004l.666.386c.099.056.098.085-.002.147l-1.689.978a.56.56 0 0 1 -.502-.001zm5.064-2.348c.261-.16.268-.427-.001-.581l-.672-.39a.815.815 0 0 0 -.739-.003l-1.665 1.055c-.257.158-.264.425.005.579l.672.39a.822.822 0 0 0 .637-.03l.07-.039 1.693-.98zm-1.825.766a.56.56 0 0 1 -.472.055l-.649-.38c-.087-.05-.097-.078-.027-.127l1.686-1.07a.557.557 0 0 1 .494.007l.666.386c.099.056.098.085-.003.147zm2.793-1.331 1.695-.981c.261-.161.268-.428-.001-.582l-.672-.39a.815.815 0 0 0 -.739-.003l-1.7.985c-.262.161-.27.428 0 .582l.672.39c.21.106.448.118.66.037zm-.625-.221-.666-.387c-.099-.056-.098-.085.003-.146l1.691-.98a.558.558 0 0 1 .5.003l.665.386c.099.057.098.085-.003.147l-1.688.978a.56.56 0 0 1 -.502-.001zm3.369-1.352 1.694-.982c.262-.16.269-.428 0-.581l-.672-.39a.815.815 0 0 0 -.739-.004l-1.7.986c-.262.16-.27.427 0 .581l.672.39c.21.106.448.118.66.038zm-.625-.222-.666-.386c-.099-.056-.098-.085.002-.147l1.692-.98a.558.558 0 0 1 .499.003l.666.387c.098.056.098.085-.003.147l-1.688.978a.56.56 0 0 1 -.502-.002zm3.274-1.311 1.695-.982c.262-.161.269-.428 0-.582l-.673-.39a.815.815 0 0 0 -.738-.003l-1.701.986c-.262.16-.269.427 0 .581l.672.39c.21.106.449.118.66.038zm-.625-.222-.666-.386c-.098-.057-.098-.085.003-.147l1.692-.98a.558.558 0 0 1 .498.003l.667.387c.098.056.097.085-.003.147l-1.689.978a.56.56 0 0 1 -.502-.002zm3.422-1.352 1.695-.982c.262-.16.27-.427 0-.581l-.672-.39a.815.815 0 0 0 -.739-.003l-1.7.985c-.262.161-.27.428 0 .582l.672.39c.21.106.448.117.66.037l.085-.038zm-.624-.221-.666-.387c-.099-.056-.098-.085.002-.147l1.692-.98a.558.558 0 0 1 .499.004l.666.386c.099.057.098.085-.003.147l-1.688.978a.56.56 0 0 1 -.502-.001zm3.308-1.335 1.701-.986c.262-.16.269-.427 0-.581l-.672-.39a.815.815 0 0 0 -.739-.003l-1.7.985c-.262.16-.27.428 0 .581l.672.39c.236.12.508.12.738.004zm-.618-.225-.666-.387c-.099-.056-.098-.085.002-.147l1.692-.98a.558.558 0 0 1 .499.004l.666.386c.099.057.098.085-.003.147l-1.688.978a.56.56 0 0 1 -.502-.001zm3.314-1.352 1.695-.982c.262-.161.269-.428 0-.582l-.672-.39a.815.815 0 0 0 -.739-.003l-1.754.998c-.262.162-.27.429 0 .582l.672.39c.228.123.495.13.724.025l.075-.038zm-.127-.218a.56.56 0 0 1 -.548.011l-.67-.388c-.098-.056-.097-.085.003-.147l1.745-.993a.558.558 0 0 1 .5.003l.666.387c.098.056.098.085-.003.147zm-30.383 23.246 2.979-1.712c.262-.16.269-.428 0-.581l-1.574-.901a.814.814 0 0 0 -.738-.004l-2.978 1.712c-.262.16-.27.428 0 .581l1.573.901c.236.12.508.12.739.004zm-.618-.225-1.568-.898c-.098-.056-.097-.085.003-.147l2.97-1.706a.558.558 0 0 1 .499.003l1.567.898c.098.056.098.085-.003.147l-2.966 1.704a.56.56 0 0 1 -.502-.001z"/><path d="m396.964 257.448 3.631-2.098c.262-.161.27-.428 0-.582l-1.574-.9a.814.814 0 0 0 -.738-.004l-3.637 2.102c-.262.16-.27.427 0 .581l1.574.901c.21.106.447.118.66.038zm-.625-.222-1.568-.898c-.098-.056-.097-.084.004-.146l3.628-2.096a.558.558 0 0 1 .499.003l1.568.898c.098.056.097.085-.004.147l-3.625 2.094a.56.56 0 0 1 -.502-.002z"/><path d="m399.318 258.806 4.976-2.878c.262-.16.269-.427 0-.581l-1.574-.901a.814.814 0 0 0 -.738-.004l-4.983 2.882c-.262.16-.269.428 0 .582l1.574.9c.21.107.448.119.66.038zm-.625-.221-1.568-.898c-.098-.056-.097-.085.003-.147l4.974-2.876a.558.558 0 0 1 .498.003l1.568.898c.098.056.097.085-.003.147l-4.97 2.874a.56.56 0 0 1 -.502-.001zm10.842-5.74-2.34 1.345c-.263.161-.27.428 0 .582l1.855 1.075c.237.12.508.12.739.004l2.346-1.348c.262-.161.269-.428 0-.582l-1.856-1.075a.817.817 0 0 0 -.66-.038zm.624.222 1.85 1.072c.098.057.098.085-.003.147l-2.337 1.343a.558.558 0 0 1 -.5-.003l-1.849-1.072c-.098-.057-.098-.085.003-.147l2.334-1.341a.56.56 0 0 1 .502.001zm15.623-9.596-2.34 1.345c-.263.161-.27.428 0 .582l1.855 1.076c.237.12.508.12.739.003l2.346-1.348c.262-.161.269-.428 0-.582l-1.856-1.075a.817.817 0 0 0 -.66-.038zm.624.222 1.85 1.073c.098.056.098.084-.003.146l-2.337 1.343a.558.558 0 0 1 -.499-.003l-1.85-1.072c-.098-.057-.097-.085.003-.147l2.334-1.341a.56.56 0 0 1 .502.001zm1.204-11.737a.812.812 0 0 0 -.733 0l-3.06 1.765c-.261.161-.268.428.001.582l1.574.9c.236.12.508.12.738.004l3.06-1.765c.26-.161.268-.428-.001-.582l-1.58-.904zm1.453 1.123c.098.056.098.084-.003.146l-3.05 1.76a.558.558 0 0 1 -.499-.003l-1.568-.898c-.098-.056-.097-.085.004-.146l3.05-1.76a.555.555 0 0 1 .435-.024l.06.025zm2.507 1.607-3.677 2.128c-.262.161-.269.428 0 .582l1.574.901c.236.12.508.12.738.003l3.678-2.128c.262-.161.269-.428 0-.582l-1.574-.9a.814.814 0 0 0 -.738-.004zm.62.225 1.567.898c.098.056.098.084-.003.146l-3.669 2.124a.558.558 0 0 1 -.499-.004l-1.567-.898c-.098-.056-.098-.084.003-.146l3.666-2.122a.56.56 0 0 1 .502.002z"/><path d="m433.918 236.048-4.91 2.865c-.26.16-.268.427.002.581l1.573.901c.236.12.508.12.738.003l4.97-2.868c.261-.16.268-.428-.001-.581l-1.574-.901a.813.813 0 0 0 -.72-.038zm.674.219 1.573.9c.098.056.097.085-.004.147l-4.96 2.863a.558.558 0 0 1 -.498-.004l-1.568-.898c-.098-.056-.097-.084.003-.146l4.906-2.863a.56.56 0 0 1 .548 0zm-2.282 4.848-1.7.985c-.262.16-.269.428 0 .581l.632.363c.236.12.508.12.738.004l1.701-.986c.262-.16.27-.427 0-.581l-.632-.363a.815.815 0 0 0 -.738-.003zm.62.225.625.36c.099.056.098.084-.003.146l-1.692.98a.558.558 0 0 1 -.498-.003l-.626-.36c-.099-.056-.098-.085.003-.147l1.688-.978a.56.56 0 0 1 .502.002zm4.58-3.221-1.695.982c-.262.16-.269.427 0 .581l.632.363c.236.12.508.12.738.003l1.701-.985c.262-.16.27-.427 0-.581l-.632-.363a.816.816 0 0 0 -.66-.038l-.085.038zm.624.221.626.36c.099.056.098.085-.003.147l-1.692.98a.558.558 0 0 1 -.498-.003l-.626-.36c-.099-.056-.098-.085.003-.147l1.688-.978a.56.56 0 0 1 .502.001z"/><path d="m433.682 238.909-1.7.985c-.262.161-.27.428 0 .582l1.856 1.075c.236.12.508.12.738.004l1.701-.985c.262-.161.269-.428 0-.582l-1.856-1.076a.815.815 0 0 0 -.739-.003zm.62.225 1.849 1.072c.098.057.098.085-.003.147l-1.692.98a.558.558 0 0 1 -.498-.003l-1.85-1.073c-.099-.056-.098-.085.003-.146l1.688-.979a.56.56 0 0 1 .502.002zm-11.742 6.204-12.111 6.996c-.262.161-.269.428 0 .582l1.856 1.076c.236.12.508.12.738.003l12.111-6.997c.262-.16.269-.428 0-.581l-1.856-1.076a.815.815 0 0 0 -.738-.003zm.618.225 1.85 1.072c.099.056.098.085-.003.147l-12.101 6.991a.558.558 0 0 1 -.5-.003l-1.849-1.072c-.098-.057-.098-.085.003-.147l12.098-6.99a.56.56 0 0 1 .502.002zm5.84.293 9.614 5.538-15.235 8.807-9.613-5.538zm-5.622 14.054 14.731-8.515-9.108-5.248-14.731 8.515z"/></g><path d="m392.014 269.264-10.275 17.792-27.397-5.931 10.289-17.792zm-42.014 42.736v71" stroke="#014242"/><g stroke="#014242"><path d="m327.924 273.252c-.04-13.292 9.436-29.54 21.126-36.214 11.684-6.68 21.228-1.3 21.262 11.99"/><path d="m326.572 271.9c-.04-13.291 9.436-29.54 21.126-36.214 11.684-6.68 21.229-1.3 21.263 11.991"/><path d="m370.307 248.532 12.149-7.021m42.667-24.934 29.745-16.916v-99.31l-144.516 83.2v99.631l17.707-10.233"/><path d="m368.956 247.18 13.223-7.642m43.014-24.86 28.324-16.369v-99.309l-144.517 83.2v99.63l17.707-10.233m107.966-137.453-12.132 45.18m22.945-45.18-12.131 45.18m12.131-66.807-21.627 79.749m-62.728-23.639-12.131 45.18m22.945-45.18-12.132 45.18m12.132-66.807-21.627 79.75"/></g><g transform="translate(182 118)"><path d="m96.034 101.78-22.572 15.184c-.968.998-2.439.899-3.302-.222l-19.68-19.14 10.51-8.577s12.252 15.863 12.472 15.627c.218-.236 14.364-5.746 15.184-6.566.821-.821 8.208 1.23 7.388 3.693z" fill="#ffcdb8"/><rect fill="#014242" height="27.086" rx="2.052" transform="matrix(.78801075 .61566148 -.61566148 .78801075 78.433415 -42.123176)" width="13.543" x="93.612" y="79.289"/><rect fill="#fff" height="23.803" rx=".41" transform="matrix(.78801075 .61566148 -.61566148 .78801075 78.433415 -42.123176)" width="11.491" x="94.638" y="80.93"/><rect fill="#00d36a" height="4.925" rx=".821" transform="matrix(.78801075 .61566148 -.61566148 .78801075 75.639117 -45.651948)" width="8.208" x="100.007" y="84.548"/><path d="m100.472 85 2.587 2.022-4.609.565z" fill="#00d36a"/><rect fill="#00d36a" height="4.925" rx=".821" transform="matrix(.78801075 .61566148 -.61566148 .78801075 79.128621 -41.938201)" width="8.208" x="96.359" y="91.472"/><path d="m103.22 97.108-2.911-2.274.89 4.861z" fill="#00d36a"/><path d="m27.497 132.465s15.535 11.464 16.005 10.73c.471-.732 9.567-4.183 9.567-4.183l1.104-36.57-1.79-17.079-14.906 8.417z" fill="#0f1818"/><path d="m26.554 41.04s1.01 8.642-8.83 11.594-9.273 11.902-4.731 18.282c4.541 6.38-3.143 11.617-3.143 11.617s14.395 4.231 15.064-15.997c.67-20.229 9.56-23.234 9.56-23.234z" fill="#d6274d"/><path d="m17.917 227.483 9.622-84.184h14.431l7.773 38.003c.549 2.685.437 5.465-.327 8.097l-12.763 43.298 7.85-.382 14.148-41.394a29.644 29.644 0 0 0 .962-16.298l-10.172-45.503-33.043-4.769-5.317 104.658z" fill="#398989"/><path d="m50.89 79.038-7.705 10.019-13.636-16.956 5.432-3.853.072-7.21.053-5.634 12.246 4.624v12.332z" fill="#ffcdb8"/><path d="m34.367 68.947s-1.475 7.444 4.84 11.837c6.314 4.393 10.129-.955 8.483-8.404 0 0 5.286 13.083 4.811 22.92l-3.24 2.36a7.012 7.012 0 0 0 -2.824 6.499l3.025 25.328s-10.706 9.67-29.79-3.218l3.075-37.336h-3.074l-3.257-9.933s7.699-6.961 17.951-10.054" fill="#fff"/><path d="m47.606 72.64s7.956 23.836 3.536 71l7.956-10.669s-.632-46.003-11.492-60.33m-13.543-4.515s-.257 4.888-.827 12.329l-.249 3.151c-.234 2.871-.51 6.03-.83 9.365-.102 1.077-.211 2.174-.321 3.29a514.598 514.598 0 0 1 -1.48 13.052 388.068 388.068 0 0 1 -1.177 8.591h-.004a208.432 208.432 0 0 1 -.51 3.297 227.583 227.583 0 0 1 -1.857 10.22c-.185.886-.374 1.76-.566 2.615a110.677 110.677 0 0 1 -1.714 6.731l-3.31-1.828-3.326-1.84-6.044-3.343-3.216-1.779-.355-.196-.003-.003-2.118-1.17.427-1.705 2.883-11.54.718-2.867 2.48-9.925.57-2.277 3.182-12.738.147-.598.665-2.65 2.306-9.226.577-2.316.36-.173.516-.245 2.771-1.319 6.893-3.277 2.638-1.258.767-.364c.003-.004.007-.004.007-.004" fill="#014242"/><path d="m34.063 68.537-1.818 6.507-.007.031-1.36 4.844-.8 2.858-.533 1.916-1.849 1.152-5.427 3.381-1.826 1.137-1.034.648-1.477.919-.507-.551-1.069-1.164-1.117-1.213-4.61-5.011-.78-.85a67.106 67.106 0 0 1 7.667-6.51c.86-.625 1.7-1.199 2.518-1.73.349-.233.693-.454 1.034-.663h.004a56.117 56.117 0 0 1 2.83-1.653c2.757-1.5 5.116-2.478 6.866-3.094a31.297 31.297 0 0 1 2.553-.784c.432-.108.685-.159.735-.166.003-.004.007-.004.007-.004m13.543 4.103s7.192 6.928 13.133 16.373c0 0-1.48 4.357-7.442 7.431 0 0-2.439-17.695-5.69-23.803m-38.258 160.639-1.483-6.624c-.39-1.742.928-3.398 2.705-3.398h7.226c2.343 0 3.855 2.494 2.781 4.588l-3.752 7.313zm60.009 10.498-16.432-.663-21.325-.86 2.79-5.506a10.434 10.434 0 0 0 .563-8.098l-1.212-3.53 1.566-.24c3.636-.556 6.97 2.129 7.242 5.826l2.205-3.88a6.207 6.207 0 0 1 7.99-2.593l-6.797 9.9h8.296c1.597 0 3.16.228 4.651.662a16.78 16.78 0 0 1 10.463 8.982" fill="#014242"/><path d="m47.606 60.106v10.484c-6.863-1.517-10.446-5.921-12.312-9.456l.053-5.729 12.26 4.702z" fill="#eea0a0"/><path d="m64.022 36.936c0 14.733-5.68 26.676-16.654 26.676-10.975 0-19.871-11.943-19.871-26.676s8.896-26.676 19.871-26.676 16.654 11.943 16.654 26.676" fill="#ffcdb8"/><path d="m49.489 39.187c-.298 2.941-.281 5.144-.155 6.725.2 2.525 2.562 3.452 3.606 1.362.74-1.481.693-4.083-1.914-8.649-.47-.823-1.432-.476-1.537.562" fill="#eea0a0"/><path d="m27.444 36.115s12.153-13.33 12.91-22.398l-1.237 11.072a2.934 2.934 0 0 0 2.108 3.155 2.905 2.905 0 0 0 3.436-1.611c1.398-3.086 4.85-8.62 4.85-12.569 0 0 1.516 5.501 1.639 10.166.058 2.211.705 3.95 2.895 3.806a3.841 3.841 0 0 0 2.379-1.04c2.946-2.769 11.928-13.131 1.354-21.379-18.843-14.699-38.392 4.266-38.488 18.326-.075 10.977 8.155 12.472 8.155 12.472" fill="#d6274d"/><g fill="#014242"><path d="m38.151 35.995a5.08 5.08 0 0 1 -.243-.366c-.143-.21.115-.766.624-1.032 2.025-1.078 4.533-.126 5.265 1.732.19.473.015.862-.234.816a4.583 4.583 0 0 0 -.437-.03c-.251-.02-.494-.253-.632-.508-.537-1.08-2.206-1.66-3.522-.767-.31.212-.665.35-.821.155"/><path d="m40.804 40.487c-.024-1.197.237-2.858 1.614-3.993a.92.92 0 0 1 1.505.57c.196 1.15.103 2.872-1.644 4.179-.61.457-1.459.022-1.475-.756m13.886-4.39a5.155 5.155 0 0 1 -.242-.365c-.143-.21.116-.767.623-1.033 2.026-1.077 4.534-.125 5.266 1.732.19.474.015.863-.234.817a4.584 4.584 0 0 0 -.437-.03c-.251-.02-.494-.253-.632-.508-.537-1.08-2.206-1.66-3.523-.767-.31.212-.664.35-.82.154"/><path d="m57.344 40.59c-.024-1.197.237-2.858 1.614-3.993a.92.92 0 0 1 1.505.57c.196 1.15.103 2.872-1.644 4.179-.611.457-1.459.022-1.475-.756"/><path d="m32.635 36.73a7.79 7.79 0 1 0 15.58 0 7.79 7.79 0 0 0 -15.58 0zm-1.034 0a8.824 8.824 0 1 1 17.647 0 8.824 8.824 0 0 1 -17.647 0zm20.733-1.23a7.79 7.79 0 1 0 15.58 0 7.79 7.79 0 0 0 -15.58 0zm-1.034 0a8.824 8.824 0 1 1 17.647 0 8.824 8.824 0 0 1 -17.647 0z" fill-rule="nonzero"/><path d="m51.71 35.294v.658h-2.872v-.658zm-18.878-.754-.06 1.165-7.327-.477.06-1.165z" fill-rule="nonzero"/></g><path d="m23.48 41.56c-2.301-2.382-2.829-5.556-1.177-7.09s4.856-.846 7.158 1.536 2.83 5.556 1.178 7.09c-1.652 1.533-4.857.846-7.159-1.536" fill="#ffcdb8"/><path d="m45.633 49.986a.468.468 0 0 1 .153-.663.514.514 0 0 1 .69.146c.03.043.095.13.197.246.174.2.383.4.625.586 1.653 1.276 3.763 1.276 6.459-.938a.516.516 0 0 1 .706.052.466.466 0 0 1 -.055.677c-3.067 2.518-5.714 2.518-7.739.955a5.421 5.421 0 0 1 -.763-.715 3.563 3.563 0 0 1 -.273-.346z" fill="#014242" fill-rule="nonzero"/><path d="m19.328 117.432-8.063-13.045c-.73-1.183-1.463-3.284-.595-4.345l7.457-8.508-8.109-8.633-6.425 6.754c-4.428 4.654-4.813 12.335-.879 17.506l13.638 17.926s-5.51-.563-7.854 7.874l-5.76-.752c-.8-.104-1.586.455-1.75 1.33-.174.936.356 1.813 1.154 2.02l10.537 2.746s4.524-2.348 7.21-7.578c2.14-4.165 1.883-9.34-.56-13.295" fill="#ffcdb8"/><path d="m37.346 237.416a2.667 2.667 0 1 1 5.335 0 2.667 2.667 0 0 1 -5.335 0m32.012 6.362-16.006-.666c1.375-4.065 3.725-6.706 5.814-8.363 4.414 1.332 8.162 4.573 10.192 9.029" fill="#d2d2d2"/><path d="m31.601 242.136v2.895l37.757.799v-2.097z" fill="#d2d2d2"/><path d="m20.659 245.151s-18.34 3.678-18.196-2.485c.015-.639.1-1.247.244-1.824 1.166-4.733 6.1-7.433 6.634-7.712l-.4-.023h.446l-.042.023 7.408.455c2.785 2.222 3.784 5.024 4.073 7.314.309 2.41-.167 4.252-.167 4.252" fill="#014242"/><path d="m20.659 245.164s-18.34 3.635-18.196-2.456c.015-.631.1-1.232.244-1.803 3.654-2.698 11.348-6.779 18.12.057.308 2.38-.168 4.202-.168 4.202" fill="#d2d2d2"/><path d="m89.16 93.496 1.641-2.747c3.401-.303 5.308-.095 5.719.622.617 1.076.584 2.888-.683 2.548-.845-.226-2.366-.179-4.565.143l-3.136 3.256zm20.81-1.19c-1.64-.812-2.805-1.124-3.496-.937-1.037.281-2.316 2.43-.374 2.95s3.387 1.343 3.713.124c.218-.813.27-1.526.156-2.137z" fill="#ffcdb8"/><path d="m108.947 95.307c-1.543-.984-2.666-1.435-3.37-1.352-1.055.123-2.54 1.965-.669 2.716 1.872.75 3.22 1.718 3.667.619.299-.733.422-1.394.372-1.983z" fill="#ffcdb8"/><path d="m107.41 97.87c-1.542-.984-2.665-1.435-3.369-1.353-1.056.124-2.541 1.965-.67 2.716 1.872.751 3.22 1.719 3.668.62.298-.734.422-1.395.371-1.984z" fill="#ffcdb8"/><path d="m105.51 100.334c-1.261-.908-2.191-1.307-2.789-1.197-.896.166-2.227 2.05-.678 2.714 1.55.665 2.648 1.566 3.071.46.282-.738.414-1.396.396-1.977z" fill="#ffcdb8"/></g><g stroke="#014242"><path d="m148.154 262.266c11.737 7.022 11.805 18.446.142 25.468-11.663 7.021-30.706 7.021-42.45 0-11.737-7.022-11.805-18.446-.142-25.468 11.67-7.021 30.713-7.021 42.45 0zm-21.57-69.471c-3.398-.405-6.643-1.41-9.276-3.013-7.043-4.291-7.083-11.273-.085-15.564 2.635-1.615 5.896-2.622 9.315-3.021" fill-rule="nonzero"/><path d="m231.98 333.96c6.295 1.412 12.196 3.587 17.277 6.525 19.562 11.313 19.674 29.717.236 41.03-19.439 11.313-51.176 11.313-70.75 0-19.562-11.313-19.674-29.717-.236-41.03 4.421-2.572 9.477-4.559 14.88-5.961m8.01-1.619c7.35-1.088 15.05-1.195 22.478-.32" fill-rule="nonzero"/><g><path d="m497.823 277.348 33.752 19.405 33.656-19.565-33.752-19.421-33.656 19.581.032 7.781 33.736 19.405 33.656-19.565-.016-7.781-33.752 19.565zm6.837 15.783.176 76.726-3.443 1.97-.34-80.756z"/><path d="m497.839 285.129.24 84.856 3.202 1.874-.24-80.854 27.076 15.466.192 80.886 3.346 1.953-.192-84.712zm33.944 104.149 3.443-1.985-.193-80.87 27.012-15.578.192 80.821 3.202-1.857-.16-84.856-33.688 19.581v-7.781"/><path d="m558.666 351.109v18.652l3.523 1.905m-3.667-78.868.112 50.322m-23.456 21.71 27.01-15.819m-27.026 7.509 23.472-13.4 3.539 2.065-26.995 15.674m-30.39-13.353 23.505-13.769m-.016-3.842-23.49 13.625m-.015-4.323 23.473-13.417"/></g></g><path d="m484.03 229.78c-1.46 1.801-2.713 2.572-5.126 2.572-1.609 0-12.066.805-31.37 2.414l-.604 6.636 32.803 1.509a10.555 10.555 0 0 0 11.77-3.387l12.42-15.237-7.058-10.033-12.834 15.526z" fill="#ffcdb8"/><path d="m454.962 234.293s-13.252-5.871-21.42 6.988l-3.504 5.33 2.344 1.125 8.054-7.574s.515 13.408 16.147 1.695z" fill="#ffcdb8"/><path d="m495.214 356.207c-2.58 1.49-16.539 11.603-20.88 12.614-4.341 1.018-6.28-2.67-4.347-4.95.15-.176.328-.351.527-.528 2.345-2.082 7.7-4.222 7.912-10.965a3.5 3.5 0 0 1 .074-.653c1.217-6.2 17.351.756 17.351.756s1.94 2.239-.637 3.726m40.512 5.814c1.797-2.843-4.438-5.457-4.438-5.457l-4.233-3.888-9.087 4.533c2.793 2.358 1.356 8.48 0 12.667-.496 1.53-2.009 6.619-1.962 7.567.16 3.214 5.848 3.792 8.748-.905" fill="#014242"/><path d="m548.869 261.97c3.024 13.766-1.296 22.579-12.96 26.439-11.663 3.86-18.972 10.314-21.927 19.362l14.292 44.137c1.273-.07 2.312.398 3.116 1.404.805 1.005 1.05 2.304.739 3.897l-12.805 8.44c-3.924-.79-6.438-2.088-7.54-3.891-1.103-1.804-.5-3.212 1.81-4.223-13.485-30.97-20.228-48.967-20.228-53.995.414-3.016 3.53-9.42 9.351-19.212l-11.445 15.593v46.151c1.39.487 2.295 1.181 2.714 2.084.42.902 1.03 2.42 1.832 4.552l-18.391 2.837c-2.032-3.649-3.047-6.112-3.047-7.39 0-1.276 1.015-1.786 3.047-1.528-5.151-38.366-7.273-58.911-6.366-61.638 8.631-10.658 21.2-18.966 37.706-24.924z" fill="#1157b8"/><path d="m521.382 200.967s-15.384-2.566-21.363 4.237l-7.842 12.424c.07 3.49.768 6.153 2.094 7.99 1.36 1.885 6.266 5.501 7.044 4.491 1.951-2.536 3.33-4.604 4.134-6.203l7.072 26.086c-3.371 6.968-4.528 10.96-3.47 11.978 6.326 6.085 28.01 11.562 31.45 9.502 4.3-2.577 6.688-9.683 5.971-14.837-.716-5.154-3.62-31.017-3.62-31.017s6.633.658 7.843-2.022c0 0-.977-17.853-13.062-19.365l-10.177-4.914z" fill="#014242"/><path d="m537.222 228.624 9.229 14.877a6.275 6.275 0 0 1 -.174 6.66l-12.433 24.238 5.336 4.153 18.552-26.112a10.886 10.886 0 0 0 1.062-12.684l-8.383-15.85z" fill="#ffcdb8"/><path d="m530.398 271.487s21.223 8.175-1.072 16.184l-3.45-3.966 2.694-12.265z" fill="#1157b8"/><path d="m550.394 223.907-12.083 7.993-7.531-9.89 12.056-.667z" fill="#014242"/><path d="m514.551 193.388.595 5.49.381 3.48s8.374 8.609 13.337-2.25v-6.546l-.491-3.609z" fill="#ffcdb8"/><path d="m514.551 193.256.683 6.565c6.03 1.128 10.456-1.808 13.63-5.476l-.491-4.674z" fill="#eea0a0"/><path d="m540.46 178.125s7.028.096 9.108-4.768c2.078-4.864-2.377-6.723-7.129-2.384s-1.98 7.152-1.98 7.152" fill="#ffcdb8"/><path d="m498.755 166.865s0 19.647 9.123 25.636c8.234 5.405 21.1 7.594 31.812-9.214s0-39.026 0-39.026l-36.727-3.67z" fill="#ffcdb8"/><path d="m511.31 183.743a.715.715 0 0 0 -.99-.139.686.686 0 0 0 -.14.972c.228.3.64.719 1.23 1.134 2.357 1.66 5.304 1.66 8.532-1.02a.686.686 0 0 0 .084-.979.715.715 0 0 0 -.996-.082c-2.715 2.255-4.948 2.255-6.796.953a5.141 5.141 0 0 1 -.705-.596 3.014 3.014 0 0 1 -.22-.243z" fill="#014242" fill-rule="nonzero"/><path d="m506.896 149.48s5.35 15.098 11.466 18.739c.59.35 1.324.36 1.945.07 1.325-.622 1.627-2.36.58-3.375-1.298-1.26-2.748-2.876-3.176-4.16-.117-.35.34-.607.587-.332 1.725 1.916 6.71 6.637 12.77 5.09a1.576 1.576 0 0 0 1.14-1.214c.161-.777-.279-1.55-1.033-1.817-2.65-.934-8.48-3.319-9.832-6.602-.11-.269.181-.527.44-.393l8.35 4.34a7.581 7.581 0 0 1 2.764 2.453c.157.23.312.462.482.683l9.493 12.323s8.083-4.307 4.182-25.806c-3.902-21.5-38.698-12.285-38.698-12.285s-23.727-4.511-15.924 26.682c0 0 2.696 7.299 6.662 10.636 0 0-1.473-18.122 7.802-25.033" fill="#6f5647"/><path d="m507.724 136.342s-4.64-2.784-3.787-3.72c.852-.935 4.265 2.902 4.265 2.902s1.779-4.96 3.846-4.493c2.067.468-2.596 6.739-2.596 6.739z" fill="#014242"/><path d="m515.112 180.577c.037.35-.236.652-.572.63l-2.416-.156c-.51-.033-.825-.595-.604-1.078l2.454-5.37c.118-.261.489-.195.52.092z" fill="#eea0a0"/><path d="m528.11 172.372.114-.073c.251-.136.2-.83-.276-1.269-1.285-1.204-3.288-1.055-4.366.247-.4.482-.343 1.08-.066 1.137l.128.04c.277.065.608-.17.848-.424.682-.77 1.94-.849 2.74-.041.276.268.627.52.879.383" fill="#014242"/><path d="m525.014 174.73c.298-.951.484-2.345-.31-3.6a.724.724 0 0 0 -1.289.078c-.42.872-.748 2.272.29 3.757.362.519 1.116.384 1.309-.234m-14.956-3.769.113-.073c.252-.136.2-.83-.275-1.27-1.286-1.203-3.288-1.055-4.367.247-.4.483-.342 1.081-.065 1.138l.127.04c.277.064.61-.17.849-.425.681-.768 1.94-.848 2.74-.04.275.268.627.52.878.383" fill="#014242"/><path d="m506.961 174.166c.298-.951.485-2.345-.309-3.6a.724.724 0 0 0 -1.29.078c-.419.872-.748 2.272.29 3.756.363.52 1.116.385 1.31-.234" fill="#014242"/><path d="m220.606 165.906-14.086-12.898c.02-.031-.12-.367-.42-1.008l1.454.71 13.44 12.6zm-3.261 8.774-7.465-12.6h.429l7.551 12.136z" fill="#fff" fill-rule="nonzero"/><g transform="matrix(-1 0 0 1 246 162.8)"><use fill="#fff" xlink:href="#c"/><g mask="url(#a)"><path d="m28.304 2.457c-.608 3.225.457 6.45 3.196 9.674-3.957 5.017-8.674 7.525-14.152 7.525-8.218 0-13.24-3.762-15.065-9.137-1.218-3.583-1.979-6.629-2.283-9.137 5.174-2.15 14.609-1.791 28.304 1.075z" fill="#d4d3d3"/><path d="m26.04 2.016c-.56 2.646.42 5.292 2.94 7.938-3.64 4.116-7.98 6.174-13.02 6.174-7.56 0-12.18-3.087-13.86-7.497-1.12-2.94-1.82-5.439-2.1-7.497 4.76-1.764 13.44-1.47 26.04.882z" fill="#e5e5e5"/><path d="m26.04 1.512c-.56 1.985.42 3.969 2.94 5.954-3.64 3.087-7.98 4.63-13.02 4.63-7.56 0-12.18-2.315-13.86-5.623-1.12-2.205-1.82-4.079-2.1-5.622 4.76-1.323 13.44-1.103 26.04.661z" fill="#f9f7f7"/><path d="m26.04.945c-.56 1.24.42 2.48 2.94 3.72-3.64 1.931-7.98 2.895-13.02 2.895-7.56 0-12.18-1.447-13.86-3.514-1.12-1.378-1.82-2.55-2.1-3.514 4.76-.827 13.44-.69 26.04.413z" fill="#fff"/></g></g><path d="m529.473 180.906 16.903-12.898c-.024-.031.144-.367.504-1.008l-1.745.71-16.128 12.6zm3.913 8.774 8.958-12.6h-.515l-9.061 12.136z" fill="#fff" fill-rule="nonzero"/><g transform="translate(499 177.8)"><use fill="#fff" xlink:href="#d"/><g mask="url(#b)"><path d="m33.965 2.457c-.73 3.225.548 6.45 3.835 9.674-4.748 5.017-10.409 7.525-16.983 7.525-9.86 0-15.887-3.762-18.078-9.137-1.459-3.583-2.374-6.629-2.739-9.137 6.209-2.15 17.53-1.791 33.965 1.075z" fill="#d4d3d3"/><path d="m31.248 2.016c-.672 2.646.504 5.292 3.528 7.938-4.368 4.116-9.576 6.174-15.624 6.174-9.072 0-14.616-3.087-16.632-7.497-1.344-2.94-2.184-5.439-2.52-7.497 5.712-1.764 16.128-1.47 31.248.882z" fill="#e5e5e5"/><path d="m31.248 1.512c-.672 1.985.504 3.969 3.528 5.954-4.368 3.087-9.576 4.63-15.624 4.63-9.072 0-14.616-2.315-16.632-5.623-1.344-2.205-2.184-4.079-2.52-5.622 5.712-1.323 16.128-1.103 31.248.661z" fill="#f9f7f7"/><path d="m31.248.945c-.672 1.24.504 2.48 3.528 3.72-4.368 1.931-9.576 2.895-15.624 2.895-9.072 0-14.616-1.447-16.632-3.514-1.344-1.378-2.184-2.55-2.52-3.514 5.712-.827 16.128-.69 31.248.413z" fill="#fff"/></g></g><g stroke="#014242"><path d="m179.31 182.744-3.85 2.205m-125.479 71.168-27.07 14.257m34.315-183.174v-4.031l106.214-62.689v5.04m-113.52 242.4.809-174.833 47.911-28.447v175.307zm76.8-44.4.809-174.833 47.911-28.447v175.307z"/><path d="m129.48 217.88.797-165.132 42.403-24.468v165.579zm-76.8 43.2.797-165.132 42.403-24.468v165.579z"/></g><path d="m85.104 134.672c1.008-.576 1.44-.192 1.44 1.008v3.6l-1.248.72v-3.168c0-.768-.144-1.008-.576-.768-.336.192-.672.576-1.008 1.008v3.84l-1.248.72v-3.072c0-.432-.048-.912-.096-2.064l1.008-.72.192.576c.432-.816.912-1.344 1.536-1.68zm-4.416.24c.432-.24.672-.096.672.384s-.288 1.008-.72 1.248-.672.096-.672-.336a1.331 1.331 0 0 1 .72-1.296zm-.672 8.112-.048-5.232 1.296-.768v5.28zm-4.464-2.88c1.008-.576 1.44-.192 1.44 1.008v3.6l-1.248.72v-3.168c0-.768-.144-1.008-.576-.768-.336.192-.672.576-1.008 1.008v3.84l-1.2.72v-3.072c0-.24 0-.528-.048-.96l-.048-1.104.96-.768.192.576c.48-.72.912-1.248 1.536-1.632zm-3.408 1.632v1.104c-.24.144-.528.336-.768.576.192.192.288.48.288.864 0 1.104-.768 2.4-2.064 3.12-.096.048-.24.096-.336.144a.89.89 0 0 0 -.096.336c0 .384.288.288.768 0l.24-.144c1.152-.624 1.776-.48 1.776.48 0 1.248-1.008 2.592-2.496 3.456-1.152.672-2.016.624-2.016-.384 0-.576.336-1.2.768-1.872-.096-.096-.144-.24-.144-.48 0-.384.192-.816.48-1.296-.576 0-.864-.432-.864-1.104 0-1.056.672-2.448 2.016-3.216.384-.24.72-.336.96-.336.48-.384.912-.912 1.488-1.248zm-2.448 7.536c-.24.144-.48.24-.72.336-.24.384-.336.672-.336.96 0 .48.432.432 1.104.048.432-.24.72-.528.912-.768.144-.24.24-.432.24-.672 0-.48-.48-.288-1.152.048zm.048-2.88a1.59 1.59 0 0 0 .768-1.344c0-.576-.24-.816-.768-.528a1.59 1.59 0 0 0 -.768 1.344c0 .624.24.816.768.528m-3.504-3.216c.432-.24.672-.096.672.384s-.288 1.008-.72 1.248-.672.096-.672-.336c0-.528.288-1.008.72-1.296zm-.672 8.112v-5.232l1.248-.768.048 5.28zm-2.592-2.688c.912-.096 1.728-.096 1.728 1.152 0 1.488-1.056 2.832-2.448 3.648-.864.48-1.632.672-2.112.576l.384-1.296c.48 0 1.104-.192 1.68-.528.624-.384 1.2-.912 1.2-1.536 0-.576-.432-.528-1.056-.432h-.144c-.912.096-1.872.24-1.872-1.152 0-1.488 1.104-2.832 2.4-3.6.672-.384 1.344-.576 1.824-.528l-.336 1.248c-.384.048-.912.24-1.44.528-.576.336-1.152.816-1.152 1.488 0 .528.384.528.912.48z" fill="#014242" fill-rule="nonzero"/><g fill="#014242" fill-rule="nonzero"><path d="m79.022 157.16.018 4.936 4.296-2.48-.013-4.937z"/><path d="m86.179 149.73-10.03 5.79.03 11.525 10.036-5.79zm-8.567 14.84-.024-8.233 7.163-4.132.024 8.234-7.163 4.132m-10.533-.514.018 4.936 4.296-2.48-.012-4.943zm4.332 7.943.006 1.646 1.428-.823.012 3.291-1.434.829.006 1.646 1.434-.829.006 3.297-1.434.823.006 1.652 2.868-1.658-.03-11.525zm-2.838 11.538.007 1.645 1.427-.829v-1.645zm-1.451-5.76v1.646l1.433-.829.006 1.645-1.433.829.006 1.646 2.867-1.652-.012-4.943zm-.013-3.297.006 1.651 2.868-1.657-.006-1.646z"/><path d="m74.236 156.621-10.03 5.79.03 11.525 10.037-5.784-.037-11.53zm-8.573 14.847-.024-8.234 7.17-4.138.024 8.234zm13.401-.587.012 4.943 4.302-2.487-.018-4.936z"/><path d="m86.221 163.452-10.037 5.79.03 11.525 10.038-5.79-.03-11.525zm-8.573 14.846-.024-8.234 7.164-4.138.024 8.234-7.163 4.138m-13.407-2.159.006 1.645 1.434-.829-.006-1.645zm.012 3.841.024 7.684 2.868-1.652-.006-1.645-1.434.822-.018-6.038z"/></g></g></svg>