<svg viewBox="0 0 48 48" xmlns="http://www.w3.org/2000/svg"><g fill="#00d36a"><path d="m6 34.5h36v-2h-36z"/><path d="m5 28.5v9h2v-9zm36 0v9h2v-9zm-27.51-3.5c.02-.796.191-1.524.513-2.182.287-.683.936-1.403 1.945-2.16l.9-.656c.647-.481 1.085-.842 1.312-1.081.455-.485.682-1.016.682-1.593 0-.47-.13-.86-.39-1.171-.261-.311-.634-.467-1.119-.467-.663 0-1.115.248-1.355.743-.138.285-.22.74-.245 1.362h-2.12c.035-.944.206-1.707.512-2.289.582-1.107 1.616-1.661 3.101-1.661 1.174 0 2.108.325 2.802.976.695.65 1.042 1.512 1.042 2.584 0 .822-.245 1.552-.735 2.19-.322.423-.85.895-1.585 1.416l-1.212.863c-.365.265-.626.464-.783.6a2.468 2.468 0 0 0 -.509.604h4.847v1.922zm19.574-8.53c.368 0 .73.072 1.087.215.358.143.682.393.973.75.234.292.393.649.474 1.073.051.28.077.691.077 1.232l-.015 5.26h-2.236v-5.313c0-.317-.051-.577-.153-.781-.194-.388-.551-.582-1.072-.582-.602 0-1.018.25-1.248.75-.117.265-.176.584-.176.957v4.969h-2.197v-4.969c0-.495-.052-.855-.154-1.08-.183-.403-.543-.604-1.08-.604-.622 0-1.04.201-1.255.605-.117.23-.176.571-.176 1.025v5.023h-2.213v-8.33h2.121v1.217c.27-.434.526-.742.766-.926.424-.327.972-.49 1.646-.49.638 0 1.154.14 1.547.421.316.26.556.595.72 1.003.285-.49.64-.85 1.063-1.08.45-.23.95-.344 1.501-.344z"/></g></svg>