<svg xmlns="http://www.w3.org/2000/svg" xmlns:xlink="http://www.w3.org/1999/xlink" version="1.1" id="Layer_1" x="0px" y="0px" viewBox="-211 47 600 420" style="enable-background:new -211 47 600 420;" xml:space="preserve">
<style type="text/css">
	.st0{fill:#FFCDB8;}
	.st1{fill:#EEA0A0;}
	.st2{fill:#014242;}
	.st3{fill:#FFFFFF;}
	.st4{fill:#00D36A;}
	.st5{enable-background:new    ;}
	.st6{fill:#195B58;}
	.st7{fill:#DEE6E9;}
</style>
<g>
	<path class="st0" d="M307.8,208.4l-23,7.5l-11.8,3.8c-7.6,2.5-15.7-1.8-18-9.5c-2.2-7.4,1.8-15.3,9.1-17.8l31.4-10.7l3.3-1.1   c7.4-2.5,15.3,1.4,18,8.7l0.2,0.5C319.6,197.4,315.5,205.9,307.8,208.4z"/>
	<path class="st1" d="M295.4,181.7l-10.6,34.1l-11.8,3.8c-7.6,2.5-15.7-1.8-18-9.5c-2.2-7.4,1.8-15.3,9.1-17.8L295.4,181.7z"/>
	<g>
		<g>
			<path class="st2" d="M210.7,351.1L96.5,313.2c-6.9-2.3-10.6-9.7-8.4-16.6l66.3-200c2.3-6.9,9.7-10.6,16.6-8.4l114.2,37.9     c6.9,2.3,10.6,9.7,8.4,16.6l-66.3,200C225,349.6,217.6,353.3,210.7,351.1z"/>
			<path class="st3" d="M281.6,153.7l-51.1,154.1c-1.4,4.4-6.2,6.7-10.5,5.3l-108.3-35.9c-4.4-1.4-6.7-6.2-5.3-10.5l51.1-154.1     c1.4-4.4,6.2-6.7,10.5-5.3l108.2,35.9C280.6,144.6,283,149.3,281.6,153.7z"/>
			<path class="st4" d="M281.6,153.7l-9.4,28.1l-124-41.1l9.3-28.2c1.4-4.4,6.2-6.7,10.5-5.3l108.2,35.9     C280.6,144.6,283,149.3,281.6,153.7z"/>
			<path class="st4" d="M236,291l-9.3,28.2c-1.4,4.4-6.2,6.7-10.5,5.3L108,288.6c-4.4-1.4-6.7-6.2-5.3-10.5l9.3-28.2L236,291z"/>
			
				<rect x="150.5" y="174.4" transform="matrix(-0.9492 -0.3146 0.3146 -0.9492 306.3861 481.2499)" class="st2" width="83" height="83"/>
			
				<rect x="161.3" y="166.6" transform="matrix(-0.9492 -0.3146 0.3146 -0.9492 281.8374 402.9357)" class="st2" width="24.2" height="24.2"/>
			
				<rect x="142.8" y="222.4" transform="matrix(-0.9492 -0.3146 0.3146 -0.9492 228.247 505.89)" class="st2" width="24.2" height="24.2"/>
			
				<rect x="217.1" y="185.1" transform="matrix(-0.9492 -0.3146 0.3146 -0.9492 384.7916 456.526)" class="st2" width="24.2" height="24.2"/>
			
				<rect x="143.1" y="216.8" transform="matrix(-0.9492 -0.3146 0.3146 -0.9492 240.814 478.7068)" class="st3" width="31.8" height="6.2"/>
			
				<rect x="152.1" y="235.4" transform="matrix(0.3146 -0.9492 0.9492 0.3146 -110.1785 324.4238)" class="st3" width="34.9" height="6.2"/>
			
				<rect x="152" y="189.8" transform="matrix(-0.9492 -0.3146 0.3146 -0.9492 266.6641 428.8503)" class="st3" width="31.8" height="6.2"/>
			
				<rect x="170.1" y="181.2" transform="matrix(-0.3146 0.9492 -0.9492 -0.3146 421.5421 64.2965)" class="st3" width="34.9" height="6.2"/>
			
				<rect x="209.2" y="208.7" transform="matrix(0.9492 0.3146 -0.3146 0.9492 78.0738 -60.054)" class="st3" width="31.8" height="6.2"/>
			
				<rect x="197.1" y="190.2" transform="matrix(-0.3146 0.9492 -0.9492 -0.3146 465.4515 50.4486)" class="st3" width="34.9" height="6.2"/>
			
				<rect x="166.7" y="172.1" transform="matrix(0.9492 0.3146 -0.3146 0.9492 65.0266 -45.478)" class="st3" width="13.3" height="13.3"/>
			
				<rect x="148.3" y="227.9" transform="matrix(0.9492 0.3146 -0.3146 0.9492 81.6424 -36.8255)" class="st3" width="13.3" height="13.3"/>
			
				<rect x="148.3" y="227.9" transform="matrix(0.9492 0.3146 -0.3146 0.9492 81.6424 -36.8255)" class="st3" width="13.3" height="13.3"/>
			
				<rect x="222.6" y="190.6" transform="matrix(0.9492 0.3146 -0.3146 0.9492 73.6937 -62.1222)" class="st3" width="13.3" height="13.3"/>
			<polygon class="st3" points="145.4,200.1 163.6,206.1 161.1,219.9 138.5,212.5    "/>
			
				<rect x="217.4" y="230.2" transform="matrix(-0.9492 -0.3146 0.3146 -0.9492 361.7242 530.1976)" class="st3" width="12.4" height="11.4"/>
			
				<rect x="208" y="256.2" transform="matrix(-0.9492 -0.3146 0.3146 -0.9492 339.0906 584.252)" class="st3" width="17.3" height="17.1"/>
			
				<rect x="180.7" y="246.3" transform="matrix(-0.9492 -0.3146 0.3146 -0.9492 284.4001 554.418)" class="st3" width="12.4" height="15.9"/>
			
				<rect x="208.2" y="211.1" transform="matrix(-0.9492 -0.3146 0.3146 -0.9492 348.8148 489.9488)" class="st3" width="11.4" height="11.4"/>
			
				<rect x="203.1" y="173.9" transform="matrix(-0.9492 -0.3148 0.3148 -0.9492 351.3921 420.5364)" class="st3" width="13.1" height="15.9"/>
			<g>
				<circle class="st4" cx="193.2" cy="215.9" r="32.9"/>
				<g>
					<path class="st3" d="M183.1,227.8l-0.6-1.1c-0.6-1.1-0.1-2.5,1-3l29.8-15c1.1-0.6,2.5-0.1,3,1l0.6,1.1c0.6,1.1,0.1,2.5-1,3       l-29.8,15C185,229.4,183.6,228.9,183.1,227.8z"/>
					<path class="st3" d="M187.2,228.3l-1.1,0.6c-1.1,0.6-2.5,0.1-3-1l-9.6-19.1c-0.6-1.1-0.1-2.5,1-3l1.1-0.6c1.1-0.6,2.5-0.1,3,1       l9.6,19.1C188.8,226.4,188.3,227.7,187.2,228.3z"/>
				</g>
			</g>
			<g>
				<g class="st5">
					<path class="st3" d="M174.9,124.1l-9,10.6l-2.1-0.7l-0.9-13.8l1.8,0.6c0.2,0.1,0.3,0.2,0.4,0.3s0.1,0.3,0.2,0.5l0.4,8.4       c0,0.3,0,0.6,0,0.9s0,0.6-0.1,1c0.2-0.3,0.3-0.6,0.5-0.8c0.2-0.3,0.3-0.5,0.5-0.7l5.3-6.5c0.1-0.1,0.2-0.2,0.4-0.3       c0.2-0.1,0.3-0.1,0.5,0L174.9,124.1z"/>
					<path class="st3" d="M181.7,139.9l-1.8-0.6c-0.2-0.1-0.3-0.2-0.4-0.3s-0.1-0.3-0.2-0.5l-0.1-2.8l-5.1-1.7l-1.7,2.2       c-0.1,0.1-0.2,0.2-0.4,0.3c-0.2,0.1-0.3,0.1-0.5,0l-1.8-0.6l8.9-10.6l2.3,0.8L181.7,139.9z M179.2,134l-0.1-4.6       c0-0.2,0-0.4,0-0.7c0-0.3,0-0.6,0-0.9c-0.2,0.3-0.3,0.5-0.5,0.7c-0.2,0.2-0.3,0.4-0.4,0.6l-2.8,3.6L179.2,134z"/>
					<path class="st3" d="M192.3,140.2c0.1,0,0.2,0.1,0.3,0.3l0.6,1.3c-0.7,0.4-1.5,0.7-2.3,0.8c-0.8,0.1-1.8,0-2.8-0.4       c-0.9-0.3-1.7-0.7-2.3-1.3c-0.6-0.5-1.1-1.2-1.4-1.9s-0.5-1.5-0.5-2.4c0-0.9,0.1-1.7,0.4-2.6c0.3-0.9,0.7-1.7,1.3-2.4       c0.5-0.7,1.2-1.2,1.9-1.6c0.7-0.4,1.5-0.6,2.3-0.7s1.7,0.1,2.6,0.4c0.9,0.3,1.6,0.7,2.2,1.2c0.6,0.5,1.1,1.1,1.4,1.7l-1.1,0.8       c-0.1,0.1-0.1,0.1-0.2,0.1c-0.1,0-0.2,0-0.3,0c-0.1,0-0.2-0.1-0.2-0.2c-0.1-0.1-0.2-0.2-0.2-0.3c-0.1-0.1-0.2-0.2-0.3-0.4       c-0.1-0.1-0.3-0.3-0.4-0.4c-0.2-0.1-0.4-0.3-0.6-0.4c-0.2-0.1-0.5-0.2-0.8-0.4c-0.5-0.2-1.1-0.2-1.6-0.2c-0.5,0-1,0.2-1.4,0.5       c-0.4,0.3-0.9,0.6-1.2,1.1c-0.4,0.5-0.6,1-0.9,1.7c-0.2,0.7-0.3,1.3-0.3,1.9c0,0.6,0.1,1.1,0.3,1.6c0.2,0.5,0.5,0.9,0.9,1.2       c0.4,0.3,0.8,0.6,1.4,0.8c0.3,0.1,0.6,0.2,0.9,0.2c0.3,0,0.5,0.1,0.7,0.1c0.2,0,0.5,0,0.7-0.1c0.2-0.1,0.5-0.1,0.7-0.2       c0.1,0,0.1-0.1,0.2-0.1C192.1,140.2,192.2,140.2,192.3,140.2z"/>
					<path class="st3" d="M203.2,143.9c0.1,0,0.2,0.1,0.3,0.3l0.6,1.3c-0.7,0.4-1.5,0.7-2.3,0.8s-1.8,0-2.8-0.4       c-0.9-0.3-1.7-0.7-2.3-1.3c-0.6-0.5-1.1-1.2-1.4-1.9s-0.5-1.5-0.5-2.4c0-0.9,0.1-1.7,0.4-2.6c0.3-0.9,0.7-1.7,1.3-2.4       c0.5-0.7,1.2-1.2,1.9-1.6c0.7-0.4,1.5-0.6,2.3-0.7c0.8-0.1,1.7,0.1,2.6,0.4c0.9,0.3,1.6,0.7,2.2,1.2c0.6,0.5,1.1,1.1,1.4,1.7       l-1.1,0.8c-0.1,0.1-0.1,0.1-0.2,0.1c-0.1,0-0.2,0-0.3,0c-0.1,0-0.2-0.1-0.2-0.2c-0.1-0.1-0.2-0.2-0.2-0.3       c-0.1-0.1-0.2-0.2-0.3-0.4c-0.1-0.1-0.3-0.3-0.4-0.4c-0.2-0.1-0.4-0.3-0.6-0.4c-0.2-0.1-0.5-0.2-0.8-0.4       c-0.5-0.2-1.1-0.3-1.6-0.2s-1,0.2-1.4,0.5c-0.4,0.3-0.9,0.6-1.2,1.1c-0.4,0.5-0.6,1-0.9,1.7c-0.2,0.7-0.3,1.3-0.3,1.9       c0,0.6,0.1,1.1,0.3,1.6c0.2,0.5,0.5,0.9,0.9,1.2c0.4,0.3,0.8,0.6,1.4,0.8c0.3,0.1,0.6,0.2,0.9,0.2c0.3,0,0.5,0.1,0.7,0.1       c0.2,0,0.5,0,0.7-0.1s0.5-0.1,0.7-0.2c0.1,0,0.1-0.1,0.2-0.1C203,143.8,203.1,143.8,203.2,143.9z"/>
					<path class="st3" d="M207.3,148.4l-2.3-0.8l4-12.2l2.3,0.8L207.3,148.4z"/>
					<path class="st3" d="M224.4,140.5l-4,12.2l-1.2-0.4c-0.2-0.1-0.3-0.1-0.4-0.2c-0.1-0.1-0.2-0.2-0.3-0.4l-3.7-10.3       c-0.1,0.4-0.2,0.7-0.3,1L212,150l-2-0.7l4-12.2l1.2,0.4c0.1,0,0.2,0.1,0.2,0.1c0.1,0,0.1,0.1,0.2,0.1s0.1,0.1,0.1,0.2       c0,0.1,0.1,0.1,0.1,0.2l3.7,10.3c0-0.2,0.1-0.4,0.2-0.6s0.1-0.4,0.2-0.5l2.5-7.4L224.4,140.5z"/>
					<path class="st3" d="M233.5,157.1l-1.8-0.6c-0.2-0.1-0.3-0.2-0.4-0.3c-0.1-0.1-0.1-0.3-0.2-0.5l-0.1-2.8l-5.1-1.7l-1.7,2.2       c-0.1,0.1-0.2,0.2-0.4,0.3c-0.2,0.1-0.3,0.1-0.5,0l-1.8-0.6l8.9-10.6l2.3,0.8L233.5,157.1z M231,151.2l-0.1-4.6       c0-0.2,0-0.4,0-0.7c0-0.3,0-0.6,0-0.9c-0.2,0.3-0.3,0.5-0.5,0.7c-0.2,0.2-0.3,0.4-0.4,0.6l-2.8,3.6L231,151.2z"/>
					<path class="st3" d="M246.7,150l-3.7-1.2l-3.4,10.3l-2.3-0.8l3.4-10.3l-3.7-1.2l0.6-1.9l9.6,3.2L246.7,150z"/>
					<path class="st3" d="M250.6,151.2l-1.1,3.4l4.3,1.4l-0.6,1.7l-4.3-1.4l-1.1,3.5l5.4,1.8l-0.6,1.8l-7.7-2.6l4-12.2l7.7,2.6       l-0.6,1.8L250.6,151.2z"/>
					<path class="st3" d="M267.5,161.6c-0.3,0.9-0.7,1.7-1.3,2.3c-0.5,0.7-1.2,1.2-1.9,1.5c-0.7,0.4-1.5,0.6-2.4,0.6       s-1.8-0.1-2.7-0.4l-4.7-1.5l4-12.2l4.7,1.5c0.9,0.3,1.7,0.7,2.4,1.3s1.2,1.2,1.5,1.9c0.4,0.7,0.6,1.5,0.6,2.3       C267.9,159.8,267.8,160.7,267.5,161.6z M265.2,160.8c0.2-0.7,0.3-1.3,0.3-1.9c0-0.6-0.1-1.1-0.3-1.6s-0.5-0.9-0.9-1.3       c-0.4-0.4-0.9-0.6-1.5-0.8l-2.4-0.8l-2.8,8.6l2.4,0.8c0.6,0.2,1.2,0.3,1.7,0.2c0.5,0,1-0.2,1.5-0.4c0.5-0.3,0.9-0.6,1.2-1.1       S264.9,161.5,265.2,160.8z"/>
				</g>
			</g>
			<path class="st6" d="M161.7,310.8L161.7,310.8c4.9,1.6,7.5,6.9,5.9,11.8l0,0c-1.6,4.9-6.9,7.5-11.8,5.9l0,0     c-4.9-1.6-7.5-6.9-5.9-11.8l0,0C151.5,311.8,156.8,309.2,161.7,310.8z"/>
			<g>
				<path class="st6" d="M206.1,105.8l40.4,13.4c1.8,0.6,2.7,2.5,2.1,4.3l0,0c-0.6,1.8-2.5,2.7-4.3,2.1l-40.4-13.4      c-1.8-0.6-2.7-2.5-2.1-4.3l0,0C202.5,106.2,204.4,105.2,206.1,105.8z"/>
			</g>
		</g>
		<path class="st2" d="M272.8,201.9L272.8,201.9c-2.1-0.7-3.3-3-2.6-5.2l7.8-23.6c0.7-2.1,3-3.3,5.2-2.6l0,0c2.1,0.7,3.3,3,2.6,5.2    l-7.8,23.6C277.3,201.4,275,202.6,272.8,201.9z"/>
		<path class="st2" d="M265.1,225.1L265.1,225.1c-2.1-0.7-3.3-3-2.6-5.2l2.6-7.9c0.7-2.1,3-3.3,5.2-2.6l0,0c2.1,0.7,3.3,3,2.6,5.2    l-2.6,7.9C269.6,224.6,267.3,225.8,265.1,225.1z"/>
	</g>
	<g transform="translate(87.047 127.02)">
		<g>
			<path class="st0" d="M24.2,101.4l-51.5,95.9l29.9,19.6l-16,26.5c-1.8,1.7-13.2,12.6-29.1,27.8c-8.7,8.4-18.8,18-29.4,28.2h-136.4     l109.5-96l26.1-22.9l18.1-17.3C-64.7,138.4-47.3,114.7-21,95C5.3,75.4,8.1,49,8.9,37.5v-0.3c0.9-10.7,14-15.3,21.5-7.7     c4.5,4.5,8.8,12.2,9.9,25C42.8,83.6,24.2,101.4,24.2,101.4z"/>
		</g>
	</g>
	<path class="st4" d="M54.9,410.7l-16.5,15.7h-178.1c42.8-36.2,122.6-102.5,122.6-102.5l5.4,6.5l56.3,67.8L54.9,410.7z"/>
	<polygon class="st7" points="-11.8,330.4 7.1,313.9 64,379.7 44.6,398.3  "/>
	<path class="st0" d="M188.4,343.7c0,0-10.6,7.8-20,16.4c-0.1,0.1-0.2,0.2-0.3,0.3c-16.1,14.9-57,27.1-94.5,10l-27.7-53.3l38.4-85.9   l26.9-2.8c0,0,13.1,46.2-4.6,88.1v0.1c-0.1,0.3-0.3,0.6-0.4,0.9L188.4,343.7L188.4,343.7z"/>
	<path class="st1" d="M188.4,343.7c0,0-10.6,7.8-20,16.4l-70.9-25.2l9.1-18.3v-0.1L188.4,343.7L188.4,343.7z"/>
	<path class="st0" d="M242,247.2c3,7.4,11.5,11,18.8,7.8l25.2-11.4c7.4-3.2,10.6-12.4,7.1-19.7l0,0c-3.3-7.1-11.6-10.2-18.7-7   l-25,11.8C242.4,231.8,239.1,240,242,247.2"/>
	<path class="st0" d="M233.5,281.4c3,7.4,11.5,11,18.8,7.8l25.2-11.4c7.4-3.2,10.6-12.4,7.1-19.7l0,0c-3.3-7.1-11.6-10.2-18.7-7   l-25,11.8C233.9,266,230.6,274.2,233.5,281.4"/>
	<path class="st0" d="M221.9,315.9c3,7.4,11.5,11,18.8,7.8l25.2-11.4c7.4-3.2,10.6-12.4,7.1-19.7l0,0c-3.3-7.1-11.6-10.2-18.7-7   l-25,11.8C222.3,300.5,219,308.7,221.9,315.9"/>
</g>
</svg>