<svg height="420" viewBox="0 0 600 420" width="600" xmlns="http://www.w3.org/2000/svg"><g fill="none" fill-rule="evenodd"><g transform="translate(23 114)"><g fill-rule="nonzero"><path d="m354.75 143.16373c-2.16 20.1-9.72 33.21-24.09 41.37-12.12 6.9-22.29.93-22.65-12.9-.42-16.71 6.78-30.36 20.61-39.18 5.07-3.24 13.92-4.59 19.11-2.34 4.29 1.86 6.27 1.88627 7.02 13.05z" stroke="#014242"/><path d="m339 152.819399c-.831526 8.258412-3.741869 13.644869-9.27383 16.997538-4.665787 2.834978-8.58089.382106-8.719478-5.300175-.161686-6.865575 2.610069-12.4739 7.934148-16.097741 1.951777-1.331207 5.358726-1.885876 7.356699-.961427 1.651504.764211 2.413737.775005 2.702461 5.361805z" stroke="#014242"/><path d="m160.5 256.56373c-1.5-16.56373 10.08-32.4 24.57-40.44 12.03-6.69 21.78-.99 22.95 12.63 1.23 14.4-10.47 36.06-24 41.76-4.86 2.04-12.81 2.67-16.47 0-4.32-3.18-5.55-6.51373-7.05-13.95zm14.788387-8.159775c-.565564-6.741402 3.800587-13.186729 9.263932-16.458991 4.53582-2.722815 8.211984-.402928 8.653124 5.140382.463762 5.860768-3.947635 14.67634-9.049019 16.996228-1.832426.830275-4.829913 1.086684-6.209888 0-1.628824-1.294253-2.092586-2.651074-2.658149-5.677619z" stroke="#014242"/></g><g transform="matrix(-1 0 0 1 240.582418 88.991042)"><path d="m55.8956232 93.0089583-4-16c-.7534701-1.1950918.1045928-1.6020881.9999175-2.6746797l7.6868769-8.5997195-8.3588336-8.7256008-6.6240262 6.8264581c-4.5642238 4.7041623-4.9617341 12.4679677-.9059108 17.6946414l5.2019762 15.4789005z" fill="#ffcdb8" transform="matrix(-1 0 0 1 102.47804 0)"/><path d="m32.9662612 58.3920355-5.9919246 7.6356071-10.6054931-12.9218117 4.2244413-2.9368023.0561546-5.4947514.0411272-4.2937354 9.5241231 3.5242021.0222334 7.9351408z" fill="#ffcdb8"/><path d="m30.2203611 43.9292582v7.9106265c-5.1568358-1.1444655-7.849321-4.4682982-9.2510196-7.1357404l.0399665-4.3236025z" fill="#eea0a0"/><path d="m42.7614585 27.8299314c0 11.3013969-4.400021 20.4630138-12.9024771 20.4630138-8.5022593 0-15.3947596-9.1616169-15.3947596-20.4630138s6.8925003-20.46321094 15.3947596-20.46321094c8.5024561 0 12.9024771 9.16181404 12.9024771 20.46321094" fill="#ffcdb8"/><g fill="#014242"><path d="m22.6772655 28.5239318c-.0582713-.2102876.0692286-.4268444.2847788-.4836929.2155503-.0568486.4375265.0675383.4957978.277826.0058343.0210548.0224059.0694838.0507476.1355548.0484906.1130426.1107424.2261366.1865895.3296583.2008622.2741511.451418.4265755.7783944.4265755.4868399 0 1.1373491-.3251355 1.9556426-1.0761403.1626339-.1492603.4185022-.1416378.5714979.0170254.1529958.1586632.1451825.4082845-.0174514.5575449-1.7778038 1.6316138-3.1415165 1.6316138-3.9459114.5337179-.1949765-.2661178-.3076069-.5286853-.3600858-.7180696z" fill-rule="nonzero" transform="matrix(-1 0 0 1 49.773694 0)"/><path d="m35.7723568 28.523983c-.0583006-.2102797.0691691-.4268531.2847115-.4837301.2155424-.0568771.4375359.0674803.4958364.2777601.0058381.0210567.0224176.0694878.0507703.1355612.0485093.113047.1107805.2261455.1866469.3296721.200916.2741685.4515164.4266061.7785053.4266061.4868311 0 1.1372759-.3251273 1.9554458-1.0761207.1626234-.1492711.4184923-.1416657.5714991.0169871.1530069.1586529.1452111.4082745-.0174123.5575456-1.7775781 1.6316286-3.1412859 1.6316286-3.9458206.5337668-.19501-.2661092-.307677-.52867-.3601824-.7180482z" fill-rule="nonzero" transform="matrix(-1 0 0 1 75.963848 0)"/><path d="m30.5824176 51.0089583s.6666666 2.6666667 2 8l16 28c1.3333333-2.6666666 2-6.6666666 2-12 0-5.3333333-2-9.3333333-6-12l6-6c-8-5.3333333-14.6666667-7.3333333-20-6z"/><path d="m16.5824176 53.0089583c-8.00000002-1.3333333-13.33333335 3.3333334-16.00000002 14 5.33333334 2.6666667 13.33333332 7.3333334 24.00000002 14l-6-4z"/></g><path d="m31.2373484 29.5994413c-.21734 1.9550912-.2050002 3.4197246-.1132477 4.4709255.1464856 1.6781857 1.8684876 2.294387 2.6299739.9050456.5395686-.9843815.5053356-2.7139815-1.3957928-5.7497357-.3427286-.5474563-1.044108-.3167659-1.1209334.3737646" fill="#eea0a0"/><path d="m14.5313239 27.5569914s9.4256002-10.171806 10.0131599-17.0905972l-.9600094 8.448414c-.1240184 1.0914425.5684344 2.1109303 1.6349143 2.4069611 1.0727893.2979861 2.2017713-.2240761 2.6643267-1.2288993 1.084225-2.3547549 3.7617618-6.5773976 3.7617618-9.5901074 0 0 1.175908 4.197224 1.27114 7.7562416.0449542 1.6874146.5467459 3.0140784 2.2451482 2.9041912.6894953-.0445806 1.3397543-.3257512 1.8452922-.7930654 2.284976-2.1128856 9.2507125-10.0194889 1.0503121-16.312783-14.6146588-11.21573491-29.77566927 3.25438349-29.85079015 13.9832514-.05855879 8.3754816 6.32474435 9.516393 6.32474435 9.516393" fill="#d6274d"/><path d="m15.1652308 34.1051873c-.4673393 0-1.0811177-.121566-1.841335-.3646979-.4757866 2.1406699-1.992164 5.1650729-6.64598535 6.5532468-7.61087815 2.2700872-7.17175502 9.1540785-3.65896646 14.0607385s-2.43125168 8.9344624-2.43125168 8.9344624 11.13433809 3.2543291 11.65205149-12.3032199c.2475058-7.434945 1.9471443-11.8446104 3.6544601-14.4225102-.1565462-.7556449-.3995372-1.5749848-.7289731-2.4580197z" fill="#d6274d"/><g fill="#014242" fill-rule="nonzero"><path d="m18.7776301 27.6935094c0 3.2619327 2.6370038 5.9061183 5.8900193 5.9061183 3.2528496 0 5.8898252-2.6442138 5.8898252-5.9061183 0-3.2619453-2.6370163-5.9063129-5.8898252-5.9063129-3.2529748 0-5.8900193 2.6443393-5.8900193 5.9063129zm-.7762537 0c0-3.6918726 2.9845851-6.684714 6.666273-6.684714 3.6815257 0 6.6660789 2.9928733 6.6660789 6.684714 0 3.6918073-2.9845199 6.6845194-6.6660789 6.6845194-3.6817212 0-6.666273-2.9926802-6.666273-6.6845194z"/><path d="m33.4704261 27.1478264c0 3.2619327 2.6370037 5.9061183 5.8900192 5.9061183 3.2528497 0 5.8898252-2.6442138 5.8898252-5.9061183 0-3.2619453-2.6370163-5.9063129-5.8898252-5.9063129-3.2529748 0-5.8900192 2.6443393-5.8900192 5.9063129zm-.7762537 0c0-3.6918726 2.984585-6.684714 6.6662729-6.684714 3.6815257 0 6.666079 2.9928733 6.666079 6.684714 0 3.6918073-2.98452 6.6845194-6.666079 6.6845194-3.6817212 0-6.6662729-2.9926802-6.6662729-6.6845194z"/><path d="m32.9662612 26.7384669v.545683h-2.1767105v-.545683z"/><path d="m18.2734652 26.7045372-.0463075.5796127-5.6675576-.2389119.0463075-.5796126z"/></g><path d="m11.2120963 32.2280894c-1.77019949-1.9000987-2.17565872-4.4324386-.905402-5.6560291 1.2700615-1.2235905 3.7348319-.6751186 5.5050314 1.22498 1.7701994 1.9000986 2.1756587 4.4324386.905402 5.6560291-1.2700615 1.2235904-3.734832.6751186-5.5050314-1.22498" fill="#ffcdb8"/><path d="m28.4021462 38.0070928c-.1159576-.1899123-.0628298-.4422289.1186641-.563565.1814939-.121336.422626-.0657441.5385836.1241682.0222349.0364158.073828.1108914.1538637.2106485.1369434.1706872.3008126.3421553.4903092.501967.535843.4519026 1.1628062.7202856 1.8821025.7202856.949068 0 2.0095402-.4681511 3.1856189-1.5230184.1635218-.1466686.4097104-.1268578.5498775.0442487.1401671.1711066.1212344.4287142-.0422874.5753827-2.4040179 2.1562502-4.4785397 2.1562502-6.064742.8185282-.2310303-.1948391-.4303046-.4033541-.598224-.6126499-.1028819-.1282328-.1741312-.2310826-.2137661-.2959956z" fill="#014242" fill-rule="nonzero"/></g><g stroke="#014242"><path d="m211.5 0-117 69-21 54-72 48 111 69 75-54 18-54 114-69z"/><path d="m1.5 171v54"/><path d="m1.5 225 111 63v-48"/><path d="m112.5 288 48-27"/><path d="m207 237 102-63"/><path d="m354 144 19.5-24v-39l-111-66-13.5 6"/><path d="m319.5 63 25.5 33"/><path d="m373.5 81-186 105"/><path d="m282 100-6 22"/><path d="m290 100-6 22"/><path d="m288 90-10 40"/><path d="m253.5 102v46.5"/><path d="m304.5 72 10.5 42"/><path d="m94.5 69 111 63"/><path d="m116 104-6 22"/><path d="m124 104-6 22"/><path d="m122 94-10 40"/><path d="m73.5 123 114 63"/><path d="m145.135908 162.470753c3.071935-2.181924 6.384929-4.10554 9.838878-5.712506 14.111442-6.580137 25.548395-.973742 26.920829 12.42259.389849 3.826979-.327625 8.175291-1.895568 12.594404l-6.000047-3.775241c1.333333-6.666667.666667-11.333333-2-14-4-4-12-4-20 2" fill="#fff" fill-rule="nonzero"/><path d="m166 134-6 22"/><path d="m174 134-6 22"/><path d="m172 124-10 40"/><path d="m1.5 207 111 63 49.5-30"/><path d="m10.5 195 15 9"/><path d="m82.5 237 21 12"/></g></g><g stroke="#014242" transform="translate(396 114)"><path d="m.09687921 112.449204 43.68699059 25.008311m104.5648022 59.306248 22.558558 11.881369"/><path d="m142.31136 56v-3.35888l-88.51136-52.24112v4.2"/><path d="m148.4 206.6-.6744-145.6941752-39.9256-23.7058248v146.08888z"/><path d="m84.4 169.6-.6744004-145.6941752-39.9255996-23.7058248v146.08888z"/><path d="m82.1 164.9-.6644339-137.6096106-35.3355661-20.3903894v137.982413z"/><path d="m146.1 200.9-.664434-137.6096106-35.335566-20.3903894v137.982413z"/></g><g fill-rule="nonzero" transform="translate(46 39)"><path d="m451 131.373775-.003933.374946c-.200435 9.568837-8.03312 17.251208-17.64408 17.225122l-415.8-1.134444c-9.70143052-.026466-17.551987-7.898468-17.551987-17.599938v-112.6612493c.02658234-9.7201754 7.92783757-17.57843833 17.648013-17.55205497l415.8 1.13444475c9.701431.02646571 17.551987 7.89846788 17.551987 17.59970992l.000894 31.8591494c.225427-.0724475.379525-.1426341.471253-.2013421-.016076.0102892-.082643.0750798-.137699.158035l13.981426 7.6608178c-3.998676 9.0374014-8.558549 15.7530246-13.921479 20.0235968l-.393846.3081155zm-433.3738111-123.34751455-.2733352.00307046c-5.1759148.13057202-9.33860362 4.36020339-9.3528537 9.57070489v112.6394282.272802c.14795948 5.165698 4.3733577 9.312975 9.5738111 9.327162l415.7999999 1.134312.273335-.003071c5.08511-.128281 9.192233-4.213057 9.348257-9.29739l.004561-.273315.00063-57.2281667c5.528182-2.6753431 10.527983-9.0659422 14.999406-19.1717973-2.271785 3.4229724-7.271412 4.6538776-14.998879 3.6927156l-.001121-39.9321796-.003802-.2728024c-.144157-5.1656973-4.369556-9.31297494-9.570009-9.32716189z" fill="#fff"/><path d="m17.6261889 8.02626045-.2733352.00307046c-5.1759148.13057202-9.33860362 4.36020339-9.3528537 9.57070489v112.6394282.272802c.14795948 5.165698 4.3733577 9.312975 9.5738111 9.327162l415.7999999 1.134312.273335-.003071c5.08511-.128281 9.192233-4.213057 9.348257-9.29739l.004561-.273315.00063-57.2281667c5.528182-2.6753431 10.527983-9.0659422 14.999406-19.1717973-2.271785 3.4229724-7.271412 4.6538776-14.998879 3.6927156l-.001121-39.9321796-.003802-.2728024c-.144157-5.1656973-4.369556-9.31297494-9.570009-9.32716189z" fill="#00d36a"/><path d="m47.568 54.984c0 5.18 2.688 9.324 8.176 9.324 2.016 0 3.808-.504 5.376-1.316l-.672-1.736c-1.344.616-2.772 1.036-4.424 1.036-4.536 0-6.104-3.668-6.104-7.504 0-2.352.588-4.704 2.128-6.328.952-.952 2.24-1.512 3.92-1.512 1.54 0 2.8.392 4.144 1.148l.868-1.736c-1.26-.868-2.996-1.428-4.984-1.428-5.796 0-8.428 4.984-8.428 10.052zm16.528-11.956v20.972h2.184v-10.192c1.232-.84 2.576-1.344 3.92-1.344 1.736 0 2.212 1.092 2.212 3.444v8.092h2.212v-8.904c0-2.912-1.064-4.564-3.864-4.564-1.68 0-3.136.56-4.48 1.596v-9.156zm16.248 7.7-1.848.252.114025 1.7793377c.0938022 1.6271199.109975 2.5225823.109975 3.2886623v7.952h2.212v-8.764c.896-1.596 2.072-2.296 3.332-2.296.56 0 1.008.056 1.512.196l.448-2.016c-.448-.28-1.064-.504-1.82-.504-1.484 0-2.688.924-3.612 2.576zm8.268.224v13.048h2.184v-13.104zm-.392-4.004c0 .84.588 1.372 1.456 1.372.952 0 1.568-.616 1.568-1.54 0-.868-.56-1.428-1.428-1.428-.952 0-1.596.644-1.596 1.596zm6.252 7.476c.026 1.872 1.3557143 2.7541429 3.0699898 3.4534898l1.1938448.4724113c1.3497844.5415997 2.4561654 1.0816189 2.4561654 2.2340989 0 1.204-1.148 1.876-2.716 1.876-1.344 0-2.52-.476-3.64-1.204l-.924 1.484c1.26.952 2.8 1.568 4.62 1.568 2.968 0 4.956-1.568 4.956-3.948 0-2.1429333-1.634204-2.9931378-3.5594761-3.7343953l-.4165239-.1576047c-1.512-.588-2.8-1.092-2.8-2.324 0-1.008.924-1.68 2.352-1.68 1.092 0 2.1.364 3.052.98l.952-1.428c-1.008-.812-2.352-1.4-3.976-1.4-2.52 0-4.676 1.428-4.62 3.808zm13.308-7.392-.504 3.892h-1.848v1.82h1.96v7.42c0 3.136.952 4.144 3.052 4.144.98 0 2.24-.196 3.36-.616l-.42-1.652c-.812.196-1.652.308-2.128.308-1.270621 0-1.627662-.5481474-1.650775-2.5265187l-.001225-7.0774813h4.004v-1.82h-4.004v-3.892zm8.716 3.92v13.048h2.184v-13.104zm-.392-4.004c0 .84.588 1.372 1.456 1.372.952 0 1.568-.616 1.568-1.54 0-.868-.56-1.428-1.428-1.428-.952 0-1.596.644-1.596 1.596zm8.408 3.78-1.848.252.084648 1.2679074c.119908 1.9256482.139352 2.9600926.139352 3.8000926v7.952h2.212v-9.884c1.204-1.008 2.52-1.68 3.92-1.68 1.736 0 2.184 1.148 2.184 3.5v8.064h2.212v-8.904c0-2.912-1.008-4.564-3.892-4.564-1.792 0-3.276.7-4.648 2.016zm12.468 2.016.812 1.372c1.372-.952 2.856-1.568 4.172-1.568 1.571613 0 2.199209.8915713 2.238064 3.4613944l.001936.4586056-.731759.066581c-2.595185.2575579-4.233574.6660857-5.260241 1.333419-1.092.7-1.792 1.82-1.792 3.164 0 2.016 1.316 3.276 3.416 3.276 1.596 0 3.164-.728 4.564-1.96l.364 1.792 1.848-.28-.114025-1.7357276c-.093802-1.5792484-.109975-2.4261924-.109975-3.1922724v-3.36c0-3.444-1.232-4.956-4.032-4.956-2.072 0-3.92.868-5.376 2.128zm3.304 9.8c-1.064 0-1.708-.616-1.708-1.764 0-.84.392-1.372.84-1.708.672-.42 1.932-.756 4.788-.98v2.632c-1.372 1.204-2.772 1.82-3.92 1.82zm10.116-2.38c.084.644.14 1.344.14 1.96 0 1.904-.588 3.696-2.044 5.152l.924.784c2.156-1.428 3.276-3.668 3.276-6.048 0-.644-.084-1.372-.224-1.988zm12.112-9.212v13.048h2.184v-13.104zm-.392-4.004c0 .84.588 1.372 1.456 1.372.952 0 1.568-.616 1.568-1.54 0-.868-.56-1.428-1.428-1.428-.952 0-1.596.644-1.596 1.596zm7.792.084-.504 3.892h-1.848v1.82h1.96v7.42c0 3.136.952 4.144 3.052 4.144.98 0 2.24-.196 3.36-.616l-.42-1.652c-.812.196-1.652.308-2.128.308-1.270621 0-1.627662-.5481474-1.650775-2.5265187l-.001225-7.0774813h4.004v-1.82h-4.004v-3.892zm8.436-4.48.196 7.392h1.652l.168-7.392zm4.684 11.872c.026 1.872 1.355714 2.7541429 3.06999 3.4534898l1.193845.4724113c1.349784.5415997 2.456165 1.0816189 2.456165 2.2340989 0 1.204-1.148 1.876-2.716 1.876-1.344 0-2.52-.476-3.64-1.204l-.924 1.484c1.26.952 2.8 1.568 4.62 1.568 2.968 0 4.956-1.568 4.956-3.948 0-2.1429333-1.634204-2.9931378-3.559476-3.7343953l-.416524-.1576047c-1.512-.588-2.8-1.092-2.8-2.324 0-1.008.924-1.68 2.352-1.68 1.092 0 2.1.364 3.052.98l.952-1.428c-1.008-.812-2.352-1.4-3.976-1.4-2.52 0-4.676 1.428-4.62 3.808zm25.888-3.5-3.668 10.668h-.112c-.1344-.7168-.30464-1.37984-.51072-2.017792l-2.96128-8.650208h-2.24c0 .336.05376.65408.16128.982912l4.40272 12.093088h.448c-1.428 3.528-2.912 5.068-5.348 5.068v1.764c.308.056.644.084 1.176.084 2.24 0 4.06-1.68 5.768-5.936l4.732-12.824c.168-.392.252-.756.252-1.232zm3.732 6.776c0 3.892 2.156 6.692 5.656 6.692 4.032 0 5.992-3.612 5.992-7.14 0-3.864-2.128-6.72-5.656-6.72-4.032 0-5.992 3.696-5.992 7.168zm9.38-.112c0 1.736-.448 3.164-1.232 4.004-.476.504-1.232.896-2.268.896-2.38 0-3.64-2.1-3.64-5.096 0-1.876.504-3.248 1.26-4.088.504-.476 1.26-.868 2.268-.868 2.38 0 3.612 2.156 3.612 5.152zm5.552-6.636v8.876c0 2.884 1.176 4.564 3.892 4.564 1.708 0 3.136-.756 4.424-2.044l.392 1.764 1.82-.252-.121008-1.9435696c-.078866-1.3708861-.099197-2.0766858-.102474-2.8391769l-.000518-8.1532535h-2.212v9.772c-1.232 1.092-2.436 1.792-3.668 1.792-1.568 0-2.24-1.036-2.24-3.444v-8.148zm16.164-.224-1.848.252.114025 1.7793377c.093802 1.6271199.109975 2.5225823.109975 3.2886623v7.952h2.212v-8.764c.896-1.596 2.072-2.296 3.332-2.296.56 0 1.008.056 1.512.196l.448-2.016c-.448-.28-1.064-.504-1.82-.504-1.484 0-2.688.924-3.612 2.576zm14.436-3.696-.504 3.892h-1.848v1.82h1.96v7.42c0 3.136.952 4.144 3.052 4.144.98 0 2.24-.196 3.36-.616l-.42-1.652c-.812.196-1.652.308-2.128.308-1.270621 0-1.627662-.5481474-1.650775-2.5265187l-.001225-7.0774813h4.004v-1.82h-4.004v-3.892zm8.604 3.92v8.876c0 2.884 1.176 4.564 3.892 4.564 1.708 0 3.136-.756 4.424-2.044l.392 1.764 1.82-.252-.121008-1.9435696c-.078866-1.3708861-.099197-2.0766858-.102474-2.8391769l-.000518-8.1532535h-2.212v9.772c-1.232 1.092-2.436 1.792-3.668 1.792-1.568 0-2.24-1.036-2.24-3.444v-8.148zm16.164-.224-1.848.252.114025 1.7793377c.093802 1.6271199.109975 2.5225823.109975 3.2886623v7.952h2.212v-8.764c.896-1.596 2.072-2.296 3.332-2.296.56 0 1.008.056 1.512.196l.448-2.016c-.448-.28-1.064-.504-1.82-.504-1.484 0-2.688.924-3.612 2.576zm9.92 0-1.848.252.084648 1.2679074c.119908 1.9256482.139352 2.9600926.139352 3.8000926v7.952h2.212v-9.884c1.204-1.008 2.52-1.68 3.92-1.68 1.736 0 2.184 1.148 2.184 3.5v8.064h2.212v-8.904c0-2.912-1.008-4.564-3.892-4.564-1.792 0-3.276.7-4.648 2.016zm12.58 12.068c0 .924.616 1.568 1.54 1.568.98 0 1.596-.7 1.596-1.708 0-.896-.588-1.512-1.512-1.512-.98 0-1.624.672-1.624 1.652zm-252.76 30.07296c-.588 0-1.204-.028-1.848-.112v-8.008c.84-.112 1.652-.168 2.436-.168 3.164 0 4.872 1.204 4.872 3.948 0 1.82-.812 3.108-2.156 3.724-.84.42-2.016.616-3.304.616zm-4.06-9.856v18.62h2.212v-6.916c.7.084 1.428.112 2.044.112 4.872 0 7.616-2.548 7.616-6.552 0-3.64-2.436-5.74-7.392-5.712-1.288.028-2.856.168-4.48.448zm14.736-2.352v18.704c0 1.68.812 2.576 2.296 2.576.7 0 1.484-.14 2.212-.448l-.476-1.652c-.392.14-.756.196-1.036.196-.56 0-.812-.364-.812-1.26v-18.172zm6.196 14.7c0 4.312 2.464 6.58 5.684 6.58 1.568 0 3.136-.336 4.676-1.064l-.56-1.568c-1.26.504-2.632.7-3.724.7-2.212 0-3.696-1.372-3.864-4.368h8.26c.14-.672.196-1.456.196-2.156 0-2.968-1.568-5.292-4.732-5.292-3.668 0-5.936 3.164-5.936 7.168zm5.768-5.32c1.792 0 2.688 1.288 2.688 3.052 0 .308 0 .644-.028.952h-6.16c.28-2.492 1.484-4.004 3.5-4.004zm7.82.336.812 1.372c1.372-.952 2.856-1.568 4.172-1.568 1.5716129 0 2.1992092.8915713 2.2380638 3.4613944l.0019362.4586056-.7317593.066581c-2.5951851.2575579-4.233574.6660857-5.2602407 1.333419-1.092.7-1.792 1.82-1.792 3.164 0 2.016 1.316 3.276 3.416 3.276 1.596 0 3.164-.728 4.564-1.96l.364 1.792 1.848-.28-.114025-1.7357276c-.0938022-1.5792484-.109975-2.4261924-.109975-3.1922724v-3.36c0-3.444-1.232-4.956-4.032-4.956-2.072 0-3.92.868-5.376 2.128zm3.304 9.8c-1.064 0-1.708-.616-1.708-1.764 0-.84.392-1.372.84-1.708.672-.42 1.932-.756 4.788-.98v2.632c-1.372 1.204-2.772 1.82-3.92 1.82zm9.696-8.12c.028 2.016 1.568 2.884 3.472 3.612l.791835.3139011c1.349784.5415997 2.456165 1.0816189 2.456165 2.2340989 0 1.204-1.148 1.876-2.716 1.876-1.344 0-2.52-.476-3.64-1.204l-.924 1.484c1.26.952 2.8 1.568 4.62 1.568 2.968 0 4.956-1.568 4.956-3.948 0-2.1429333-1.634204-2.9931378-3.559476-3.7343953l-.416524-.1576047c-1.512-.588-2.8-1.092-2.8-2.324 0-1.008.924-1.68 2.352-1.68 1.092 0 2.1.364 3.052.98l.952-1.428c-1.008-.812-2.352-1.4-3.976-1.4-2.52 0-4.676 1.428-4.62 3.808zm11.516 3.304c0 4.312 2.464 6.58 5.684 6.58 1.568 0 3.136-.336 4.676-1.064l-.56-1.568c-1.26.504-2.632.7-3.724.7-2.212 0-3.696-1.372-3.864-4.368h8.26c.14-.672.196-1.456.196-2.156 0-2.968-1.568-5.292-4.732-5.292-3.668 0-5.936 3.164-5.936 7.168zm5.768-5.32c1.792 0 2.688 1.288 2.688 3.052 0 .308 0 .644-.028.952h-6.16c.28-2.492 1.484-4.004 3.5-4.004zm13.316 5.376c0 4.032 2.212 6.524 5.768 6.524 1.232 0 2.688-.336 4.06-.952l-.504-1.68c-1.176.448-2.352.7-3.248.7-2.408 0-3.836-1.54-3.836-4.872 0-2.044.56-3.5 1.512-4.284.504-.392 1.148-.7 2.044-.7 1.12 0 2.044.448 3.052 1.344l1.092-1.288c-1.008-1.26-2.24-1.96-3.976-1.96-3.584 0-5.964 2.912-5.964 7.168zm11.936-.084c0 3.892 2.156 6.692 5.656 6.692 4.032 0 5.992-3.612 5.992-7.14 0-3.864-2.128-6.72-5.656-6.72-4.032 0-5.992 3.696-5.992 7.168zm9.38-.112c0 1.736-.448 3.164-1.232 4.004-.476.504-1.232.896-2.268.896-2.38 0-3.64-2.1-3.64-5.096 0-1.876.504-3.248 1.26-4.088.504-.476 1.26-.868 2.268-.868 2.38 0 3.612 2.156 3.612 5.152zm7.316-6.86-1.848.252.091234 1.2594534c.132766 1.9965658.132766 2.9618266.132766 3.8085466v7.952h2.212v-9.884c1.12-.924 2.408-1.68 3.696-1.68 1.512 0 2.016 1.064 2.016 3.64v7.924h2.184v-8.764c0-.392-.028-.756-.056-1.092 1.12-.924 2.408-1.708 3.724-1.708 1.512 0 2.016 1.064 2.016 3.64v7.924h2.212v-8.764c0-3.052-1.064-4.704-3.64-4.704-1.848 0-3.22.784-4.592 2.184-.504-1.428-1.54-2.184-3.276-2.184-1.792 0-3.164.756-4.508 2.072zm19.692 7c0 4.312 2.464 6.58 5.684 6.58 1.568 0 3.136-.336 4.676-1.064l-.56-1.568c-1.26.504-2.632.7-3.724.7-2.212 0-3.696-1.372-3.864-4.368h8.26c.14-.672.196-1.456.196-2.156 0-2.968-1.568-5.292-4.732-5.292-3.668 0-5.936 3.164-5.936 7.168zm5.768-5.32c1.792 0 2.688 1.288 2.688 3.052 0 .308 0 .644-.028.952h-6.16c.28-2.492 1.484-4.004 3.5-4.004zm14.016-9.38v20.524c1.652.504 3.024.756 4.788.756 4.396 0 6.3-3.472 6.3-7.056 0-3.78-1.82-6.72-5.096-6.72-1.512 0-2.716.7-3.78 1.848v-9.408zm4.956 19.404c-1.008 0-1.904-.112-2.744-.336v-7.924c1.036-1.036 2.184-1.736 3.416-1.736 2.044 0 3.192 1.96 3.192 5.012 0 1.82-.308 3.108-1.4 4.2-.392.392-1.288.784-2.464.784zm17.34-11.508-3.668 10.668h-.112c-.1344-.7168-.30464-1.37984-.51072-2.017792l-2.96128-8.650208h-2.24c0 .336.05376.65408.16128.982912l4.40272 12.093088h.448c-1.428 3.528-2.912 5.068-5.348 5.068v1.764c.308.056.644.084 1.176.084 2.24 0 4.06-1.68 5.768-5.936l4.732-12.824c.168-.392.252-.756.252-1.232zm11.356-3.892-.504 3.892h-1.848v1.82h1.96v7.42c0 3.136.952 4.144 3.052 4.144.98 0 2.24-.196 3.36-.616l-.42-1.652c-.812.196-1.652.308-2.128.308-1.270621 0-1.627662-.5481474-1.650775-2.5265187l-.001225-7.0774813h4.004v-1.82h-4.004v-3.892zm8.716-4.004v20.972h2.184v-10.192c1.232-.84 2.576-1.344 3.92-1.344 1.676138 0 2.177674 1.0179881 2.21027 3.2051774l.00173 8.3308226h2.212v-8.904c0-2.912-1.064-4.564-3.864-4.564-1.68 0-3.136.56-4.48 1.596v-9.156zm13.84 14.7c0 4.312 2.464 6.58 5.684 6.58 1.568 0 3.136-.336 4.676-1.064l-.56-1.568c-1.26.504-2.632.7-3.724.7-2.212 0-3.696-1.372-3.864-4.368h8.26c.14-.672.196-1.456.196-2.156 0-2.968-1.568-5.292-4.732-5.292-3.668 0-5.936 3.164-5.936 7.168zm5.768-5.32c1.792 0 2.688 1.288 2.688 3.052 0 .308 0 .644-.028.952h-6.16c.28-2.492 1.484-4.004 3.5-4.004zm14.856-4.48v2.996h-2.016v1.82h2.016v11.256h2.212v-11.256h3.22v-1.82h-3.22v-3.304c0-1.82.616-2.996 2.184-2.996.924 0 1.736.392 2.408.812l.868-1.456c-.924-.756-1.988-1.288-3.388-1.288-2.912 0-4.284 2.212-4.284 5.236zm9.808 2.8-1.848.252.114025 1.7793377c.093802 1.6271199.109975 2.5225823.109975 3.2886623v7.952h2.212v-8.764c.896-1.596 2.072-2.296 3.332-2.296.56 0 1.008.056 1.512.196l.448-2.016c-.448-.28-1.064-.504-1.82-.504-1.484 0-2.688.924-3.612 2.576zm6.98 6.972c0 3.892 2.156 6.692 5.656 6.692 4.032 0 5.992-3.612 5.992-7.14 0-3.864-2.128-6.72-5.656-6.72-4.032 0-5.992 3.696-5.992 7.168zm9.38-.112c0 1.736-.448 3.164-1.232 4.004-.476.504-1.232.896-2.268.896-2.38 0-3.64-2.1-3.64-5.096 0-1.876.504-3.248 1.26-4.088.504-.476 1.26-.868 2.268-.868 2.38 0 3.612 2.156 3.612 5.152zm7.316-6.86-1.848.252.084648 1.2679074c.119908 1.9256482.139352 2.9600926.139352 3.8000926v7.952h2.212v-9.884c1.204-1.008 2.52-1.68 3.92-1.68 1.736 0 2.184 1.148 2.184 3.5v8.064h2.212v-8.904c0-2.912-1.008-4.564-3.892-4.564-1.792 0-3.276.7-4.648 2.016zm14.008-3.696-.504 3.892h-1.848v1.82h1.96v7.42c0 3.136.952 4.144 3.052 4.144.98 0 2.24-.196 3.36-.616l-.42-1.652c-.812.196-1.652.308-2.128.308-1.270621 0-1.627662-.5481474-1.650775-2.5265187l-.001225-7.0774813h4.004v-1.82h-4.004v-3.892zm19.084 15.456c-2.044 0-3.108-2.128-3.108-5.04 0-1.652.364-3.22 1.316-4.172.56-.56 1.316-.84 2.436-.84 1.008 0 1.932.224 2.884.756v7.448c-1.148 1.092-2.296 1.848-3.528 1.848zm-5.375087-4.8209938-.000913.2289938c0 3.696 2.1 6.496 5.012 6.496 1.624 0 2.94-.84 4.116-2.072l.364 1.792 1.848-.252-.105446-1.486518c-.084504-1.3059797-.110497-2.1091818-.116814-2.7591169l-.00174-16.6423651-2.212.056v8.428c-.896-.588-1.792-.924-2.94-.924-3.946213 0-5.907658 3.6208601-5.963087 7.1350062zm14.567087.0609938c0 4.312 2.464 6.58 5.684 6.58 1.568 0 3.136-.336 4.676-1.064l-.56-1.568c-1.26.504-2.632.7-3.724.7-2.212 0-3.696-1.372-3.864-4.368h8.26c.14-.672.196-1.456.196-2.156 0-2.968-1.568-5.292-4.732-5.292-3.668 0-5.936 3.164-5.936 7.168zm5.768-5.32c1.792 0 2.688 1.288 2.688 3.052 0 .308 0 .644-.028.952h-6.16c.28-2.492 1.484-4.004 3.5-4.004zm7.82 2.016c.028 2.016 1.568 2.884 3.472 3.612l.791835.3139011c1.349784.5415997 2.456165 1.0816189 2.456165 2.2340989 0 1.204-1.148 1.876-2.716 1.876-1.344 0-2.52-.476-3.64-1.204l-.924 1.484c1.26.952 2.8 1.568 4.62 1.568 2.968 0 4.956-1.568 4.956-3.948 0-2.1429333-1.634204-2.9931378-3.559476-3.7343953l-.416524-.1576047c-1.512-.588-2.8-1.092-2.8-2.324 0-1.008.924-1.68 2.352-1.68 1.092 0 2.1.364 3.052.98l.952-1.428c-1.008-.812-2.352-1.4-3.976-1.4-2.52 0-4.676 1.428-4.62 3.808zm20.588-3.5-6.104 6.832v-14.784l-2.212.056v20.972h2.212v-3.5l2.044-2.184 4.284 5.684h2.408c-.112-.364-.364-.812-.672-1.204l-4.62-5.992 4.256-4.816c.364-.364.588-.728.644-1.064zm4.796 11.872c0-.98.644-1.652 1.624-1.652.924 0 1.512.616 1.512 1.512 0 1.008-.616 1.708-1.596 1.708-.924 0-1.54-.644-1.54-1.568z" fill="#014242"/></g></g></svg>