<svg xmlns="http://www.w3.org/2000/svg" x="0px" y="0px"
	 width="512.003px" height="145.364px" viewBox="41.967 349.042 512.003 145.364" xml:space="preserve">
<g>
	<path fill="#ffffff" d="M228.673,384.259c-11.664,0-18.33,7.733-21.188,12.14c-0.833-7.381-5.235-12.14-15.355-12.14
		c-16.424,0-22.852,15.233-22.852,15.233l-1.784-14.044h-17.261l-11.069,63.083h23.806l5.354-30.59c0,0,6.191-15.71,12.5-15.71
		c2.144,0,2.738,1.427,2.382,3.809l-7.5,42.491h23.805l5.356-30.59c0,0,6.188-15.71,12.499-15.71c2.737,0,2.616,2.38,2.022,5.951
		l-7.143,40.349h23.807l7.498-42.73C245.693,393.423,242.599,384.259,228.673,384.259z"/>
	<polygon fill="#ffffff" points="249.856,448.531 273.661,448.531 284.733,385.448 260.926,385.448 	"/>
	<path fill="#ffffff" d="M275.329,378.9c7.022,0,12.259-5.713,12.259-12.496c0-6.784-5.236-12.5-12.259-12.5
		c-7.024,0-12.261,5.716-12.261,12.5C263.068,373.188,268.305,378.9,275.329,378.9z"/>
	<path fill="#ffffff" d="M341.983,384.259c-16.782,0-24.4,15.233-24.4,15.233l-1.786-14.044h-17.258l-11.07,63.083h23.807
		l5.357-30.59c0,0,7.26-15.71,14.043-15.71c2.738,0,2.618,2.38,2.022,5.951l-7.142,40.349h23.807l7.5-42.73
		C359.003,393.304,355.909,384.259,341.983,384.259z"/>
	<path fill="#ffffff" d="M413.992,362.832l-4.523,25.472c0,0-4.641-4.045-13.568-4.045c-21.781,0-31.779,20.83-31.779,42.729
		c0,17.736,9.76,22.735,20.353,22.735c12.142,0,18.21-9.522,18.21-9.522l1.429,8.331h18.568l15.116-85.699h-23.806L413.992,362.832
		L413.992,362.832z M404.113,419.133c0,0-4.762,14.878-12.141,14.878c-3.094,0-4.166-2.857-4.166-8.451
		c0-8.926,3.334-25.353,12.022-25.353c4.524,0,7.26,1.547,7.26,1.547L404.113,419.133z"/>
	<path fill="#ffffff" d="M472.554,384.259c-22.616,0-34.875,16.188-34.875,39.277c0,20.829,13.808,26.186,27.854,26.186
		c13.329,0,25.113-4.165,25.113-4.165l1.785-17.38c0,0-13.806,4.523-23.21,4.523c-3.928,0-7.616-0.475-8.093-6.309
		c21.066-0.357,37.612-2.977,37.612-22.497C498.74,389.972,486.48,384.259,472.554,384.259z M461.365,413.54
		c1.191-9.405,4.047-15.476,9.88-15.476c3.213,0,4.88,1.904,4.88,6.309C476.125,411.276,470.531,413.3,461.365,413.54z"/>
	<path fill="#ffffff" d="M545.517,384.259c-11.546,0-14.401,11.543-14.401,11.543l-2.74-10.353h-16.067l-11.071,63.083h23.809
		l5.832-33.087c0,0,3.213-12.023,11.427-12.023c4.522,0,8.569,1.668,8.569,1.668l3.095-18.927
		C553.968,386.162,550.04,384.259,545.517,384.259z"/>
	<path fill="#ffffff" d="M80.664,423.303c3.021,17.069,24.779,28.326,24.779,28.326l27.32-8.479
		c-6.764-3.623-12.024-6.794-16.227-9.861c7.905-13.393,11.189-31.06,11.189-48.919c0-30.197-19.06-35.328-35.037-35.328
		c-16.418,0-25.652,4.984-31.664,10.993c-9.381,9.528-19.057,29.466-19.057,59.663c0,30.491,18.911,34.889,33.57,34.889
		c4.444,0,9.104-0.373,13.634-1.298c-3.233-2.055-9.313-6.565-13.502-13.569c-1.236-2.066-2.156-3.714-3.205-6.273
		c-0.542-1.32-1.21-3.378-1.542-5.475c-0.244-1.547-0.367-3.363-0.367-5.488c0-12.607,5.129-37.965,9.527-46.469
		c2.053-4.105,4.983-8.356,10.407-8.356c5.426,0,9.091,1.761,9.091,10.702c0,8.533-3.017,27.695-6.646,40.536L80.664,423.303z"/>
	<path fill="#ffffff" d="M117.258,455.159l-26.087,9.821c6.331,20.211,27.436,29.426,27.436,29.426l32.991-12.249
		C133.932,474.071,125.004,467.375,117.258,455.159z"/>
</g>
</svg>
