<svg viewBox="0 0 600 420" xmlns="http://www.w3.org/2000/svg"><g fill="none" fill-rule="evenodd"><g fill-rule="nonzero"><path d="m173.995 276.533-16.265 23.949-8.394-7.843 12.249 20.984c-3.625 4.717-26.31 2.738-44.28 18.343l-31.31-10.84c17.195-16.566 42.468-47.436 42.714-47.759l.038.032-.03-.032c15.098-18.173 31.655-13.601 38.466-10.548 2.028.904 3.187 1.688 3.187 1.688zm80 0 16.275 23.949 8.4-7.843-9.96 17.915c3.627 4.716 24.021 5.807 42.003 21.412l31.282-11.518c-17.205-16.566-42.448-46.758-42.693-47.08l-.039.031.03-.032c-15.106-18.173-31.674-13.601-38.49-10.548-2.028.904-3.189 1.688-3.189 1.688z" fill="#ffcdb8"/><path d="m102.59 332.712 29.982-27.515 8.468 26.757zm209.497-7.976-30.265-27.877-8.636 26.949z" fill="#014242"/><path d="m99.327 347.966h229.336c9.572 0 17.332-7.165 17.332-16 0-8.836-7.76-16-17.332-16h-229.336c-9.571 0-17.332 7.164-17.332 16 0 8.835 7.76 16 17.332 16z" fill="#ffcdb8"/></g><path d="m239.509 183.527c1.832 0 4.238-.472 7.218-1.418 1.865 8.324 7.809 20.085 26.051 25.482 29.834 8.828 28.113 35.596 14.343 54.676s9.53 34.741 9.53 34.741-43.645 12.655-45.675-47.84c-.97-28.912-7.632-46.059-14.325-56.083.614-2.938 1.566-6.124 2.858-9.558z" fill="#d6274d"/><g transform="translate(160.13 90.613)"><g fill-rule="nonzero"><g><path d="m14.9 67.206s-2.983-3.629-7.523-1.17c-4.54 2.468-6.612 14.395-3.629 19.46 2.984 5.054 9.992 11.804 15.693 9.724 5.71-2.072 2.467-14.83 2.467-14.83l-7.007-13.184zm78.866 0s2.983-3.629 7.523-1.17c4.54 2.468 6.613 14.395 3.63 19.46-2.984 5.055-9.992 11.805-15.693 9.724-5.71-2.072-2.468-14.83-2.468-14.83z" fill="#ffcdb8"/><g fill="#eea0a0"><path d="m99.96 77.836c.164.215.428.63.695 1.19.714 1.5.942 3.022.424 4.404-.394 1.052-1.218 2.005-2.564 2.836a.8.8 0 0 0 .84 1.362c1.638-1.01 2.698-2.239 3.222-3.637.696-1.856.406-3.8-.478-5.654a8.714 8.714 0 0 0 -.866-1.471.8.8 0 1 0 -1.273.97z"/><g><path d="m12.357 81.384-.14-.4-.231-.57a13.414 13.414 0 0 0 -1.12-2.092c-1.68-2.54-3.917-3.822-6.664-2.96a.8.8 0 0 0 .48 1.526c1.93-.606 3.518.304 4.85 2.317.66 1 1.095 2.01 1.3 2.66a.8.8 0 0 0 1.525-.48z"/><path d="m8.4 76.929a9.05 9.05 0 0 0 -.737 1.46c-.749 1.829-.993 3.735-.408 5.555.446 1.386 1.355 2.613 2.768 3.628a.8.8 0 0 0 .933-1.3c-1.138-.817-1.838-1.762-2.178-2.818-.45-1.403-.253-2.948.365-4.459.23-.56.456-.975.597-1.19a.8.8 0 1 0 -1.34-.876z"/></g></g></g><path d="m31.89 170.821c-.155-.723-9.015-9.667-3.368-14.757 12-8 16.484 15.019 25.993 11.08 9.508-3.948 19.748-11.992 24.447-9.857 4.7 2.135 3.807 8.54-1.806 13.473z" fill="#014242"/><path d="m34.402 123.065s1.21 33.78-3.637 47.167c0 0 9.507 9.588 23.045 10.644 12.88 1 24.955-10.709 24.955-10.709s-6.405-13.16-3.949-47.077z" fill="#ffcdb8"/><path d="m21.827 96.39c0-23.676 14.669-42.869 32.764-42.869 18.096 0 32.764 19.193 32.764 42.869s-14.668 55.803-32.764 55.803c-18.095-.008-32.764-32.135-32.764-55.803z" fill="#eea0a0"/><path d="m102.032 61.739c0 3.21-.149 6.491-.454 9.806-3.144 35.022-17.056 71.842-45.546 73.979s-41.605-37.353-45.328-71.786a110.4 110.4 0 0 1 -.672-12.007c0-37.11 20.591-50.586 46-50.586s46 13.491 46 50.594z" fill="#ffcdb8"/><path d="m62.087 84.897c0 7.9 6.403 14.303 14.303 14.303 7.899 0 14.303-6.404 14.303-14.303 0-7.9-6.404-14.303-14.303-14.303-7.9 0-14.303 6.404-14.303 14.303zm-1.886 0c0-8.94 7.248-16.188 16.189-16.188 8.94 0 16.188 7.248 16.188 16.188s-7.248 16.188-16.188 16.188-16.189-7.247-16.189-16.188zm-37.794-1.321c0 7.899 6.403 14.302 14.303 14.302s14.303-6.403 14.303-14.302c0-7.9-6.404-14.304-14.303-14.304-7.9 0-14.303 6.404-14.303 14.304zm-1.885 0c0-8.941 7.247-16.189 16.188-16.189 8.94 0 16.188 7.248 16.188 16.189 0 8.94-7.248 16.187-16.188 16.187s-16.188-7.247-16.188-16.187z" fill="#014242"/><path d="m61.808 78.584v1.322h-9.286v-1.322z" fill="#014242"/></g><path d="m65.855 32.064c.331-.126-.283 7.704-1.843 23.489.429 3.01-1.966 5.822-5.653 6.638-3.71.822-7.614-.618-9.213-3.39-3.75-6.493-13.008-18.14-13.008-26.448 0 0-4.066 11.576-4.395 21.391-.156 4.654-1.89 8.313-7.764 8.01-2.384-.123-4.632-.899-6.38-2.188-7.902-5.827-31.988-27.633-3.632-44.989 50.535-30.932 98.295-.102 98.554 29.487.203 23.099-17.205 35.323-17.205 35.323s-6.128-3.323-29.46-47.323z" fill="#d6274d"/><path d="m16.522 39.387c60.943-7.096 84.943-16.429 72-28-34.603-30.932-87.822 8.165-88 37.755-.137 23.098 14.976 26.245 14.976 26.245s-.367-16.918 1.025-36z" fill="#d6274d"/><path d="m52.948 89.03c-.527 4.734-.498 8.281-.275 10.827.356 4.064 4.538 5.556 6.387 2.192 1.31-2.384 1.227-6.573-3.39-13.924-.832-1.326-2.535-.768-2.722.905" fill="#eea0a0"/><path d="m44.73 113.433a1.333 1.333 0 0 1 .402-1.837 1.32 1.32 0 0 1 1.828.405c.075.119.25.361.522.686.464.556 1.02 1.115 1.663 1.636 1.818 1.472 3.945 2.346 6.385 2.346 3.22 0 6.818-1.525 10.808-4.962a1.319 1.319 0 0 1 1.865.145 1.334 1.334 0 0 1 -.143 1.874c-8.156 7.025-15.194 7.025-20.575 2.667a14.722 14.722 0 0 1 -2.03-1.996 9.886 9.886 0 0 1 -.725-.964z" fill="#014242" fill-rule="nonzero"/><circle cx="36.891" cy="89.463" fill="#014242" fill-rule="nonzero" r="3.242"/><circle cx="72.59" cy="89.463" fill="#014242" fill-rule="nonzero" r="3.242"/></g><path d="m188.651 246c-29.333 2.667-46.666 6.667-52 12-5.333 5.333-12 13.333-20 24l24 28 40-12zm100 12c5.334 5.333 12 13.333 20 24l-24 28-40-12-5.736-37.286-2.264-14.037c29.334 2.215 46.667 5.99 52 11.323z" fill="#014242"/><path d="m258.678 200.703c3.603 2.74 8.21 5.146 14.1 6.888 29.834 8.828 28.113 35.596 14.343 54.676s9.53 34.741 9.53 34.741-43.645 12.655-45.675-47.84c-.397-11.853-1.752-21.728-3.673-29.946" fill="#d6274d"/><g stroke="#014242" transform="translate(55 271.594)"><path d="m233.235 104.013h-152.6c-2.04 0-3.7-1.639-3.7-3.654v-96.692c0-2.015 1.66-3.654 3.7-3.654h152.6c2.04 0 3.7 1.639 3.7 3.654v96.692c0 2.024-1.66 3.654-3.7 3.654z" fill="#fff" fill-rule="nonzero"/><path d="m77.651 75.083-76.151-.177m488 0-251.849.177"/><circle cx="157.997" cy="51.429" fill="#fff" fill-rule="nonzero" r="12.346"/></g><path d="m330.594 80.074 208.96 1.343c6.333.04 11.446 5.186 11.446 11.52l.001 36.554c8.7.9 14.366-.619 16.999-4.559-5.098 11.443-10.765 18.916-17 22.42v88.128c-.041 6.362-5.232 11.486-11.594 11.446l-208.96-1.343c-6.333-.04-11.446-5.186-11.446-11.52v-142.543c.041-6.362 5.232-11.486 11.594-11.446z" fill="#00d36a" fill-rule="nonzero"/><path d="m365.504 118.24.028 1.96h5.936v16.8h2.24v-16.8h6.944v16.8h2.212v-10.192c1.204-.84 2.576-1.344 3.92-1.344 1.708 0 2.184 1.092 2.184 3.444v8.092h2.212v-8.904c0-2.912-1.064-4.564-3.864-4.564-1.652 0-3.108.56-4.452 1.596v-9.156l-2.212.056v2.212zm29.24 7.504.812 1.372c1.372-.952 2.856-1.568 4.172-1.568 1.572 0 2.2.892 2.238 3.461l.002.459c-3.024.252-4.872.672-5.992 1.4-1.092.7-1.792 1.82-1.792 3.164 0 2.016 1.316 3.276 3.416 3.276 1.596 0 3.164-.728 4.564-1.96l.364 1.792 1.848-.28-.114-1.736a49.84 49.84 0 0 1 -.11-3.192v-3.36c0-3.444-1.232-4.956-4.032-4.956-2.072 0-3.92.868-5.376 2.128zm3.304 9.8c-1.064 0-1.708-.616-1.708-1.764 0-.84.392-1.372.84-1.708.672-.42 1.932-.756 4.788-.98v2.632c-1.372 1.204-2.772 1.82-3.92 1.82zm11.852-11.816-1.848.252.085 1.268c.12 1.926.139 2.96.139 3.8v7.952h2.212v-9.884c1.204-1.008 2.52-1.68 3.92-1.68 1.736 0 2.184 1.148 2.184 3.5v8.064h2.212v-8.904c0-2.912-1.008-4.564-3.892-4.564-1.792 0-3.276.7-4.648 2.016zm21.288.196-6.104 6.832v-14.784l-2.212.056v20.972h2.212v-3.5l2.044-2.184 4.284 5.684h2.408c-.112-.364-.364-.812-.672-1.204l-4.62-5.992 4.256-4.816c.364-.364.588-.728.644-1.064zm18.804 0-3.668 10.668h-.112a16.265 16.265 0 0 0 -.51-2.018l-2.962-8.65h-2.24c0 .336.054.654.161.983l4.403 12.093h.448c-1.428 3.528-2.912 5.068-5.348 5.068v1.764c.308.056.644.084 1.176.084 2.24 0 4.06-1.68 5.768-5.936l4.732-12.824c.168-.392.252-.756.252-1.232zm3.732 6.776c0 3.892 2.156 6.692 5.656 6.692 4.032 0 5.992-3.612 5.992-7.14 0-3.864-2.128-6.72-5.656-6.72-4.032 0-5.992 3.696-5.992 7.168zm9.38-.112c0 1.736-.448 3.164-1.232 4.004-.476.504-1.232.896-2.268.896-2.38 0-3.64-2.1-3.64-5.096 0-1.876.504-3.248 1.26-4.088.504-.476 1.26-.868 2.268-.868 2.38 0 3.612 2.156 3.612 5.152zm5.552-6.636v8.876c0 2.884 1.176 4.564 3.892 4.564 1.708 0 3.136-.756 4.424-2.044l.392 1.764 1.82-.252-.121-1.944c-.079-1.37-.1-2.076-.102-2.839l-.001-8.153h-2.212v9.772c-1.232 1.092-2.436 1.792-3.668 1.792-1.568 0-2.24-1.036-2.24-3.444v-8.148zm14.428 9.212c.084.644.14 1.344.14 1.96 0 1.904-.588 3.696-2.044 5.152l.924.784c2.156-1.428 3.276-3.668 3.276-6.048 0-.644-.084-1.372-.224-1.988zm-107.64 26.76-3.668 10.668h-.112a16.265 16.265 0 0 0 -.51-2.018l-2.962-8.65h-2.24c0 .336.054.654.161.983l4.403 12.093h.448c-1.428 3.528-2.912 5.068-5.348 5.068v1.764c.308.056.644.084 1.176.084 2.24 0 4.06-1.68 5.768-5.936l4.732-12.824c.168-.392.252-.756.252-1.232zm3.732 6.776c0 3.892 2.156 6.692 5.656 6.692 4.032 0 5.992-3.612 5.992-7.14 0-3.864-2.128-6.72-5.656-6.72-4.032 0-5.992 3.696-5.992 7.168zm9.38-.112c0 1.736-.448 3.164-1.232 4.004-.476.504-1.232.896-2.268.896-2.38 0-3.64-2.1-3.64-5.096 0-1.876.504-3.248 1.26-4.088.504-.476 1.26-.868 2.268-.868 2.38 0 3.612 2.156 3.612 5.152zm5.552-6.636v8.876c0 2.884 1.176 4.564 3.892 4.564 1.708 0 3.136-.756 4.424-2.044l.392 1.764 1.82-.252-.121-1.944c-.079-1.37-.1-2.076-.102-2.839l-.001-8.153h-2.212v9.772c-1.232 1.092-2.436 1.792-3.668 1.792-1.568 0-2.24-1.036-2.24-3.444v-8.148zm19.756 1.792.812 1.372c1.372-.952 2.856-1.568 4.172-1.568 1.572 0 2.2.892 2.238 3.461l.002.459c-3.024.252-4.872.672-5.992 1.4-1.092.7-1.792 1.82-1.792 3.164 0 2.016 1.316 3.276 3.416 3.276 1.596 0 3.164-.728 4.564-1.96l.364 1.792 1.848-.28-.114-1.736a49.84 49.84 0 0 1 -.11-3.192v-3.36c0-3.444-1.232-4.956-4.032-4.956-2.072 0-3.92.868-5.376 2.128zm3.304 9.8c-1.064 0-1.708-.616-1.708-1.764 0-.84.392-1.372.84-1.708.672-.42 1.932-.756 4.788-.98v2.632c-1.372 1.204-2.772 1.82-3.92 1.82zm11.852-11.816-1.848.252.114 1.78a53.41 53.41 0 0 1 .11 3.288v7.952h2.212v-8.764c.896-1.596 2.072-2.296 3.332-2.296.56 0 1.008.056 1.512.196l.448-2.016a3.418 3.418 0 0 0 -1.82-.504c-1.484 0-2.688.924-3.612 2.576zm6.98 7c0 4.312 2.464 6.58 5.684 6.58 1.568 0 3.136-.336 4.676-1.064l-.56-1.568c-1.26.504-2.632.7-3.724.7-2.212 0-3.696-1.372-3.864-4.368h8.26c.14-.672.196-1.456.196-2.156 0-2.968-1.568-5.292-4.732-5.292-3.668 0-5.936 3.164-5.936 7.168zm5.768-5.32c1.792 0 2.688 1.288 2.688 3.052 0 .308 0 .644-.028.952h-6.16c.28-2.492 1.484-4.004 3.5-4.004zm15.724-1.68-1.848.252.085 1.268c.12 1.926.139 2.96.139 3.8v7.952h2.212v-9.884c1.204-1.008 2.52-1.68 3.92-1.68 1.736 0 2.184 1.148 2.184 3.5v8.064h2.212v-8.904c0-2.912-1.008-4.564-3.892-4.564-1.792 0-3.276.7-4.648 2.016zm12.216 6.972c0 3.892 2.156 6.692 5.656 6.692 4.032 0 5.992-3.612 5.992-7.14 0-3.864-2.128-6.72-5.656-6.72-4.032 0-5.992 3.696-5.992 7.168zm9.38-.112c0 1.736-.448 3.164-1.232 4.004-.476.504-1.232.896-2.268.896-2.38 0-3.64-2.1-3.64-5.096 0-1.876.504-3.248 1.26-4.088.504-.476 1.26-.868 2.268-.868 2.38 0 3.612 2.156 3.612 5.152zm12.524-6.636-3.052 10.64h-.112l-.532-1.96-2.632-8.708h-2.212c0 .42.112.812.224 1.232l3.948 11.872 2.408-.056 2.912-9.912h.056l.448 1.764 2.464 8.204 2.436-.056 3.948-11.816c.14-.392.252-.84.252-1.232h-2.128l-3.164 10.668h-.112l-.476-1.96-2.492-8.736zm-124.876 39.472c.026 1.872 1.356 2.754 3.07 3.453l1.194.473c1.35.542 2.456 1.082 2.456 2.234 0 1.204-1.148 1.876-2.716 1.876-1.344 0-2.52-.476-3.64-1.204l-.924 1.484c1.26.952 2.8 1.568 4.62 1.568 2.968 0 4.956-1.568 4.956-3.948 0-2.296-1.876-3.108-3.976-3.892l-.578-.228c-1.248-.504-2.222-1.025-2.222-2.096 0-1.008.924-1.68 2.352-1.68 1.092 0 2.1.364 3.052.98l.952-1.428a6.267 6.267 0 0 0 -3.976-1.4c-2.52 0-4.676 1.428-4.62 3.808zm12.272-3.472v13.048h2.184v-13.104zm-.392-4.004c0 .84.588 1.372 1.456 1.372.952 0 1.568-.616 1.568-1.54 0-.868-.56-1.428-1.428-1.428-.952 0-1.596.644-1.596 1.596zm7.26 14.98c0 .56.168 1.008.42 1.344-1.456 1.008-2.38 2.24-2.38 3.864-.028 2.52 2.296 3.976 5.46 3.976 3.724 0 6.552-1.848 6.552-4.928 0-2.504-1.906-3.58-4.97-3.689l-.669-.016c-1.492-.044-2.369-.225-2.369-1.307 0-.476.196-.896.504-1.26.336.056.728.084 1.12.084 3.388 0 5.264-2.156 5.264-4.788 0-1.148-.392-2.212-1.092-2.996.756-.28 1.652-.504 2.492-.588l-.084-1.904c-1.456.084-2.632.7-3.528 1.568-.756-.42-1.68-.672-2.772-.672-3.528 0-5.208 2.436-5.208 4.9 0 1.708.84 3.22 2.436 3.976-.784.784-1.176 1.512-1.176 2.436zm3.836 7.364c-2.24 0-3.752-.784-3.752-2.408 0-1.148.616-2.044 1.652-2.8.661.22 1.409.27 2.054.278l.27.002c2.296.028 3.948.308 3.948 2.1 0 .784-.336 1.428-.924 1.932-.756.644-1.96.896-3.248.896zm2.968-13.916c0 1.904-1.204 2.912-2.968 2.912-2.044 0-2.996-1.176-2.996-3.024 0-1.82 1.176-2.912 2.968-2.912 2.016 0 2.996 1.176 2.996 3.024zm7.904-4.648-1.848.252.085 1.268c.12 1.926.139 2.96.139 3.8v7.952h2.212v-9.884c1.204-1.008 2.52-1.68 3.92-1.68 1.736 0 2.184 1.148 2.184 3.5v8.064h2.212v-8.904c0-2.912-1.008-4.564-3.892-4.564-1.792 0-3.276.7-4.648 2.016zm12.216 7c0 4.312 2.464 6.58 5.684 6.58 1.568 0 3.136-.336 4.676-1.064l-.56-1.568c-1.26.504-2.632.7-3.724.7-2.212 0-3.696-1.372-3.864-4.368h8.26c.14-.672.196-1.456.196-2.156 0-2.968-1.568-5.292-4.732-5.292-3.668 0-5.936 3.164-5.936 7.168zm5.768-5.32c1.792 0 2.688 1.288 2.688 3.052 0 .308 0 .644-.028.952h-6.16c.28-2.492 1.484-4.004 3.5-4.004zm12.944 10.08c-2.044 0-3.108-2.128-3.108-5.04 0-1.652.364-3.22 1.316-4.172.56-.56 1.316-.84 2.436-.84a5.7 5.7 0 0 1 2.884.756v7.448c-1.148 1.092-2.296 1.848-3.528 1.848zm-5.376-4.592c0 3.696 2.1 6.496 5.012 6.496 1.624 0 2.94-.84 4.116-2.072l.364 1.792 1.848-.252-.105-1.487a48.867 48.867 0 0 1 -.117-2.759l-.002-16.642-2.212.056v8.428c-.896-.588-1.792-.924-2.94-.924-4.032 0-5.992 3.78-5.964 7.364zm15.1-1.512v1.792h5.908v-1.792zm9.864-5.432v13.048h2.184v-13.104zm-.392-4.004c0 .84.588 1.372 1.456 1.372.952 0 1.568-.616 1.568-1.54 0-.868-.56-1.428-1.428-1.428-.952 0-1.596.644-1.596 1.596zm8.408 3.78-1.848.252.085 1.268c.12 1.926.139 2.96.139 3.8v7.952h2.212v-9.884c1.204-1.008 2.52-1.68 3.92-1.68 1.736 0 2.184 1.148 2.184 3.5v8.064h2.212v-8.904c0-2.912-1.008-4.564-3.892-4.564-1.792 0-3.276.7-4.648 2.016zm13.364-5.488.196 13.888h1.876l.196-13.888zm-.392 17.556c0-.924.644-1.596 1.568-1.596.896 0 1.484.588 1.484 1.456 0 1.008-.616 1.652-1.568 1.652-.868 0-1.484-.588-1.484-1.512z" fill="#014242" fill-rule="nonzero"/></g></svg>