<svg viewBox="0 0 600 420" xmlns="http://www.w3.org/2000/svg"><g fill="none" fill-rule="evenodd"><path d="m99.127 155.978.987-.56c0 .18-.045.38-.09.538l-1.121 4.306-.045.18c-.494 1.726-1.077 2.69-1.884 3.184a2.81 2.81 0 0 1 -.471.224v-.875c.695-.403 1.211-1.076 1.547-2.198l-.314.18-1.12-3.05a2.262 2.262 0 0 1 -.09-.449l1.031-.605.56 1.839c.068.269.135.538.18.874l.045-.022zm50.683 11.079c1.614-.942 2.332-.337 2.354 1.57l.023 5.92-2.064 1.189-.022-5.203c0-1.234-.224-1.637-.942-1.234-.538.314-1.099.897-1.615 1.66l.023 6.257-2.063 1.188-.023-5.046c0-.695-.045-1.525-.157-3.363l1.66-1.211.314.964c.74-1.234 1.502-2.108 2.511-2.691zm-6.953.224c.673-.381 1.1-.135 1.122.606 0 .784-.471 1.614-1.211 2.04-.696.404-1.122.157-1.122-.56 0-.808.471-1.637 1.211-2.086zm-1.098 13.299-.023-8.59 2.086-1.233.022 8.634zm-3.835-6.66c1.502-.876 2.242-.248 2.242 1.793l.023 5.764-2.063 1.188-.023-5.158c0-1.323-.224-1.682-.852-1.323-.516.292-1.054.92-1.547 1.615.022.134.022.291.022.448l.022 5.764-2.063 1.188-.022-5.158c0-1.323-.225-1.682-.852-1.323-.494.292-1.054.897-1.525 1.592l.022 6.257-2.063 1.189-.023-4.889c0-.65-.022-1.413-.112-3.05l-.022-.47 1.66-1.212.336.987c.673-1.234 1.435-2.108 2.444-2.714.987-.56 1.637-.493 1.974.18.65-1.189 1.413-2.086 2.422-2.669zm-15.16-11.169c1.906-1.099 3.027-.202 3.027 1.794 0 2.332-1.368 4.889-3.655 6.19-2.624 1.502-3.656-.36-3.656-3.23 0-3.924 1.84-8.185 5.136-10.091.47-.27.875-.427 1.166-.516l-.18 2.04a3.22 3.22 0 0 0 -.74.36c-1.86 1.076-2.87 2.982-3.161 5.225a8.23 8.23 0 0 1 2.063-1.772zm.493 4.889c.314-.56.449-1.166.449-1.794 0-1.211-.516-1.615-1.48-1.054-.539.314-1.1.874-1.615 1.502.067 1.884.47 3.073 1.615 2.4.38-.202.762-.56 1.031-1.054m.067 17.156c1.122-.18 1.772.493 1.772 1.839 0 2.265-1.547 4.687-3.925 6.077-1.009.583-1.995.897-2.713.875l.516-1.974c.56-.09 1.323-.381 1.928-.74.65-.381 1.1-.807 1.413-1.233.426-.561.628-1.144.628-1.727 0-1.099-.762-1.3-1.973-.606l-.853.494-.044-1.772.83-.47c1.076-.629 1.749-1.66 1.749-2.737 0-.942-.606-1.076-1.525-.56-.718.403-1.346 1.12-1.75 1.614l-.067.09-.74-.987c.83-1.256 1.839-2.31 3.028-2.982 1.883-1.1 3.162-.696 3.184 1.12-.045 1.234-.583 2.535-1.458 3.679zm-7.176-12.783 1.503-.875.089 1.884-5.83 3.364v-1.929l2.175-1.256-.023-7.849-1.906 1.57-.403-1.413 2.713-2.623 1.66-.92zm.067 21.394 1.503-.874.09 1.883-5.831 3.364v-1.928l2.153-1.256-.023-7.849-1.883 1.547-.427-1.39 2.736-2.647 1.638-.919zm-20.093-33.235c0 .247 0 .538.045 1.032l.044.605-.807.606-.157-.471c-.359.583-.74 1.031-1.188 1.278-.628.359-1.01.18-1.01-.516 0-.448.202-.92.494-1.323.291-.404.807-.83 1.57-1.368 0-.673-.157-.785-.561-.56-.336.201-.718.56-1.077 1.03l-.314-.515c.404-.628.987-1.21 1.615-1.57.897-.515 1.323-.269 1.323.83zm-1.01 1.211v-.673c-.583.381-.83.606-.964.785-.112.135-.157.292-.157.493 0 .27.112.36.36.225.223-.112.492-.404.762-.83m-2.624.919c0 .27 0 .561.045 1.077l.022.538-.807.583-.157-.448c-.314.56-.65.986-1.054 1.21-.83.472-1.458-.022-1.48-1.233 0-1.21.672-2.78 1.66-3.341.29-.18.537-.202.74-.157v-2.512l1.008-.605zm-1.01 1.167v-2.108c-.201 0-.403.067-.605.179a1.267 1.267 0 0 0 -.516.516c-.18.359-.246.785-.246 1.233 0 .83.224 1.211.672.942.202-.134.449-.404.696-.762m-5.854-1.369-.022.988-1.503.852.023 4.91-1.032.607v-4.934l-1.503.875-.022-.942zm1.324.786c1.054-.606 1.681-.023 1.681 1.188 0 1.234-.65 2.691-1.816 3.364-1.054.605-1.682.09-1.704-1.144 0-1.233.672-2.736 1.839-3.408zm.426 3.094c.157-.314.246-.717.246-1.188 0-.808-.246-1.234-.74-.965a1.386 1.386 0 0 0 -.47.494 2.959 2.959 0 0 0 -.247 1.21c0 .808.246 1.212.74.92.224-.112.38-.314.47-.47" fill="#014242" fill-rule="nonzero"/><path d="m119.938 236.757c.292-.157.516-.023.516.291l.045 18.995-7.087 4.081-.045-18.994c0-.337.225-.74.516-.897zm-7.849 11.482c.292-.157.516-.023.516.291l.045 12.065-7.087 4.082-.045-12.065c0-.337.224-.74.516-.897z" fill="#00d36a" fill-rule="nonzero"/><path d="m101.392 235.523c.224-.134.314-.022.314.224v.135l-.718.426c.023-.359.157-.65.404-.785zm.493-4.687c-.291.157-.426-.067-.426-.538 0-.292.067-.538.135-.718a.798.798 0 0 1 .269-.291c.291-.157.426.09.426.56 0 .27-.045.494-.135.696a.561.561 0 0 1 -.269.291z" fill="#013333" fill-rule="nonzero"/><path d="m94.776 240.86c.067-.044.202-.134.314-.224l.09.404c-.18.202-.426.381-.673.516-.381.224-.605.134-.605-.494v-1.166l-.314.18v-.516l.291-.157.135-.807.493-.27v.74l.628-.358v.515l-.628.36v1.008c0 .314.067.382.27.27z" fill="#c5c5c5" fill-rule="nonzero"/><g fill-rule="nonzero"><path d="m104.8 240.816c.202-.112.337-.045.337.157a.67.67 0 0 1 -.336.583c-.202.112-.314.045-.314-.18a.596.596 0 0 1 .314-.56zm.247-.471-.493.291-.045-2.399.583-.337zm1.368-8.253c.628-.359.987-.022.987.695 0 .718-.381 1.57-1.076 1.974-.606.358-.987.045-.987-.673s.381-1.592 1.076-1.996zm.224 1.816c.09-.179.135-.426.135-.695 0-.47-.135-.717-.426-.56a.561.561 0 0 0 -.27.291c-.089.18-.134.426-.134.718 0 .47.157.695.426.538a.798.798 0 0 0 .27-.292" fill="#fff"/><g fill="#013333"><path d="m106.348 232.653c.291-.157.426.09.426.56 0 .27-.045.494-.135.695a.798.798 0 0 1 -.269.292c-.291.157-.426-.067-.426-.538 0-.292.045-.538.135-.718.067-.09.134-.202.269-.291zm-2.332-4.463a.902.902 0 0 1 .291-.292.744.744 0 0 1 .359-.112v1.234c-.135.224-.292.38-.404.448-.246.157-.38-.067-.403-.56.022-.247.045-.516.157-.718z"/><path d="m100.741 219.399c6.773-3.902 12.29-.785 12.312 6.974.023 8.836-11.594 29.423-12.2 30.522-.605-.381-12.311-7.557-12.334-16.348-.022-7.782 5.45-17.246 12.222-21.148zm-3.61 11.146c-1.01.583-1.48 1.771-1.48 2.713 0 .964.493 1.39 1.413.875.336-.202.672-.471.941-.785v-1.525l-.56.314v1.144c-.112.09-.224.157-.337.224-.627.359-.852-.09-.852-.673 0-.404.09-.785.292-1.144.134-.224.291-.403.56-.56.225-.135.427-.18.65-.202l.203-.628c-.225 0-.494.067-.83.247m1.95 6.324c.18-.112.248 0 .248.403v1.458l.583-.336v-1.66c0-.583-.202-.762-.65-.516-.292.157-.516.426-.696.785-.09-.202-.291-.224-.56-.045-.292.157-.494.427-.696.763l-.09-.292-.47.337.022.336c.022.337.022.516.022.673v1.39l.584-.336v-1.794c.134-.202.291-.381.426-.449.18-.112.246 0 .246.404v1.458l.583-.337v-1.66-.134c.135-.18.292-.359.449-.448m5.763-7.244.471-.336-.022-.449c-.022-.224-.022-.359-.022-.493v-2.826l-.584.359v1.48a.518.518 0 0 0 -.426.09c-.583.336-.964 1.256-.964 1.95 0 .696.381.988.875.718.246-.134.448-.38.628-.717zm-5.337.516c-.695.404-1.076 1.278-1.076 1.996 0 .717.38 1.031.986.673.696-.404 1.077-1.234 1.077-1.974-.023-.718-.381-1.054-.987-.695m2.422-1.39c-.695.403-1.076 1.278-1.076 1.995 0 .718.38 1.032.986.673.696-.403 1.077-1.233 1.054-1.973 0-.718-.358-1.054-.964-.695m4.396 6.01c.695-.404 1.076-1.234 1.076-1.974 0-.695-.359-1.054-.987-.695-.695.404-1.076 1.278-1.076 1.996s.381 1.01.987.673m-8.522 8.611c.022-.112.045-.224.045-.314l-.584.337-.448 2.085h-.023a2.308 2.308 0 0 0 -.112-.493l-.336-1.077-.606.337c0 .112.023.18.045.269l.65 1.794.651-.381zm5.987-8.006c0 .628.225.718.606.494.224-.135.47-.337.673-.516l-.09-.404c-.135.112-.247.18-.314.224-.202.112-.247.068-.27-.269v-1.009l.629-.359v-.516l-.628.36v-.74l-.493.29-.135.808-.292.157v.516l.314-.18zm-.403 7.02c.224-.135.47-.337.673-.516l-.09-.404c-.135.112-.247.18-.314.224-.202.112-.247.068-.27-.269v-1.009l.629-.359v-.516l-.628.36v-.74l-.494.268-.134.808-.292.157v.515l.314-.179v1.166c0 .628.224.718.606.493m-1.166-6.39a3.04 3.04 0 0 0 .044-.45c0-.605-.269-.896-.83-.56-.65.381-1.03 1.21-1.03 1.973s.403.987 1.008.628c.27-.157.56-.403.83-.695l-.135-.359c-.179.18-.403.36-.583.449-.291.157-.47.09-.515-.27l1.21-.717m-2.107 8.275c.56-.314.897-.83.897-1.3 0-.427-.292-.427-.65-.36h-.068c-.202.023-.336.023-.336-.111 0-.113.09-.247.269-.36a.736.736 0 0 1 .47-.111l.202-.539c-.179-.044-.403-.022-.695.135-.493.292-.874.807-.874 1.278 0 .36.246.404.515.36l.18-.023c.18-.023.336-.023.336.112 0 .134-.134.291-.336.403a.87.87 0 0 1 -.56.135l-.203.538c.247.09.539.023.853-.157m-4.53-5.83v2.444l.583-.336v-2.467l-.584.359m3.275 6.503v-2.467l-.583.359v2.444zm3.207-1.839v-2.467l-.583.36v2.444zm3.027-5.203-.583.337.045 2.377.493-.292zm-.291 3.678a.698.698 0 0 0 .336-.583c0-.202-.135-.269-.336-.157a.66.66 0 0 0 -.337.56c0 .203.135.27.337.18m-8.904-4.485a.68.68 0 0 0 -.358.605c0 .202.134.27.314.157a.698.698 0 0 0 .336-.583c.022-.224-.09-.291-.292-.179m5.854 3.297a.698.698 0 0 0 .336-.583c0-.202-.135-.292-.314-.18a.707.707 0 0 0 -.359.606c.023.201.135.269.337.157m-3.207 1.86a.698.698 0 0 0 .336-.582c0-.202-.134-.292-.314-.18a.707.707 0 0 0 -.359.606c.023.202.135.27.337.157"/></g></g><path d="m104.217 256.424c.292-.157.516-.022.516.292l.023 8.454-7.087 4.082-.022-8.455c0-.336.224-.74.515-.897z" fill="#014242" fill-rule="nonzero"/><path d="m96.324 254.922c.291-.157.515-.023.515.291l.045 14.487-7.086 4.104-.045-14.487c0-.336.224-.74.516-.897zm-7.917-11.124c.292-.157.516-.022.516.292l.09 30.163-7.087 4.081-.09-30.163c0-.336.225-.74.516-.897zm63.107-25.879c.291-.157.516-.023.538.291l.045 19.6-7.087 4.082-.045-19.6c0-.337.225-.74.516-.897zm-23.682 20.026c.292-.157.516-.022.516.292l.045 13.276-7.087 4.081-.045-13.276c0-.336.224-.74.516-.897zm15.721-15.429c.291-.157.515-.022.515.292l.045 19.6-7.086 4.081-.045-19.6c0-.336.224-.74.516-.897zm-7.894-.875c.291-.156.515-.022.515.292l.068 25.027-7.087 4.082-.045-25.005c0-.336.225-.74.516-.897z" fill="#00d36a" fill-rule="nonzero"/><g fill-rule="nonzero"><path d="m99.463 232.249c-.291.157-.426-.067-.426-.538 0-.292.045-.538.135-.718a.658.658 0 0 1 .269-.291c.291-.157.426.09.426.56 0 .27-.045.494-.135.695a.798.798 0 0 1 -.269.292z" fill="#013333"/><path d="m99.418 232.787c-.605.359-.986.045-.986-.673 0-.717.38-1.592 1.076-1.996.628-.358.987-.022.987.696 0 .74-.381 1.592-1.077 1.973zm-.246-1.794c-.09.18-.135.426-.135.718 0 .47.157.695.426.538a.658.658 0 0 0 .27-.292c.089-.179.134-.426.134-.695 0-.47-.135-.717-.426-.56a.798.798 0 0 0 -.27.291" fill="#fff"/></g><path d="m103.634 241.668c.068-.045.202-.135.314-.224l.09.403c-.202.202-.426.404-.673.516-.38.224-.605.135-.605-.493v-1.166l-.314.179v-.516l.291-.157.135-.807.493-.27v.74l.628-.358v.516l-.628.359v1.009c.023.336.068.381.27.269zm-1.861-2.041c.18-.112.314-.045.314.18 0 .224-.135.47-.336.583-.202.112-.314.044-.314-.157 0-.225.134-.471.336-.606zm-.314 3.813v-2.467l.583-.337.023 2.467zm-1.099-.83c.359-.045.628-.068.65.359 0 .47-.336.986-.896 1.3-.314.18-.584.247-.83.18l.202-.539a.87.87 0 0 0 .56-.134c.202-.112.337-.27.337-.404s-.157-.134-.337-.112l-.18.023c-.268.044-.515 0-.515-.36 0-.47.381-1.008.875-1.278.291-.157.515-.179.695-.134l-.202.538a.705.705 0 0 0 -.47.112c-.203.112-.292.247-.27.359 0 .135.135.135.336.112zm-1.031-3.88v-1.458c0-.403-.068-.493-.247-.403-.157.09-.292.269-.449.47v1.795l-.583.336v-1.458c0-.403-.067-.493-.246-.403a1.65 1.65 0 0 0 -.426.448v1.794l-.584.337v-1.39c0-.158 0-.337-.022-.673l-.022-.337.47-.336.09.291c.202-.358.404-.605.695-.762.292-.157.471-.135.561.045.202-.36.426-.628.695-.785.426-.247.628-.067.65.516v1.66zm-.763 2.758c.18-.112.314-.044.314.18s-.134.47-.336.583c-.202.112-.314.045-.314-.157 0-.247.134-.471.336-.606zm-1.749 3.992.448-2.085.584-.337c0 .112-.023.225-.045.314l-.673 2.557-.65.381-.65-1.794a.836.836 0 0 1 -.046-.27l.606-.336.336 1.077c.023.157.045.314.09.493zm-.65-7.4.022 2.467-.606.336v-2.444z" fill="#fff" fill-rule="nonzero"/><path d="m94.53 241.556c.224-.135.47-.337.672-.516l-.09-.404c-.134.112-.246.18-.313.225-.202.112-.247.067-.27-.27v-1.009l.628-.359v-.515l-.65.336v-.74l-.493.27-.135.806-.291.157v.516l.314-.18v1.167c.022.65.246.74.627.516" fill="#fff"/><g fill-rule="nonzero"><path d="m95.875 237.833c-.202.112-.314.045-.314-.157 0-.224.135-.47.359-.605.202-.113.314-.045.314.179-.023.224-.157.47-.359.583zm1.189-3.7c-.92.538-1.413.09-1.413-.875 0-.964.47-2.153 1.48-2.713.336-.18.605-.247.852-.225l-.202.628c-.202 0-.403.068-.65.202-.27.157-.426.359-.56.56-.225.36-.292.763-.292 1.144 0 .606.202 1.054.852.673.112-.067.224-.134.336-.224v-1.144l.56-.314v1.525c-.29.292-.627.583-.963.763zm4.776-2.736c-.605.359-.986.045-.986-.673s.38-1.592 1.076-1.996c.628-.359.987-.022.987.695-.023.74-.381 1.57-1.077 1.974zm-.246-1.794c-.09.18-.135.426-.135.717 0 .471.157.696.426.539a.658.658 0 0 0 .27-.292c.089-.18.134-.426.134-.695 0-.471-.135-.718-.426-.56a.561.561 0 0 0 -.27.29" fill="#fff"/><path d="m106.662 174.883v.516a1.872 1.872 0 0 0 -.359.27c.09.089.135.224.135.403 0 .516-.36 1.121-.965 1.458-.045.022-.112.045-.157.067a.416.416 0 0 0 -.044.157c0 .18.134.134.358 0l.112-.067c.539-.292.83-.225.83.224 0 .583-.47 1.21-1.166 1.637-.538.314-.942.292-.942-.18 0-.269.157-.56.359-.874-.045-.045-.067-.112-.067-.224 0-.18.09-.382.224-.606-.27 0-.404-.202-.404-.516 0-.493.314-1.143.942-1.502.18-.112.337-.157.449-.157.224-.202.426-.426.695-.606zm-1.144 3.544a2.263 2.263 0 0 1 -.336.157c-.112.18-.157.314-.157.448 0 .224.202.202.516.023.201-.113.336-.247.426-.36.067-.111.112-.201.112-.313 0-.224-.224-.135-.538.022zm0-1.368a.743.743 0 0 0 .359-.628c0-.27-.112-.381-.359-.247a.743.743 0 0 0 -.359.628c0 .292.113.404.36.247m.268 15.227c.56-.336.83-.045.83.56 0 .135-.022.315-.045.45l-1.256.717c.045.381.225.448.516.269.18-.112.404-.27.583-.449l.135.36c-.27.29-.538.537-.83.694-.605.337-1.01.135-1.01-.628.046-.762.427-1.592 1.077-1.973zm.292.83v-.068c0-.246-.112-.358-.314-.224-.247.135-.359.426-.404.785l.718-.426zm-.269 5.158c.56-.337.83-.045.83.56 0 .135-.023.314-.045.449l-1.256.717c.045.382.224.449.516.27.179-.113.403-.27.583-.449l.134.359c-.269.291-.538.538-.83.695-.605.336-1.009.135-1.009-.628.023-.762.426-1.592 1.077-1.973zm.291.83v-.068c0-.247-.112-.359-.314-.224-.246.134-.359.426-.403.785l.717-.426v-.068m-1.637-6.234v.516a1.872 1.872 0 0 0 -.359.269c.09.09.135.224.135.404 0 .515-.359 1.12-.964 1.48-.045.022-.113.045-.157.067a.416.416 0 0 0 -.045.157c0 .18.134.135.359 0l.112-.067c.538-.292.83-.225.83.224 0 .583-.471 1.21-1.167 1.637-.538.314-.942.292-.942-.18 0-.268.157-.56.36-.874-.046-.045-.068-.112-.068-.224 0-.18.09-.381.224-.606-.269 0-.403-.202-.403-.516 0-.493.314-1.143.941-1.502.18-.112.337-.157.449-.157.202-.224.426-.449.695-.628zm-1.166 3.52c-.112.068-.224.113-.336.158-.113.18-.157.314-.157.448 0 .225.201.202.515.023.202-.112.337-.247.427-.359.067-.112.112-.202.112-.314 0-.224-.225-.135-.539.022l-.022.023m.022-1.346a.716.716 0 0 0 .36-.628c0-.269-.113-.38-.36-.246a.743.743 0 0 0 -.358.628c0 .291.112.403.358.246m.337 4.463c.426-.247.628-.067.628.516v1.637l-.583.336v-1.457c0-.404-.068-.494-.247-.404-.157.09-.314.27-.449.471v1.772l-.583.336v-1.458c0-.403-.067-.493-.246-.403a1.65 1.65 0 0 0 -.426.448v1.794l-.583.337v-1.39c0-.158 0-.337-.023-.674l-.022-.336.47-.336.09.291c.202-.359.404-.605.696-.762.291-.157.47-.135.56.045.224-.36.426-.606.718-.763zm-2.131-2.197-.09-.27c-.201.337-.425.606-.695.74-.358.202-.583.09-.583-.291 0-.27.113-.538.292-.785.18-.224.47-.494.92-.785 0-.404-.09-.471-.315-.336-.201.112-.426.314-.628.605l-.179-.291c.247-.36.56-.718.942-.92.538-.314.785-.157.785.471v.56c0 .135 0 .27.022.494l.023.449-.494.358zm-.179-.606v-.381c-.336.224-.493.358-.56.448a.45.45 0 0 0 -.09.292c0 .157.067.201.201.134.135-.067.292-.246.449-.493m-1.054 3.656c.18-.113.314-.046.314.179 0 .224-.135.47-.336.583-.202.112-.314.045-.314-.157a.622.622 0 0 1 .336-.606zm-.315 3.79v-2.445l.584-.359v2.467zm-.358-8.298a.426.426 0 0 1 .314-.068l-.09.673c-.09.023-.157.067-.246.112-.18.112-.337.27-.471.539v1.57l-.583.336v-1.436c0-.112 0-.246-.023-.448l-.022-.516.47-.336.113.381c.112-.404.291-.673.538-.807zm-.47 8.275a4.69 4.69 0 0 0 .313-.224l.09.403c-.202.202-.426.404-.673.538-.381.225-.605.135-.605-.493v-1.166l-.314.18v-.516l.291-.157.135-.808.493-.269v.74l.628-.359v.516l-.628.359v1.01c.023.313.09.358.27.246zm-1.885-4.867c.18-.112.404-.269.584-.448l.134.359c-.269.291-.538.538-.83.695-.605.336-1.009.134-1.009-.628 0-.763.381-1.592 1.032-1.974.56-.336.83-.044.83.561 0 .135-.023.314-.045.449l-1.256.717c.09.36.269.426.56.27zm-.112-1.48c-.246.135-.359.426-.403.785l.717-.426v-.134c.023-.27-.09-.36-.314-.225m-.291 5.472v.516a1.872 1.872 0 0 0 -.359.27c.09.089.135.223.135.403 0 .516-.36 1.121-.965 1.48-.045.022-.112.045-.157.067a.416.416 0 0 0 -.045.157c0 .18.135.135.36 0l.111-.067c.539-.292.83-.224.83.224 0 .583-.448 1.211-1.166 1.637-.538.314-.942.292-.942-.18 0-.268.157-.56.359-.874-.045-.045-.067-.112-.067-.224 0-.18.09-.381.224-.606-.27 0-.404-.201-.404-.515 0-.494.314-1.144.942-1.503.18-.112.336-.157.449-.157.224-.224.426-.448.695-.628zm-1.166 3.521c-.113.067-.225.112-.337.157-.112.18-.157.314-.157.449 0 .224.202.201.516.022.202-.112.336-.247.426-.359.067-.112.112-.202.112-.314 0-.224-.224-.134-.538.023zm.022-1.345a.716.716 0 0 0 .359-.628c0-.27-.112-.382-.359-.247a.743.743 0 0 0 -.359.628c0 .291.112.404.359.247m.09-7.042-.673 2.556-.65.382-.65-1.794a.836.836 0 0 1 -.046-.27l.606-.336.336 1.076c.045.157.09.314.112.494h.023l.448-2.086.583-.336c-.022.112-.044.224-.09.314zm-2.131 6.884c.471-.269.673-.09.673.471v1.682l-.583.337v-1.48c0-.36-.067-.471-.27-.36-.156.09-.313.27-.47.472v1.794l-.583.336v-1.435c0-.112 0-.247-.023-.448l-.022-.516.471-.337.09.27c.201-.382.426-.628.717-.785zm-2.107.135c.201-.112.313-.045.313.18 0 .224-.134.47-.336.583-.202.112-.314.044-.314-.157a.622.622 0 0 1 .336-.606zm-.338 3.79v-2.444l.606-.359v2.467zm.562-7.109-.225.92-.583.336c0-.09.023-.202.067-.359l.92-3.633.673-.404.897 2.647c.022.09.045.157.045.246l-.583.337-.225-.673zm.493-2.198-.359 1.57.718-.404-.18-.538-.18-.628m-1.86 9.285a4.69 4.69 0 0 0 .313-.225l.09.404c-.202.202-.426.404-.673.538-.38.225-.605.135-.605-.493v-1.166l-.314.18v-.517l.291-.157.135-.807.493-.269v.74l.628-.359v.516l-.628.359v1.009c.023.314.068.359.27.247zm-1.862-2.041c.202-.112.314-.045.314.18 0 .224-.134.47-.336.582-.202.113-.314.045-.314-.157-.023-.246.134-.493.336-.605zm-.314 3.79v-2.445l.583-.358v2.466zm-.583-.672c0 .134 0 .268.023.492l.022.449-.471.359-.09-.27c-.201.337-.426.606-.695.74-.359.203-.583.09-.583-.29 0-.27.112-.539.292-.786.179-.224.47-.493.92-.785 0-.403-.09-.47-.315-.336-.202.112-.426.314-.628.606l-.18-.292c.247-.359.561-.718.943-.92.538-.313.785-.156.785.471l-.023.561zm-.583.694v-.38c-.336.223-.493.358-.56.448a.45.45 0 0 0 -.09.291c0 .157.067.202.202.135.112-.09.291-.247.448-.494m-2.422 1.413.381-2.04.56-.315c0 .113-.021.225-.044.314l-.605 2.512-.65.404-.315-1.122-.067-.336h-.022l-.36 1.861-.65.404-.583-1.839a.836.836 0 0 1 -.045-.269l.606-.336.314 1.233.067.359.023-.023.38-2.04.606-.36.314 1.234.068.36h.022zm7.916-32.63-.852-2.422a1.198 1.198 0 0 1 -.112-.448l.606-.359.515 1.615.18.673.022-.023.718-3.095.605-.336c0 .112-.044.269-.09.448l-.044.135-.852 3.386zm.875 3.028.606-.359.313 1.234.068.358.022-.022.381-2.04.561-.315c0 .112-.022.224-.045.314l-.605 2.512-.65.404-.315-1.122-.067-.336h-.022l-.36 1.861-.65.404-.583-1.84a.836.836 0 0 1 -.044-.268l.605-.337.314 1.234.067.359.023-.023zm1.188-4.215-.022-2.446.605-.358v2.466zm.269-3.051c-.201.112-.313.045-.313-.157 0-.224.134-.471.359-.606.201-.112.314-.044.314.18s-.135.47-.36.583zm1.346 8.163c-.359.202-.583.09-.583-.292 0-.269.112-.538.292-.785.18-.224.47-.493.92-.784 0-.404-.09-.471-.315-.337-.202.112-.426.314-.628.606l-.18-.292c.248-.359.562-.717.943-.92.538-.313.785-.156.785.472v.56c0 .135 0 .27.022.494l.023.448-.471.337-.09-.27c-.224.36-.449.606-.718.763zm.068-1.01a.45.45 0 0 0 -.09.292c0 .157.067.202.202.135.134-.067.291-.247.448-.494v-.38c-.336.224-.493.358-.56.448m.112-5.607c.202-.112.336-.269.336-.426 0-.134-.157-.134-.336-.112l-.18.022c-.269.023-.516 0-.516-.38 0-.472.382-1.01.875-1.279.292-.157.516-.18.695-.135l-.202.539a.705.705 0 0 0 -.47.112c-.202.112-.292.246-.27.359 0 .134.135.134.337.112l.09-.023c.336-.045.605-.045.605.36 0 .47-.336.986-.897 1.3-.314.18-.583.246-.83.18l.202-.539c.18.067.359.022.56-.09zm1.682-3.386c-.202.112-.314.045-.314-.157 0-.224.134-.471.358-.606.202-.112.314-.044.314.18s-.134.448-.358.583zm.313.224v2.467l-.583.36-.022-2.468zm-.381 8.679v-2.444l.583-.359.022 2.467zm-.045-3.184c0-.225.135-.471.36-.606.201-.112.313-.045.313.18 0 .224-.134.47-.336.583-.202.112-.337.044-.337-.157zm1.167-4.216v-1.167l-.314.18v-.516l.291-.157.135-.807.493-.27v.74l.628-.358v.516l-.628.358v1.01c0 .336.067.38.27.269l.336-.225.09.404c-.202.202-.427.404-.673.516-.404.202-.628.134-.628-.493zm1.412 4.014-.627.359v1.009c0 .336.067.381.269.269.067-.045.201-.135.314-.224l.09.403c-.203.202-.427.404-.673.516-.382.224-.606.135-.606-.493v-1.166l-.314.179v-.516l.292-.157.134-.807.494-.27v.74l.627-.358zm.471 1.659-.022-2.444.605-.359v2.467zm.315-3.79c.201-.112.313-.045.313.18 0 .224-.134.47-.336.583-.202.112-.314.045-.314-.157-.022-.247.112-.471.336-.606zm.336-2.511c-.606.358-.987.044-.987-.673 0-.718.381-1.592 1.076-1.996.628-.359.987-.023.987.695 0 .74-.381 1.57-1.076 1.974zm-.247-1.794c-.09.179-.134.426-.134.717 0 .471.157.695.426.538a.658.658 0 0 0 .269-.291c.09-.18.134-.426.134-.695 0-.471-.134-.718-.426-.561a.561.561 0 0 0 -.269.292m2.691 6.301-.583.337v-1.48c0-.36-.067-.471-.269-.36-.157.09-.314.27-.47.472v1.794l-.584.336v-1.435c0-.112 0-.247-.022-.449l-.023-.516.471-.336.09.27c.202-.36.426-.606.717-.763.471-.27.673-.09.673.47zm-.897-6.907c0-.112 0-.247-.022-.449l-.023-.515.471-.337.112.382c.135-.36.314-.628.561-.785a.426.426 0 0 1 .314-.068l-.09.673c-.09.023-.157.067-.246.112-.18.112-.337.27-.471.538v1.57l-.606.314zm2.4-.404c.202-.112.336-.269.336-.426 0-.134-.157-.134-.336-.112l-.18.023c-.269.022-.515 0-.515-.382-.023-.47.38-1.009.874-1.278.292-.157.516-.18.695-.135l-.201.539a.705.705 0 0 0 -.471.112c-.202.112-.292.247-.27.359 0 .134.135.134.337.112l.09-.023c.336-.045.605-.045.605.382 0 .47-.336.986-.897 1.3-.314.18-.583.247-.83.18l.202-.539c.157.045.359 0 .56-.112z" fill="#014242"/><path d="m204.304 211.662c.09-.045.247-.157.404-.292l.112.494c-.224.246-.516.47-.807.65-.471.27-.74.18-.74-.583v-1.413l-.381.224v-.627l.336-.202.157-.987.583-.336v.897l.763-.449v.628l-.763.449v1.233c.023.381.09.448.336.314zm-2.892-.179c.583-.068 1.12-.135 1.12.627 0 .83-.605 1.615-1.39 2.064-.493.291-.941.38-1.21.336l.224-.74a1.9 1.9 0 0 0 .964-.292c.359-.201.673-.538.673-.874 0-.314-.27-.314-.606-.27l-.067.023c-.516.067-1.076.135-1.076-.65 0-.852.627-1.615 1.368-2.041.38-.224.762-.314 1.031-.314l-.202.695a2.965 2.965 0 0 0 -.807.292c-.314.18-.65.47-.65.852 0 .292.224.292.538.27z" fill="#00d36a"/><path d="m191.185 140.168.023 4.44-8.186 4.71-.022-4.441z" fill="#00d36a" opacity=".149"/><path d="m205.628 210.63c.246-.134.403-.045.403.202a.865.865 0 0 1 -.426.74c-.247.135-.403.045-.403-.246a.974.974 0 0 1 .426-.696zm-11.079 7.266-.022-2.96.717-.448.023 3.005zm2.938-4.776c.56-.337.807-.112.83.56v2.041l-.718.404v-1.794c0-.426-.067-.561-.336-.426-.18.112-.382.314-.56.583v2.175l-.719.426v-1.75c0-.156 0-.336-.022-.605l-.022-.56.583-.426.112.336c.224-.449.493-.763.852-.964zm-2.557.179c.225-.135.382-.045.382.202 0 .269-.157.56-.426.718-.247.134-.382.067-.382-.202 0-.292.157-.583.426-.718z" fill="#00d36a"/><path d="m227.56 78.497c.628-.36 1.121-.068 1.121.65l.023 6.033c0 .717-.493 1.592-1.121 1.95l-9.778 5.63-.023-8.612z" fill="#00d36a" opacity=".302"/><path d="m238.504 81.86c.628-.358 1.121-.067 1.121.65l.023 6.034c0 .717-.494 1.592-1.122 1.95l-20.699 11.954-.022-8.612 20.699-11.975z" fill="#00d36a" opacity=".871"/><g><g fill="#bdf0d0"><path d="m268.218 132.633-2.063.605 2.063-2.13z"/><path d="m266.155 133.238-1.346.404 3.41-3.52v.986zm-7.961 8.208-.853 1.301-.986.291 1.412-2.153 5.764-5.92 1.346-.404z"/><path d="m258.194 141.446 6.683-6.885 3.341-.987.022 5.921-10.899 3.252z"/></g><path d="m252.206 149.407 3.386-5.18.964-.292-3.386 5.203z" fill="#fff"/><path d="m256.556 143.935 11.595-3.476.09-.493.022 4.844-15.093 4.328zm-8.05 12.335 3.902-5.966 15.855-4.552.022 4.933z" fill="#bdf0d0"/><path d="m247.564 156.54 3.88-5.967.964-.269-3.902 5.966z" fill="#fff"/><path d="m242.743 165.083 5-7.67 20.52-5.785.023 7.041c0 2.108-1.48 4.665-3.297 5.72l-9.688 5.606-18.165 3.677z" fill="#bdf0d0"/><path d="m242.54 164.208 4.261-6.526.965-.269-4.979 7.625.18-.964z" fill="#fff"/><path d="m229.982 184.616 6.414-9.823 16.326-3.296z" fill="#bdf0d0"/><path d="m236.24 173.874 5.56-8.522.942-.269-5.606 8.611z" fill="#fff"/><path d="m228.748 185.334 6.751-10.36.897-.18-6.414 9.822z" fill="#bdf0d0"/><path d="m261.58 129.717.561-.157.18-.987-.27.068 3.41-7.894h.066l.404.583-5.943 13.725-.808.246z" fill="#fff"/><path d="m259.988 135.055 5.943-13.725 2.265 3.117.022 5.674-3.409 3.521zm-9.733 14.913.56-4.306.763-.247-.56 4.33z" fill="#bdf0d0"/><path d="m255.592 144.227-3.386 5.18-1.189.337.561-4.329zm10.496-24.489-.18-.023 2.265-5.225v1.637l-1.749 4.06zm-8.321 21.147-1.412 2.153-4.643 1.413.808-6.234 11.011-3.252z" fill="#bdf0d0"/><path d="m250.928 144.675.83-6.234.762-.224-.808 6.234z" fill="#fff"/><path d="m246.801 157.682-4.26 6.526-6.01 1.637.963-5.539z" fill="#bdf0d0"/><path d="m264.81 133.642 1.345-.404 2.063-.605v.941l-3.34.987-1.347.404-11.01 3.252-.764.224-11.056 3.296-.785.225-11.078 3.296-.785.225-11.37 3.364-.336.112.18-1.01.18-.044 11.526-3.432.762-.224 11.101-3.274.762-.247 11.034-3.25.762-.248 6.526-1.929.808-.246z" fill="#fff"/><path d="m253.327 132.206 8.253-2.489-2.4 5.584-6.526 1.93zm-17.559 33.864.942-5.54.784-.224-.964 5.54z" fill="#bdf0d0"/><path d="m253.44 131.22 8.611-2.579.27-.068-.18.987-.56.157-8.254 2.49-.785.224-10.809 3.251-.763.225-11.078 3.32-.785.223-12.289 3.678-.494.157.202-1.009.314-.09 12.447-3.723.784-.224 11.056-3.319.785-.247 10.765-3.207z" fill="#fff"/><path d="m252.542 132.431-.65 5.046-11.034 3.251.875-5.046z" fill="#bdf0d0"/><path d="m251.892 137.477.65-5.046.785-.225-.673 5.024z" fill="#fff"/><path d="m236.89 159.544.874-5.046.762-.224-.875 5.045zm14.553-8.971-3.879 5.966-9.913 2.78.875-5.045zm14.017-29.826-3.409 7.894-8.612 2.58.135-.943 4.06-10.047z" fill="#bdf0d0"/><path d="m253.574 130.435-.135.942-.762.246.134-1.076 4.127-10.204.695.045z" fill="#fff"/><path d="m264.832 111.037c1.839-1.054 3.32-.202 3.32 1.906v1.57l-2.266 5.225-7.871-.493 2.242-5.562z" fill="#bdf0d0"/><path d="m236.24 173.874.896-.18 18.165-3.677-2.579 1.48-16.326 3.296-.897.18-12.335 2.49-.762.156-9.105 1.861-.763.135-11.594 2.355-.762.157-5.764 1.166-.583.112.247-1.009.605-.112 5.72-1.167.761-.157 11.572-2.332.763-.157 9.082-1.839.763-.157z" fill="#fff"/><path d="m223.164 177.462 12.335-2.489-6.75 10.361-7.738 4.462zm15.541-24.175.718-4.216 11.392-3.409-.56 4.306z" fill="#bdf0d0"/><path d="m257.341 119.177 2.02-4.979.941-.538-2.265 5.562z" fill="#fff"/><path d="m220.182 190.29 2.22-12.67.762-.158-2.153 12.334zm17.739-36.779.74-4.216.762-.224-.718 4.216zm-15.34 23.121 1.121-6.3.763-.203-1.12 6.346z" fill="#bdf0d0"/><path d="m241.8 165.352-5.56 8.522-12.896 2.601 1.121-6.346zm-2.982-17.044 1.098-6.346.785-.225-1.099 6.325zm-13.052 14.353.874-4.979 11.124-3.184-.875 5.046zm.291-5.741.695-4.059.785-.247-.717 4.082zm.763-.224.717-4.082 11.124-3.319-.74 4.216z" fill="#bdf0d0"/><path d="m227.717 151.627 1.121-6.369 11.078-3.296-1.098 6.346z" fill="#bdf0d0"/><path d="m256.355 143.038.986-.29 10.9-3.253v.471l-.09.493-11.595 3.476-.964.292-4.014 1.188-.763.247-11.392 3.41-.762.223-11.124 3.32-.785.246-10.45 3.117-.695.224.18-1.009.582-.157 10.563-3.184.785-.225 11.101-3.319.784-.246 11.326-3.387.784-.224z" fill="#fff"/><path d="m251.757 138.441-.829 6.234-11.326 3.387 1.1-6.325zm-27.113 30.679.942-5.45 11.124-3.14-.942 5.54zm34.716-54.922-2.019 4.98-5.942-.382z" fill="#bdf0d0"/><path d="m236.53 165.845 6.01-1.637.426-.134-.179.964-.987.314-17.335 4.777-.763.202-9.239 2.534-.785.224-11.594 3.184-.763.225-5.83 1.592-.696.202.202-1.009.606-.18 5.898-1.614.762-.202 11.572-3.185.763-.224 9.261-2.534.785-.224 11.124-3.05z" fill="#fff"/><path d="m214.598 171.878c.27-1.749.493-3.52.718-5.337l9.508-2.669-.964 5.472z" fill="#bdf0d0"/><path d="m223.86 169.344.964-5.472.762-.202-.942 5.45zm5.135-25.094.897-5.024 11.078-3.319-.874 5.068z" fill="#bdf0d0"/><path d="m241.733 135.682-.875 5.046-.762.247.874-5.068zm.179-1.009.225-1.3 5.92-12.649 1.704-.986 7.177.448-4.127 10.204-.134 1.076z" fill="#bdf0d0"/><path d="m266.088 119.738.336.448 1.772 2.467v1.794l-2.265-3.117-.404-.583h-.067l-7.827-.516-.695-.045-7.177-.448 1.638-.942 5.942.381.696.045 7.871.493z" fill="#fff"/><path d="m225.003 162.885.875-4.978.762-.225-.874 4.98z" fill="#bdf0d0"/><path d="m207.937 197.354a144.9 144.9 0 0 0 4.598-17.716l.762-.157c-1.188 6.1-2.69 11.885-4.485 17.38z" fill="#fff"/><path d="m213.297 179.48 9.105-1.838-2.22 12.648-11.37 6.57c1.794-5.494 3.297-11.302 4.485-17.38zm28.1-46.063 5.673-12.132.987-.56-5.92 12.648-.225 1.3-.785.247zm-17.694 36.913-1.099 6.303-9.082 1.839c.358-1.84.672-3.7.964-5.585l9.217-2.556zm-10.024 2.76a189.624 189.624 0 0 1 -.942 5.539l-11.572 2.332c.336-1.57.65-3.14.942-4.687l11.572-3.185z" fill="#bdf0d0"/><path d="m212.737 178.629c.336-1.817.65-3.656.942-5.54l.762-.202a137.686 137.686 0 0 1 -.964 5.585z" fill="#fff"/><path d="m226.932 151.852 1.121-6.369.785-.225-1.12 6.37z" fill="#bdf0d0"/><path d="m215.316 166.563a191.711 191.711 0 0 1 -.718 5.338l-.763.202c.27-1.75.494-3.521.718-5.338z" fill="#fff"/><path d="m229.892 139.226-.897 5.023-.762.224.874-5.023zm-14.464 26.351c.18-1.593.336-3.185.493-4.8l9.935-2.848-.875 4.979z" fill="#bdf0d0"/><path d="m197.756 191.21.605.358 9.531 5.808-1.099.651-8.768-5.338-.606-.38-5.135-3.118-.359-.224.583-.965.224.135zm-18.927 22.941c.022-.045.044-.09.067-.157-.023.068-.045.112-.067.157z" fill="#fff"/><path d="m178.896 214.017a932.02 932.02 0 0 1 11.123-21.619c4.665-8.813 6.055-17.178 4.149-25.162l.785-.65c.359 1.502.605 3.027.74 4.575l-.381.112-.202 1.009.628-.18c.09 1.66.045 3.342-.112 5.046l-.628.18-.202 1.009.695-.202c-.18 1.39-.448 2.781-.807 4.194l-.628.134-.247 1.01.583-.113a43.215 43.215 0 0 1 -1.682 4.867l-.224-.135-.56.965.358.224a44.262 44.262 0 0 1 -1.682 3.453 966.248 966.248 0 0 0 -10.787 20.946l-1.009.583c.045-.157.067-.201.09-.246z" fill="#fff"/><path d="m197.42 192.308a130.427 130.427 0 0 1 -3.476 9.733 156.31 156.31 0 0 1 -1.884 4.463l-12.222 7.064a969.28 969.28 0 0 1 10.787-20.946 69.45 69.45 0 0 0 1.682-3.453l5.113 3.14z" fill="#bdf0d0"/><path d="m197.42 192.308a130.427 130.427 0 0 1 -3.476 9.733 156.31 156.31 0 0 1 -1.884 4.463l.964-.56a92.503 92.503 0 0 0 1.592-3.836c1.279-3.184 2.4-6.346 3.387-9.44zm54.786-42.901.964-.269 15.093-4.328v.942l-15.855 4.552-.965.27-12.917 3.7-.762.224-11.124 3.184-.762.225-9.957 2.87-.628.18.202-1.01.515-.134 10.047-2.893.763-.224 11.101-3.185.784-.224 11.55-3.319.762-.224z" fill="#fff"/><path d="m241.127 134.92-11.056 3.32 1.391-7.94 15.608-9.015-5.673 12.132zm-15.069 22-10.025 2.87c.112-1.255.202-2.533.292-3.812l10.45-3.14zm-28.302 34.29c.942-3.073 1.727-6.1 2.422-9.083l.763-.157c-.718 3.14-1.57 6.347-2.58 9.598l-.605-.359z" fill="#bdf0d0"/><path d="m200.94 181.97 11.617-2.355c-1.21 6.235-2.758 12.155-4.597 17.717l-.045.022-9.531-5.808c.987-3.23 1.839-6.436 2.557-9.576zm67.256-59.317-1.772-2.467 1.75-4.059zm-73.557 79.477c1.278-3.184 2.4-6.346 3.386-9.44l8.769 5.337-13.77 7.939c.56-1.279 1.1-2.557 1.615-3.835zm34.648-63.667 1.345-7.692.83-.47-1.39 7.938zm-28.885 42.655c.337-1.57.65-3.095.92-4.642l.762-.202a91.221 91.221 0 0 1 -.942 4.687zm27.652-35.635-1.122 6.391-10.562 3.162c.134-2.04.224-4.081.314-6.167zm-13.501 21.282a203.791 203.791 0 0 1 -.718 5.338l-11.571 3.184c0-.022 0-.067.022-.09.314-1.839.56-3.565.763-5.18z" fill="#bdf0d0"/><path d="m247.564 156.54.942-.27 19.78-5.585v.965l-20.52 5.763-.965.27-9.307 2.623-.784.224-11.124 3.14-.762.202-9.509 2.691-.762.202-11.505 3.252-.785.224-6.526 1.84-.65.178.202-1.009.381-.112 6.705-1.884.785-.224 11.505-3.229.762-.225 9.576-2.69.763-.225 11.123-3.117.762-.225z" fill="#fff"/><path d="m201.501 175.489-5.875 1.615c.179-1.705.201-3.387.112-5.046l6.548-1.84a117.402 117.402 0 0 1 -.762 5.204c-.023.044-.023.044-.023.067z" fill="#bdf0d0"/><path d="m201.501 175.444c.314-1.861.56-3.588.763-5.203l.785-.224a116.632 116.632 0 0 1 -.763 5.18c0 .023 0 .068-.022.09l-.763.202zm-8.768 12.693a43.215 43.215 0 0 0 1.682-4.866l5.763-1.166c-.673 2.982-1.48 6.01-2.422 9.082zm36.375-48.687-.875 5.024-11.505 3.409c.045-1.57.09-3.163.113-4.755zm-27.786 37.048c-.27 1.525-.583 3.072-.92 4.642l-5.696 1.144c.359-1.413.628-2.803.808-4.194zm-1.705-12.088c.427.113.561.135.516.157-.022 0-.09.023-.18.023-2.062-.516-4.35-1.592-6.951-.09-.292.157-.56.359-.852.583-2.96 2.333-5.652 9.486-8.074 21.507-.74 2.489-1.413 3.924-2.063 4.306-.964.56-.09 3.834 1.615 5.561 1.076 1.099.359 4.216-.718 7.311-.47 1.189-.987 2.512-1.57 3.947-.202.157 2.58-10.899 1.929-11.46-1.278-1.099-2.557-5.023-1.615-5.561.628-.36 1.323-1.794 2.063-4.306 2.4-12.02 5.091-19.174 8.074-21.507.291-.224.56-.403.852-.583 2.646-1.48 4.934-.403 6.974.112z" fill="#bdf0d0"/><path d="m175.263 166.563c0-2.108 1.48-4.664 3.319-5.74l25.633-14.802c0 2.243-1.3 4.485-2.265 5.046-.292.18-.56.18-.74 0-.157-.157-.404-.135-.696.022-1.143.673-3.005 3.589-2.982 6.055 0 3.118 2.04 3.544 3.005 4.374.964.83 5.651 1.12 2.646 2.87l-.134.067c-.965.494-1.974.382-3.05.112.09-.022.157-.022.18-.022.022-.022-.09-.045-.517-.157-2.04-.516-4.328-1.592-6.93-.09-.313.18-.582.36-.874.583-2.96 2.333-5.651 9.487-8.073 21.507-.74 2.49-1.413 3.924-2.063 4.306-.965.56.336 4.485 1.614 5.561.65.561-2.153 11.617-1.973 11.527.605-1.502 1.143-2.825 1.592-4.014-.606 1.75-1.323 3.52-1.884 4.911-.403 1.01-1.188 3.162-2.13 5.315-.023.045-.045.112-.09.157-1.929 1.122-3.409.27-3.431-1.839z" fill="#a2a8d5"/><path d="m194.146 167.236c1.906 7.984.538 16.349-4.15 25.162a979.558 979.558 0 0 0 -11.123 21.619c.942-2.153 1.727-4.306 2.13-5.315.562-1.39 1.28-3.14 1.885-4.912 1.973-5.158 2.848-8.095 2.601-8.79-1.502-1.57-1.861-3.185-1.121-4.845 1.099-2.466 2.512-10.248 3.005-11.796.426-1.412 3.7-11.01 5.853-12.267.224-.134.449-.179.65-.09 2.064.808 5.405-1.12 5.741-1.3a.584.584 0 0 1 .337-.09c1.076.27 2.085.382 3.05-.112l-.27.135v.448l-.022.225c-.045.695-.09 1.412-.157 2.22-.045.56-.112 1.143-.18 1.749l-6.705 1.884a31.368 31.368 0 0 0 -.74-4.575z" fill="#bdf0d0"/><path d="m203.34 167.146c-.045.606-.112 1.234-.18 1.884l-.784.224c.067-.605.134-1.188.18-1.749.067-.807.134-1.525.156-2.13v-.067l.023-.225v-.448l.269-.135.134-.067.404-.224v.201c0 .157-.022.36-.022.561l-.023.247c-.022.381-.045.807-.09 1.256l-.022.336zm27.293-36.374-1.346 7.692-12.446 3.722c.022-1.143.022-2.287.022-3.453z" fill="#bdf0d0"/><path d="m214.665 165.8c.965-8.342 1.413-17.222 1.39-26.596l.786-.449c0 1.166 0 2.31-.023 3.454l-.314.09-.18.986.494-.157a328.504 328.504 0 0 1 -.112 4.755l-.18.044-.179.987.337-.09c-.068 2.086-.18 4.15-.314 6.168l-.583.179-.18.987.695-.202c-.09 1.278-.18 2.556-.291 3.812l-.516.157-.202.987.628-.18c-.157 1.615-.314 3.23-.493 4.8l-.763.269z" fill="#fff"/><path d="m203.138 164.41c3.028-1.749-1.682-2.04-2.646-2.87s-3.005-1.278-3.005-4.373c0-2.49 1.839-5.405 2.983-6.055.291-.18.538-.202.695-.023.18.202.448.18.74 0 .964-.56 2.265-2.803 2.265-5.045l11.84-6.84c.023 9.374-.448 18.254-1.39 26.597l-11.504 3.252c.067-.65.134-1.279.18-1.884l.022-.337.022-.336c.045-.448.067-.875.09-1.256l.022-.246c0-.225.023-.404.023-.561v-.202l-.337.18z" fill="#bdf0d0"/><path d="m191.4 165.083c.291-.224.583-.426.852-.583 2.624-1.502 4.911-.426 6.952.09-.112.022-.247.045-.337.09-.314.179-3.655 2.108-5.74 1.3-.202-.09-.427-.045-.65.09-2.154 1.256-5.428 10.854-5.854 12.267-.471 1.547-1.884 9.33-3.005 11.796-.74 1.637-.359 3.252 1.121 4.844.247.695-.628 3.633-2.601 8.791 1.076-3.095 1.794-6.212.717-7.31-1.682-1.728-2.556-5.024-1.614-5.562.628-.36 1.323-1.795 2.063-4.306 2.444-12.02 5.135-19.174 8.096-21.507z" fill="#00d36a" stroke="#00d36a" stroke-width="1.5"/></g><path d="m177.797 221.26c1.323-.762 2.4-.18 2.4 1.323 0 1.682-2.265 5.652-2.378 5.876-.112-.067-2.4-1.435-2.4-3.117 0-1.503 1.077-3.342 2.378-4.082zm.045 4.014c.628-.358 1.144-1.255 1.144-1.973s-.516-1.01-1.144-.65c-.628.358-1.144 1.256-1.144 1.973 0 .718.516 1.01 1.144.65" fill="#00d36a"/><path d="m231.305 115.029c.628-.36 1.122-.068 1.122.65l.022 6.032c0 .718-.493 1.593-1.121 1.952l-13.411 7.736-.022-8.611 13.41-7.76z" fill="#00d36a" opacity=".463"/><path d="m245.366 96.976c.628-.36 1.122-.068 1.122.65l.022 6.033c0 .717-.493 1.592-1.121 1.95l-27.517 15.878-.022-8.634z" fill="#00d36a" opacity=".498"/><path d="m214.149 126.914v4.441l-18.411 10.63v-4.441z" fill="#00d36a" opacity=".149"/><path d="m226.602 154.666c2.7-1.518 4.898-.357 4.898 2.635 0 3.349-4.623 11.252-4.852 11.699-.229-.134-4.898-2.858-4.898-6.207 0-2.992 2.197-6.653 4.852-8.127zm.092 7.993c1.281-.714 2.334-2.5 2.334-3.93 0-1.428-1.053-2.009-2.334-1.294-1.282.714-2.335 2.5-2.335 3.93 0 1.428 1.053 2.009 2.335 1.294m-32.862 54.408c0 .157 0 .336.022.65l.022.493-.56.426-.112-.336c-.247.404-.539.718-.853.897-.448.247-.717.112-.717-.359 0-.314.134-.65.359-.942.201-.291.56-.583 1.12-.964 0-.47-.111-.56-.38-.404-.247.135-.516.382-.763.718l-.224-.359a3.637 3.637 0 0 1 1.144-1.121c.65-.381.942-.202.942.583zm-.718.874v-.47c-.404.268-.583.425-.695.56a.57.57 0 0 0 -.112.359c0 .202.067.246.246.157.18-.112.382-.314.56-.606m-2.331-2.041.403 3.432c.023.157.045.314.045.47l-.673.382-.246-2.243-.068-.807-.022.022-.65 3.61-.853.494-.538-2.085-.157-.74-.022.022-.292 3.386-.65.382c0-.113.022-.225.022-.36l.023-.246.359-3.812.986-.561.561 2.086.135.695.022-.023.628-3.565zm-5.786 6.84.516-.291.044.65-2.04 1.166v-.672l.762-.427-.022-2.736-.651.539-.134-.471.942-.92.56-.314z" fill="#00d36a"/><path d="m192.665 164.32.023-.022-.023.023z" fill="#51546b"/><path d="m217.715 103.39c.494-.292.92-.045.92.515l.022 6.526c0 .583-.404 1.279-.897 1.57l-.045-8.612zm-4.328-.853c.022.112.022.225.022.314l-.448.27-.18-1.503-.044-.538h-.023l-.448 2.422-.583.336-.36-1.39-.111-.494h-.023l-.18 2.288-.448.246c0-.067 0-.157.023-.224l.022-.18.247-2.556.673-.381.38 1.413.09.47h.023l.426-2.399.673-.381zm-4.149-.112c.695-.403 1.054-.291 1.054.292 0 .628-.381 1.256-1.031 1.637-.068.045-.157.09-.225.112v.92l-.493.29v-2.78c.247-.18.493-.336.695-.47zm.359 1.211a.897.897 0 0 0 .224-.583c0-.336-.18-.381-.516-.18-.067.046-.157.09-.246.158v1.009c.067-.045.134-.067.18-.09.134-.112.268-.202.358-.314m-2.938.337 1.503-.875.022.426-.897 2.96-.448.068.852-2.714-1.032.583z" fill="#00d36a"/><path d="m214.127 117.249v4.44l-18.412 10.63v-4.44z" fill="#00d36a" opacity=".149"/><path d="m206.076 113.234v2.378c0 .157 0 .336.045.717l-.381.292-.068-.202c-.134.27-.314.47-.515.583-.404.224-.696-.022-.696-.583 0-.583.314-1.323.785-1.592a.436.436 0 0 1 .36-.068v-1.188zm-.47 2.871v-1.01a.73.73 0 0 0 -.292.09.649.649 0 0 0 -.247.247c-.09.157-.112.381-.112.583 0 .404.112.583.314.449.09-.045.224-.18.336-.359m-2.13-.269c.47-.27.695-.045.695.47 0 .113 0 .248-.023.36l-1.009.583c.023.314.18.359.426.224.157-.09.337-.224.494-.381l.112.291a2.973 2.973 0 0 1 -.673.56c-.493.292-.807.113-.807-.515-.067-.605.246-1.278.785-1.592zm.224.695v-.067c0-.202-.09-.292-.27-.18-.201.113-.29.337-.336.65l.584-.336zm-.74-9.778-.449 2.422-.583.337-.358-1.39-.113-.494h-.022l-.18 2.265-.448.247c0-.068 0-.157.022-.225l.023-.179.247-2.557.672-.38.382 1.412.09.471h.022l.426-2.4.673-.38.269 2.31c.022.111.022.2.022.313l-.448.27-.18-1.503zm-1.077 10.899c.247-.022.449 0 .449.314 0 .382-.27.808-.74 1.077-.247.157-.493.202-.673.157l.157-.449a.736.736 0 0 0 .471-.112c.157-.09.27-.224.27-.336s-.113-.112-.27-.09l-.18.022c-.201.023-.38-.022-.403-.314 0-.38.314-.807.718-1.054.246-.134.426-.157.56-.112l-.18.449a.737.737 0 0 0 -.38.09c-.157.09-.225.201-.225.291 0 .112.09.112.247.09l.18-.023zm-2.018.248c.516-.292.807-.023.807.56s-.313 1.278-.874 1.592c-.494.291-.807.045-.807-.538 0-.56.313-1.279.874-1.615zm.202 1.48c.067-.158.112-.337.112-.561 0-.382-.112-.584-.359-.449a.581.581 0 0 0 -.224.247 1.343 1.343 0 0 0 -.112.583c0 .381.112.583.359.448.112-.09.18-.18.224-.269m-.135-9.374-.83.471-.179.74-.47.27c0-.09.022-.18.044-.292l.74-2.96.56-.337.718 2.13c.023.09.045.158.045.247l-.47.27zm-.403-1.323-.292 1.278.583-.336-.134-.449zm-.92 11.617c.023-.023.068-.045.112-.09l.068.359a1.672 1.672 0 0 1 -.382.314c-.246.134-.403.067-.403-.247v-2.691l.493-.292v2.557c.023.09.045.134.112.09zm-1.592-1.054c-.18.112-.336.269-.448.448a2.008 2.008 0 0 0 -.225.942c0 .471.18.852.695.56a1.8 1.8 0 0 0 .516-.425l.112.336a3.117 3.117 0 0 1 -.717.605c-.718.404-1.122.045-1.122-.74 0-.762.382-1.726 1.167-2.175.291-.18.515-.202.672-.18l-.179.516c-.135-.044-.27 0-.471.113zm-.516-7.692c-.448.246-.717.044-.717-.427 0-.538.314-1.143.852-1.435.605-.359.852.09.852.763 0 .92-.426 1.906-1.189 2.354-.112.068-.201.113-.269.113l.045-.471a.671.671 0 0 0 .18-.09c.448-.247.672-.695.74-1.234a2.17 2.17 0 0 1 -.494.427zm-.112-1.144a.928.928 0 0 0 -.112.426c0 .269.112.381.359.247.134-.068.269-.202.381-.36-.022-.425-.112-.717-.381-.56a.649.649 0 0 0 -.247.247m-6.93 5.808.853-.493.022.471-1.435.829v-2.444l1.413-.83v.494l-.853.493v.471l.651-.359v.471l-.651.381zm-.224 7.401c.74-.426 1.122-.112 1.122.605 0 .763-.427 1.548-1.144 1.974-.247.157-.516.269-.718.358v-2.422c.202-.179.449-.336.74-.515zm.292 1.749c.157-.224.224-.516.224-.807 0-.449-.18-.65-.516-.449l-.202.135v1.502a.909.909 0 0 0 .202-.112c.135-.067.247-.157.292-.27m-1.009-10.584v1.413c0 .65-.27 1.256-.897 1.614-.561.314-.853.112-.853-.493v-1.503l.561-.336v1.458c0 .359.09.493.314.359a.49.49 0 0 0 .202-.225c.067-.112.09-.269.09-.426v-1.525zm-1.211 11.953.852-.493.022.47-1.435.83v-2.444l1.413-.83v.493l-.852.494v.493l.65-.381v.493l-.65.359zm-2.512-9.284-.023-.494 1.75-1.009-.023.493-.56.337v1.951l-.561.336v-1.951zm.852 10.069.336-1.974.561-.314c0 .068-.022.18-.045.27l-.022.134-.516 2.377-.673.404-.224-1.211-.045-.404h-.022l-.292 1.929-.65.403-.494-1.816c-.022-.112-.067-.224-.067-.314l.583-.336.247 1.12.067.472h.023l.291-1.951.673-.381.224 1.143zm19.914-21.35v.404l-.807.471v-.404z" fill="#00d36a"/><path d="m214.037 88.79v4.441l-18.389 10.607-.022-4.418zm-22.964 13.254.023 4.418-8.186 4.732-.022-4.441zm.09 28.458v4.441l-8.163 4.709-.023-4.44z" fill="#00d36a" opacity=".149"/></g><path d="m52 23h375v375h-375z" opacity=".401"/><path d="m421.472 261.949c3.659 2.15 3.228 5.877-1.004 8.314l-204.01 118.129a16.079 16.079 0 0 1 -14.346.573l-131.2-75.622c-3.73-2.222-3.228-5.95 1.004-8.387l204.01-118.128a16.079 16.079 0 0 1 14.346-.573l62.972 36.33" stroke="#014242"/><path d="m68.768 312.173c-4.222 2.436-7.729 1.003-7.729-3.296v-151.256a16.052 16.052 0 0 1 7.73-12.18l203.675-117.796c4.222-2.437 7.729-1.004 7.729 3.296v151.327a10.329 10.329 0 0 1 -.573 3.153m-56.592 133.394 79.963-46.134 49.96 28.727-79.964 46.134z" stroke="#014242"/><g fill="#014242" fill-rule="nonzero" opacity=".8"><path d="m120.519 311.13 9.031-5.245c1.201-.74 1.231-1.883-.002-2.59l-8.386-4.813a4.03 4.03 0 0 0 -3.654-.01l-9.05 5.256c-1.201.74-1.231 1.883.002 2.59l8.386 4.814a4.033 4.033 0 0 0 3.422.117l.25-.118zm-3.317-.658-8.369-4.805c-.724-.415-.712-.85.01-1.296l9.023-5.24a3.265 3.265 0 0 1 2.94.01l8.369 4.805c.724.415.712.85-.01 1.296l-9.014 5.235a3.272 3.272 0 0 1 -2.949-.005zm-10.517 8.706 9.031-5.245c1.201-.74 1.231-1.883-.002-2.59l-8.238-4.883a4.032 4.032 0 0 0 -3.658-.012l-9.05 5.256c-1.202.74-1.232 1.883.001 2.59l8.386 4.813a4.03 4.03 0 0 0 3.496.089zm-3.173-.73-8.37-4.805c-.723-.415-.712-.85.011-1.296l9.023-5.24a3.265 3.265 0 0 1 2.939.01l8.221 4.874c.729.418.717.853-.006 1.299l-9.006 5.23c-.9.4-1.932.374-2.812-.072zm44.746-23.413 9.032-5.245c1.2-.741 1.23-1.883-.002-2.59l-8.386-4.814a4.03 4.03 0 0 0 -3.654-.01l-9.05 5.256c-1.202.741-1.232 1.884.001 2.59l8.386 4.814a4.033 4.033 0 0 0 3.423.118zm-3.316-.658-8.37-4.805c-.723-.415-.712-.85.011-1.296l9.023-5.24a3.265 3.265 0 0 1 2.939.01l8.37 4.805c.723.414.712.85-.011 1.296l-9.013 5.234a3.272 3.272 0 0 1 -2.949-.004zm-10.518 8.706 9.032-5.245c1.2-.741 1.23-1.884-.002-2.59l-8.386-4.814a4.03 4.03 0 0 0 -3.654-.01l-9.05 5.256c-1.202.741-1.232 1.883.001 2.59l8.386 4.814a4.033 4.033 0 0 0 3.423.117zm-3.316-.659-8.369-4.805c-.724-.414-.713-.85.01-1.296l9.023-5.24a3.265 3.265 0 0 1 2.939.01l8.37 4.805c.723.415.712.85-.011 1.296l-9.013 5.235a3.272 3.272 0 0 1 -2.949-.005zm32.974-28.226 8.386 4.815a4.03 4.03 0 0 0 3.654.009l9.05-5.256c1.202-.74 1.232-1.883-.001-2.59l-8.386-4.813a4.03 4.03 0 0 0 -3.654-.01l-9.05 5.256c-1.008.732-1.08 1.852-.137 2.502zm.408-1.962 8.999-5.224a3.265 3.265 0 0 1 2.939.01l8.37 4.805c.723.415.712.85-.011 1.296l-9.023 5.24c-.911.461-2.009.461-2.939-.01l-8.368-4.804c-.587-.344-.573-.871.033-1.313zm-5.91 14.834c1.143.579 2.493.579 3.637 0l9.05-5.256c1.201-.74 1.231-1.883-.002-2.59l-8.386-4.814a4.03 4.03 0 0 0 -3.654-.009l-9.05 5.256c-1.201.74-1.231 1.883.002 2.59zm-8.03-5.474c-.724-.415-.712-.85.01-1.296l9.023-5.24a3.265 3.265 0 0 1 2.94.01l8.368 4.805c.724.415.713.85-.01 1.296l-9.023 5.24a3.261 3.261 0 0 1 -2.729.087l-.201-.093-8.378-4.81zm50.464-31.266-9.05 5.255c-1.202.741-1.232 1.884.001 2.59l8.386 4.814a4.03 4.03 0 0 0 3.654.01l9.05-5.256c1.202-.741 1.232-1.884-.001-2.59l-8.386-4.814a4.03 4.03 0 0 0 -3.654-.01zm3.297.669 8.369 4.805c.724.414.713.85-.01 1.295l-9.023 5.24c-.911.461-2.009.461-2.939-.01l-8.37-4.805c-.723-.414-.712-.85.011-1.295l9.013-5.235a3.272 3.272 0 0 1 2.949.005zm-26.323 15.151 8.386 4.815a4.03 4.03 0 0 0 3.654.01l9.05-5.256c1.201-.741 1.231-1.884-.002-2.59l-8.386-4.814a4.03 4.03 0 0 0 -3.654-.01l-9.05 5.256c-1.058.706-1.104 1.838-.139 2.5l.14.09zm.395-1.953 9.012-5.233a3.265 3.265 0 0 1 2.939.01l8.369 4.805c.724.415.712.85-.01 1.296l-9.023 5.24c-.912.461-2.01.461-2.94-.01l-8.367-4.804c-.615-.36-.614-.88.02-1.304zm48.515-14.579c1.193-.736 1.223-1.878-.01-2.584l-8.386-4.815a4.03 4.03 0 0 0 -3.654-.009l-9.05 5.256c-1.202.74-1.232 1.883.001 2.59l8.386 4.813a4.03 4.03 0 0 0 3.654.01l9.06-5.261zm-9.417 4.602c-.911.46-2.01.46-2.94-.01l-8.368-4.805c-.724-.415-.713-.85.01-1.296l9.023-5.24a3.265 3.265 0 0 1 2.939.01l8.369 4.805c.68.39.711.797.113 1.215l-.12.078zm25.302-28.095-9.031 5.245c-1.201.741-1.231 1.884.002 2.59l8.386 4.814a4.03 4.03 0 0 0 3.654.01l9.05-5.256c1.201-.741 1.231-1.884-.002-2.59l-8.386-4.814a4.033 4.033 0 0 0 -3.422-.117l-.25.118zm3.316.659 8.37 4.805c.724.414.712.85-.01 1.295l-9.024 5.24c-.91.461-2.008.461-2.938-.01l-8.37-4.804c-.724-.415-.712-.85.01-1.296l9.014-5.235a3.272 3.272 0 0 1 2.948.005zm-17.149 7.389-9.032 5.245c-1.201.74-1.231 1.883.002 2.59l8.386 4.814a4.03 4.03 0 0 0 3.654.01l9.05-5.257c1.201-.74 1.231-1.883-.002-2.59l-8.386-4.813a4.033 4.033 0 0 0 -3.422-.118zm3.316.658 8.369 4.805c.724.415.712.85-.01 1.296l-9.023 5.24c-.912.461-2.01.461-2.94-.01l-8.369-4.805c-.724-.415-.712-.85.01-1.296l9.014-5.234a3.272 3.272 0 0 1 2.949.004zm50.183-17.404c1.193-.736 1.223-1.878-.01-2.584l-8.387-4.814a4.03 4.03 0 0 0 -3.653-.01l-9.05 5.256c-1.202.74-1.232 1.883.001 2.59l8.386 4.814a4.03 4.03 0 0 0 3.654.009l9.059-5.26zm-9.417 4.602c-.911.461-2.01.461-2.94-.01l-8.368-4.805c-.724-.415-.713-.85.01-1.296l9.023-5.24a3.265 3.265 0 0 1 2.939.01l8.369 4.805c.68.39.711.797.113 1.215l-.12.078zm-16.486-3.952-9.032 5.246c-1.226.702-1.302 1.934-.134 2.654l8.522 4.893c1.25.64 2.71.64 3.942.009l9.05-5.255c1.226-.703 1.301-1.935.134-2.655l-8.523-4.893a4.319 4.319 0 0 0 -3.708-.12zm3.601.658 8.37 4.806c.794.424.78.987 0 1.433l-9.033 5.247c-1 .511-2.206.511-3.224-.01l-8.37-4.805c-.794-.425-.78-.987 0-1.434l9.024-5.241a3.558 3.558 0 0 1 3.233.004zm-12.631 31.177a3.745 3.745 0 0 0 3.365.01l9.052-5.257c1.135-.663 1.168-1.834-.03-2.389l-8.358-4.799a3.745 3.745 0 0 0 -3.365-.01l-9.052 5.256c-1.063.622-1.11 1.714-.124 2.305l.134.074zm-8.031-5.475c-.588-.295-.588-.71.02-1.066l9.031-5.245a2.978 2.978 0 0 1 2.654.011l8.368 4.805c.646.3.634.703-.003 1.075l-9.03 5.245c-.822.41-1.812.41-2.654-.01z"/><path d="m275.327 233.888a4.03 4.03 0 0 0 3.654.01l9.05-5.256c1.201-.741 1.231-1.884-.002-2.59l-8.386-4.814a4.03 4.03 0 0 0 -3.654-.01l-9.05 5.256c-1.081.667-1.173 1.748-.266 2.42l.13.089zm.357-.66-8.378-4.81c-.672-.362-.672-.864.019-1.29l9.023-5.24a3.265 3.265 0 0 1 2.939.01l8.369 4.805c.724.414.712.85-.01 1.295l-9.023 5.24c-.911.461-2.01.461-2.94-.01zm-22.721 3.893 8.387 4.815a4.03 4.03 0 0 0 3.654.009l9.05-5.256c1.201-.74 1.231-1.883-.002-2.59l-8.386-4.813a4.03 4.03 0 0 0 -3.654-.01l-9.05 5.256c-1.008.732-1.08 1.852-.136 2.502zm.409-1.962 8.998-5.224a3.265 3.265 0 0 1 2.94.01l8.368 4.805c.724.415.713.85-.01 1.296l-9.023 5.24c-.91.461-2.009.461-2.939-.01l-8.367-4.804c-.588-.344-.574-.87.033-1.313zm50.41-29.944-9.032 5.246c-1.2.74-1.23 1.883.002 2.59l8.386 4.813a4.03 4.03 0 0 0 3.654.01l9.05-5.256c1.202-.74 1.232-1.883-.001-2.59l-8.386-4.814a4.033 4.033 0 0 0 -3.423-.117zm3.316.659 8.369 4.805c.724.415.713.85-.01 1.296l-9.023 5.24c-.911.46-2.009.46-2.939-.01l-8.37-4.805c-.723-.415-.712-.85.011-1.296l9.013-5.235a3.272 3.272 0 0 1 2.949.005zm-5.163 12.13-8.386-4.814a4.03 4.03 0 0 0 -3.654-.01l-9.05 5.257c-1.202.74-1.231 1.883.002 2.59l8.386 4.813a4.03 4.03 0 0 0 3.654.01l9.05-5.256c1.008-.732 1.08-1.852.136-2.502zm-.408 1.963-8.999 5.224c-.91.46-2.009.46-2.939-.01l-8.369-4.805c-.724-.415-.712-.85.01-1.296l9.023-5.24a3.265 3.265 0 0 1 2.94.01l8.367 4.804c.587.344.573.87-.033 1.313zm-120.225 70.254 9.031-5.245c1.202-.741 1.232-1.884-.001-2.59l-8.387-4.814a4.03 4.03 0 0 0 -3.653-.01l-9.05 5.256c-1.202.741-1.232 1.883.001 2.59l8.386 4.814a4.033 4.033 0 0 0 3.423.117zm-3.316-.659-8.37-4.805c-.723-.414-.712-.85.01-1.295l9.024-5.24a3.265 3.265 0 0 1 2.939.01l8.369 4.804c.724.415.713.85-.01 1.296l-9.014 5.235a3.272 3.272 0 0 1 -2.948-.005zm27.741-15.435a4.03 4.03 0 0 0 3.654.009l9.05-5.256c1.202-.74 1.232-1.883-.001-2.59l-8.387-4.814a4.03 4.03 0 0 0 -3.653-.009l-9.05 5.256c-1.034.69-1.147 1.761-.262 2.422l.127.088zm-8.02-5.47c-.646-.348-.633-.856.03-1.298l9.01-5.233a3.265 3.265 0 0 1 2.94.01l8.369 4.805c.724.415.713.85-.01 1.296l-9.023 5.24c-.911.46-2.01.46-2.94-.01l-8.377-4.81zm-2.069 13.444 9.031-5.245c1.201-.74 1.231-1.883-.002-2.59l-8.386-4.814a4.03 4.03 0 0 0 -3.654-.009l-9.05 5.256c-1.201.74-1.231 1.883.002 2.59l8.386 4.813a4.033 4.033 0 0 0 3.422.118l.25-.119zm-3.316-.658-8.37-4.805c-.724-.415-.712-.85.01-1.296l9.024-5.24a3.265 3.265 0 0 1 2.939.01l8.369 4.805c.724.415.712.85-.01 1.296l-9.014 5.234a3.272 3.272 0 0 1 -2.948-.004zm-43.255 25.027-8.408-4.827a4.03 4.03 0 0 0 -3.654-.01l-9.05 5.257c-1.202.74-1.232 1.883.001 2.59l8.386 4.813a4.03 4.03 0 0 0 3.654.01l9.05-5.256c1.051-.764 1.08-1.868.02-2.576zm-.43 1.95-8.999 5.224c-.911.46-2.009.46-2.939-.01l-8.37-4.805c-.723-.415-.712-.85.011-1.296l9.023-5.24a3.265 3.265 0 0 1 2.939.01l8.358 4.798c.6.407.584.876-.023 1.319zm28.219-18.058-8.386-4.814a4.03 4.03 0 0 0 -3.654-.01l-9.05 5.256c-1.202.74-1.232 1.883.002 2.59l8.386 4.814a4.03 4.03 0 0 0 3.654.01l9.05-5.257c1.08-.256 1.123-1.8.13-2.504zm-.278 1.902-9.129 5.284c-.91.461-2.009.461-2.939-.01l-8.369-4.805c-.724-.415-.712-.85.01-1.296l9.023-5.24a3.265 3.265 0 0 1 2.94.01l8.367 4.805c.595.348.595 1.127.097 1.252zm-22.728 13.909 9.03-5.246c1.202-.74 1.232-1.883-.001-2.59l-8.386-4.813a4.03 4.03 0 0 0 -3.654-.01l-9.05 5.256c-1.202.74-1.232 1.883.001 2.59l8.386 4.814a4.033 4.033 0 0 0 3.423.117l.25-.118zm-3.317-.659-8.37-4.805c-.723-.415-.712-.85.011-1.296l9.023-5.24a3.265 3.265 0 0 1 2.939.01l8.369 4.805c.724.415.713.85-.01 1.296l-9.014 5.235a3.272 3.272 0 0 1 -2.948-.005zm95.708-55.247-8.386-4.814a4.03 4.03 0 0 0 -3.654-.01l-9.05 5.256c-1.202.741-1.232 1.884.001 2.59l8.386 4.814a4.03 4.03 0 0 0 3.654.01l9.05-5.256c1.008-.733 1.08-1.852.137-2.503zm-.408 1.962-8.999 5.225c-.911.46-2.009.46-2.939-.01l-8.369-4.806c-.724-.414-.713-.85.01-1.295l9.023-5.24a3.265 3.265 0 0 1 2.94.01l8.367 4.804c.587.344.573.87-.033 1.312zm-34.658 9.036 8.386 4.814a4.03 4.03 0 0 0 3.654.01l9.05-5.257c1.202-.74 1.232-1.883-.002-2.59l-8.386-4.813a4.03 4.03 0 0 0 -3.653-.01l-9.05 5.256c-1.009.732-1.08 1.852-.137 2.502zm.408-1.963 8.999-5.224a3.265 3.265 0 0 1 2.939.01l8.369 4.805c.724.415.712.85-.01 1.296l-9.023 5.24c-.911.461-2.01.461-2.94-.01l-8.367-4.804c-.587-.344-.573-.87.033-1.313zm56.233-16.58a4.03 4.03 0 0 0 -3.654-.009l-9.05 5.256c-1.201.74-1.231 1.883.002 2.59l8.386 4.813a4.03 4.03 0 0 0 3.654.01l9.05-5.256c1.083-.633 1.159-1.85.135-2.509l-.14-.083zm8.021 5.47c.643.347.629.912-.01 1.286l-9.031 5.245c-.911.46-2.01.46-2.94-.01l-8.368-4.805c-.724-.415-.713-.85.01-1.296l9.023-5.24a3.265 3.265 0 0 1 2.939.01zm28.249-16.751-8.387-4.814a4.03 4.03 0 0 0 -3.654-.01l-9.05 5.256c-1.201.741-1.231 1.884.002 2.59l8.386 4.814a4.03 4.03 0 0 0 3.654.01l9.05-5.256c1.008-.733 1.08-1.852.136-2.503zm-.408 1.963-9 5.224c-.91.46-2.008.46-2.938-.01l-8.37-4.806c-.723-.414-.712-.85.01-1.295l9.024-5.24a3.265 3.265 0 0 1 2.939.01l8.367 4.804c.588.344.574.87-.032 1.313zm-13.5 6.012-8.53-4.814a4.03 4.03 0 0 0 -3.652-.008l-9.05 5.255c-1.201.741-1.231 1.883.002 2.59l8.386 4.814a4.03 4.03 0 0 0 3.654.01l9.05-5.256c1.17-.67 1.277-1.821.28-2.502l-.14-.09zm-.515 1.941-9.033 5.247c-.911.46-2.01.46-2.94-.01l-8.368-4.806c-.724-.414-.713-.85.01-1.295l9.023-5.24a3.265 3.265 0 0 1 2.939.01l8.512 4.804c.621.365.595.867-.143 1.29zm-82.988 46.418-8.387-4.814a4.03 4.03 0 0 0 -3.654-.01l-9.05 5.256c-1.201.741-1.231 1.884.002 2.59l8.386 4.814a4.03 4.03 0 0 0 3.654.01l9.05-5.256c1.008-.733 1.08-1.852.136-2.503zm-.409 1.963-8.999 5.224c-.91.46-2.008.46-2.938-.01l-8.37-4.806c-.724-.414-.712-.85.01-1.295l9.024-5.24a3.265 3.265 0 0 1 2.939.01l8.367 4.804c.587.344.574.87-.033 1.313zm19.834-22.872a4.03 4.03 0 0 0 -3.654-.01l-9.05 5.256c-1.202.74-1.232 1.883.001 2.59l8.386 4.814a4.03 4.03 0 0 0 3.654.009l9.05-5.256c1.034-.69 1.147-1.761.261-2.422l-.127-.088-8.522-4.893zm8.02 5.469c.645.348.632.856-.03 1.298l-9.011 5.233c-.911.461-2.01.461-2.94-.01l-8.368-4.805c-.724-.415-.713-.85.01-1.296l9.023-5.24a3.265 3.265 0 0 1 2.939.01zm-13.468 7.393-8.387-4.815a4.03 4.03 0 0 0 -3.653-.009l-9.05 5.256c-1.202.74-1.232 1.883.001 2.59l8.386 4.813a4.03 4.03 0 0 0 3.654.01l9.05-5.256c1.008-.732 1.08-1.852.136-2.502zm-.408 1.962-9 5.224c-.91.46-2.008.46-2.938-.01l-8.37-4.805c-.723-.415-.712-.85.011-1.296l9.023-5.24a3.265 3.265 0 0 1 2.939.01l8.368 4.804c.587.344.573.87-.033 1.313zm-64.316 37.991 9.031-5.245c1.201-.74 1.231-1.883-.002-2.59l-8.386-4.814a4.03 4.03 0 0 0 -3.654-.01l-9.05 5.257c-1.201.74-1.231 1.883.002 2.59l8.386 4.813a4.033 4.033 0 0 0 3.423.118zm-3.316-.658-8.37-4.805c-.723-.415-.712-.85.01-1.296l9.024-5.24a3.265 3.265 0 0 1 2.939.01l8.369 4.805c.724.415.712.85-.01 1.296l-9.014 5.234a3.272 3.272 0 0 1 -2.948-.004z"/><path d="m183.72 303.524 9.05-5.255c1.202-.741 1.232-1.884-.001-2.59l-8.386-4.814a4.03 4.03 0 0 0 -3.654-.01l-9.05 5.256c-1.202.741-1.232 1.884.001 2.59l8.386 4.814a4.03 4.03 0 0 0 3.654.01zm-3.297-.669-8.37-4.805c-.723-.414-.712-.85.011-1.295l9.023-5.24a3.265 3.265 0 0 1 2.939.01l8.369 4.805c.724.414.713.85-.01 1.295l-9.014 5.235a3.272 3.272 0 0 1 -2.948-.005zm-9.803-3.87a4.03 4.03 0 0 0 -3.654-.01l-9.05 5.256c-1.201.74-1.231 1.883.002 2.59l8.386 4.814a4.03 4.03 0 0 0 3.654.009l9.05-5.256c1.08-.72 1.155-1.86.134-2.51l-.14-.082zm8.021 5.469c.645.348.632.856-.03 1.298l-9.011 5.233c-.912.461-2.01.461-2.94-.01l-8.368-4.805c-.724-.415-.713-.85.01-1.296l9.023-5.24a3.265 3.265 0 0 1 2.939.01zm74.339-41.034 9.032-5.246c1.201-.741 1.231-1.883-.002-2.59l-8.386-4.814a4.03 4.03 0 0 0 -3.654-.01l-9.05 5.256c-1.201.741-1.231 1.884.002 2.59l8.386 4.814a4.033 4.033 0 0 0 3.422.118l.25-.119zm-3.316-.66-8.369-4.804c-.724-.415-.712-.85.01-1.296l9.023-5.24a3.265 3.265 0 0 1 2.94.01l8.368 4.805c.724.414.713.85-.01 1.296l-9.013 5.234a3.272 3.272 0 0 1 -2.949-.004zm-1.273.585-8.386-4.815a4.03 4.03 0 0 0 -3.654-.009l-9.05 5.256c-1.201.74-1.231 1.883.002 2.59l8.386 4.813a4.03 4.03 0 0 0 3.654.01l9.05-5.256c1.055-.378 1.087-1.602.066-2.54l-.068-.05zm-.315 1.913-9.092 5.273c-.91.46-2.009.46-2.939-.01l-8.369-4.805c-.724-.415-.712-.85.01-1.296l9.023-5.24a3.265 3.265 0 0 1 2.94.01l8.331 4.784c.62.586.6 1.1.096 1.284zm38.45-6.653 9.032-5.245c1.2-.741 1.23-1.884-.002-2.59l-8.386-4.814a4.03 4.03 0 0 0 -3.654-.01l-9.05 5.256c-1.202.741-1.232 1.883.001 2.59l8.386 4.814a4.033 4.033 0 0 0 3.423.117zm-3.316-.659-8.37-4.805c-.723-.414-.712-.85.011-1.295l9.023-5.24a3.265 3.265 0 0 1 2.939.01l8.369 4.804c.724.415.713.85-.01 1.296l-9.014 5.235a3.272 3.272 0 0 1 -2.948-.005zm17.222-7.461 9.031-5.245c1.201-.74 1.231-1.883-.002-2.59l-8.386-4.814a4.03 4.03 0 0 0 -3.654-.009l-9.05 5.256c-1.201.74-1.231 1.883.002 2.59l8.386 4.813a4.033 4.033 0 0 0 3.423.118zm-3.316-.658-8.37-4.805c-.724-.415-.712-.85.01-1.296l9.024-5.24a3.265 3.265 0 0 1 2.939.01l8.369 4.805c.724.415.712.85-.01 1.296l-9.014 5.234a3.272 3.272 0 0 1 -2.948-.004zm-79.975 49.017 9.032-5.246c1.2-.74 1.23-1.883-.002-2.59l-8.386-4.814a4.03 4.03 0 0 0 -3.654-.009l-9.05 5.256c-1.202.74-1.232 1.883.001 2.59l8.386 4.813a4.033 4.033 0 0 0 3.423.118zm-3.316-.66-8.369-4.804c-.724-.415-.713-.85.01-1.296l9.023-5.24a3.265 3.265 0 0 1 2.94.01l8.368 4.805c.724.415.713.85-.01 1.296l-9.013 5.235a3.272 3.272 0 0 1 -2.949-.005zm30.985-15.436 9.03-5.245c1.202-.741 1.232-1.884-.001-2.59l-8.386-4.814a4.03 4.03 0 0 0 -3.654-.01l-9.05 5.256c-1.202.741-1.232 1.884.001 2.59l8.386 4.814a4.033 4.033 0 0 0 3.423.117l.25-.118zm-3.317-.659-8.37-4.805c-.723-.414-.712-.85.011-1.295l9.023-5.24a3.265 3.265 0 0 1 2.939.01l8.37 4.805c.723.414.712.85-.011 1.295l-9.013 5.235a3.272 3.272 0 0 1 -2.949-.005zm-10.589 8.635 9.031-5.245c1.201-.741 1.231-1.884-.002-2.59l-8.386-4.814a4.03 4.03 0 0 0 -3.654-.01l-9.05 5.256c-1.201.741-1.231 1.883.002 2.59l8.386 4.814a4.033 4.033 0 0 0 3.422.117l.25-.118zm-3.317-.659-8.369-4.805c-.724-.414-.712-.85.01-1.295l9.023-5.24a3.265 3.265 0 0 1 2.94.01l8.368 4.804c.724.415.713.85-.01 1.296l-9.013 5.235a3.272 3.272 0 0 1 -2.949-.005z"/><path d="m175.334 322.925 9.05-5.256c1.201-.74 1.231-1.883-.002-2.59l-8.386-4.813a4.03 4.03 0 0 0 -3.654-.01l-9.05 5.256c-1.201.74-1.231 1.883.002 2.59l8.386 4.814a4.03 4.03 0 0 0 3.654.01zm-3.297-.669-8.37-4.805c-.724-.415-.712-.85.01-1.296l9.024-5.24a3.265 3.265 0 0 1 2.938.01l8.37 4.805c.724.415.712.85-.01 1.296l-9.014 5.235a3.272 3.272 0 0 1 -2.948-.005zm-18.063 13.375-9.032 5.246c-1.178.726-1.178 1.934-.008 2.655l9.47 5.467a4.245 4.245 0 0 0 3.871.009l9.05-5.255c1.178-.727 1.178-1.934.008-2.656l-9.47-5.466a4.248 4.248 0 0 0 -3.642-.118zm3.53.658 9.444 5.452c.685.423.685.94-.01 1.368l-9.022 5.24a3.48 3.48 0 0 1 -3.153-.01l-9.445-5.45c-.684-.424-.684-.94.01-1.369l9.014-5.235a3.487 3.487 0 0 1 3.162.004zm10.328-8.719-9.056 5.259c-1.178.726-1.178 1.934-.008 2.655l9.47 5.467a4.245 4.245 0 0 0 3.871.009l9.187-5.108c1.184-.73 1.184-1.937.015-2.659l-9.471-5.466a4.236 4.236 0 0 0 -4.008-.156zm3.63.805 9.464 5.462c.685.423.685.94-.01 1.368l-9.16 5.093a3.481 3.481 0 0 1 -3.159-.006l-9.445-5.452c-.684-.422-.684-.94.01-1.368l9.01-5.233a3.487 3.487 0 0 1 3.29.136zm10.251-8.767-9.031 5.245c-1.178.727-1.178 1.934-.009 2.655l9.471 5.467a4.245 4.245 0 0 0 3.87.01l9.05-5.256c1.178-.726 1.178-1.934.009-2.655l-9.471-5.467a4.248 4.248 0 0 0 -3.641-.118zm3.53.658 9.445 5.452c.685.422.685.94-.01 1.368l-9.022 5.24a3.48 3.48 0 0 1 -3.153-.01l-9.445-5.451c-.685-.423-.685-.94.01-1.369l9.013-5.235a3.487 3.487 0 0 1 3.162.005zm114.686-69.074-9.05 5.256c-1.177.726-1.177 1.933-.008 2.655l9.471 5.466a4.245 4.245 0 0 0 3.87.01l9.05-5.255c1.178-.727 1.178-1.934.009-2.656l-9.471-5.466a4.245 4.245 0 0 0 -3.871-.01zm3.512.668 9.445 5.452c.685.423.685.94-.01 1.368l-9.023 5.24a3.48 3.48 0 0 1 -3.152-.01l-9.445-5.451c-.685-.423-.685-.94.01-1.368l9.013-5.235a3.487 3.487 0 0 1 3.162.004zm-100.277 55.247 9.031-5.246c1.202-.74 1.232-1.883-.002-2.59l-8.386-4.813a4.03 4.03 0 0 0 -3.653-.01l-9.05 5.256c-1.202.74-1.232 1.883.001 2.59l8.386 4.814a4.033 4.033 0 0 0 3.423.117zm-3.316-.659-8.37-4.805c-.723-.415-.712-.85.01-1.296l9.024-5.24a3.265 3.265 0 0 1 2.939.01l8.369 4.805c.724.415.712.85-.01 1.296l-9.014 5.235a3.272 3.272 0 0 1 -2.948-.005zm-13.404-4.158-9.031 5.246c-1.202.741-1.232 1.883.001 2.59l8.387 4.814a4.03 4.03 0 0 0 3.653.01l9.05-5.256c1.202-.741 1.232-1.884-.001-2.59l-8.386-4.814a4.033 4.033 0 0 0 -3.423-.118l-.25.119zm3.316.66 8.37 4.804c.723.415.712.85-.01 1.296l-9.024 5.24c-.91.461-2.009.461-2.939-.01l-8.369-4.805c-.724-.414-.713-.85.01-1.296l9.014-5.234a3.272 3.272 0 0 1 2.948.004zm82.789-36.297 9.031-5.246c1.201-.74 1.231-1.883-.002-2.59l-8.386-4.813a4.03 4.03 0 0 0 -3.654-.01l-9.05 5.256c-1.201.74-1.231 1.883.002 2.59l8.386 4.814a4.033 4.033 0 0 0 3.423.117zm-3.316-.659-8.37-4.805c-.724-.415-.712-.85.01-1.296l9.024-5.24a3.265 3.265 0 0 1 2.939.01l8.369 4.805c.724.415.712.85-.01 1.296l-9.014 5.235a3.272 3.272 0 0 1 -2.948-.005zm-13.476-3.87-9.031 5.246c-1.201.74-1.231 1.883.002 2.59l8.386 4.813a4.03 4.03 0 0 0 3.654.01l9.05-5.256c1.201-.741 1.231-1.883-.002-2.59l-8.386-4.814a4.033 4.033 0 0 0 -3.423-.117zm3.316.659 8.37 4.805c.723.414.712.85-.01 1.296l-9.024 5.24c-.91.46-2.009.46-2.939-.01l-8.369-4.805c-.724-.415-.712-.85.01-1.296l9.014-5.235a3.272 3.272 0 0 1 2.948.005zm-165.075 49.067 9.031-5.246c1.201-.741 1.231-1.883-.002-2.59l-3.582-2.082a4.031 4.031 0 0 0 -3.655-.01l-9.05 5.255c-1.202.74-1.232 1.883.001 2.59l3.582 2.082a4.034 4.034 0 0 0 3.424.119l.25-.119zm-3.317-.66-3.564-2.073c-.726-.416-.715-.85.008-1.297l9.023-5.24a3.265 3.265 0 0 1 2.939.01l3.565 2.074c.725.415.714.85-.009 1.297l-9.013 5.234a3.272 3.272 0 0 1 -2.949-.004zm17.939-7.82 9.031-5.245c1.202-.74 1.232-1.883-.001-2.59l-3.582-2.082a4.031 4.031 0 0 0 -3.656-.01l-9.05 5.255c-1.202.74-1.232 1.883.002 2.59l3.581 2.082a4.034 4.034 0 0 0 3.425.119zm-3.316-.658-3.565-2.074c-.726-.416-.714-.85.008-1.297l9.023-5.24a3.265 3.265 0 0 1 2.94.01l3.564 2.074c.726.416.714.85-.008 1.297l-9.014 5.234a3.272 3.272 0 0 1 -2.948-.004zm17.489-7.595 9.05-5.255c1.202-.741 1.232-1.884-.001-2.59l-3.582-2.082a4.031 4.031 0 0 0 -3.656-.01l-9.05 5.255c-1.201.74-1.231 1.883.002 2.59l3.582 2.082c1.162.59 2.512.59 3.655.01zm-3.297-.669-3.565-2.073c-.726-.416-.714-.851.009-1.297l9.023-5.24a3.265 3.265 0 0 1 2.939.01l3.564 2.074c.726.415.715.85-.008 1.296l-9.013 5.235a3.272 3.272 0 0 1 -2.949-.005zm17.939-7.748 9.031-5.245c1.201-.741 1.231-1.884-.002-2.59l-3.582-2.082a4.031 4.031 0 0 0 -3.655-.01l-9.05 5.255c-1.202.74-1.232 1.883.001 2.59l3.582 2.082a4.034 4.034 0 0 0 3.425.118zm-3.316-.659-3.565-2.073c-.726-.416-.715-.851.008-1.297l9.023-5.24a3.265 3.265 0 0 1 2.939.01l3.565 2.074c.726.415.714.85-.009 1.296l-9.013 5.235a3.272 3.272 0 0 1 -2.948-.005zm17.417-7.666 9.05-5.255c1.202-.741 1.232-1.884-.001-2.59l-3.582-2.083a4.031 4.031 0 0 0 -3.656-.01l-9.05 5.256c-1.201.74-1.231 1.883.002 2.59l3.582 2.082c1.162.59 2.512.59 3.655.01zm-3.297-.669-3.565-2.073c-.725-.416-.714-.851.009-1.297l9.023-5.24a3.265 3.265 0 0 1 2.939.01l3.565 2.073c.725.416.714.851-.009 1.297l-9.013 5.235a3.272 3.272 0 0 1 -2.949-.005zm17.939-7.676 9.031-5.246c1.201-.74 1.231-1.883-.002-2.59l-3.581-2.082a4.031 4.031 0 0 0 -3.656-.01l-9.05 5.256c-1.202.74-1.232 1.883.001 2.59l3.582 2.082a4.034 4.034 0 0 0 3.425.118zm-3.316-.659-3.565-2.073c-.726-.416-.715-.851.008-1.297l9.023-5.24a3.265 3.265 0 0 1 2.94.01l3.564 2.073c.726.416.714.851-.008 1.297l-9.014 5.235a3.272 3.272 0 0 1 -2.948-.005zm17.652-7.604 9.031-5.246c1.201-.74 1.231-1.883-.002-2.59l-3.582-2.082a4.031 4.031 0 0 0 -3.655-.01l-9.05 5.255c-1.202.741-1.232 1.884.001 2.59l3.582 2.082a4.034 4.034 0 0 0 3.424.119l.25-.118zm-3.317-.66-3.564-2.073c-.726-.415-.715-.85.008-1.296l9.023-5.24a3.265 3.265 0 0 1 2.939.01l3.565 2.073c.725.416.714.851-.009 1.297l-9.013 5.235a3.272 3.272 0 0 1 -2.949-.005zm26.97-13.065c1.202-.74 1.232-1.883-.001-2.59l-3.582-2.082a4.031 4.031 0 0 0 -3.656-.01l-8.848 5.623c-1.189.733-1.219 1.875.015 2.581l3.581 2.083c1.043.356 2.116.296 3.046-.136l.212-.107zm-.385-.643-9.033 5.246a3.272 3.272 0 0 1 -2.765.322l-3.514-2.052c-.726-.416-.714-.851.008-1.297l8.821-5.607a3.262 3.262 0 0 1 2.926.018l3.565 2.073c.726.416.714.851-.008 1.297zm5.546-2.375 9.032-5.245c1.201-.74 1.23-1.883-.002-2.59l-3.582-2.082a4.031 4.031 0 0 0 -3.656-.01l-9.05 5.255c-1.201.741-1.231 1.883.002 2.59l3.582 2.082a4.034 4.034 0 0 0 3.424.119zm-3.316-.658-3.565-2.074c-.726-.415-.714-.85.009-1.297l9.023-5.24a3.265 3.265 0 0 1 2.939.01l3.564 2.074c.726.416.715.85-.008 1.297l-9.013 5.234a3.272 3.272 0 0 1 -2.949-.004zm17.938-7.749 9.032-5.245c1.201-.74 1.231-1.883-.002-2.59l-3.582-2.082a4.031 4.031 0 0 0 -3.655-.01l-9.05 5.255c-1.202.741-1.232 1.883.001 2.59l3.582 2.082a4.034 4.034 0 0 0 3.425.119l.25-.119zm-3.315-.658-3.565-2.074c-.726-.415-.715-.85.008-1.296l9.023-5.24a3.265 3.265 0 0 1 2.939.01l3.565 2.073c.726.416.714.85-.009 1.297l-9.013 5.235a3.272 3.272 0 0 1 -2.948-.005zm17.436-7.533 9.032-5.245c1.201-.741 1.231-1.884-.002-2.59l-3.582-2.082a4.031 4.031 0 0 0 -3.656-.01l-9.05 5.255c-1.201.74-1.231 1.883.002 2.59l3.582 2.082a4.034 4.034 0 0 0 3.424.118zm-3.316-.659-3.565-2.073c-.725-.416-.714-.851.009-1.297l9.023-5.24a3.265 3.265 0 0 1 2.939.01l3.565 2.074c.725.415.714.85-.009 1.296l-9.013 5.235a3.272 3.272 0 0 1 -2.949-.005zm18.225-7.747 9.032-5.246c1.201-.741 1.231-1.884-.002-2.59l-3.582-2.082a4.031 4.031 0 0 0 -3.655-.01l-9.05 5.255c-1.202.74-1.232 1.883.001 2.59l3.582 2.082a4.034 4.034 0 0 0 3.424.118l.25-.118zm-3.316-.66-3.564-2.073c-.726-.416-.715-.851.008-1.297l9.023-5.24a3.265 3.265 0 0 1 2.939.01l3.565 2.074c.725.415.714.85-.009 1.296l-9.013 5.235a3.272 3.272 0 0 1 -2.949-.005zm17.652-7.676 9.032-5.245c1.2-.741 1.23-1.884-.002-2.59l-3.582-2.083a4.031 4.031 0 0 0 -3.656-.01l-9.05 5.256c-1.201.74-1.231 1.883.002 2.59l3.582 2.082a4.034 4.034 0 0 0 3.424.118zm-3.316-.659-3.565-2.073c-.726-.416-.714-.851.009-1.297l9.023-5.24a3.265 3.265 0 0 1 2.939.01l3.564 2.073c.726.416.715.851-.008 1.297l-9.013 5.235a3.272 3.272 0 0 1 -2.949-.005zm26.683-12.993c1.202-.741 1.232-1.884-.002-2.59l-3.581-2.083a4.031 4.031 0 0 0 -3.656-.01l-9.335 5.326c-1.203.742-1.233 1.885 0 2.591l3.582 2.083a4.03 4.03 0 0 0 3.745.047l.217-.12zm-9.41 4.598a3.272 3.272 0 0 1 -3.216.064l-3.573-2.077c-.726-.416-.714-.851.009-1.297l9.307-5.31a3.265 3.265 0 0 1 2.941.008l3.565 2.073c.726.416.714.851-.008 1.297l-9.026 5.242zm-162.189 123.663 15.84-9.126c1.203-.741 1.233-1.884 0-2.59l-8.386-4.814a4.03 4.03 0 0 0 -3.654-.01l-15.859 9.136c-1.202.741-1.232 1.883.001 2.59l8.386 4.814a4.033 4.033 0 0 0 3.423.117zm-3.315-.66-8.37-4.805c-.723-.414-.712-.85.011-1.295l15.831-9.12a3.265 3.265 0 0 1 2.94.01l8.37 4.804c.723.415.712.85-.01 1.296l-15.823 9.115a3.272 3.272 0 0 1 -2.95-.005zm15.931 7.988 19.353-11.209c1.202-.741 1.232-1.883-.001-2.59l-8.386-4.814a4.03 4.03 0 0 0 -3.654-.01l-19.372 11.22c-1.202.741-1.232 1.884.002 2.59l8.386 4.814a4.033 4.033 0 0 0 3.422.117zm-3.316-.659-8.369-4.805c-.724-.414-.712-.85.01-1.295l19.345-11.204a3.265 3.265 0 0 1 2.939.01l8.37 4.805c.723.414.712.85-.011 1.296l-19.335 11.198a3.272 3.272 0 0 1 -2.949-.005zm15.841 7.927 26.54-15.387c1.201-.741 1.231-1.884-.002-2.59l-8.386-4.814a4.03 4.03 0 0 0 -3.654-.01l-26.54 15.388c-1.2.74-1.23 1.883.002 2.59l8.386 4.813a4.03 4.03 0 0 0 3.654.01zm-3.297-.67-8.37-4.804c-.723-.415-.712-.85.011-1.296l26.512-15.372c.912-.46 2.01-.46 2.94.01l8.369 4.805c.724.415.712.85-.01 1.296l-26.503 15.366a3.272 3.272 0 0 1 -2.949-.004zm58.061-30.672-12.472 7.186c-1.202.741-1.232 1.884 0 2.59l9.89 5.747c1.163.59 2.513.59 3.656.01l12.49-7.194c1.202-.742 1.232-1.884-.001-2.59l-9.89-5.748a4.034 4.034 0 0 0 -3.424-.118l-.25.117zm3.315.66 9.873 5.738c.725.416.714.85-.009 1.297l-12.462 7.18a3.265 3.265 0 0 1 -2.94-.01l-9.873-5.738c-.726-.416-.714-.851.008-1.297l12.454-7.175a3.272 3.272 0 0 1 2.949.005zm83.273-50.742-12.472 7.185c-1.203.742-1.233 1.884 0 2.59l9.89 5.748c1.162.59 2.512.59 3.656.01l12.49-7.195c1.202-.741 1.232-1.884-.001-2.59l-9.89-5.747a4.034 4.034 0 0 0 -3.424-.119l-.25.118zm3.315.66 9.872 5.737c.726.416.715.851-.008 1.297l-12.463 7.18a3.265 3.265 0 0 1 -2.94-.01l-9.872-5.738c-.726-.416-.715-.85.008-1.297l12.454-7.174a3.272 3.272 0 0 1 2.949.004zm6.145-62.177a4.023 4.023 0 0 0 -3.637 0l-16.29 9.423c-1.2.74-1.23 1.883.002 2.59l8.386 4.814a4.03 4.03 0 0 0 3.654.009l16.29-9.423c1.201-.741 1.231-1.883-.002-2.59zm8.03 5.474c.724.414.712.85-.01 1.295l-16.262 9.408a3.265 3.265 0 0 1 -2.94-.01l-8.37-4.805c-.723-.415-.712-.85.011-1.296l16.262-9.407a3.261 3.261 0 0 1 2.73-.087l.201.092zm13.349 9.112-19.587 11.363c-1.201.741-1.231 1.884.002 2.59l8.386 4.814a4.03 4.03 0 0 0 3.654.01l19.587-11.364c1.201-.74 1.231-1.883-.002-2.59l-8.386-4.813a4.03 4.03 0 0 0 -3.654-.01zm3.297.67 8.37 4.804c.723.415.712.85-.01 1.296l-19.56 11.348c-.912.46-2.01.46-2.94-.01l-8.368-4.805c-.724-.415-.713-.85.01-1.296l19.55-11.343a3.272 3.272 0 0 1 2.948.005zm9.227 6.598-26.163 15.305c-1.2.74-1.23 1.883.003 2.59l8.386 4.814a4.03 4.03 0 0 0 3.654.009l26.468-15.315c1.202-.741 1.232-1.884-.001-2.59l-8.387-4.815a4.025 4.025 0 0 0 -3.736-.117l-.224.118zm3.59.65 8.383 4.813c.724.415.713.85-.01 1.296l-26.44 15.3a3.265 3.265 0 0 1 -2.94-.01l-8.37-4.805c-.723-.415-.712-.85.011-1.296l26.153-15.299a3.272 3.272 0 0 1 3.212.002zm-12.19 26.439-9.032 5.245c-1.201.741-1.231 1.884.002 2.59l3.368 1.94a4.03 4.03 0 0 0 3.654.01l9.05-5.256c1.202-.741 1.232-1.884-.001-2.59l-3.368-1.94a4.034 4.034 0 0 0 -3.423-.117zm3.316.659 3.35 1.93c.725.415.714.85-.009 1.296l-9.023 5.24c-.91.461-2.009.461-2.939-.01l-3.351-1.93c-.724-.415-.713-.85.01-1.296l9.013-5.235a3.272 3.272 0 0 1 2.949.005zm24.424-16.683-9.032 5.246c-1.202.74-1.232 1.883.002 2.59l3.368 1.939a4.03 4.03 0 0 0 3.654.01l9.05-5.256c1.202-.74 1.232-1.883-.002-2.59l-3.368-1.94a4.034 4.034 0 0 0 -3.423-.117l-.25.118zm3.315.66 3.351 1.93c.725.415.713.85-.01 1.296l-9.022 5.24c-.911.46-2.01.46-2.94-.01l-3.35-1.93c-.725-.416-.713-.851.01-1.297l9.013-5.235a3.272 3.272 0 0 1 2.948.005zm-23.745 3.58-9.03 5.245c-1.202.741-1.232 1.883.001 2.59l9.89 5.747c1.162.59 2.512.59 3.655.01l9.05-5.255c1.202-.741 1.232-1.884-.001-2.59l-9.89-5.747a4.034 4.034 0 0 0 -3.424-.119l-.25.119zm3.317.658 9.873 5.739c.725.415.714.85-.009 1.296l-9.023 5.24c-.911.461-2.009.461-2.939-.01l-9.872-5.738c-.726-.415-.715-.85.008-1.297l9.013-5.234a3.272 3.272 0 0 1 2.949.004zm-62.594 33.688-64.51 37.364c-1.202.741-1.232 1.884 0 2.59l9.89 5.747c1.163.59 2.513.59 3.656.01l64.53-37.374c1.2-.74 1.23-1.883-.002-2.59l-9.89-5.747a4.034 4.034 0 0 0 -3.424-.118zm3.316.659 9.872 5.738c.726.416.715.85-.008 1.297l-64.502 37.359a3.265 3.265 0 0 1 -2.94-.01l-9.872-5.738c-.726-.416-.714-.851.009-1.297l64.492-37.354a3.272 3.272 0 0 1 2.949.005z"/></g><path d="m423.61 266.082v6.458a5.891 5.891 0 0 1 -3.517 4.736l-203.787 118.18a16.77 16.77 0 0 1 -8.174 2.008 12.756 12.756 0 0 1 -6.238-1.435l-131.15-75.772a4.305 4.305 0 0 1 -2.437-3.444v-4.52a7.812 7.812 0 0 1 -3.8 1.219 3.87 3.87 0 0 1 -2.224-.646l-5.162-2.87a4.234 4.234 0 0 1 -1.936-3.947v-151.473a16.074 16.074 0 0 1 7.744-12.198l204.073-117.964a7.812 7.812 0 0 1 3.8-1.22v.072a3.87 3.87 0 0 1 2.08.574l5.306 3.014" stroke="#014242"/><path d="m69.988 157.055v139.466l203.112-115.539v-139.768z" stroke="#014242"/><path d="m458 233h20v24h-20z" fill="#014242" fill-rule="nonzero"/><path d="m490 213h20v44h-20zm32-16h20v60h-20zm-96 0h20v60h-20zm-32-12h20v72h-20zm-32 12h20v60h-20z" fill="#00d36a" fill-rule="nonzero"/><path d="m468.513 58.028c31.182 0 56.46 25.174 56.46 56.229 0 35.334-56.46 93.716-56.46 93.716s-56.46-58.57-56.46-93.716c0-31.055 25.278-56.23 56.46-56.23z" fill="#014242"/><path d="m445.419 101.435c0 3.89 2.256 6.789 6.561 6.789 1.573 0 3.105-.352 4.367-.973v-6.127h-2.566v4.637c-.538.082-1.077.144-1.553.144-2.939 0-3.911-2.297-3.911-4.719 0-1.5.348-2.835 1.234-3.78l.173-.173c.58-.58 1.366-.993 2.587-.993 1.076 0 2.008.248 2.98.703l.973-2.007c-1.138-.642-2.38-1.035-3.911-1.035-4.678 0-6.934 3.663-6.934 7.534zm12.915 1.863c0 2.877 1.718 4.988 4.574 4.988 3.209 0 4.968-2.525 4.968-5.444 0-2.856-1.677-5.07-4.554-5.07-3.187 0-4.988 2.628-4.988 5.526zm6.748-.125c0 1.077-.228 1.925-.663 2.443-.227.269-.641.538-1.262.538-1.325 0-2.008-1.283-2.008-3.188 0-1.159.27-2.028.662-2.525.228-.29.642-.538 1.263-.538 1.345 0 2.008 1.366 2.008 3.27zm4.491.125c0 2.877 1.718 4.988 4.574 4.988 3.208 0 4.968-2.525 4.968-5.444 0-2.856-1.677-5.07-4.554-5.07-3.187 0-4.988 2.628-4.988 5.526zm6.747-.125c0 1.077-.227 1.925-.662 2.443-.228.269-.642.538-1.262.538-1.325 0-2.008-1.283-2.008-3.188 0-1.159.269-2.028.662-2.525.228-.29.642-.538 1.263-.538 1.345 0 2.007 1.366 2.007 3.27zm9.128 2.94c-1.2 0-1.821-1.201-1.821-3.147 0-1.014.186-1.966.683-2.545.29-.31.703-.497 1.386-.497a3.8 3.8 0 0 1 1.656.393v4.968c-.662.538-1.324.827-1.904.827zm-4.636-2.733c.02 2.836 1.738 4.906 3.994 4.906 1.118 0 2.05-.518 2.877-1.428l.414 1.262 2.194-.29-.112-1.824a36.56 36.56 0 0 1 -.074-2.108v-11.446l-2.753.041v5.94c-.58-.413-1.2-.662-2.007-.662-2.691 0-4.533 2.753-4.533 5.61zm-43.051 15.676-.6 3.001h-1.304v2.111h1.428v4.678c0 2.546 1.014 3.373 2.815 3.373a8.697 8.697 0 0 0 3.084-.579l-.456-1.863c-.58.124-1.159.186-1.51.186-.932 0-1.201-.372-1.201-1.862v-3.933h2.939v-2.111h-2.94v-3.001zm7.265 3.022v9.914h2.752v-9.956zm-.125-3.084c0 .828.58 1.386 1.49 1.386.973 0 1.615-.641 1.615-1.552 0-.848-.58-1.428-1.47-1.428-.993 0-1.635.642-1.635 1.594zm7.68 2.897-2.195.29.09 1.355c.084 1.42.097 2.157.097 2.805v5.65h2.752v-7.223c.642-.496 1.366-.828 2.029-.828.848 0 1.138.58 1.138 2.174v5.878h2.732v-6.665c0-.186 0-.372-.02-.538.641-.497 1.366-.849 2.049-.849.811 0 1.112.53 1.136 1.972l.002 6.08h2.732v-6.665c0-2.36-.952-3.56-2.96-3.56-1.345 0-2.36.518-3.29 1.532-.435-1.014-1.305-1.532-2.609-1.532-1.345 0-2.338.518-3.25 1.49l-.434-1.366zm14.715 5.444c0 3.125 1.863 4.884 4.637 4.884 1.283 0 2.607-.29 3.829-.848l-.58-1.76c-.87.311-1.925.456-2.753.456-1.345 0-2.194-.704-2.36-2.318h5.796c.104-.497.166-1.16.166-1.697 0-2.463-1.242-4.243-3.891-4.243-3.043 0-4.844 2.442-4.844 5.526zm4.678-3.477c1.014 0 1.49.641 1.49 1.676 0 .166 0 .393-.02.58h-3.354c.166-1.428.746-2.256 1.884-2.256zm11.632-4.802-.6 3.001h-1.304v2.111h1.428v4.678c0 2.546 1.014 3.373 2.815 3.373a8.697 8.697 0 0 0 3.084-.579l-.456-1.863c-.58.124-1.159.186-1.51.186-.891 0-1.176-.34-1.2-1.674l-.001-4.12h2.94v-2.112h-2.94v-3.001zm6.747 8.237c0 2.877 1.718 4.989 4.575 4.989 3.208 0 4.967-2.526 4.967-5.444 0-2.856-1.677-5.07-4.553-5.07-3.188 0-4.989 2.628-4.989 5.525zm6.748-.124c0 1.077-.228 1.925-.662 2.443-.228.269-.642.538-1.263.538-1.325 0-2.008-1.284-2.008-3.188 0-1.159.27-2.028.663-2.525.227-.29.641-.538 1.262-.538 1.346 0 2.008 1.366 2.008 3.27zm-44.252 18.884-2.152 7.368h-.083a17.59 17.59 0 0 0 -.497-2.277l-1.51-5.091h-2.795c0 .414.083.807.207 1.18l3.043 8.775 3.042-.041 3.188-8.734c.124-.352.227-.745.227-1.18zm4.492.02v9.915h2.753v-9.956l-2.753.042zm-.124-3.083c0 .828.58 1.386 1.49 1.386.973 0 1.614-.641 1.614-1.552 0-.849-.58-1.428-1.47-1.428-.993 0-1.634.642-1.634 1.594zm5.298 5.981c.02 1.547 1.161 2.22 2.477 2.729l.726.278c.888.349 1.578.688 1.578 1.257 0 .58-.662.89-1.573.89-.89 0-1.78-.27-2.628-.766l-.952 1.697c1.055.745 2.338 1.16 3.808 1.16 2.566 0 4.16-1.284 4.16-3.188 0-1.586-1.146-2.254-2.592-2.82l-.913-.35c-.791-.317-1.297-.607-1.297-1.135 0-.455.414-.807 1.304-.807.704 0 1.49.248 2.215.662l.973-1.677c-.87-.641-1.884-1.076-3.23-1.076-2.276 0-4.097 1.2-4.056 3.146zm9.728-2.897v9.914h2.753v-9.956zm-.124-3.084c0 .828.58 1.386 1.49 1.386.973 0 1.614-.641 1.614-1.552 0-.849-.58-1.428-1.47-1.428-.993 0-1.634.642-1.634 1.594zm6.768.062-.6 3h-1.304v2.112h1.428v4.678c0 2.546 1.014 3.373 2.815 3.373a8.697 8.697 0 0 0 3.084-.58l-.456-1.862c-.58.124-1.159.186-1.51.186-.932 0-1.201-.372-1.201-1.862v-3.933h2.939v-2.111h-2.939v-3.001zm7.513-.932.207 9.728h2.318l.207-9.728zm-.165 12.584c0-.89.62-1.51 1.552-1.51.91 0 1.51.58 1.51 1.428 0 .972-.62 1.593-1.572 1.593-.89 0-1.49-.6-1.49-1.51z" fill="#fff" fill-rule="nonzero"/></g></svg>