<svg xmlns="http://www.w3.org/2000/svg" xmlns:xlink="http://www.w3.org/1999/xlink" viewBox="0 0 630 630">
  <defs/>
  <defs>
    <path id="a" d="M84.428 283.496h415.796V21.804H84.428z"/>
    <path id="d" d="M117 290h350V63H117z"/>
    <filter id="c" width="111.4%" height="117.6%" x="-5.7%" y="-8.4%" filterUnits="objectBoundingBox">
      <feOffset dy="1" in="SourceAlpha" result="shadowOffsetOuter1"/>
      <feGaussianBlur in="shadowOffsetOuter1" result="shadowBlurOuter1" stdDeviation="6.5"/>
      <feColorMatrix in="shadowBlurOuter1" values="0 0 0 0 0 0 0 0 0 0 0 0 0 0 0 0 0 0 0.133304196 0"/>
    </filter>
  </defs>
  <g fill="none" fill-rule="evenodd">
    <g transform="translate(45 149)">
      <path stroke="#014242" d="M522.472 300.795V16.769C522.472 7.546 514.915 0 505.679 0H79.555c-9.236 0-16.793 7.546-16.793 16.769v284.026H2.099c-1.154 0-2.099.943-2.099 2.096v12.89c0 .84.525 1.573 1.26 1.992 8.71 6.393 19.207 9.747 30.017 9.642h522.365c10.81.105 21.41-3.353 30.122-9.747.63-.314 1.05-1.048 1.05-1.886V302.89c.105-1.153-.84-2.096-1.994-2.096h-60.348zM63.18 300.795h459.65M1.03 316.684h583.792"/>
      <mask id="b" fill="#fff">
        <use xlink:href="#a"/>
      </mask>
      <g fill-rule="nonzero">
        <use fill="#014242" xlink:href="#a"/>
        <path fill="#F5F5F5" fill-rule="evenodd" stroke="#014242" d="M83.928 283.996V21.304h416.796v262.692H83.928z"/>
      </g>
      <g fill-rule="nonzero" mask="url(#b)">
        <use fill="#000" filter="url(#c)" xlink:href="#d"/>
        <use fill="#FFF" xlink:href="#d"/>
      </g>
      <path fill="#F8F8F8" fill-rule="nonzero" d="M157.503 133h268.994c.83 0 1.503.764 1.503 1.706v25.588c0 .942-.673 1.706-1.503 1.706H157.503c-.83 0-1.503-.764-1.503-1.706v-25.588c0-.942.673-1.706 1.503-1.706zM157.503 178h268.994c.83 0 1.503.764 1.503 1.706v25.588c0 .942-.673 1.706-1.503 1.706H157.503c-.83 0-1.503-.764-1.503-1.706v-25.588c0-.942.673-1.706 1.503-1.706z" mask="url(#b)"/>
      <path stroke="#014242" d="M156.525 225h93.95c.29 0 .525.764.525 1.706v25.588c0 .942-.235 1.706-.525 1.706h-93.95c-.29 0-.525-.764-.525-1.706v-25.588c0-.942.235-1.706.525-1.706z" mask="url(#b)"/>
      <path fill="#00d36a" fill-rule="nonzero" d="M262.525 225h93.95c.29 0 .525.764.525 1.706v25.588c0 .942-.235 1.706-.525 1.706h-93.95c-.29 0-.525-.764-.525-1.706v-25.588c0-.942.235-1.706.525-1.706z" mask="url(#b)"/>
      <g fill-rule="nonzero" mask="url(#b)">
        <path fill="#014242" d="M162.257 102.344c-.33 0-.704-.022-1.078-.044v-4.73c.55-.066 1.122-.088 1.518-.088 1.98 0 3.014.748 3.014 2.288 0 1.166-.55 1.804-1.276 2.178-.572.286-1.298.396-2.178.396zm-4.026-6.974V110h2.948v-5.368c.462.044.946.066 1.276.066.308 0 .616-.022.924-.044L166.26 110h3.014c-.088-.44-.352-.99-.638-1.518l-2.574-4.554c1.716-.88 2.706-2.464 2.706-4.422 0-3.014-2.508-4.488-6.314-4.488-1.364 0-2.97.154-4.224.352zm13.228-.11V110h9.262l-.11-2.376h-6.204v-3.96h4.862v-2.354h-4.862v-3.674h6.138l.11-2.376h-9.196zm22.16 0l-2.596 11.286h-.11l-.55-2.772-2.222-8.514h-4.026l-1.518 12.738-.123.894a8.737 8.737 0 00-.097 1.108h2.662l1.188-11.396h.088l.616 2.948 2.156 8.448h3.498l2.728-11.374h.088l.264 2.948 1.012 8.426h2.706c0-.572-.088-1.166-.176-1.782l-1.562-12.958h-4.026zm7.486 7.568c0 4.092 2.266 7.48 6.578 7.48 4.466 0 6.776-3.74 6.776-7.876 0-4.092-2.244-7.48-6.556-7.48-4.51 0-6.798 3.74-6.798 7.876zm10.274-.242c0 1.628-.418 3.454-1.562 4.51-.418.418-1.056.748-2.002.748-2.42 0-3.63-2.42-3.63-5.192 0-1.558.393-3.234 1.4-4.287l.184-.179c.418-.44 1.078-.77 2.024-.77 2.398 0 3.586 2.354 3.586 5.17zm3.747-7.326l.088 2.398h4.29V110h2.948V97.658h4.29l.11-2.398h-11.726zm13.668 0V110h9.262l-.11-2.376h-6.204v-3.96h4.862v-2.354h-4.862v-3.674h6.138l.11-2.376h-9.196zm15.347 4.114c0 2.728 2.222 3.608 4.334 4.444l.399.147c1.364.511 2.373.994 2.373 2.119 0 1.254-1.254 1.76-2.728 1.76-1.364 0-2.75-.374-3.894-.924l-.946 2.112c1.122.682 2.948 1.276 4.928 1.276 3.212 0 5.698-1.518 5.698-4.466 0-2.624-2.07-3.552-4.32-4.448l-.605-.238c-1.276-.508-2.203-.986-2.203-2.046 0-1.32 1.32-1.694 2.618-1.694 1.21 0 2.376.286 3.278.594l.814-2.068c-1.1-.594-2.574-.99-4.158-.99-2.992 0-5.588 1.408-5.588 4.422zm12.458-4.114V110h2.948V95.26h-2.948zm5.396 7.766c0 4.136 2.398 7.216 6.974 7.216 1.672 0 3.3-.374 4.642-1.034v-6.512h-2.728v4.928c-.572.088-1.144.154-1.65.154-3.124 0-4.158-2.442-4.158-5.016 0-1.694.418-3.19 1.496-4.202.616-.616 1.452-1.056 2.75-1.056 1.144 0 2.134.264 3.168.748l1.034-2.134c-1.21-.682-2.53-1.1-4.158-1.1-4.972 0-7.37 3.894-7.37 8.008zm14.306-7.766V110h2.596v-8.47l-.11-2.508h.044l1.1 2.31 5.082 8.668h3.19V95.26h-2.618v8.25l.132 2.772h-.044l-1.166-2.486-4.994-8.536h-3.212zm14.725 8.272v2.156h4.994v-2.156h-4.994zm7.816-8.272V110h2.948V95.26h-2.948zm6.144 0h3.212l4.994 8.536 1.166 2.486h.044l-.132-2.772v-8.25h2.618V110h-3.19l-5.082-8.668-1.1-2.31h-.044l.11 2.508V110h-2.596V95.26z"/>
        <path fill="#00d36a" d="M328.979 98.428h.088l.792 3.124.836 2.728h-3.542l1.826-5.852zm-1.628-3.124l-4.576 13.332a4.886 4.886 0 00-.286 1.364h2.86l1.078-3.41h4.994l1.056 3.41h2.838a6.113 6.113 0 00-.227-1.15l-4.371-13.634-3.366.088zm18.596-.044l-3.542 11.506h-.11l-.858-3.3-2.574-8.206h-3.014c.022.638.264 1.386.594 2.266l4.158 12.518 3.432-.088 4.29-12.452.183-.55c.2-.63.355-1.215.39-1.694h-2.949zm9.84 3.168h.088l.792 3.124.836 2.728h-3.542l1.826-5.852zm-1.628-3.124l-4.576 13.332a4.886 4.886 0 00-.286 1.364h2.86l1.078-3.41h4.994l1.056 3.41h2.838a6.113 6.113 0 00-.227-1.15l-4.37-13.634-3.367.088zm9.84-.044V110h2.949V95.26H364zm6.145 0V110h8.624l-.132-2.398h-5.544V95.26h-2.948zm15.604 3.168h.088l.792 3.124.836 2.728h-3.542l1.826-5.852zm-1.628-3.124l-4.576 13.332a4.886 4.886 0 00-.286 1.364h2.86l1.078-3.41h4.994l1.056 3.41h2.838a6.113 6.113 0 00-.227-1.15l-4.37-13.634-3.367.088zm9.84.066v14.542c1.409.176 2.97.33 4.269.33 4.224 0 6.424-1.716 6.424-4.554 0-1.892-1.012-3.146-2.882-3.608 1.43-.748 2.068-1.98 2.068-3.388 0-2.398-2.024-3.652-5.632-3.652-1.474 0-3.036.154-4.246.33zm4.313 5.962l-1.163-.02c-.079-.002-.16-.002-.245-.002v-3.85a10.42 10.42 0 011.386-.088c1.738 0 2.64.572 2.64 1.914 0 .682-.242 1.298-.836 1.672-.374.242-.858.374-1.782.374zm.22 6.556c-.462 0-1.012-.022-1.628-.066v-4.312c.572-.022 1.122-.022 1.518-.022 2.31 0 3.256.77 3.256 2.156 0 .704-.286 1.342-.902 1.76-.44.308-1.056.484-2.244.484zm8.52-12.628V110h8.624l-.132-2.398h-5.544V95.26h-2.948zm10.544 0h9.196l-.11 2.376h-6.138v3.674h4.862v2.354h-4.862v3.96h6.204l.11 2.376h-9.262V95.26z"/>
      </g>
      <path fill="#014242" fill-rule="nonzero" d="M286.232 236.306c0 2.232 1.818 2.952 3.546 3.636l.553.207c1 .389 1.715.79 1.715 1.647 0 1.026-1.026 1.44-2.232 1.44-1.116 0-2.25-.306-3.186-.756l-.774 1.728c.918.558 2.412 1.044 4.032 1.044 2.628 0 4.662-1.242 4.662-3.654 0-2.14-1.682-2.901-3.518-3.632l-.56-.222c-1.02-.408-1.754-.8-1.754-1.654 0-1.08 1.08-1.386 2.142-1.386.99 0 1.944.234 2.682.486l.666-1.692c-.9-.486-2.106-.81-3.402-.81-2.448 0-4.572 1.152-4.572 3.618zm9.977.072V245h2.394v-8.658l-2.394.036zm-.108-2.682c0 .72.504 1.206 1.296 1.206.846 0 1.404-.558 1.404-1.35 0-.738-.504-1.242-1.278-1.242-.864 0-1.422.558-1.422 1.386zm4.991 10.062c0 .396.108.72.306.954-.882.612-1.458 1.368-1.476 2.304-.018 1.674 1.584 2.556 3.78 2.556 2.844 0 4.716-1.314 4.716-3.348 0-1.562-1.171-2.421-3.32-2.513l-.587-.016c-.873-.033-1.385-.157-1.385-.765 0-.18.054-.342.144-.486.198.018.396.036.612.036 2.448 0 3.87-1.386 3.87-3.222 0-.612-.18-1.188-.522-1.692.468-.09.954-.162 1.422-.198l-.018-1.854a4.21 4.21 0 00-2.592 1.044c-.504-.252-1.116-.396-1.836-.396-2.52 0-3.834 1.566-3.834 3.33 0 1.098.54 2.088 1.62 2.61-.576.486-.9 1.008-.9 1.656zm2.988 4.05c-1.278 0-2.106-.324-2.106-1.152 0-.45.234-.864.666-1.242.42.105.878.135 1.29.142l.24.002c1.242.018 2.142.162 2.142.972 0 .378-.18.666-.486.882-.342.252-.936.396-1.746.396zm1.422-8.46c0 .936-.54 1.512-1.44 1.512-1.008 0-1.458-.576-1.458-1.566 0-.918.54-1.512 1.44-1.512 1.026 0 1.458.612 1.458 1.566zm6.341-3.132l-1.908.252.12 2.13c.029.59.04 1.002.042 1.376V245h2.394v-6.282c.594-.45 1.242-.72 1.872-.72.828 0 1.08.54 1.08 1.782V245h2.376v-5.886c0-1.962-.828-3.006-2.718-3.006-1.17 0-2.07.414-2.898 1.26l-.36-1.152zm11.585.162V245h2.394v-8.658l-2.394.036zm-.108-2.682c0 .72.504 1.206 1.296 1.206.846 0 1.404-.558 1.404-1.35 0-.738-.504-1.242-1.278-1.242-.864 0-1.422.558-1.422 1.386zm4.577 2.772l1.908-.252.36 1.152c.828-.846 1.728-1.26 2.898-1.26 1.89 0 2.718 1.044 2.718 3.006V245h-2.376v-5.22c0-1.242-.252-1.782-1.08-1.782-.63 0-1.278.27-1.872.72V245h-2.394l-.003-5.256c-.01-.672-.052-1.532-.16-3.276zM179.433 239.222c0 3.456 1.962 5.976 5.49 5.976 1.368 0 2.61-.306 3.6-.81l-.594-1.764a6.898 6.898 0 01-2.556.522c-2.592 0-3.42-2.016-3.42-4.086 0-1.296.342-2.61 1.152-3.438.504-.522 1.242-.828 2.178-.828.9 0 1.656.198 2.43.594l.846-1.764c-.774-.468-1.908-.882-3.366-.882-3.888 0-5.76 3.168-5.76 6.48zm10.373-1.728l.72 1.422c.846-.54 1.746-.828 2.538-.828.918 0 1.278.414 1.296 1.818-1.836.162-3.024.45-3.726.918-.72.468-1.188 1.206-1.188 2.142 0 1.386.9 2.232 2.376 2.232 1.044 0 1.98-.45 2.808-1.206l.378 1.134 1.89-.27-.116-1.922c-.028-.55-.041-.943-.045-1.29l-.001-2.224c0-2.25-.99-3.258-3.132-3.258a6.03 6.03 0 00-3.798 1.332zm2.7 5.994c-.576 0-.828-.306-.828-.864 0-.414.144-.666.396-.828.306-.198.936-.36 2.286-.45v1.368c-.666.504-1.314.774-1.854.774zm8.159-7.272l-1.908.252.12 2.13c.031.649.042 1.082.042 1.488V245h2.394v-6.282c.594-.45 1.242-.72 1.872-.72.828 0 1.08.54 1.08 1.782V245h2.376v-5.886c0-1.962-.828-3.006-2.718-3.006-1.17 0-2.07.414-2.898 1.26l-.36-1.152zm7.673 4.734c0 2.7 1.53 4.248 4.05 4.248a6.67 6.67 0 002.862-.648l-.486-1.656c-.72.252-1.422.378-1.98.378-1.332 0-2.016-.81-2.016-2.574 0-1.008.234-1.818.72-2.232.27-.234.612-.342 1.08-.342.576 0 1.206.18 1.89.594l.9-1.476c-.702-.684-1.62-1.08-2.772-1.08-2.628 0-4.248 1.944-4.248 4.788zm7.871 0c0 2.718 1.62 4.248 4.032 4.248a8.066 8.066 0 003.33-.738l-.504-1.53c-.756.27-1.674.396-2.394.396-1.17 0-1.908-.612-2.052-2.016h5.04c.09-.432.144-1.008.144-1.476 0-2.142-1.08-3.69-3.384-3.69-2.646 0-4.212 2.124-4.212 4.806zm4.068-3.024c.882 0 1.296.558 1.296 1.458 0 .144 0 .342-.018.504h-2.916c.144-1.242.648-1.962 1.638-1.962zm5.225-6.408l2.394-.036v11.016c0 .522.144.738.504.738.162 0 .342-.036.558-.108l.378 1.71a5.03 5.03 0 01-1.89.36c-1.224 0-1.944-.702-1.944-2.052v-11.628z" mask="url(#b)"/>
      <path stroke="#014242" d="M63.18 300.795h459.65M1.03 316.684h583.792" mask="url(#b)"/>
    </g>
    <g fill-rule="nonzero">
      <path fill="#00d36a" d="M368.753 18l229.856 1.477c6.967.044 12.591 5.704 12.591 12.671l.001 40.21c9.57.992 15.802-.68 18.699-5.014-5.608 12.587-11.841 20.807-18.7 24.662v96.94c-.045 6.999-5.755 12.635-12.753 12.59L368.59 200.06c-6.967-.045-12.591-5.705-12.591-12.672V30.591c.045-6.999 5.755-12.636 12.753-12.59z"/>
      <path fill="#014242" d="M407.154 59.982l.031 2.156h6.53v18.48h2.464v-18.48h7.638v18.48h2.433v-11.21c1.325-.925 2.834-1.48 4.312-1.48 1.88 0 2.403 1.202 2.403 3.79v8.9h2.433v-9.794c0-3.203-1.17-5.02-4.25-5.02-1.818 0-3.42.616-4.898 1.755V57.488l-2.433.061v2.433h-16.663zm32.164 8.255l.894 1.509c1.509-1.047 3.141-1.725 4.589-1.725 1.729 0 2.419.98 2.462 3.808l.002.504c-3.327.277-5.36.74-6.591 1.54-1.202.77-1.972 2.002-1.972 3.48 0 2.218 1.448 3.604 3.758 3.604 1.756 0 3.48-.8 5.02-2.156l.4 1.971 2.034-.308-.126-1.909c-.103-1.737-.12-2.669-.12-3.511v-3.696c0-3.789-1.356-5.452-4.436-5.452-2.28 0-4.312.955-5.914 2.34zm3.635 10.78c-1.17 0-1.879-.678-1.879-1.94 0-.925.431-1.51.924-1.88.74-.461 2.125-.831 5.267-1.077v2.895c-1.51 1.324-3.05 2.002-4.312 2.002zm13.037-12.998l-2.033.277.093 1.395c.132 2.118.154 3.256.154 4.18v8.747h2.433V69.746c1.324-1.109 2.772-1.848 4.312-1.848 1.91 0 2.402 1.263 2.402 3.85v8.87h2.433v-9.794c0-3.203-1.108-5.02-4.28-5.02-1.972 0-3.604.77-5.114 2.217l-.4-2.002zm23.417.216l-6.715 7.515V57.488l-2.433.061v23.07h2.433v-3.85l2.249-2.403 4.712 6.252h2.649c-.123-.4-.4-.893-.74-1.324l-5.081-6.591 4.681-5.298c.4-.4.647-.8.709-1.17h-2.464zm20.684 0l-4.035 11.735h-.123a17.892 17.892 0 00-.562-2.22l-3.257-9.515h-2.464c0 .37.06.72.177 1.081l4.843 13.302h.493c-1.57 3.881-3.203 5.575-5.883 5.575v1.94c.34.062.709.093 1.294.093 2.464 0 4.466-1.848 6.345-6.53l5.205-14.106a3.23 3.23 0 00.277-1.355h-2.31zm4.105 7.453c0 4.282 2.372 7.362 6.222 7.362 4.435 0 6.591-3.974 6.591-7.854 0-4.25-2.34-7.392-6.221-7.392-4.436 0-6.592 4.065-6.592 7.884zm10.318-.123c0 1.91-.492 3.48-1.355 4.405-.523.554-1.355.985-2.495.985-2.618 0-4.004-2.31-4.004-5.605 0-2.064.555-3.573 1.386-4.497.555-.524 1.386-.955 2.495-.955 2.618 0 3.973 2.372 3.973 5.667zm6.108-7.3v9.764c0 3.173 1.293 5.02 4.28 5.02 1.88 0 3.45-.831 4.867-2.248l.431 1.94 2.002-.277-.133-2.138a53.796 53.796 0 01-.112-3.123l-.001-8.968h-2.433v10.749c-1.355 1.201-2.68 1.971-4.035 1.971-1.725 0-2.464-1.14-2.464-3.788v-8.963l-2.402.062zm15.87 10.134c.093.708.154 1.478.154 2.156 0 2.094-.646 4.065-2.248 5.667l1.016.862c2.372-1.57 3.604-4.034 3.604-6.652 0-.709-.092-1.51-.246-2.187l-2.28.154zm-118.404 29.436l-4.034 11.735h-.124a17.892 17.892 0 00-.561-2.22l-3.258-9.515h-2.464c0 .37.06.72.178 1.081l4.843 13.302h.492c-1.57 3.881-3.203 5.575-5.882 5.575v1.94c.338.062.708.093 1.293.093 2.464 0 4.466-1.848 6.345-6.53l5.205-14.106a3.23 3.23 0 00.277-1.355h-2.31zm4.106 7.453c0 4.282 2.371 7.362 6.221 7.362 4.435 0 6.591-3.974 6.591-7.854 0-4.25-2.34-7.392-6.221-7.392-4.435 0-6.591 4.065-6.591 7.884zm10.318-.123c0 1.91-.493 3.48-1.356 4.405-.523.554-1.355.985-2.494.985-2.618 0-4.004-2.31-4.004-5.605 0-2.064.554-3.573 1.386-4.497.554-.524 1.386-.955 2.494-.955 2.618 0 3.974 2.372 3.974 5.667zm6.107-7.3v9.764c0 3.173 1.293 5.02 4.281 5.02 1.879 0 3.45-.831 4.866-2.248l.432 1.94 2.002-.277-.134-2.138a53.797 53.797 0 01-.112-3.123v-8.968h-2.434v10.749c-1.355 1.201-2.68 1.971-4.035 1.971-1.725 0-2.464-1.14-2.464-3.788v-8.963l-2.402.062zm21.731 1.972l.894 1.509c1.509-1.047 3.141-1.725 4.589-1.725 1.729 0 2.419.98 2.462 3.808l.002.504c-3.327.277-5.36.74-6.591 1.54-1.202.77-1.972 2.002-1.972 3.48 0 2.218 1.448 3.604 3.758 3.604 1.756 0 3.48-.8 5.02-2.156l.4 1.971 2.034-.308-.126-1.909c-.103-1.737-.12-2.669-.12-3.511v-3.696c0-3.789-1.356-5.452-4.436-5.452-2.28 0-4.312.955-5.914 2.34zm3.635 10.78c-1.17 0-1.879-.678-1.879-1.94 0-.925.431-1.51.924-1.88.74-.461 2.125-.831 5.267-1.077v2.895c-1.51 1.324-3.05 2.002-4.312 2.002zm13.037-12.998l-2.033.277.126 1.958c.103 1.79.12 2.774.12 3.617v8.747h2.434v-9.64c.985-1.756 2.279-2.526 3.665-2.526.616 0 1.109.062 1.663.216l.493-2.218a3.76 3.76 0 00-2.002-.554c-1.632 0-2.957 1.016-3.973 2.834l-.493-2.71zm7.678 7.7c0 4.743 2.71 7.238 6.252 7.238 1.725 0 3.45-.37 5.144-1.17l-.616-1.725c-1.386.554-2.895.77-4.096.77-2.434 0-4.066-1.51-4.25-4.805h9.085c.154-.739.216-1.601.216-2.371 0-3.265-1.725-5.822-5.205-5.822-4.035 0-6.53 3.48-6.53 7.885zm6.345-5.852c1.971 0 2.957 1.417 2.957 3.357 0 .34 0 .709-.031 1.048h-6.776c.308-2.742 1.632-4.405 3.85-4.405zm17.296-1.848l-2.033.277.094 1.395c.131 2.118.153 3.256.153 4.18v8.747h2.433v-10.872c1.324-1.109 2.772-1.848 4.312-1.848 1.91 0 2.402 1.263 2.402 3.85v8.87h2.434v-9.794c0-3.203-1.11-5.02-4.282-5.02-1.97 0-3.603.77-5.112 2.217l-.4-2.002zm13.438 7.67c0 4.28 2.371 7.36 6.221 7.36 4.436 0 6.592-3.973 6.592-7.853 0-4.25-2.341-7.392-6.222-7.392-4.435 0-6.591 4.065-6.591 7.884zm10.318-.124c0 1.91-.493 3.48-1.355 4.405-.524.554-1.356.985-2.495.985-2.618 0-4.004-2.31-4.004-5.605 0-2.064.554-3.573 1.386-4.497.554-.524 1.386-.955 2.495-.955 2.618 0 3.973 2.372 3.973 5.667zm13.776-7.3l-3.357 11.705h-.123l-.585-2.156-2.896-9.58h-2.433c0 .463.123.894.247 1.356l4.342 13.06 2.65-.062 3.202-10.904h.062l.493 1.94 2.71 9.025 2.68-.061 4.343-12.998c.154-.431.277-.924.277-1.355h-2.341l-3.48 11.735h-.124l-.523-2.156-2.741-9.61-2.403.062zm-137.363 43.42c.028 2.059 1.49 3.03 3.377 3.799l1.313.52c1.485.595 2.702 1.189 2.702 2.457 0 1.324-1.263 2.063-2.988 2.063-1.478 0-2.772-.523-4.004-1.324l-1.016 1.632c1.386 1.048 3.08 1.725 5.082 1.725 3.264 0 5.451-1.725 5.451-4.343 0-2.525-2.063-3.418-4.373-4.28l-.636-.251c-1.373-.555-2.444-1.128-2.444-2.306 0-1.109 1.016-1.848 2.587-1.848 1.201 0 2.31.4 3.357 1.078l1.047-1.571a6.894 6.894 0 00-4.373-1.54c-2.772 0-5.144 1.57-5.082 4.189zm13.499-3.82v14.353h2.402v-14.414l-2.402.062zm-.431-4.404c0 .924.646 1.51 1.601 1.51 1.047 0 1.725-.678 1.725-1.695 0-.954-.616-1.57-1.57-1.57-1.048 0-1.756.708-1.756 1.755zm7.986 16.478c0 .616.184 1.109.462 1.479-1.602 1.108-2.618 2.464-2.618 4.25-.031 2.772 2.525 4.374 6.006 4.374 4.096 0 7.207-2.033 7.207-5.421 0-2.755-2.096-3.938-5.468-4.058l-.735-.018c-1.641-.048-2.606-.247-2.606-1.437 0-.524.216-.986.554-1.386.37.061.801.092 1.232.092 3.727 0 5.79-2.372 5.79-5.267 0-1.263-.43-2.433-1.2-3.295a11.486 11.486 0 012.74-.647l-.092-2.095c-1.601.093-2.895.77-3.88 1.725-.832-.462-1.848-.739-3.05-.739-3.88 0-5.728 2.68-5.728 5.39 0 1.879.924 3.542 2.68 4.374-.863.862-1.294 1.663-1.294 2.68zm4.22 8.1c-2.465 0-4.128-.862-4.128-2.648 0-1.263.678-2.249 1.817-3.08.728.242 1.55.296 2.26.306l.297.002c2.525.03 4.342.339 4.342 2.31 0 .862-.37 1.57-1.016 2.125-.832.708-2.156.986-3.573.986zm3.264-15.307c0 2.094-1.324 3.203-3.265 3.203-2.248 0-3.295-1.293-3.295-3.326 0-2.002 1.293-3.203 3.264-3.203 2.218 0 3.296 1.293 3.296 3.326zm8.694-5.113l-2.032.277.093 1.395c.132 2.118.153 3.256.153 4.18v8.747h2.433v-10.872c1.325-1.109 2.772-1.848 4.312-1.848 1.91 0 2.403 1.263 2.403 3.85v8.87h2.433v-9.794c0-3.203-1.109-5.02-4.281-5.02-1.972 0-3.604.77-5.113 2.217l-.4-2.002zm13.438 7.7c0 4.743 2.71 7.238 6.252 7.238 1.725 0 3.45-.37 5.144-1.17l-.616-1.725c-1.386.554-2.895.77-4.096.77-2.434 0-4.066-1.51-4.25-4.805h9.085c.154-.739.216-1.601.216-2.371 0-3.265-1.725-5.822-5.205-5.822-4.035 0-6.53 3.48-6.53 7.885zm6.345-5.852c1.971 0 2.957 1.417 2.957 3.357 0 .34 0 .709-.031 1.048h-6.776c.308-2.742 1.632-4.405 3.85-4.405zm14.238 11.088c-2.248 0-3.419-2.34-3.419-5.544 0-1.817.4-3.542 1.448-4.589.616-.616 1.448-.924 2.68-.924a6.27 6.27 0 013.172.832v8.192c-1.263 1.202-2.526 2.033-3.88 2.033zm-5.913-5.051c0 4.066 2.31 7.146 5.513 7.146 1.786 0 3.234-.924 4.527-2.28l.4 1.972 2.034-.278-.116-1.635a53.753 53.753 0 01-.129-3.035l-.002-18.306-2.433.061v9.271c-.986-.647-1.971-1.016-3.234-1.016-4.435 0-6.591 4.158-6.56 8.1zm16.61-1.663v1.971h6.498v-1.971h-6.498zm10.85-5.975v14.352h2.402v-14.414l-2.402.062zm-.431-4.405c0 .924.647 1.51 1.601 1.51 1.048 0 1.725-.678 1.725-1.695 0-.954-.616-1.57-1.57-1.57-1.048 0-1.756.708-1.756 1.755zm9.249 4.158l-2.033.277.093 1.395c.132 2.118.153 3.256.153 4.18v8.747h2.433v-10.872c1.325-1.109 2.772-1.848 4.312-1.848 1.91 0 2.403 1.263 2.403 3.85v8.87h2.433v-9.794c0-3.203-1.109-5.02-4.281-5.02-1.971 0-3.604.77-5.113 2.217l-.4-2.002zm14.7-6.037l.216 15.277h2.063l.216-15.277h-2.495zm-.431 19.312c0-1.016.708-1.756 1.725-1.756.985 0 1.632.647 1.632 1.602 0 1.109-.678 1.817-1.725 1.817-.955 0-1.632-.647-1.632-1.663z"/>
    </g>
    <path fill="#014242" fill-rule="nonzero" d="M109 586h20v24h-20z"/>
    <path fill="#00d36a" fill-rule="nonzero" d="M141 566h20v44h-20zM173 550h20v60h-20zM77 550h20v60H77zM45 538h20v72H45zM13 550h20v60H13z"/>
    <path fill="#014242" d="M119.513 411.028c31.182 0 56.46 25.174 56.46 56.229 0 35.334-56.46 93.716-56.46 93.716s-56.46-58.57-56.46-93.716c0-31.055 25.278-56.23 56.46-56.23z"/>
    <path fill="#FFF" fill-rule="nonzero" d="M96.419 454.435c0 3.89 2.256 6.789 6.561 6.789 1.573 0 3.105-.352 4.367-.973v-6.127h-2.566v4.637c-.538.082-1.077.144-1.553.144-2.939 0-3.911-2.297-3.911-4.719 0-1.5.348-2.835 1.234-3.78l.173-.173c.58-.58 1.366-.993 2.587-.993 1.076 0 2.008.248 2.98.703l.973-2.007c-1.138-.642-2.38-1.035-3.911-1.035-4.678 0-6.934 3.663-6.934 7.534zm12.915 1.863c0 2.877 1.718 4.988 4.574 4.988 3.209 0 4.968-2.525 4.968-5.444 0-2.856-1.677-5.07-4.554-5.07-3.187 0-4.988 2.628-4.988 5.526zm6.748-.125c0 1.077-.228 1.925-.663 2.443-.227.269-.641.538-1.262.538-1.325 0-2.008-1.283-2.008-3.188 0-1.159.27-2.028.662-2.525.228-.29.642-.538 1.263-.538 1.345 0 2.008 1.366 2.008 3.27zm4.491.125c0 2.877 1.718 4.988 4.574 4.988 3.208 0 4.968-2.525 4.968-5.444 0-2.856-1.677-5.07-4.554-5.07-3.187 0-4.988 2.628-4.988 5.526zm6.747-.125c0 1.077-.227 1.925-.662 2.443-.228.269-.642.538-1.262.538-1.325 0-2.008-1.283-2.008-3.188 0-1.159.269-2.028.662-2.525.228-.29.642-.538 1.263-.538 1.345 0 2.007 1.366 2.007 3.27zm9.128 2.94c-1.2 0-1.821-1.201-1.821-3.147 0-1.014.186-1.966.683-2.545.29-.31.703-.497 1.386-.497a3.8 3.8 0 011.656.393v4.968c-.662.538-1.324.827-1.904.827zm-4.636-2.733c.02 2.836 1.738 4.906 3.994 4.906 1.118 0 2.05-.518 2.877-1.428l.414 1.262 2.194-.29-.112-1.824a36.56 36.56 0 01-.074-2.108v-11.446l-2.753.041v5.94c-.58-.413-1.2-.662-2.007-.662-2.691 0-4.533 2.753-4.533 5.61zM88.76 472.056l-.6 3.001h-1.304v2.111h1.428v4.678c0 2.546 1.014 3.373 2.815 3.373a8.697 8.697 0 003.084-.579l-.456-1.863c-.58.124-1.159.186-1.51.186-.932 0-1.201-.372-1.201-1.862v-3.933h2.939v-2.111h-2.94v-3.001h-2.255zm7.265 3.022v9.914h2.752v-9.956l-2.752.042zm-.125-3.084c0 .828.58 1.386 1.49 1.386.973 0 1.615-.641 1.615-1.552 0-.848-.58-1.428-1.47-1.428-.993 0-1.635.642-1.635 1.594zm7.68 2.897l-2.195.29.09 1.355c.084 1.42.097 2.157.097 2.805v5.65h2.752v-7.223c.642-.496 1.366-.828 2.029-.828.848 0 1.138.58 1.138 2.174v5.878h2.732v-6.665c0-.186 0-.372-.02-.538.641-.497 1.366-.849 2.049-.849.811 0 1.112.53 1.136 1.972l.002 6.08h2.732v-6.665c0-2.36-.952-3.56-2.96-3.56-1.345 0-2.36.518-3.29 1.532-.435-1.014-1.305-1.532-2.609-1.532-1.345 0-2.338.518-3.25 1.49l-.434-1.366zm14.715 5.444c0 3.125 1.863 4.884 4.637 4.884 1.283 0 2.607-.29 3.829-.848l-.58-1.76c-.87.311-1.925.456-2.753.456-1.345 0-2.194-.704-2.36-2.318h5.796c.104-.497.166-1.16.166-1.697 0-2.463-1.242-4.243-3.891-4.243-3.043 0-4.844 2.442-4.844 5.526zm4.678-3.477c1.014 0 1.49.641 1.49 1.676 0 .166 0 .393-.02.58h-3.354c.166-1.428.746-2.256 1.884-2.256zm11.632-4.802l-.6 3.001h-1.304v2.111h1.428v4.678c0 2.546 1.014 3.373 2.815 3.373a8.697 8.697 0 003.084-.579l-.456-1.863c-.58.124-1.159.186-1.51.186-.891 0-1.176-.34-1.2-1.674l-.001-4.12h2.94v-2.112h-2.94v-3.001h-2.256zm6.747 8.237c0 2.877 1.718 4.989 4.575 4.989 3.208 0 4.967-2.526 4.967-5.444 0-2.856-1.677-5.07-4.553-5.07-3.188 0-4.989 2.628-4.989 5.525zm6.748-.124c0 1.077-.228 1.925-.662 2.443-.228.269-.642.538-1.263.538-1.325 0-2.008-1.284-2.008-3.188 0-1.159.27-2.028.663-2.525.227-.29.641-.538 1.262-.538 1.346 0 2.008 1.366 2.008 3.27zm-44.252 18.884l-2.152 7.368h-.083a17.59 17.59 0 00-.497-2.277l-1.51-5.091h-2.795c0 .414.083.807.207 1.18l3.043 8.775 3.042-.041 3.188-8.734c.124-.352.227-.745.227-1.18h-2.67zm4.492.02v9.915h2.753v-9.956l-2.753.042zm-.124-3.083c0 .828.58 1.386 1.49 1.386.973 0 1.614-.641 1.614-1.552 0-.849-.58-1.428-1.47-1.428-.993 0-1.634.642-1.634 1.594zm5.298 5.981c.02 1.547 1.161 2.22 2.477 2.729l.726.278c.888.349 1.578.688 1.578 1.257 0 .58-.662.89-1.573.89-.89 0-1.78-.27-2.628-.766l-.952 1.697c1.055.745 2.338 1.16 3.808 1.16 2.566 0 4.16-1.284 4.16-3.188 0-1.586-1.146-2.254-2.592-2.82l-.913-.35c-.791-.317-1.297-.607-1.297-1.135 0-.455.414-.807 1.304-.807.704 0 1.49.248 2.215.662l.973-1.677c-.87-.641-1.884-1.076-3.23-1.076-2.276 0-4.097 1.2-4.056 3.146zm9.728-2.897v9.914h2.753v-9.956l-2.753.042zm-.124-3.084c0 .828.58 1.386 1.49 1.386.973 0 1.614-.641 1.614-1.552 0-.849-.58-1.428-1.47-1.428-.993 0-1.634.642-1.634 1.594zm6.768.062l-.6 3h-1.304v2.112h1.428v4.678c0 2.546 1.014 3.373 2.815 3.373a8.697 8.697 0 003.084-.58l-.456-1.862c-.58.124-1.159.186-1.51.186-.932 0-1.201-.372-1.201-1.862v-3.933h2.939v-2.111h-2.939v-3.001h-2.256zm7.513-.932l.207 9.728h2.318l.207-9.728H137.4zm-.165 12.584c0-.89.62-1.51 1.552-1.51.91 0 1.51.58 1.51 1.428 0 .972-.62 1.593-1.572 1.593-.89 0-1.49-.6-1.49-1.51z"/>
  </g>
</svg>
